<svg width="42" height="40" viewBox="0 0 42 40" fill="none" xmlns="http://www.w3.org/2000/svg">
<path d="M28.2035 25.741H30.1264C30.1784 25.1781 30.2351 24.6183 30.2902 24.0584C30.4424 22.5151 30.5978 20.9718 30.7465 19.428C30.8775 18.0664 30.9985 16.7048 31.1295 15.3432C31.2605 13.9816 31.4008 12.62 31.5318 11.2584C31.6503 10.0262 31.7589 8.79345 31.8816 7.56173C31.8956 7.41929 31.8421 7.38315 31.7256 7.34859C30.9461 7.11188 30.5396 6.60548 30.4632 5.78643C30.4029 5.13758 30.9585 4.29915 31.5931 4.17871C32.0723 4.08758 32.5692 4.06925 33.0587 4.0614C34.1055 4.04516 35.1527 4.05093 36.1994 4.0614C36.4668 4.06259 36.7332 4.09154 36.9946 4.14781C37.611 4.28082 37.9972 4.6783 38.1479 5.28421C38.3558 6.11687 38.1032 6.74425 37.3844 7.20143C37.2223 7.30617 37.017 7.34021 36.7919 7.42086C37.381 13.5093 37.9712 19.619 38.5626 25.7499H40.6535C40.8266 25.7499 41.0002 25.7452 41.1732 25.7499C41.7023 25.7594 41.9939 26.0411 41.9965 26.5768C42.0032 27.7986 41.9965 29.0204 41.9965 30.2427C41.9965 32.5986 41.9965 34.9552 41.9965 37.3125C41.9965 37.9236 42.0022 38.5342 41.9991 39.1454C41.9954 39.734 41.7236 40 41.1306 40C34.73 40 28.3292 40 21.9283 40C14.9387 40 7.94886 40 0.958895 40C0.269218 39.9953 0 39.7277 0 39.0322C0 35.0089 0 30.9856 0 26.9623C0 26.3904 0.290527 26.0097 0.745287 25.7395C2.30966 24.812 3.8808 23.8956 5.44881 22.9739C7.6521 21.6783 9.85505 20.3821 12.0576 19.0855C12.3217 18.9284 12.5914 18.8818 12.8679 19.0384C13.1797 19.2148 13.2473 19.5202 13.2478 19.8443C13.2509 21.5348 13.2509 23.2254 13.2478 24.9162V25.2456C13.5778 25.0555 13.8824 24.8832 14.1833 24.7057C16.4549 23.3734 18.7261 22.0414 20.9969 20.7094C21.1409 20.6251 21.1965 20.5262 21.2121 20.3607C21.368 18.6603 21.538 16.9604 21.7017 15.2605C21.8015 14.2299 21.8987 13.1987 21.9943 12.1943C21.7287 12.0644 21.4637 11.9754 21.2443 11.8204C20.2932 11.1495 20.3847 9.53865 21.4964 8.99873C21.7635 8.87404 22.0538 8.80765 22.3482 8.80392C23.7452 8.78454 25.1428 8.7814 26.5403 8.80392C27.1682 8.81335 27.7253 9.01811 28.0808 9.60254C28.6369 10.5216 28.1993 11.8356 27.1297 12.0895C27.0554 12.1073 26.9831 12.133 26.8906 12.1608C27.3293 16.6839 27.7648 21.1986 28.2035 25.741ZM19.1259 38.5651H40.5771V27.1639H24.4521C23.7811 27.1639 23.5093 26.8926 23.5093 26.2134C23.5093 24.5376 23.5093 22.8618 23.5093 21.186V20.8592C23.3679 20.9373 23.2765 20.9844 23.1881 21.0368C19.8431 23.0027 16.4909 24.956 13.161 26.9466C12.4937 27.3451 11.7578 27.0749 11.842 26.171C11.8461 26.1275 11.842 26.0835 11.842 26.0401C11.842 24.6436 11.8437 23.2471 11.8472 21.8506V20.8493L11.4761 21.0687C10.3264 21.7453 9.17663 22.4216 8.02665 23.0975C5.8684 24.3658 3.71067 25.6354 1.55346 26.9063C1.5152 26.9341 1.4832 26.9697 1.45955 27.0109C1.43591 27.052 1.42115 27.0978 1.41625 27.1451C1.40118 27.4593 1.41314 27.7735 1.41314 28.0877L1.40846 37.137C1.40846 37.6132 1.40846 38.09 1.40846 38.5672H3.89795V38.2462C3.89795 35.8896 3.89795 33.533 3.89795 31.1764C3.89795 30.5302 4.17288 30.2537 4.81422 30.2537H18.1941C18.8572 30.2537 19.1244 30.5202 19.1244 31.1837C19.1244 33.5313 19.1244 35.879 19.1244 38.2268L19.1259 38.5651ZM32.8623 12.0513C32.4209 16.6207 31.9807 21.179 31.5417 25.7264H37.1495C36.7074 21.1528 36.2667 16.5945 35.8273 12.0513H32.8623ZM17.7076 31.6833H12.3243V38.2514H17.7076V31.6833ZM5.30692 38.2483H10.6908V31.6891H5.30692V38.2483ZM22.6808 19.7066L23.7239 19.0981C24.3315 18.7446 24.8585 19.0268 24.9058 19.7307C24.911 19.8087 24.9058 19.8878 24.9058 19.9663V25.7269H26.7893C26.5008 22.7419 26.215 19.7794 25.9276 16.8069H22.9651C22.8731 17.7627 22.7791 18.7095 22.6808 19.7066ZM25.8164 15.6333C25.7041 14.4697 25.5939 13.3317 25.4853 12.2032H23.4105C23.2978 13.3495 23.186 14.4812 23.0722 15.6333H25.8164ZM32.9813 10.8798H35.7161C35.6023 9.71671 35.4911 8.58397 35.3798 7.45123H33.3009C33.1934 8.60649 33.0873 9.7408 32.9813 10.8798ZM34.3575 6.11426C35.0592 6.11426 35.7608 6.11426 36.4624 6.11426C36.7623 6.11426 36.9302 5.98333 36.9359 5.75291C36.9416 5.52249 36.7737 5.38214 36.4733 5.38162C35.0618 5.38162 33.65 5.38162 32.2381 5.38162C31.9444 5.38162 31.7761 5.52039 31.7776 5.75553C31.7776 5.98124 31.9538 6.11426 32.2532 6.11426C32.9548 6.11356 33.6563 6.11286 34.3575 6.11216V6.11426ZM24.4905 10.1257C23.7728 10.1257 23.0545 10.1179 22.3373 10.1325C22.1955 10.1372 22.0604 10.1945 21.9579 10.2933C21.8929 10.3661 21.8919 10.542 21.9267 10.6504C21.9875 10.8384 22.1596 10.8798 22.3487 10.8793C23.7494 10.8756 25.1506 10.8793 26.5518 10.8756C26.8672 10.8756 27.0315 10.7405 27.0278 10.4912C27.0242 10.242 26.8761 10.1247 26.5658 10.1247C25.8739 10.1243 25.1821 10.1247 24.4905 10.1257Z" fill="#48494B"/>
<path d="M35.3351 3.39001C34.8305 3.39001 34.3716 3.39367 33.9132 3.38582C33.8482 3.38582 33.752 3.34811 33.724 3.29784C33.46 2.81866 33.0296 2.52383 32.5806 2.25727C30.7439 1.16328 28.8515 1.15229 26.9603 2.07555C26.2103 2.44161 25.5185 2.93283 24.8076 3.37744C23.5555 4.15773 22.1861 4.56621 20.7293 4.70446C19.8837 4.78459 19.0511 4.71703 18.245 4.44262C17.6308 4.22707 17.0655 3.89042 16.5819 3.45232C16.1084 3.03337 15.5466 2.98101 14.9707 3.08208C14.2467 3.21143 13.5939 3.53559 13.1226 4.10903C12.8902 4.39077 12.7489 4.76992 12.6397 5.1276C12.5051 5.56803 12.1481 5.83511 11.7042 5.73456C11.4267 5.67171 11.2365 5.41616 11.2687 5.07838C11.3544 4.14307 11.7364 3.35021 12.4781 2.76734C13.5612 1.91897 14.8241 1.71996 16.151 1.81109C16.6416 1.84513 17.0517 2.09283 17.4295 2.39709C18.0943 2.9323 18.8328 3.2507 19.7002 3.30569C21.2937 3.40676 22.7396 2.95011 24.1116 2.19652C24.4656 2.00223 24.7769 1.72887 25.1121 1.49792C26.454 0.576229 27.9436 0.0996729 29.5553 0.0064564C30.3244 -0.0375334 31.0682 0.149423 31.7901 0.379846C33.1279 0.806128 34.2026 1.60109 34.9656 2.8019C35.0264 2.89722 35.0888 2.992 35.1485 3.08784C35.2052 3.17425 35.2572 3.2617 35.3351 3.39001Z" fill="#48494B"/>
<path d="M31.4954 28.6164C33.7905 28.6164 36.0859 28.6164 38.3817 28.6164C38.5517 28.6164 38.7357 28.6284 38.8895 28.6933C39.1863 28.818 39.2897 29.0913 39.2907 29.3961C39.2938 31.1243 39.2938 32.8525 39.2907 34.5806C39.2907 35.1012 39.0012 35.3814 38.4768 35.3819C33.8253 35.384 29.1739 35.384 24.5227 35.3819C23.9947 35.3819 23.7052 35.0939 23.7036 34.5576C23.6981 32.8469 23.6981 31.1362 23.7036 29.4255C23.7036 28.8761 23.9884 28.6143 24.5586 28.6143C26.8693 28.6146 29.1815 28.6153 31.4954 28.6164ZM27.6806 30.0392V33.9538H29.2917V30.0392H27.6806ZM32.1913 30.0392H30.5765V33.9517H32.1913V30.0392ZM33.4781 33.9517H35.0695V30.0408H33.4781V33.9517ZM36.3647 30.0382V33.9522H37.8719V30.0397L36.3647 30.0382ZM25.1157 33.9501H26.3833V30.0382H25.1157V33.9501Z" fill="#48494B"/>
<path d="M34.9568 36.949C34.9559 37.1559 34.8752 37.3544 34.7318 37.5025C34.5883 37.6505 34.3933 37.7366 34.1881 37.7424C33.985 37.7417 33.7902 37.6607 33.6457 37.5169C33.5012 37.3732 33.4184 37.178 33.415 36.9734C33.4117 36.7688 33.4881 36.571 33.6279 36.4225C33.7677 36.274 33.9596 36.1867 34.1626 36.1792C34.5711 36.1635 34.949 36.5295 34.9568 36.949Z" fill="#48494B"/>
<path d="M31.2875 36.1802C31.4924 36.1861 31.6873 36.2708 31.8323 36.4168C31.9772 36.5629 32.0612 36.7592 32.0671 36.9657C32.0671 37.3763 31.6986 37.7444 31.2875 37.7439C31.0823 37.7419 30.8859 37.6592 30.7403 37.5134C30.5947 37.3677 30.5113 37.1704 30.5079 36.9636C30.5131 36.7571 30.5969 36.5605 30.7421 36.4147C30.8873 36.2688 31.0826 36.1848 31.2875 36.1802Z" fill="#48494B"/>
<path d="M36.3133 36.9633C36.3132 36.7564 36.3942 36.5578 36.5386 36.4108C36.6831 36.2637 36.8792 36.1799 37.0845 36.1777C37.5003 36.1777 37.8444 36.5401 37.8413 36.9743C37.8404 37.0754 37.8199 37.1753 37.7807 37.2684C37.7416 37.3615 37.6846 37.4459 37.6131 37.5168C37.5415 37.5877 37.4569 37.6437 37.3639 37.6816C37.2709 37.7195 37.1713 37.7386 37.071 37.7378C36.9707 37.737 36.8715 37.7162 36.7791 37.6768C36.6867 37.6373 36.603 37.5799 36.5326 37.5079C36.4623 37.4358 36.4067 37.3505 36.369 37.2568C36.3314 37.1631 36.3124 37.0628 36.3133 36.9617V36.9633Z" fill="#48494B"/>
<path d="M29.1566 36.9615C29.1578 37.0641 29.1388 37.1658 29.1005 37.2609C29.0623 37.3559 29.0056 37.4423 28.9339 37.515C28.8621 37.5877 28.7767 37.6452 28.6826 37.6843C28.5885 37.7233 28.4876 37.7431 28.3858 37.7424C28.1803 37.7386 27.9846 37.6533 27.8412 37.5049C27.6979 37.3565 27.6185 37.1571 27.6203 36.95C27.6249 36.5311 27.9763 36.1765 28.3822 36.1802C28.5873 36.1816 28.7837 36.2644 28.9286 36.4106C29.0736 36.5569 29.1555 36.7548 29.1566 36.9615Z" fill="#48494B"/>
<path d="M26.2586 36.9596C26.2613 37.1633 26.1835 37.3596 26.0425 37.5054C25.9014 37.6513 25.7087 37.7347 25.5066 37.7373C25.3045 37.74 25.1097 37.6616 24.965 37.5195C24.8202 37.3774 24.7374 37.1832 24.7348 36.9795C24.7291 36.525 25.0732 36.171 25.5144 36.1793C25.7149 36.1862 25.9048 36.2715 26.0438 36.4172C26.1828 36.5629 26.2598 36.7575 26.2586 36.9596Z" fill="#48494B"/>
<path d="M35.1335 20.9236C35.1254 21.1205 35.0421 21.3066 34.9012 21.4432C34.7602 21.5798 34.5724 21.6563 34.3768 21.6568C33.9881 21.6479 33.6331 21.2855 33.6326 20.8975C33.6376 20.6959 33.7209 20.5043 33.8645 20.3639C34.0081 20.2235 34.2006 20.1455 34.4007 20.1465C34.8217 20.1517 35.1398 20.489 35.1335 20.9236Z" fill="#48494B"/>
<path d="M35.1335 18.4939C35.1338 18.5944 35.1143 18.6941 35.0761 18.787C35.0379 18.8798 34.9817 18.9642 34.9109 19.035C34.84 19.1058 34.7559 19.1617 34.6634 19.1994C34.5709 19.2372 34.4719 19.256 34.3721 19.2548C33.9786 19.2443 33.6299 18.8793 33.6377 18.4855C33.6455 18.0917 34.0015 17.7398 34.3975 17.7393C34.5941 17.742 34.7817 17.8228 34.9195 17.9641C35.0573 18.1054 35.1342 18.2958 35.1335 18.4939Z" fill="#48494B"/>
<path d="M35.1335 16.1115C35.1334 16.2097 35.1137 16.307 35.0757 16.3975C35.0377 16.488 34.9821 16.5699 34.9123 16.6384C34.8424 16.707 34.7596 16.7608 34.6688 16.7966C34.5781 16.8325 34.4811 16.8497 34.3836 16.8473C33.9798 16.841 33.6357 16.4922 33.6419 16.0937C33.6465 15.8956 33.726 15.7068 33.8643 15.566C34.0026 15.4252 34.1892 15.3431 34.3857 15.3364C34.4853 15.3377 34.5838 15.3587 34.6753 15.3983C34.7669 15.438 34.8498 15.4955 34.9193 15.5675C34.9888 15.6395 35.0435 15.7246 35.0803 15.818C35.117 15.9113 35.1351 16.0111 35.1335 16.1115Z" fill="#48494B"/>
<path d="M6.88581 36.0001C6.90805 35.9044 6.93813 35.8107 6.97572 35.72C7.30488 35.0392 7.63803 34.3605 7.97515 33.6839C8.01185 33.6044 8.06374 33.5331 8.12786 33.4739C8.19197 33.4147 8.26705 33.3688 8.34878 33.3389C8.43052 33.3089 8.51731 33.2956 8.60418 33.2995C8.69106 33.3034 8.77631 33.3246 8.85505 33.3618C9.011 33.4342 9.13204 33.5661 9.19158 33.7284C9.25112 33.8907 9.2443 34.0702 9.1726 34.2274C8.82959 34.9606 8.4663 35.6817 8.09469 36.3997C7.95281 36.6731 7.62694 36.7757 7.33017 36.6862C7.07135 36.606 6.88165 36.3342 6.88581 36.0001Z" fill="#48494B"/>
</svg>
