<svg width="48" height="30" viewBox="0 0 48 30" fill="none" xmlns="http://www.w3.org/2000/svg">
<path d="M44.1052 12.7186L42.877 7.80567C43.2123 7.73435 43.4642 7.43609 43.4642 7.07947V6.28751C43.4642 4.56743 42.0656 3.16877 40.3455 3.16877H34.7518V1.53483C34.7518 0.688217 34.0635 0 33.2169 0H4.70267C3.85606 0 3.16784 0.688217 3.16784 1.53483V15.0009C3.16784 15.4113 3.50037 15.7438 3.91071 15.7438C4.32104 15.7438 4.65357 15.4113 4.65357 15.0009V1.53575C4.65357 1.50797 4.67581 1.48666 4.70267 1.48666H33.2169C33.2447 1.48666 33.266 1.50889 33.266 1.53575V15.0009C33.266 15.4113 33.5985 15.7438 34.0089 15.7438C34.4192 15.7438 34.7518 15.4113 34.7518 15.0009V14.1589H43.5115C43.5124 14.1589 43.5124 14.1589 43.5133 14.1589C43.5143 14.1589 43.5143 14.1589 43.5152 14.1589C44.5934 14.1599 45.5085 14.8675 45.8225 15.842H43.5133C43.103 15.842 42.7705 16.1745 42.7705 16.5848V18.1688C42.7705 19.4517 43.8144 20.4956 45.0973 20.4956H45.9392V23.7625H43.9978C43.3596 21.9211 41.6089 20.5947 39.5535 20.5947C37.4981 20.5947 35.7466 21.9211 35.1093 23.7625H34.7518V18.1688C34.7518 17.7584 34.4192 17.4259 34.0089 17.4259C33.5985 17.4259 33.266 17.7584 33.266 18.1688V23.7625H17.8603C17.2221 21.9211 15.4715 20.5947 13.4161 20.5947C11.3607 20.5947 9.60911 21.9211 8.97184 23.7625H4.70267C4.67488 23.7625 4.65357 23.7403 4.65357 23.7134V22.0795H7.87143C8.28177 22.0795 8.6143 21.7469 8.6143 21.3366C8.6143 20.9263 8.28177 20.5937 7.87143 20.5937H0.742868C0.332531 20.5937 0 20.9263 0 21.3366C0 21.7469 0.332531 22.0795 0.742868 22.0795H3.16877V23.7134C3.16877 24.56 3.85698 25.2482 4.70359 25.2482H8.71434C8.71434 25.2649 8.71341 25.2807 8.71341 25.2973C8.71341 27.8909 10.8235 30 13.4161 30C16.0087 30 18.1187 27.89 18.1187 25.2973C18.1187 25.2807 18.1178 25.264 18.1178 25.2482H34.8527C34.8527 25.2649 34.8518 25.2807 34.8518 25.2973C34.8518 27.8909 36.9618 30 39.5545 30C42.148 30 44.2571 27.89 44.2571 25.2973C44.2571 25.2807 44.2562 25.264 44.2562 25.2482H46.683C47.0934 25.2482 47.4259 24.9157 47.4259 24.5054V16.5848C47.425 14.6295 45.9818 13.0048 44.1052 12.7186ZM34.7518 7.82327H41.3505L42.563 12.6751H34.7518V7.82327ZM40.3455 4.6545C41.2458 4.6545 41.9794 5.38718 41.9794 6.28844V6.33753H34.7518V4.6545H40.3455ZM13.4161 28.5152C11.6423 28.5152 10.1982 27.0721 10.1982 25.2973C10.1982 23.5226 11.6413 22.0795 13.4161 22.0795C15.1908 22.0795 16.6339 23.5226 16.6339 25.2973C16.633 27.0721 15.1899 28.5152 13.4161 28.5152ZM39.5535 28.5152C37.7797 28.5152 36.3357 27.0721 36.3357 25.2973C36.3357 23.5226 37.7788 22.0795 39.5535 22.0795C41.3273 22.0795 42.7714 23.5226 42.7714 25.2973C42.7714 27.0721 41.3283 28.5152 39.5535 28.5152ZM45.0982 19.0107C44.6341 19.0107 44.2562 18.6328 44.2562 18.1688V17.3268H45.9392V19.0098H45.0982V19.0107Z" fill="#48494B"/>
<path d="M13.422 23.7637C12.5754 23.7637 11.8872 24.4519 11.8872 25.2985C11.8872 26.1451 12.5754 26.8333 13.422 26.8333C14.2686 26.8333 14.9569 26.1451 14.9569 25.2985C14.9569 24.4519 14.2677 23.7637 13.422 23.7637Z" fill="#48494B"/>
<path d="M39.5539 23.7637C38.7073 23.7637 38.019 24.4519 38.019 25.2985C38.019 26.1451 38.7073 26.8333 39.5539 26.8333C40.4005 26.8333 41.0887 26.1451 41.0887 25.2985C41.0887 24.4519 40.4005 23.7637 39.5539 23.7637Z" fill="#48494B"/>
<path d="M19.0129 21.3376C19.0129 21.7479 19.3455 22.0805 19.7558 22.0805H30.8451C31.2554 22.0805 31.588 21.7479 31.588 21.3376C31.588 20.9273 31.2554 20.5947 30.8451 20.5947H19.7549C19.3455 20.5947 19.0129 20.9273 19.0129 21.3376Z" fill="#48494B"/>
<path d="M2.3249 18.912H11.8293C12.2397 18.912 12.5722 18.5795 12.5722 18.1691C12.5722 17.7588 12.2397 17.4263 11.8293 17.4263H2.3249C1.91456 17.4263 1.58203 17.7588 1.58203 18.1691C1.58203 18.5795 1.91456 18.912 2.3249 18.912Z" fill="#48494B"/>
</svg>
