<svg width="40" height="40" viewBox="0 0 40 40" fill="none" xmlns="http://www.w3.org/2000/svg">
<path d="M30.3665 40C29.9812 39.9656 29.5959 39.9387 29.2117 39.8925C27.5924 39.6935 26.0036 39.2981 24.4805 38.715C21.3217 37.5473 18.437 35.8827 15.739 33.8934C13.4697 32.2067 11.3811 30.2911 9.50656 28.1771C7.51327 25.9567 5.65488 23.634 4.05334 21.1135C2.66117 18.9242 1.47944 16.6414 0.721842 14.1553C0.234042 12.5574 -0.0541053 10.9294 0.0084885 9.25197C0.0818744 7.2573 0.566437 5.38091 1.75032 3.73571C3.05076 1.93459 4.84332 0.84532 6.96935 0.271113C7.7248 0.0678821 8.48024 -0.0514755 9.26806 0.0216445C10.671 0.154981 11.7362 0.818437 12.3643 2.09266C12.9568 3.29269 13.3669 4.56584 13.7489 5.84114C14.336 7.8057 14.8853 9.78101 15.4551 11.7553C15.476 11.8118 15.4784 11.8735 15.4619 11.9314C15.4454 11.9894 15.4109 12.0406 15.3634 12.0778C14.0381 13.4162 12.7136 14.7575 11.3898 16.1016C11.3396 16.1383 11.3054 16.1926 11.2942 16.2536C11.283 16.3146 11.2955 16.3775 11.3293 16.4296C13.1521 20.2458 15.6947 23.4856 19.0845 26.0438C20.3982 27.0465 21.8575 27.8442 23.4121 28.4094C23.4684 28.4364 23.5322 28.4435 23.5931 28.4294C23.6539 28.4153 23.7081 28.3809 23.7467 28.332C24.8723 27.2008 26.0043 26.0739 27.1321 24.9491C27.1674 24.905 27.2141 24.8714 27.2671 24.8518C27.3202 24.8323 27.3777 24.8277 27.4332 24.8384C30.0978 25.3319 32.7612 25.8265 35.3902 26.4879C36.0809 26.6621 36.7672 26.8578 37.4407 27.0825C38.9073 27.5707 39.6757 28.6438 39.9142 30.1277C40.1894 31.8482 39.789 33.4321 38.9073 34.916C37.772 36.8204 36.2611 38.3193 34.2106 39.2408C33.2605 39.6677 32.2384 39.9132 31.1975 39.9645C31.1101 39.9645 31.0226 39.9871 30.9363 39.9989L30.3665 40ZM1.8917 9.51326C1.8917 9.64875 1.8863 9.78531 1.8917 9.91973C1.97588 11.6886 2.39677 13.3865 3.0022 15.0403C4.41488 18.892 6.583 22.2953 9.24755 25.3954C10.7347 27.1234 12.3956 28.6761 14.1148 30.1686C16.3714 32.1256 18.7553 33.9128 21.3681 35.3698C23.8902 36.7752 26.5299 37.843 29.4362 38.1516C30.7798 38.2924 32.0867 38.1516 33.3278 37.6042C35.5132 36.644 37.0057 34.9999 37.9339 32.8364C38.2813 32.0166 38.3458 31.1052 38.1173 30.2449C37.9263 29.4761 37.5076 28.9094 36.6993 28.6965C36.5158 28.6481 36.3377 28.5793 36.1543 28.5288C33.4811 27.7879 30.7582 27.2879 28.0333 26.7728C27.9815 26.7625 27.9279 26.7671 27.8788 26.7862C27.8297 26.8052 27.787 26.8379 27.7559 26.8803C26.6875 27.9341 25.6184 28.9868 24.5485 30.0385C24.3801 30.2041 24.2247 30.4578 24.0251 30.4955C23.8254 30.5331 23.5653 30.3772 23.3376 30.2922C20.7659 29.3352 18.4812 27.9062 16.4253 26.1061C13.1953 23.277 10.7897 19.8694 9.27022 15.8532C9.24364 15.8005 9.23633 15.7402 9.24952 15.6827C9.26272 15.6252 9.2956 15.5741 9.34252 15.5381C10.657 14.222 11.9693 12.9033 13.2795 11.5821C13.3263 11.5444 13.3599 11.4929 13.3756 11.4349C13.3913 11.377 13.3882 11.3156 13.3669 11.2595C12.96 9.84123 12.5855 8.41431 12.1538 7.00353C11.7794 5.78199 11.3574 4.57444 10.929 3.37011C10.6699 2.64214 10.1077 2.22707 9.36734 2.04642C8.67464 1.88138 7.94888 1.91871 7.27693 2.15395C4.52064 3.08516 1.8345 5.49812 1.8917 9.51326Z" fill="#48494B"/>
</svg>
