<svg width="40" height="49" viewBox="0 0 40 49" fill="none" xmlns="http://www.w3.org/2000/svg">
<path d="M4.35249 48.2621V47.831H3.92144V47.372C3.82446 47.372 3.74795 47.3666 3.67144 47.372C3.54212 47.3849 3.49578 47.3353 3.49686 47.2017C3.49686 46.7836 3.49147 46.3655 3.49147 45.9484C3.49147 44.0195 3.49147 42.0902 3.49147 40.1606V39.5808H3.06043V39.9925H2.19834L2.17894 40.416H0.454754V40.0011H0V39.4407C0.00646569 37.5175 0.012213 35.5944 0.0172418 33.6712C0.0172418 33.5192 0.0732778 33.4664 0.213368 33.4869C0.381476 33.5106 0.428891 33.4427 0.428891 33.2714C0.42458 30.3604 0.42458 27.4508 0.428891 24.5427V23.492C0.679975 23.4802 0.899809 23.4618 1.11964 23.464C1.25434 23.464 1.319 23.4327 1.30068 23.2883C1.29631 23.2051 1.29631 23.1216 1.30068 23.0383H2.19295C2.19295 22.9306 2.19295 22.8444 2.19295 22.7582C2.1854 22.6504 2.23174 22.6148 2.3395 22.6159C2.68973 22.6159 3.04103 22.6105 3.39233 22.6073C3.41927 22.6073 3.44621 22.6073 3.4904 22.6008V15.2256L3.92144 15.1955V14.3474H4.36434V13.9163H5.21997V13.4626C5.45704 13.4626 5.67795 13.4519 5.89779 13.4626C6.05512 13.4723 6.11331 13.4185 6.09068 13.2654C6.08646 13.1937 6.08646 13.1217 6.09068 13.0499H6.54328V12.6081H7.40537V12.1695H8.26746V11.7191C8.51208 11.7191 8.73838 11.7115 8.96468 11.7191C9.10154 11.7255 9.14572 11.676 9.13171 11.5466C9.12417 11.4701 9.13171 11.3925 9.13171 11.2956H9.58431V10.8731H10.4464V10.4324H11.3085V9.97764C11.5488 9.97764 11.7697 9.9701 11.9895 9.97764C12.1329 9.98518 12.2051 9.94639 12.1792 9.79337C12.1743 9.71442 12.1743 9.63524 12.1792 9.55629H12.634V9.12525H13.4961V8.6942H14.3581V8.26315H14.7892C14.8075 8.23514 14.8172 8.22652 14.8183 8.21682C14.8323 8.09828 14.8054 7.94095 14.8711 7.86982C14.9368 7.7987 15.0866 7.84288 15.2052 7.83534C15.3593 7.82564 15.5133 7.8181 15.6825 7.80948V7.3946H16.5446V6.9517H17.4067V6.51526H17.8722C17.8722 6.42582 17.8787 6.35362 17.8722 6.28358C17.8561 6.14025 17.9067 6.08206 18.0587 6.09068C18.2742 6.10146 18.4897 6.09068 18.7257 6.09068V5.65101H19.5878V5.21027H20.4499V4.77384H20.9133C20.9133 4.66607 20.9133 4.57771 20.9133 4.49042C20.9133 4.40314 20.9532 4.35141 21.0523 4.35249C21.2851 4.35249 21.5178 4.35249 21.7689 4.35249V3.90743H22.631V3.46561H23.4931V3.03456H23.9511C23.9511 2.9268 23.9511 2.83628 23.9511 2.74361C23.9511 2.65093 23.9856 2.60675 24.0869 2.60891C24.3196 2.61429 24.5535 2.60891 24.8056 2.60891V2.17139H25.6677V1.71449C25.9005 1.71449 26.116 1.70587 26.3294 1.71449C26.4856 1.72311 26.5611 1.68108 26.5363 1.51405C26.532 1.44227 26.532 1.3703 26.5363 1.29853H26.9921V0.862092H27.8542V0.431046H28.7077C28.7141 0.283413 28.7206 0.153021 28.7281 0H30.9071C30.9071 0.239231 30.9135 0.471996 30.9071 0.703683C30.9017 0.831919 30.9491 0.86748 31.0698 0.864248C31.3532 0.856704 31.3209 0.851316 31.3209 1.11641C31.3209 3.56403 31.3209 6.0113 31.3209 8.4582V8.67911H31.7778C31.7778 8.58321 31.7832 8.49053 31.7778 8.39893C31.7724 8.30734 31.8123 8.261 31.9136 8.26315C32.1463 8.26315 32.3802 8.26315 32.6302 8.26315V7.82349H33.4923V7.39244H33.947C33.947 7.31809 33.9557 7.26421 33.9557 7.21032C33.9557 6.96894 33.9557 6.97217 34.2067 6.96786C34.4007 6.96786 34.5947 6.9517 34.807 6.942V6.51742H35.6691V6.08637H36.1001V5.65532H36.9622V5.2135H37.8308V4.78353H39.569V5.19734H40V7.36442L39.569 7.38705C39.569 7.57887 39.569 7.76637 39.569 7.95388C39.569 8.14138 39.5571 8.34398 39.5603 8.53902C39.5603 8.63924 39.5291 8.68342 39.4256 8.67588C39.3222 8.66834 39.2489 8.67588 39.1401 8.67588V9.54767C39.0776 9.55521 39.0323 9.56491 38.9935 9.56599C38.7166 9.57461 38.7155 9.57461 38.7155 9.84294C38.7155 10.1748 38.7155 10.5078 38.7155 10.8581H38.265C38.265 11.0509 38.265 11.2266 38.265 11.4033C38.265 11.5984 38.2489 11.7934 38.2564 11.9874C38.2618 12.1221 38.2176 12.1706 38.0851 12.1566C38.0096 12.149 37.9321 12.1566 37.8361 12.1566V13.0391C37.7586 13.0391 37.6993 13.0499 37.6411 13.051C37.4105 13.051 37.4105 13.051 37.4105 13.2902V14.3441H36.973V15.6373L36.5182 15.6588V16.6966C36.5182 16.939 36.5182 16.939 36.2725 16.9423C36.223 16.9423 36.1734 16.9423 36.1044 16.9498V17.8216L35.6734 17.8442V19.1158L35.2186 19.1374V20.2085C35.2186 20.424 35.2186 20.424 35.0031 20.424H34.8037V21.3023C34.7326 21.3023 34.6787 21.3152 34.6259 21.3152C34.3501 21.3152 34.3802 21.2926 34.3792 21.5728C34.3792 21.9112 34.3792 22.2484 34.3792 22.6051H33.9233C33.9233 22.798 33.9233 22.9737 33.9233 23.1439C33.9233 23.339 33.9072 23.534 33.9147 23.7291C33.9147 23.8616 33.8781 23.9134 33.7444 23.8994C33.6612 23.8949 33.5777 23.8949 33.4944 23.8994V24.7852C33.4076 24.7901 33.3205 24.7901 33.2337 24.7852C33.0957 24.769 33.0634 24.8293 33.0666 24.9576C33.0742 25.324 33.0666 25.6914 33.0666 26.0794H32.6226V27.3725L32.1679 27.3941C32.1679 27.7443 32.1679 28.088 32.1679 28.4307C32.1679 28.6743 32.1679 28.6743 31.9233 28.6775C31.8737 28.6775 31.8231 28.6775 31.7541 28.685V29.5568L31.323 29.5795V33.0278L30.8995 33.058C30.8866 33.336 30.8748 33.6065 30.8618 33.905H30.0191V34.363C29.7745 34.363 29.5482 34.3695 29.323 34.363C29.1904 34.3576 29.1366 34.3975 29.1516 34.5322C29.1566 34.6162 29.1566 34.7004 29.1516 34.7843H28.6947V35.2154H27.8434V35.6464H26.9813V36.1001C26.7421 36.1001 26.5212 36.1098 26.3014 36.1001C26.1429 36.0893 26.0858 36.1454 26.1085 36.2973C26.1127 36.3691 26.1127 36.4411 26.1085 36.5128H25.6559V36.9493H24.7938V37.3933H23.9317V37.8243H23.4726C23.4726 37.918 23.4662 38 23.4726 38.0797C23.4866 38.2155 23.4263 38.2543 23.298 38.25C23.0825 38.2424 22.8551 38.25 22.6138 38.25V38.6864H21.7517V39.1239H20.9003V39.5549H20.4693C20.4531 39.5819 20.4434 39.5905 20.4424 39.6002C20.4284 39.7198 20.4553 39.8761 20.3896 39.9472C20.3238 40.0183 20.174 39.9741 20.0544 39.9806L19.5803 40.0075V40.4235H18.7096V40.8643H17.8582V41.2953H17.4272C17.417 41.31 17.4087 41.3259 17.4024 41.3427C17.3916 41.4569 17.4218 41.6121 17.3593 41.6757C17.2968 41.7393 17.1438 41.7102 17.0274 41.7177C16.8733 41.7285 16.7181 41.736 16.5446 41.7457V42.166H15.6825V42.6024H14.8204V43.0335H14.3549C14.3549 43.1348 14.3549 43.2167 14.3549 43.2986C14.3635 43.4139 14.3183 43.4591 14.2008 43.4559C13.9734 43.4495 13.7471 43.4559 13.5004 43.4559V43.902H12.6383V44.3428H11.7762V44.7738H11.3171C11.3171 44.8816 11.3171 44.9732 11.3171 45.0648C11.3171 45.1564 11.2859 45.2038 11.1835 45.2017C10.9496 45.1963 10.7169 45.2017 10.4636 45.2017V45.6402H9.60155V46.0982C9.36448 46.0982 9.14249 46.109 8.92373 46.0982C8.76209 46.0875 8.7136 46.1478 8.73192 46.2976C8.73622 46.3694 8.73622 46.4413 8.73192 46.5131H8.25346C8.25346 46.6209 8.24699 46.7071 8.25346 46.7933C8.26423 46.914 8.21251 46.9474 8.09828 46.9431C7.8709 46.9366 7.64352 46.9431 7.39567 46.9431V47.3871H6.53358V47.8278H5.65748V48.2588L4.35249 48.2621ZM7.39352 44.7803H8.26531V44.3493H9.14357V43.9031C9.38495 43.9031 9.60694 43.8945 9.82893 43.9031C9.96686 43.9107 10.0089 43.8589 9.99596 43.7307C9.99157 43.6456 9.99157 43.5604 9.99596 43.4753H10.4486V43.0443H11.3257V42.5971H12.1878V42.1563C12.44 42.1563 12.6728 42.1563 12.9055 42.1563C13.0068 42.1563 13.0478 42.1229 13.0413 42.0205C13.0348 41.9182 13.0413 41.8363 13.0413 41.7307H13.4982V41.2996H14.3603V40.861H15.2224V40.4407L15.7062 40.4149C15.8215 40.4084 15.9843 40.4451 16.0403 40.3847C16.0963 40.3244 16.0759 40.1563 16.0877 40.0366C16.0944 40.0197 16.1027 40.0035 16.1125 39.9881H16.5436V39.5646L16.9466 39.5409C16.9466 39.4989 16.9552 39.4774 16.9552 39.4558C16.9552 36.496 16.9552 33.5361 16.9552 30.5763C16.9552 30.4459 16.9013 30.4168 16.786 30.4168C16.5479 30.4168 16.5479 30.4103 16.5479 30.1786L16.5414 18.4574C16.5414 15.5529 16.5414 12.649 16.5414 9.74595V9.55737H15.6567V9.98842H14.7946V10.427H13.9325V10.8645H13.4691C13.4777 11.0218 13.4864 11.1598 13.4939 11.2956H12.6081V11.7266H11.746V12.1674H10.8839V12.5984H10.4248C10.4248 12.6911 10.4184 12.7633 10.4248 12.8344C10.441 12.9777 10.3774 13.0187 10.2417 13.0133C10.0261 13.0047 9.79983 13.0133 9.56168 13.0133V13.4702H8.69959V13.9109H7.8375V14.342H7.38382C7.37889 14.4234 7.37889 14.5051 7.38382 14.5866C7.40106 14.7288 7.34071 14.7687 7.20386 14.7633C6.97864 14.7526 6.75234 14.7633 6.5088 14.7633V15.2213H5.6467V15.6437L5.24152 15.6642V46.0691H6.09607V45.6381H6.95816V45.2135H7.41184L7.39352 44.7803ZM32.6334 10.4378H31.753V10.8688H30.9114C30.892 11.0262 30.8769 11.1555 30.8618 11.2837H29.5601V11.4992C29.5601 11.7234 29.5601 11.7234 29.3445 11.7234H28.698V12.1544C28.4641 12.1652 28.2475 12.1868 28.0331 12.1803C27.8801 12.1803 27.8348 12.2277 27.8488 12.3721C27.8494 12.4547 27.8437 12.5372 27.8316 12.6189C27.8229 12.746 27.8617 12.9206 27.7939 12.9863C27.726 13.0521 27.5482 13.0294 27.3994 13.0467V13.4917H26.9684V14.7633L26.5374 14.7827V16.0694L26.1063 16.0953V17.3733L25.6623 17.3927C25.6623 17.7763 25.6559 18.147 25.6623 18.5091C25.6623 18.6449 25.6192 18.6902 25.4899 18.6772C25.4052 18.6728 25.3203 18.6728 25.2356 18.6772V19.5706C25.1278 19.5706 25.0556 19.5706 24.978 19.5706C24.8573 19.5598 24.8089 19.5986 24.8132 19.729C24.8196 19.9337 24.8067 20.1406 24.8045 20.3465C24.8045 20.5167 24.8045 20.687 24.8045 20.8594L24.3595 20.8799V22.1547L23.9166 22.1784C23.9166 22.5631 23.9166 22.9327 23.9166 23.297C23.9166 23.4209 23.8746 23.4705 23.7506 23.4597C23.6709 23.4532 23.5901 23.4597 23.4899 23.4597V24.3423L23.0588 24.3627V25.6343L22.6159 25.658C22.6159 26.0481 22.6159 26.421 22.6159 26.7927C22.6159 26.9113 22.5782 26.9555 22.4618 26.9447C22.381 26.9382 22.298 26.9447 22.1913 26.9447V27.838C22.089 27.838 22.0114 27.838 21.9338 27.838C21.8152 27.8273 21.7635 27.8639 21.7678 27.9943C21.7743 28.2098 21.7603 28.4178 21.7581 28.629C21.7581 28.7939 21.7581 28.9577 21.7581 29.1398H21.3098C21.3098 29.5299 21.3098 29.9017 21.3098 30.2734C21.3098 30.3877 21.2786 30.4383 21.159 30.4275C21.0728 30.42 20.9866 30.4275 20.882 30.4275V31.3198C20.7743 31.3198 20.6848 31.3252 20.5975 31.3198C20.5103 31.3144 20.4618 31.3565 20.4628 31.4567C20.4628 31.6517 20.4553 31.8468 20.4531 32.0418C20.451 32.2369 20.4531 32.4168 20.4531 32.6086L20.0102 32.628V33.9039L19.5652 33.9255C19.5652 34.3091 19.5652 34.6798 19.5652 35.0419C19.5652 35.1626 19.5307 35.2197 19.4035 35.2089C19.3227 35.2014 19.2419 35.2089 19.1406 35.2089V36.1044H18.7096V37.3857L18.285 37.4094V38.6875H18.7236V38.2564H19.5749V37.8254H20.0296C20.0335 37.7575 20.0335 37.6895 20.0296 37.6217C20.0059 37.4579 20.0566 37.39 20.2365 37.4062C20.4521 37.4234 20.6676 37.4062 20.8982 37.4062V36.9482H21.7603V36.5172H22.1989C22.2034 36.4454 22.2034 36.3734 22.1989 36.3016C22.1773 36.1378 22.2452 36.0861 22.4058 36.0947C22.6213 36.1066 22.8368 36.0947 23.0674 36.0947V35.6357H23.9295V35.1949C24.1763 35.1949 24.4037 35.1895 24.6311 35.1949C24.7517 35.1949 24.7905 35.154 24.7819 35.0397C24.7744 34.9535 24.7819 34.8673 24.7819 34.766H25.2421V34.335H26.1042V33.8921H26.9662V33.461H27.4167V33.03H28.2788V32.586H29.1549C29.1549 31.9804 29.1549 31.4006 29.1549 30.823C29.1549 30.6851 29.1387 30.5472 29.1312 30.4103L29.5622 30.4448C29.5622 29.9749 29.5622 29.5385 29.5622 29.1032L30.0202 29.1387V28.2626C30.1117 28.2495 30.2038 28.2413 30.2961 28.2378C30.3931 28.2378 30.4329 28.2087 30.4329 28.1053C30.4329 27.7195 30.4416 27.3337 30.4469 26.9479H30.878V25.6472H31.3177C31.3177 25.4802 31.3177 25.3315 31.3177 25.1817C31.3177 24.9005 31.3112 24.6181 31.3069 24.3369L31.7552 24.3703V23.4662H32.1862V22.173H32.6173C32.6173 22.0168 32.6173 21.8734 32.6173 21.7312C32.6173 21.4438 32.6173 21.1565 32.6173 20.8691L33.0602 20.8896V20.0038L33.4912 19.9844V18.6891H33.9363C33.9363 18.3108 33.9438 17.9552 33.9363 17.6007C33.9363 17.4444 33.9707 17.3712 34.1378 17.3938C34.2137 17.3966 34.2897 17.3934 34.3652 17.3841V16.5026C34.4484 16.4982 34.5319 16.4982 34.6152 16.5026C34.7477 16.5166 34.7919 16.467 34.7865 16.3334C34.779 16.133 34.793 15.9325 34.7962 15.7321C34.7962 15.5618 34.7962 15.3905 34.7962 15.203H35.238V13.9217L35.6863 13.9002C35.6863 13.5327 35.6939 13.1825 35.6863 12.8322C35.6809 12.6674 35.7229 12.5898 35.9018 12.6167C35.9738 12.6201 36.0459 12.6172 36.1174 12.6081V11.7245H36.5484V10.441L36.9967 10.4195V9.38818C36.9967 9.13926 36.9967 9.14033 37.2381 9.1371C37.292 9.1371 37.3458 9.13063 37.418 9.12525V8.24376H37.8243V7.38166H36.9514V7.81271H36.1141V8.24376H36.5312V9.98195L36.0915 10.0035C36.0915 10.3936 36.0915 10.7665 36.0915 11.1393C36.0915 11.2471 36.0613 11.2945 35.9492 11.2859C35.863 11.2794 35.7747 11.2859 35.6658 11.2859V12.1771C35.5581 12.1771 35.4805 12.1824 35.3997 12.1771C35.2865 12.1674 35.2402 12.2051 35.2434 12.3268C35.2434 12.5424 35.2359 12.7493 35.2326 12.9605C35.2326 13.1254 35.2326 13.2913 35.2326 13.4605L34.7843 13.482V14.5176C34.7843 14.7633 34.7843 14.7633 34.5462 14.7666C34.4923 14.7666 34.4384 14.772 34.3587 14.7763V15.6588C34.2563 15.6588 34.1776 15.6642 34.1011 15.6588C33.9772 15.647 33.9341 15.6922 33.9384 15.8194C33.9449 16.0252 33.9319 16.231 33.9298 16.4369C33.9298 16.6071 33.9298 16.7774 33.9298 16.9649H33.4901V18.244L33.0515 18.2677V19.5436L32.6205 19.5652V20.8659H32.1894V22.1698L31.7444 22.1482V23.048C31.6442 23.048 31.5655 23.0545 31.4901 23.048C31.3651 23.0351 31.3274 23.0836 31.3274 23.2075C31.3274 23.5847 31.3187 23.9619 31.3133 24.3401H30.8823V25.6472H30.4513V26.9587L30.0202 26.9361C30.0202 27.4016 30.0202 27.838 30.0202 28.2734L29.5622 28.2281V29.1139L29.1312 29.1473V30.4211L28.6872 30.4426C28.6872 30.809 28.6775 31.1592 28.6872 31.5084C28.6937 31.684 28.6322 31.7315 28.4717 31.7239C28.2637 31.7099 28.0536 31.7239 27.8251 31.7239V32.183H26.963V32.614H26.5201V33.0451H25.6645V33.4761H25.2162C25.2118 33.5601 25.2118 33.6443 25.2162 33.7283C25.2313 33.8619 25.1806 33.905 25.047 33.8996C24.8218 33.8888 24.5955 33.8996 24.353 33.8996V34.3619C24.103 34.3619 23.8703 34.3619 23.6375 34.3619C23.5373 34.3619 23.4931 34.3921 23.4996 34.4955C23.506 34.599 23.4996 34.6809 23.4996 34.7887H23.0459V35.2197H22.1838V35.6507H21.7366V36.0818H20.8745V36.5128H20.4262C20.4262 36.6206 20.4316 36.7154 20.4262 36.8081C20.4251 36.8287 20.4199 36.8489 20.4108 36.8674C20.4017 36.8859 20.389 36.9024 20.3734 36.9159C20.3392 36.9391 20.2992 36.9523 20.2579 36.9541C20.2167 36.9559 20.1757 36.9462 20.1396 36.9261C20.1035 36.906 20.0737 36.8762 20.0535 36.8402C20.0334 36.8041 20.0236 36.7632 20.0253 36.7219C20.0253 36.5064 20.0253 36.4934 19.8098 36.5064C19.6514 36.5139 19.5824 36.4827 19.5857 36.3005C19.5889 36.1184 19.6331 36.0645 19.8012 36.085C19.8729 36.09 19.9449 36.09 20.0167 36.085V35.2111L20.4553 35.1895V33.9233L20.8863 33.905C20.8863 33.724 20.8863 33.5569 20.8863 33.391C20.8863 33.225 20.895 33.0569 20.8971 32.8899C20.8971 32.5839 20.8648 32.6194 21.1601 32.6162C21.2085 32.6162 21.256 32.6065 21.3217 32.6V31.7239H21.5211C21.7366 31.7239 21.7366 31.7239 21.7366 31.5084V30.4362L22.187 30.4157V29.1226H22.6299V27.8219H23.0707C23.0707 27.5051 23.0707 27.2055 23.0707 26.9059C23.0707 26.7906 23.0383 26.6279 23.0987 26.5708C23.159 26.5136 23.3261 26.533 23.4457 26.519C23.4554 26.519 23.464 26.5093 23.5093 26.4824C23.5093 26.1483 23.5179 25.7927 23.5093 25.4382C23.5028 25.2636 23.5631 25.2054 23.7248 25.2227C23.7946 25.2245 23.8645 25.2209 23.9338 25.2119V24.3282C24.0416 24.3282 24.13 24.3229 24.2172 24.3282C24.325 24.3347 24.3519 24.2894 24.3509 24.1903C24.3509 23.9953 24.3584 23.8002 24.3606 23.6052C24.3627 23.4101 24.3606 23.2302 24.3606 23.0373L24.8013 23.0189V21.7258H25.2453C25.2453 21.4025 25.2453 21.0976 25.2453 20.7926C25.2453 20.6848 25.214 20.5264 25.2722 20.4693C25.3304 20.4122 25.4878 20.4359 25.6041 20.423C25.6312 20.4148 25.6575 20.4044 25.6828 20.3917C25.6828 20.0523 25.6828 19.7031 25.6828 19.3529C25.6828 19.1298 25.6828 19.1287 25.8983 19.1277H26.1031V18.2451L26.5427 18.2236V16.952H26.9856V15.9024C26.9856 15.6621 26.9856 15.6631 27.2195 15.661C27.2734 15.661 27.3272 15.6556 27.4081 15.6524V14.7784L27.8477 14.7558V13.4864L28.2788 13.4659V13.0348H29.1409V12.6038H29.5892V12.1727H30.4513V11.7363H30.9125C30.8963 11.5736 30.8812 11.4281 30.8672 11.2837H31.7541V10.8656H32.6054C32.6162 10.6996 32.6248 10.5693 32.6323 10.4345H33.0806C33.0677 10.2621 33.0569 10.122 33.0462 9.98087H33.9276V9.55521H34.0602C34.4093 9.55521 34.4352 9.52181 34.3652 9.15973C34.3652 9.15973 34.3587 9.15219 34.3479 9.13926H33.933V9.56276H33.0828C33.0699 9.72117 33.0591 9.85264 33.0494 9.98518H32.6065C32.6151 10.1565 32.6248 10.2966 32.6334 10.4378ZM1.7522 36.9471V37.3782H2.15523V36.9816L1.74681 36.9536V36.5225H2.62507C2.62507 36.4148 2.62507 36.3189 2.62507 36.2262C2.62507 36.1335 2.65955 36.0926 2.75331 36.1012C2.80314 36.1055 2.85326 36.1055 2.9031 36.1012C3.01086 36.0915 3.04319 36.1389 3.03672 36.238C3.03025 36.3372 3.03672 36.4234 3.03672 36.5258H3.4807V35.2219H2.16816C2.16816 35.3178 2.16277 35.3943 2.16816 35.4697C2.18002 35.5958 2.14122 35.6583 2.00113 35.6421C1.90672 35.6373 1.81213 35.6373 1.71772 35.6421C1.33624 35.6421 1.33624 35.6421 1.319 35.2693C1.319 35.2477 1.31146 35.2251 1.31146 35.2035V34.3544H1.75328V33.9233H3.04642V34.3544H2.6283V34.779H3.47746V32.6151H2.62615L2.60029 33.0246H1.32331C1.32331 32.628 1.32331 32.2444 1.32331 31.8608C1.32331 31.6916 1.46771 31.7649 1.55392 31.753C1.64013 31.7412 1.72526 31.7379 1.72742 31.8683C1.72742 32.0515 1.75975 32.2358 1.74789 32.4179C1.73604 32.6 1.83841 32.5925 1.96341 32.5946C2.08842 32.5968 2.17894 32.5946 2.16708 32.4233C2.152 32.1981 2.16708 31.9718 2.16708 31.7465H2.61753V32.1528H3.06474C3.06474 31.9114 3.06474 31.683 3.06474 31.4556C3.06474 31.3564 3.09922 31.3112 3.20052 31.3155C3.30181 31.3198 3.38587 31.3155 3.48178 31.3155V30.434C3.07013 30.434 2.67033 30.434 2.27054 30.4394C2.24144 30.4394 2.19402 30.5073 2.18864 30.5472C2.18266 30.6466 2.18266 30.7463 2.18864 30.8457H1.32654C1.31992 30.8223 1.31452 30.7985 1.31038 30.7745C1.28452 30.4416 1.28452 30.4383 1.60996 30.4211C1.70371 30.4211 1.73927 30.3844 1.73496 30.2907C1.73065 30.1969 1.73496 30.0956 1.73496 29.9782H2.16601V29.5471H1.32547V29.1161H2.6046L2.6283 28.685H3.4807C3.4807 28.3779 3.4807 28.0837 3.4807 27.7895C3.4807 27.6592 3.5044 27.477 3.4322 27.4113C3.36 27.3456 3.18004 27.3844 3.0475 27.3768C3.0475 27.3272 3.0475 27.2777 3.0475 27.2281C3.0475 26.949 3.0475 26.9425 2.76839 26.9447C2.64447 26.9447 2.59382 26.9037 2.60783 26.782C2.60783 26.7432 2.60783 26.7033 2.60783 26.6656C2.61968 26.5514 2.57658 26.5029 2.45804 26.5115C2.36388 26.5142 2.26964 26.512 2.17571 26.505V26.0869H3.04965V26.5029H3.4807V24.7852C3.26517 24.7852 3.04965 24.7852 2.84167 24.7852C2.58951 24.7852 2.59382 24.742 2.60136 25.0265C2.60136 25.158 2.56149 25.2054 2.42894 25.2C2.23928 25.1925 2.04962 25.2 1.85996 25.2H0.877179V25.4231C0.877179 26.5945 0.8858 27.7648 0.883644 28.9361C0.877179 32.1122 0.869995 35.2905 0.862092 38.4709C0.862092 38.6929 0.862092 38.7004 0.631483 38.695C0.493548 38.695 0.434279 38.736 0.452598 38.8761C0.459064 38.9202 0.440745 38.9709 0.457986 39.0086C0.476427 39.056 0.512278 39.0945 0.558205 39.1164C0.651957 39.1422 0.798513 39.1077 0.838385 39.1616C0.878256 39.2155 0.859937 39.3631 0.866403 39.4677C0.866403 39.4935 0.871791 39.5205 0.875024 39.5506H2.61214V39.1282H3.06043V38.6972H3.47423V37.3933H3.04319C3.04319 37.293 3.03456 37.1928 3.04319 37.0937C3.05181 36.9945 3.00439 36.9525 2.90525 36.9611C2.8446 36.9573 2.78378 36.9573 2.72313 36.9611C2.70377 36.9653 2.68559 36.9738 2.66992 36.9859C2.65426 36.998 2.64151 37.0135 2.63261 37.0312C2.56149 37.279 2.63261 37.3695 2.88693 37.3717C2.94189 37.3717 2.99469 37.3803 3.05181 37.3836V37.8071H1.32762V36.9622L1.7522 36.9471ZM35.2154 9.97872H34.7843C34.78 10.0505 34.78 10.1225 34.7843 10.1942C34.8081 10.3591 34.7552 10.4259 34.5774 10.4098C34.3619 10.3925 34.1464 10.4098 33.9158 10.4098V10.8656H33.0645V11.2966H32.6076V11.7277H31.7519V12.1674H31.3004C31.296 12.2355 31.296 12.3039 31.3004 12.3721C31.3252 12.5467 31.2487 12.5952 31.0849 12.5876C30.8758 12.5747 30.6657 12.5876 30.4383 12.5876V13.0391H29.5762V13.4702H29.1301V13.9012H28.6991V14.3506C28.6309 14.3556 28.5625 14.3556 28.4943 14.3506C28.324 14.3247 28.2788 14.3916 28.2788 14.5661C28.2928 14.9196 28.2788 15.2752 28.2788 15.6437L27.8176 15.6653C27.8176 16.0371 27.8079 16.3938 27.8176 16.7483C27.824 16.9153 27.7669 16.9638 27.6096 16.9477C27.536 16.9432 27.4622 16.9432 27.3887 16.9477V17.8399C27.3198 17.8443 27.2507 17.8443 27.1818 17.8399C27.0137 17.8151 26.9598 17.8776 26.9662 18.0554C26.9803 18.41 26.9662 18.7645 26.9662 19.1331L26.5104 19.1546V20.4478H26.0783C26.0783 20.8378 26.0783 21.2096 26.0783 21.5814C26.0783 21.6956 26.0416 21.7463 25.9231 21.7366C25.8423 21.7301 25.7604 21.7366 25.6548 21.7366V22.6342C25.5535 22.6342 25.4748 22.6342 25.3983 22.6342C25.2765 22.6224 25.2291 22.6644 25.2334 22.7937C25.241 22.9985 25.2334 23.2054 25.2259 23.4112C25.2259 23.5815 25.2259 23.7528 25.2259 23.9403H24.7884V25.2237L24.3487 25.2464V26.5233L23.9058 26.5449C23.9058 26.9339 23.9058 27.3068 23.9058 27.6786C23.9058 27.7939 23.8735 27.8434 23.7539 27.8337C23.6687 27.8262 23.5815 27.8337 23.4651 27.8337C23.4651 28.226 23.4586 28.5881 23.4651 28.9491C23.4651 29.0988 23.4166 29.1516 23.2722 29.1355C23.1947 29.1311 23.1169 29.1311 23.0394 29.1355V30.0331C22.9392 30.0331 22.8616 30.0396 22.784 30.0331C22.6633 30.0213 22.6148 30.0622 22.6191 30.1915C22.6256 30.3963 22.6127 30.6032 22.6105 30.809C22.6105 30.9793 22.6105 31.1506 22.6105 31.3381H22.1698V32.6313H21.7355C21.7355 32.9481 21.7355 33.2477 21.7355 33.5472C21.7355 33.6625 21.7678 33.8253 21.7064 33.8824C21.645 33.9395 21.479 33.9201 21.3605 33.9341C21.3508 33.9341 21.3422 33.9438 21.3077 33.9643C21.3077 34.3328 21.3077 34.7186 21.3077 35.1001C21.3077 35.1906 21.3443 35.2348 21.4392 35.2283C21.4947 35.2235 21.5506 35.2235 21.6062 35.2283C21.7139 35.238 21.742 35.1863 21.7366 35.0893C21.7312 34.9923 21.7366 34.9061 21.7366 34.7984H22.1935V34.3673H23.0556V33.9363H23.5028C23.5071 33.8548 23.5071 33.7731 23.5028 33.6916C23.4855 33.5472 23.548 33.5095 23.6838 33.5149C23.8994 33.5246 24.1246 33.5149 24.3627 33.5149V33.0839L24.8423 33.0591C24.9586 33.0526 25.1214 33.0893 25.1774 33.0278C25.2334 32.9664 25.2119 32.7994 25.2248 32.6798C25.2311 32.6623 25.2394 32.6457 25.2496 32.6302H25.6806V32.1991H26.5298V31.7681H26.99V31.3371H27.8251C27.837 31.0924 27.8542 30.8715 27.8542 30.6495C27.8542 30.5245 27.8984 30.4793 28.0212 30.4879C28.1083 30.4887 28.1953 30.4851 28.282 30.4771V29.6064L28.7131 29.5859V28.2658L29.1538 28.2454V26.9522H29.5967V25.9059C29.5967 25.6656 29.5967 25.6656 29.8295 25.6634C29.8844 25.6634 29.9372 25.658 30.0159 25.6548V24.7658H30.2174C30.4329 24.7658 30.4329 24.7658 30.4329 24.5502V23.478L30.8834 23.4575V22.1644H31.323V20.8637H31.7638C31.7638 20.5469 31.7638 20.2473 31.7638 19.9477C31.7638 19.8324 31.7304 19.6697 31.7918 19.6126C31.8532 19.5555 32.0192 19.5749 32.1388 19.5609C32.1485 19.5609 32.1571 19.5512 32.2013 19.5242C32.2013 19.1902 32.211 18.8346 32.2013 18.48C32.1938 18.3044 32.2541 18.2473 32.4168 18.2645C32.4867 18.2673 32.5566 18.264 32.6259 18.2548V17.3701C32.7336 17.3701 32.8209 17.3701 32.9082 17.3701C33.016 17.3765 33.0429 17.3313 33.0418 17.2311C33.0418 17.0306 33.0505 16.8313 33.0526 16.6308C33.0526 16.4487 33.0526 16.2666 33.0526 16.0683H33.4912V14.7903L33.9449 14.7633C33.9449 14.3829 33.9524 14.0209 33.9449 13.6599C33.9449 13.5068 33.9934 13.4594 34.1367 13.4767C34.2157 13.4811 34.2948 13.4811 34.3738 13.4767V12.5844C34.4427 12.58 34.5118 12.58 34.5807 12.5844C34.7499 12.6103 34.8027 12.5478 34.7962 12.3689C34.7822 12.0154 34.7962 11.6598 34.7962 11.2913L35.2574 11.2708C35.2574 10.899 35.2574 10.5434 35.2574 10.1932C35.2515 10.1176 35.2418 10.0425 35.2283 9.96794C35.3221 9.96794 35.4158 9.97441 35.5096 9.98303C35.6357 9.99488 35.682 9.93885 35.668 9.81708C35.6626 9.76858 35.6809 9.70931 35.6626 9.66944C35.641 9.6216 35.6027 9.58328 35.5548 9.56168C35.4997 9.55511 35.444 9.55511 35.3889 9.56168C35.2865 9.55198 35.252 9.59616 35.2542 9.69746C35.2469 9.7919 35.2339 9.88582 35.2154 9.97872ZM20.4521 30.0073V29.115C20.548 29.115 20.6256 29.1085 20.701 29.115C20.8325 29.129 20.8788 29.0816 20.8734 28.9469C20.8648 28.7465 20.8799 28.546 20.882 28.3456C20.882 28.1753 20.882 28.004 20.882 27.8305L21.3249 27.8068V26.533L21.7678 26.5093C21.7678 26.1473 21.7678 25.8035 21.7678 25.4587C21.7678 25.227 21.7678 25.227 21.992 25.2248C22.0512 25.2248 22.1105 25.2184 22.1892 25.2151V24.3315H22.6202V23.0491L23.0696 23.0286V21.9974C23.0696 21.7484 23.0696 21.7495 23.311 21.7452C23.3649 21.7452 23.4187 21.7387 23.4909 21.7344V20.8519H23.922V19.5555H24.366C24.366 19.2322 24.366 18.9305 24.366 18.6255C24.366 18.5177 24.3358 18.3593 24.394 18.3022C24.4522 18.2451 24.6095 18.2688 24.7259 18.2559C24.7477 18.2503 24.7687 18.2419 24.7884 18.2311V17.3819C24.8671 17.3819 24.9274 17.3733 24.9867 17.3733C25.2087 17.3733 25.2087 17.3733 25.2087 17.1427C25.2087 16.7936 25.2087 16.4444 25.2087 16.0899L25.6623 16.0672V14.7741H26.1074C26.1074 14.3797 26.1074 14.0079 26.1074 13.6361C26.1074 13.5198 26.1462 13.4723 26.2626 13.481C26.3445 13.4874 26.4264 13.481 26.5341 13.481V12.5865H26.9652V11.746C27.1268 11.7395 27.2594 11.7352 27.3962 11.7266C27.5331 11.718 27.7033 11.7536 27.7798 11.6824C27.8564 11.6113 27.8229 11.4378 27.8413 11.288H28.2852V10.857H29.1473V10.4259C29.2109 10.4259 29.2551 10.4162 29.3079 10.4162C29.5913 10.4162 29.5633 10.4464 29.5633 10.1511V2.42248C29.5633 2.3783 29.5784 2.32549 29.5633 2.29101C29.5482 2.25653 29.4889 2.17786 29.4491 2.17678C29.1883 2.16708 28.9264 2.1714 28.6646 2.17678C28.5493 2.17678 28.3865 2.14445 28.3294 2.20588C28.2723 2.2673 28.2939 2.43326 28.2809 2.55287C28.2745 2.56937 28.2666 2.58524 28.2572 2.60029H27.8262C27.8218 2.68392 27.8218 2.76773 27.8262 2.85137C27.8402 2.98176 27.7928 3.02918 27.6581 3.02271C27.4318 3.01301 27.2044 3.02271 26.9619 3.02271V3.47208H26.0998V3.89127L25.6181 3.91713C25.5028 3.9236 25.3401 3.88588 25.283 3.9473C25.2259 4.00873 25.2474 4.17468 25.2345 4.2943C25.2281 4.31134 25.2198 4.3276 25.2097 4.34279H24.7787V4.7803H23.9166V5.21566H23.0545V5.65532C22.8023 5.65532 22.5696 5.65532 22.3368 5.65532C22.229 5.65532 22.1956 5.69089 22.2021 5.79218C22.2086 5.89348 22.2021 5.97645 22.2021 6.08206H21.743V6.51311H20.881V6.95062H20.0189V7.3946C19.8109 7.3946 19.6223 7.3946 19.4348 7.3946C19.1287 7.3946 19.1643 7.36119 19.1611 7.65753C19.1611 7.70603 19.1546 7.75452 19.1492 7.82241H18.6858V8.25346H17.8335V8.6845H17.4024V8.88709C17.4024 16.0231 17.4024 23.1594 17.4024 30.2961C17.4024 32.4513 17.41 34.6065 17.4078 36.7682C17.4078 36.9288 17.4725 36.9514 17.6061 36.945C17.7397 36.9385 17.8378 36.9611 17.8216 36.7715C17.8054 36.5462 17.8216 36.32 17.8216 36.0883L18.2742 36.0678V34.7951L18.7214 34.7725C18.7214 34.3878 18.7214 34.0182 18.7214 33.6539C18.7214 33.5311 18.7602 33.4794 18.8852 33.4901C18.965 33.4977 19.0458 33.4901 19.1471 33.4901V32.6086L19.5781 32.5892V31.3015H20.0242V30.2465C20.0242 30.0094 20.0242 30.0084 20.2549 30.0073H20.4521ZM2.59705 24.3315L2.62292 23.9004H3.46238V23.492H2.16277C2.15893 23.5584 2.15893 23.625 2.16277 23.6914C2.18325 23.8498 2.12398 23.9069 1.96018 23.9004C1.74466 23.8929 1.52914 23.9166 1.32654 23.9263V24.3358L2.59705 24.3315ZM2.62076 29.9933H3.48285C3.48285 29.7239 3.48285 29.4631 3.48285 29.2034C3.48285 29.1732 3.42682 29.1301 3.3891 29.1182C3.33389 29.1133 3.27836 29.1133 3.22315 29.1182C3.10461 29.1064 3.04642 29.1463 3.05935 29.2767C3.06905 29.3682 3.05935 29.462 3.05935 29.573H2.6283L2.62076 29.9933ZM35.2165 8.7039H34.807V9.10369H35.2165V8.7039Z" fill="#48494B"/>
<path d="M7.39893 44.7847H6.94202L6.96573 45.2157C6.94374 45.2105 6.92141 45.2069 6.89891 45.2049C6.79115 45.1985 6.65861 45.2297 6.59287 45.1758C6.52714 45.122 6.56378 44.9829 6.53468 44.886C6.52416 44.8622 6.50843 44.8412 6.48865 44.8244C6.46887 44.8076 6.44556 44.7955 6.42045 44.789C6.31282 44.7816 6.2048 44.7816 6.09717 44.789V16.091H6.51959V15.6513H6.96788C6.96788 15.577 6.97758 15.5188 6.97866 15.4595C6.97866 15.2268 6.97866 15.23 7.22004 15.2257C7.4194 15.2257 7.61768 15.2084 7.83428 15.1987V14.7774H8.68237V14.3463H9.14574V13.9153H10.0014V13.4595C10.2514 13.4595 10.4777 13.453 10.704 13.4595C10.8301 13.4595 10.8775 13.4228 10.8645 13.2978C10.857 13.2159 10.8645 13.134 10.8645 13.0381H11.315V12.6071H12.1771V12.1523C12.4195 12.1523 12.6458 12.1448 12.8721 12.1523C13.009 12.1588 13.0532 12.1092 13.0392 11.9799C13.0316 11.9034 13.0392 11.8258 13.0392 11.7321H13.4864V11.2913H14.3485V10.8603H14.7892V10.4238H15.6739V34.9601C15.6739 35.2111 15.6739 35.2176 15.9218 35.2187C16.0511 35.2187 16.0813 35.2747 16.0813 35.3911C16.0813 36.5793 16.0813 37.7672 16.0813 38.9548C16.0813 39.0819 16.0349 39.125 15.9142 39.1143C15.8377 39.1078 15.7601 39.1143 15.6664 39.1143V39.5636H15.2246V40.013C14.981 40.013 14.7547 40.0195 14.5284 40.013C14.4045 40.013 14.3549 40.0485 14.3679 40.1746C14.3722 40.2615 14.3722 40.3485 14.3679 40.4354H13.9196V40.8665H13.0575V41.2975H12.6081C12.6081 41.4053 12.6081 41.4969 12.6081 41.5885C12.6081 41.6801 12.5715 41.7253 12.4713 41.7232C12.2385 41.7232 12.0057 41.7232 11.7546 41.7232V42.165H10.8926V42.6025H10.44V43.0335H9.57786V43.47H8.71577V43.901H8.26856V44.3428H7.39893V44.7847ZM14.3549 12.1685H13.4875V12.5995H13.0392C13.0392 12.6965 13.0327 12.7795 13.0392 12.8603C13.0521 12.9853 13.0036 13.0273 12.8786 13.022C12.6523 13.0133 12.4249 13.022 12.1803 13.022V13.4702H11.3182V13.9013H10.8656C10.8604 13.973 10.8604 14.0451 10.8656 14.1168C10.8915 14.286 10.8279 14.3442 10.6555 14.3323C10.44 14.3173 10.2244 14.3323 9.9949 14.3323V14.7892H9.14359V15.2203H8.69207V15.6513H7.82997V16.0824H7.38384C7.37948 16.1642 7.37948 16.2462 7.38384 16.3281C7.40108 16.4703 7.34181 16.508 7.20496 16.507C6.98943 16.507 6.76529 16.5231 6.54546 16.5328V43.9043H7.40755V43.4732C7.65109 43.4732 7.87847 43.4732 8.10584 43.4732C8.22546 43.4732 8.26641 43.4333 8.25671 43.318C8.24917 43.2329 8.25671 43.1456 8.25671 43.0443H8.71362V42.6133H9.57571V42.1671H10.2093C10.4249 42.1671 10.4249 42.1671 10.4249 41.9516C10.4249 41.887 10.4249 41.8223 10.4249 41.7415H10.8699L10.8893 41.304H11.746V40.8729C11.8807 40.8729 11.996 40.8729 12.1124 40.8729C12.2568 40.8729 12.4357 40.9106 12.5338 40.8395C12.6146 40.7803 12.5984 40.5874 12.6286 40.4322H13.0661V39.9914H13.9217V39.5604H14.3765V39.1466L15.2106 39.1089V11.7374H14.3571L14.3549 12.1685Z" fill="#48494B"/>
<path d="M1.74566 26.9492V27.3803H3.05065V27.8275H2.0808C1.86527 27.8275 1.64975 27.8275 1.43423 27.8275C1.39112 27.8275 1.31569 27.7725 1.31461 27.7402C1.30491 27.4859 1.31461 27.2316 1.31461 26.9492H1.74566Z" fill="#48494B"/>
<path d="M2.18004 26.5156V26.9553H1.74146V26.5156H2.18004Z" fill="#48494B"/>
</svg>
