<svg width="40" height="40" viewBox="0 0 40 40" fill="none" xmlns="http://www.w3.org/2000/svg">
<path d="M0 19.2773H0.461188C0.478483 19.0069 0.50846 18.7537 0.50846 18.5016C0.50846 18.351 0.555732 18.3088 0.703312 18.3157C0.948895 18.3259 1.19678 18.3157 1.45851 18.3157L1.48157 17.8206C1.83553 17.8206 2.17335 17.8206 2.51924 17.8206C2.74983 17.8206 2.98043 17.7989 3.21102 17.8012C3.34823 17.8012 3.40126 17.759 3.40011 17.6187C3.40011 17.3632 3.40011 17.3666 3.65607 17.3621C4.34785 17.3518 5.03272 17.337 5.72104 17.329C5.83634 17.329 5.86401 17.2822 5.86747 17.1796C5.87669 16.875 5.88015 16.875 6.18799 16.875H7.79177V17.3598C7.9186 17.3598 8.02929 17.3598 8.13766 17.3598C8.24604 17.3598 8.2691 17.3951 8.2668 17.4887C8.2668 17.7168 8.25988 17.945 8.2668 18.1731C8.2668 18.2575 8.23567 18.2872 8.1515 18.2929C8.0362 18.2929 7.88401 18.2792 7.8206 18.3419C7.75718 18.4046 7.8033 18.5529 7.79869 18.6647C7.79869 18.6921 7.79869 18.7195 7.78716 18.7868C7.59692 18.7868 7.40783 18.7868 7.21875 18.7868C6.82328 18.7948 6.42896 18.8084 6.03349 18.8119C5.9182 18.8119 5.87784 18.8506 5.879 18.967C5.879 19.3286 5.879 19.6913 5.87323 20.0529C5.87323 20.1932 5.92627 20.2206 6.05079 20.2195C6.46125 20.2195 6.87286 20.2195 7.29946 20.2195L7.32251 20.7305C7.43772 20.7241 7.5532 20.7241 7.66841 20.7305C7.71222 20.7362 7.7837 20.7898 7.7837 20.8229C7.79408 21.1012 7.7837 21.3795 7.7837 21.6784H7.30868C7.30868 21.8871 7.30868 22.0753 7.30868 22.2624C7.29946 22.6537 7.28216 23.0438 7.2787 23.4339C7.2787 23.5639 7.22221 23.5947 7.1046 23.5958C6.85326 23.5958 6.85326 23.6016 6.8521 23.8422C6.84442 25.5692 6.83673 27.2958 6.82904 29.022C6.82904 29.2502 6.83827 29.4783 6.82904 29.7064C6.82904 29.8205 6.85787 29.8753 6.98931 29.8741C8.0216 29.8635 9.05389 29.8578 10.0862 29.857C10.2015 29.857 10.2303 29.8125 10.2326 29.7087C10.2418 29.4087 10.2453 29.4099 10.5428 29.4087C12.1638 29.4007 13.7849 29.3893 15.406 29.3859C15.5605 29.3859 15.5997 29.3323 15.5962 29.192C15.5962 28.9422 15.5962 28.9445 15.8591 28.941C16.8587 28.9296 17.8572 28.9137 18.8568 28.9068C18.9975 28.9068 19.0286 28.8498 19.0263 28.7266C19.0194 28.4551 18.9998 28.4711 19.295 28.4677C20.6163 28.4494 21.9364 28.4289 23.2577 28.4141C23.373 28.4141 23.4261 28.373 23.418 28.2589C23.418 28.2144 23.418 28.1688 23.418 28.1243C23.4099 28.0103 23.4618 27.9681 23.5782 27.9681C23.9449 27.9681 24.3115 27.9532 24.6793 27.9555C24.8119 27.9555 24.8673 27.9156 24.8511 27.7844C24.8489 27.7464 24.8489 27.7083 24.8511 27.6703C24.8511 27.4422 24.8511 27.4525 24.6205 27.4422C24.5502 27.4422 24.428 27.4125 24.4222 27.3795C24.4056 27.2657 24.4087 27.15 24.4314 27.0373C24.4314 27.0179 24.5306 27.0042 24.5836 27.003C24.8373 26.9939 24.8315 26.9962 24.8407 26.7418C24.8474 26.548 24.864 26.3546 24.8903 26.1624C24.898 26.139 24.9115 26.1179 24.9297 26.1012C24.9478 26.0844 24.97 26.0725 24.9941 26.0665C25.2247 26.0472 25.4553 26.0437 25.6859 26.0278C25.8104 26.0186 25.8657 26.0654 25.8542 26.1886C25.8536 26.1943 25.8536 26.2 25.8542 26.2057C25.8542 26.5057 25.8335 26.4852 26.1252 26.4783C26.2762 26.4783 26.3373 26.516 26.3292 26.6768C26.3177 26.8878 26.3396 27.1011 26.3373 27.3133C26.3373 27.4217 26.3742 27.4593 26.4837 27.4627C26.7927 27.473 26.7939 27.4776 26.7927 27.7798C26.7916 28.0821 26.7847 28.4163 26.7927 28.7346C26.7927 28.8486 26.7501 28.8909 26.6336 28.8897C26.2808 28.8897 26.3269 28.8612 26.3269 29.1943C26.3269 29.6916 26.3338 30.1878 26.3373 30.6851C26.3373 30.7285 26.3373 30.773 26.3477 30.8334H29.2416C29.2416 30.7935 29.2509 30.7456 29.2509 30.6977C29.2509 29.9939 29.2439 29.2901 29.2509 28.5852C29.2509 28.4608 29.2151 28.4209 29.0883 28.422C28.7897 28.422 28.7897 28.422 28.7885 28.1163V26.9973H29.2497V26.5274H30.2355V26.9836H30.7209C30.7209 27.1764 30.7209 27.3532 30.7209 27.53C30.7267 27.7753 30.7428 28.0205 30.7428 28.2658C30.7428 28.3901 30.7878 28.4414 30.9123 28.4289C30.9457 28.4289 30.9803 28.4289 31.0137 28.4289C31.1463 28.4141 31.1878 28.4699 31.1878 28.6023C31.1878 29.4281 31.2063 30.2551 31.2074 31.0821C31.2074 33.9771 31.2074 36.8718 31.2074 39.766C31.2074 39.8447 31.2144 39.9223 31.2178 39.9999H29.2509C29.2509 39.9782 29.2566 39.9554 29.2566 39.9337C29.2566 37.5931 29.2566 35.2528 29.2566 32.9129C29.254 32.8678 29.249 32.8228 29.2416 32.7783H29.0249C28.1901 32.7783 27.3542 32.7669 26.5195 32.768C26.3707 32.768 26.3235 32.7224 26.3269 32.5752C26.3338 32.306 26.3269 32.306 26.0468 32.3095C26.0299 32.3106 26.0129 32.3106 25.996 32.3095C25.8992 32.3095 25.8519 32.3425 25.8519 32.4452C25.8519 32.6117 25.8323 32.7794 25.8323 32.9459C25.8323 34.8471 25.8346 36.7463 25.8392 38.6436C25.8392 39.0999 25.8311 39.547 25.8265 39.9987H24.8765C24.8765 39.6919 24.8765 39.3839 24.8765 39.0771C24.8765 37.3554 24.8765 35.6341 24.8765 33.9132C24.8765 33.7604 24.835 33.7056 24.677 33.7113C24.3496 33.7205 24.0221 33.7113 23.6947 33.7113C23.4387 33.7113 23.4318 33.7113 23.4353 33.4593C23.4353 33.3155 23.3903 33.2608 23.2393 33.2665C22.9764 33.2767 22.7135 33.2665 22.4518 33.2665V32.3072H23.1228C23.4203 32.3072 23.4099 32.2946 23.4007 32.5775C23.4007 32.7292 23.4595 32.7691 23.6025 32.7646C23.9633 32.7532 24.3242 32.7509 24.6862 32.7509C24.8015 32.7509 24.8454 32.7144 24.8454 32.5969C24.8454 32.2547 24.8557 31.9057 24.8592 31.5612C24.8592 31.333 24.8592 31.333 24.6286 31.333C24.398 31.333 24.3865 31.333 24.3865 31.0844V29.9026C24.2919 29.9026 24.2308 29.8901 24.1709 29.8912C23.8377 29.8912 23.5045 29.9026 23.1712 29.9061C22.9199 29.9061 22.9141 29.9061 22.913 30.1627C22.913 30.2859 22.868 30.3315 22.7435 30.3281C22.5971 30.3281 22.4506 30.3429 22.3042 30.3441C21.1251 30.3578 19.9449 30.3703 18.7634 30.3817C18.5144 30.3817 18.5075 30.3817 18.5121 30.6281C18.5121 30.7661 18.4798 30.8254 18.323 30.8266C17.1827 30.8357 16.0424 30.8528 14.9021 30.8665C14.6473 30.8665 14.6416 30.8665 14.6416 31.1277C14.6416 31.2521 14.607 31.3022 14.4686 31.3034C13.1416 31.3159 11.8168 31.3353 10.4874 31.3513C10.2453 31.3513 10.2372 31.3513 10.2453 31.5794C10.2453 31.7323 10.1992 31.7836 10.0424 31.7836C9.03698 31.7836 8.03159 31.7984 7.02735 31.8064H6.8302V32.2809C6.8913 32.2809 6.94549 32.2889 6.99161 32.2901C7.52083 32.3026 8.05004 32.3174 8.57925 32.3254C8.69455 32.3254 8.74182 32.3653 8.74067 32.4817C8.73952 32.598 8.76027 32.6927 8.76257 32.7977C8.76257 32.9459 8.76257 33.0942 8.76257 33.2596C8.14458 33.2596 7.55196 33.2596 6.95933 33.2596C6.84403 33.2596 6.79791 33.2916 6.80137 33.4102C6.80137 33.644 6.80137 33.879 6.80137 34.114C6.80137 35.7064 6.8056 37.2988 6.81405 38.8911C6.81405 39.2607 6.81405 39.6292 6.81405 39.9976H5.82942C5.83634 39.7523 5.84441 39.5071 5.84671 39.2619C5.84902 39.0166 5.84671 39.0337 5.61612 39.0337C5.36016 39.0337 5.35094 39.0337 5.35901 38.7919C5.35901 38.6333 5.30251 38.5957 5.15262 38.5968C4.48621 38.6037 3.82094 38.5968 3.15453 38.5968C2.91356 38.5968 2.90087 38.5968 2.9124 38.833C2.92047 39.0257 2.80864 39.0166 2.67604 39.0178C2.54345 39.0189 2.43277 39.0178 2.44545 38.8307C2.45583 38.5968 2.44545 38.5957 2.20102 38.5968C2.17299 38.5986 2.14488 38.5986 2.11685 38.5968C2.0177 38.5889 1.97619 38.6265 1.97504 38.7303C1.96927 39.093 1.95659 39.4546 1.94621 39.8174C1.94621 39.8778 1.93814 39.9394 1.93468 39.9999H0V19.2773ZM1.96005 27.9464V28.1745C1.96005 28.9228 1.95313 29.6722 1.96005 30.4205C1.96005 32.9056 1.96389 35.3889 1.97158 37.8702C1.97158 38.0117 2.01885 38.0562 2.15721 38.0527C2.5031 38.047 2.85706 38.0436 3.20641 38.0527C3.37936 38.0584 3.45084 37.9969 3.42663 37.8303C3.40242 37.6638 3.48658 37.6181 3.6503 37.6193C4.32133 37.6193 4.99351 37.6124 5.6657 37.6136C5.8029 37.6136 5.86747 37.5737 5.84902 37.4322C5.84624 37.3942 5.84624 37.3561 5.84902 37.3182C5.84441 35.9106 5.83979 34.5037 5.83518 33.0977C5.83518 32.5787 5.84902 32.0585 5.85363 31.5395C5.85363 31.3171 5.85363 31.3171 5.62304 31.3171H5.35324C5.35324 31.0399 5.34286 30.7844 5.35324 30.53C5.36131 30.3783 5.30597 30.3258 5.16185 30.3429C5.13418 30.3429 5.10535 30.3429 5.07768 30.3429C4.92895 30.3623 4.88514 30.2996 4.88629 30.1524C4.89205 29.4829 4.88629 28.8121 4.88629 28.1426V27.9464H1.96005ZM3.9201 19.7449C3.88704 19.737 3.85355 19.7309 3.81979 19.7267L2.07535 19.7541C1.9785 19.7541 1.96697 19.8065 1.96697 19.8818C1.96697 20.0495 1.96005 20.2172 1.96005 20.3849V26.97H4.88629C4.88629 26.7567 4.88629 26.5582 4.88629 26.3586C4.88629 25.543 4.89321 24.7274 4.89551 23.9107C4.89551 23.6403 4.89551 23.6346 5.16761 23.6335C5.29559 23.6335 5.34748 23.5947 5.34517 23.459C5.34517 23.1521 5.35324 22.8453 5.35555 22.5384C5.35555 22.2601 5.35555 21.9829 5.35555 21.6864H4.86784C4.86784 21.5723 4.86092 21.4685 4.86784 21.3704C4.88052 21.2415 4.82403 21.197 4.70181 21.2107C4.66838 21.2107 4.63379 21.2107 4.60035 21.2107C4.43202 21.2358 4.36976 21.1742 4.38129 20.9997C4.39512 20.702 4.38129 20.6951 4.08152 20.6985C3.94431 20.6985 3.90626 20.6506 3.90972 20.5217C3.9201 20.2674 3.9201 20.0107 3.9201 19.7449Z" fill="#48494B"/>
<path d="M7.79522 39.9938C7.79522 39.9276 7.78369 39.8603 7.78369 39.7942C7.78369 38.1569 7.78369 36.5201 7.78369 34.8836V34.2402H9.25258V39.9938H7.79522Z" fill="#48494B"/>
<path d="M22.4381 39.9946C22.4381 39.9284 22.4288 39.8611 22.4288 39.795V34.2422H23.8954V39.9946H22.4381Z" fill="#48494B"/>
<path d="M34.1279 27.4526V26.9895H33.1824C33.1686 26.7283 33.1501 26.4876 33.1432 26.2446C33.1375 26.0233 33.1432 26.0233 32.923 26.0165C32.7028 26.0096 32.6867 26.0165 32.6867 25.7758C32.6867 24.4747 32.6897 23.1728 32.6959 21.8701V20.7181H28.7873C28.7873 20.5869 28.7873 20.4774 28.7873 20.369C28.7873 20.2606 28.7585 20.231 28.6536 20.2276C28.2984 20.2127 28.2915 20.2093 28.2927 19.8466C28.2927 19.0025 28.3054 18.1584 28.3088 17.3154C28.3088 16.6903 28.3088 16.0607 28.3088 15.4185H27.8015V14.9223H27.1847H21.5582C21.4118 14.9223 21.2642 14.9348 21.1177 14.9223C20.9886 14.9154 20.954 14.9702 20.9529 15.0888C20.9529 15.3763 20.946 15.382 20.6485 15.3797C20.5055 15.3797 20.434 15.4185 20.4583 15.5702C20.4583 15.5976 20.4583 15.6261 20.4583 15.6535C20.4802 15.8097 20.426 15.8896 20.2553 15.8622C20.2392 15.8622 20.2219 15.8622 20.2046 15.8622C20.0443 15.8371 19.9948 15.8987 19.9948 16.063C19.9948 17.3816 19.9948 18.7013 19.9878 20.02C19.9878 20.2413 19.9878 20.2413 19.7665 20.2424C19.5451 20.2435 19.529 20.2424 19.5359 20.4831C19.5359 20.62 19.5451 20.7329 19.3399 20.7226C19.0355 20.7078 19.0355 20.7226 19.0286 21.0146C19.0286 21.0591 19.0216 21.1025 19.017 21.1652H14.148V19.2614C14.0155 19.2614 13.9048 19.2546 13.7952 19.2614C13.6857 19.2683 13.6511 19.2249 13.6488 19.1177C13.6407 18.8017 13.6373 18.8017 13.3225 18.8017C13.0078 18.8017 12.6676 18.8017 12.3402 18.8017C12.2064 18.8017 12.1615 18.8451 12.1603 18.974C12.1603 19.2295 12.1523 19.2249 11.9021 19.234C11.6784 19.2432 11.4547 19.2637 11.2103 19.2797V21.1983C11.0858 21.1983 10.9797 21.1983 10.8644 21.1983C10.7491 21.1983 10.7203 21.2314 10.7249 21.334C10.7295 21.4367 10.7249 21.5542 10.7249 21.6762H9.74485C9.74485 21.5622 9.74485 21.4481 9.74485 21.334C9.74485 21.22 9.72064 21.1949 9.61226 21.1914C9.26637 21.1789 9.26637 21.1743 9.26637 20.8333C9.26637 20.5207 9.24907 20.2082 9.25023 19.8956C9.25023 19.7816 9.21794 19.7382 9.09803 19.7359C8.7925 19.7359 8.7925 19.7268 8.7925 19.4188C8.78558 15.3945 8.77943 11.3706 8.77405 7.34708C8.77405 4.96079 8.77405 2.5745 8.77405 0.188211V0H10.7018C10.7018 0.0695811 10.7099 0.134599 10.7122 0.198477C10.7249 0.554367 10.7387 0.910257 10.7479 1.26729C10.7479 1.36196 10.7894 1.3939 10.8817 1.39276C11.2714 1.39276 11.6599 1.39276 12.0496 1.39276C12.1719 1.39276 12.2099 1.34143 12.2053 1.23193C12.1926 0.928508 12.2387 0.976417 12.4797 0.971854C12.9939 0.962729 13.5078 0.952082 14.0212 0.939915C14.0576 0.937907 14.0938 0.933717 14.1296 0.927368V0.00570337H16.0896V0.196196C16.0896 1.12356 16.0896 2.05207 16.0896 2.97944C16.0896 3.21328 16.1069 3.44712 16.1092 3.68095C16.1092 3.77905 16.1519 3.81213 16.243 3.80415C16.2707 3.80415 16.2995 3.80415 16.3272 3.80415C16.575 3.80415 16.5831 3.80415 16.5797 3.56118C16.5797 3.41746 16.6373 3.3821 16.7711 3.38096C18.8833 3.36879 20.9971 3.35358 23.1124 3.33533C23.3211 3.33533 23.5309 3.3262 23.7396 3.33533C23.8641 3.33533 23.9195 3.29655 23.9068 3.17335C23.9068 3.14027 23.9068 3.10605 23.9068 3.07297C23.8906 2.93495 23.9494 2.88933 24.0901 2.88933C24.8868 2.88933 25.6824 2.87792 26.4791 2.87564C28.3315 2.87031 30.1843 2.86651 32.0375 2.86423C32.1955 2.86423 32.3534 2.85282 32.5114 2.85511C32.6163 2.85511 32.6624 2.82431 32.6659 2.71252C32.6774 2.38743 32.682 2.38743 33.0118 2.38059C33.051 2.38059 33.0902 2.38059 33.164 2.37032C33.164 2.1707 33.164 1.97222 33.164 1.77261C33.164 1.54447 33.1709 1.31634 33.1697 1.0882C33.1697 0.995808 33.1893 0.946759 33.3 0.943337C33.6459 0.929649 33.6459 0.925086 33.6621 0.578322C33.6621 0.550945 33.6678 0.523569 33.6724 0.483646H34.6179V0.927368H35.1148C35.1148 1.25246 35.1148 1.55702 35.1148 1.86272C35.1148 2.13648 35.0906 2.4091 35.0894 2.68286C35.0894 2.80834 35.0399 2.85625 34.9188 2.84484C34.8796 2.84484 34.8392 2.84484 34.8035 2.84484C34.6732 2.83343 34.6271 2.8859 34.6294 3.01936C34.6375 3.44141 34.6294 3.8646 34.6294 4.30718H35.1183V4.78284H36.5883C36.5883 4.51022 36.5952 4.25471 36.5883 4.00034C36.5883 3.87373 36.6264 3.8281 36.752 3.83837C36.8454 3.84521 36.94 3.83837 37.0449 3.83837V2.87678H36.5768V2.38287C36.4616 2.38906 36.3461 2.38906 36.2309 2.38287C36.1859 2.37716 36.1156 2.32355 36.1156 2.29047C36.1052 2.01215 36.1098 1.73496 36.1098 1.43383C36.2459 1.43383 36.3566 1.43383 36.4684 1.43383C36.5606 1.43383 36.5941 1.40189 36.5987 1.30721C36.616 0.96501 36.6194 0.96501 36.9573 0.957025C37.4423 0.947139 37.9277 0.941436 38.4135 0.939915C38.5714 0.939915 38.7282 0.961588 38.8862 0.96501C38.983 0.96501 39.0176 1.01064 39.013 1.09847C39.013 1.11558 39.013 1.13269 39.013 1.14866C39.013 1.47489 38.9738 1.44866 39.3128 1.44181C39.4511 1.44181 39.4961 1.47603 39.4972 1.61862C39.4972 1.99162 39.5272 2.36348 39.5399 2.73762C39.5399 2.83115 39.5826 2.86879 39.6737 2.86537C39.7186 2.86537 39.7636 2.86537 39.8085 2.86537C39.9423 2.85168 39.9826 2.90872 39.9826 3.03875C39.9826 3.82696 39.9999 4.61517 39.9999 5.40223C39.9999 10.46 39.9999 15.517 39.9999 20.5732C39.9999 23.5298 39.9999 26.4861 39.9999 29.4419C39.9999 29.6986 39.9861 29.9552 39.9896 30.2119C39.9896 30.3351 39.94 30.3613 39.8281 30.3624C39.5261 30.3624 39.5295 30.3682 39.5238 30.6681C39.5232 30.8402 39.5116 31.012 39.4892 31.1826C39.4791 31.2093 39.4624 31.2331 39.4407 31.2519C39.4189 31.2706 39.3928 31.2836 39.3647 31.2898C38.983 31.3172 38.6014 31.34 38.2198 31.348C38.0814 31.348 38.0445 31.4016 38.0445 31.5259C38.0445 31.6035 38.0284 31.737 37.9915 31.7472C37.8775 31.772 37.7595 31.772 37.6456 31.7472C37.6168 31.7472 37.5914 31.6332 37.5879 31.5773C37.5764 31.3491 37.5799 31.3491 37.3493 31.3491C36.322 31.3491 35.2935 31.3491 34.2662 31.3491C33.6275 31.3491 32.9899 31.3263 32.3523 31.3206C32.2301 31.3206 32.1874 31.2773 32.2024 31.1643C32.203 31.1587 32.203 31.1529 32.2024 31.1472C32.2024 30.837 32.2024 30.8335 31.8796 30.8301C31.7758 30.8301 31.7251 30.8073 31.7297 30.691C31.7378 30.4788 31.7366 30.2666 31.7297 30.0533C31.7297 29.9564 31.762 29.9153 31.8669 29.9107C32.2128 29.8948 32.2128 29.8914 32.2209 29.5412C32.2209 29.5024 32.2301 29.4647 32.2381 29.402H33.1006C33.247 29.402 33.3946 29.4111 33.541 29.402C33.6459 29.402 33.6874 29.4374 33.6805 29.5366C33.6805 29.564 33.6805 29.5925 33.6805 29.6199C33.6805 29.848 33.6805 29.848 33.8915 29.848C34.1774 29.848 34.1417 29.8685 34.144 29.5936C34.144 29.5332 34.144 29.4796 34.144 29.3952H34.6548C34.6548 29.2731 34.6548 29.167 34.6548 29.0632C34.6548 28.9594 34.6847 28.9172 34.7989 28.9149C35.131 28.9081 35.131 28.9035 35.131 28.5727V27.9465C35.003 27.9465 34.9004 27.9408 34.792 27.9465C34.6836 27.9522 34.6582 27.9089 34.6548 27.8108C34.6409 27.4686 34.6375 27.4686 34.2939 27.4606C34.2293 27.4629 34.1913 27.4583 34.1279 27.4526ZM33.1732 4.77486H32.2658L23.6428 4.82505C23.3914 4.82505 23.3868 4.82505 23.3868 5.06801C23.3868 5.19577 23.3464 5.24596 23.2115 5.24596C22.7504 5.24596 22.2892 5.26877 21.828 5.27219C19.8572 5.2836 17.8864 5.29273 15.9155 5.29957C15.6158 5.29957 15.6112 5.29957 15.6031 5.59957C15.6031 5.71363 15.5524 5.75584 15.4394 5.74785C15.3264 5.73987 15.2399 5.74785 15.1373 5.74785V20.2013C15.3425 20.2127 15.5328 20.2321 15.723 20.2321C16.6096 20.2321 17.4963 20.2321 18.3829 20.2321C18.5132 20.2321 18.5743 20.1945 18.5593 20.061C18.5593 20.0165 18.5593 19.9709 18.5593 19.9264C18.5512 19.8283 18.5927 19.7793 18.6965 19.7861C18.7415 19.7861 18.7864 19.7861 18.8314 19.7861C18.9767 19.8021 19.024 19.7462 19.024 19.5968C19.024 18.3169 19.024 17.0382 19.0332 15.7584C19.0332 15.439 19.0332 15.4379 19.3572 15.4253C19.4367 15.4253 19.4978 15.4185 19.5013 15.3113C19.5082 15.0831 19.537 14.855 19.5382 14.6269C19.5382 14.4945 19.5831 14.4501 19.7157 14.4546C19.9671 14.4626 20.2184 14.4546 20.4709 14.4546C20.479 14.2641 20.4848 14.1215 20.4928 13.9618H21.0693C23.3514 13.9672 25.6328 13.9733 27.9134 13.9801C28.2477 13.9801 28.2512 13.9801 28.2592 14.304C28.2592 14.4033 28.2915 14.4455 28.3965 14.4398C28.5187 14.4329 28.6397 14.4398 28.7792 14.4398V14.9291C28.8945 14.9291 28.9983 14.9291 29.0986 14.9291C29.1989 14.9291 29.2531 14.9531 29.2485 15.0694C29.2485 15.2588 29.2543 15.4493 29.2554 15.6398C29.2554 16.7964 29.2554 17.9531 29.2554 19.1097V19.712C29.2793 19.7194 29.3035 19.7255 29.328 19.7302C30.7116 19.7485 32.0952 19.7633 33.4787 19.785C33.6459 19.785 33.654 19.6994 33.654 19.5728C33.654 15.0299 33.654 10.4866 33.654 5.94291C33.654 5.88359 33.6482 5.82884 33.6448 5.749C33.5553 5.74319 33.4656 5.74319 33.3761 5.749C33.2101 5.77295 33.1744 5.69538 33.1801 5.54938C33.1801 5.3087 33.1732 5.06345 33.1732 4.77486ZM10.7226 18.2907C11.0489 18.2907 11.3302 18.2907 11.6115 18.2907C11.6496 18.2907 11.7014 18.2371 11.7176 18.1972C11.7321 18.1428 11.7345 18.086 11.7245 18.0306C11.7107 17.8926 11.7672 17.8458 11.909 17.847C12.429 17.8538 12.9466 17.8527 13.4678 17.847C13.5958 17.847 13.6534 17.8789 13.65 18.0158C13.6407 18.334 13.65 18.2861 13.937 18.2896C13.9601 18.2896 13.9901 18.2987 14.0039 18.2896C14.0454 18.2576 14.1077 18.2223 14.1123 18.1835C14.1296 18.0112 14.1342 17.8413 14.1342 17.6656C14.1342 12.6193 14.1342 7.57255 14.1342 2.52545V1.93915C14.1042 1.91633 14.0996 1.91063 14.095 1.91063C13.017 1.91063 11.9378 1.91063 10.8598 1.91063C10.8345 1.91797 10.8114 1.93155 10.7929 1.95011C10.7743 1.96867 10.7608 1.99158 10.7537 2.01671C10.7329 2.26082 10.7145 2.50606 10.7145 2.75016C10.7145 4.00719 10.7145 5.26459 10.7145 6.52237C10.7199 9.9307 10.7226 13.3371 10.7226 16.7417C10.7283 17.2493 10.7226 17.7569 10.7226 18.2907ZM34.611 6.71629V19.5557C34.611 19.7736 34.611 19.777 34.8416 19.7747L37.5695 19.7485H38.018V5.77637H37.5568V6.01363C37.5568 6.24177 37.5568 6.24177 37.3262 6.24177C36.9907 6.24177 37.0333 6.21895 37.0391 6.52808C37.0391 6.66267 36.9942 6.70374 36.8639 6.70374C36.2482 6.70374 35.6336 6.71058 35.0191 6.714L34.611 6.71629ZM38.0145 24.0922V20.7249H34.6317V24.0922H38.0145ZM38.0145 25.0709H34.6133C34.6133 25.5271 34.6133 25.9754 34.6133 26.4214C34.6133 26.4499 34.6836 26.4978 34.7286 26.5013C34.8496 26.5127 34.9718 26.5013 35.1183 26.5013V26.9735H35.5898V27.1788C35.5898 27.48 35.5898 27.4857 35.8908 27.4845C36.0187 27.4845 36.0545 27.5279 36.0533 27.6511C36.0476 28.1746 36.0533 28.6993 36.0533 29.2241C36.0533 29.3564 36.0833 29.4111 36.2309 29.41C36.7728 29.4031 37.3158 29.41 37.8577 29.41C37.9108 29.41 37.9649 29.402 38.018 29.3986L38.0145 25.0709Z" fill="#48494B"/>
</svg>
