<svg width="27" height="40" viewBox="0 0 27 40" fill="none" xmlns="http://www.w3.org/2000/svg">
<path d="M11.2917 39.9952V39.574C11.06 39.5634 10.8378 39.5471 10.6186 39.5451C10.5022 39.5451 10.4618 39.5028 10.4618 39.3874C10.4618 38.2059 10.4618 37.0237 10.4618 35.8408C10.4618 35.7043 10.5205 35.6572 10.6436 35.6716C10.809 35.6908 10.8484 35.6168 10.8484 35.4591C10.8484 31.0778 10.8523 26.6965 10.86 22.3152C10.86 21.6064 10.8475 20.8967 10.8484 20.187C10.8484 20.0495 10.81 19.9947 10.6696 20.0005C10.4522 20.0005 10.4522 20.0005 10.4493 19.7726C10.4378 18.884 10.4224 17.9964 10.4157 17.1078C10.4157 16.977 10.3666 16.9472 10.2493 16.9472C10.0224 16.9472 10.0262 16.9472 10.0204 16.7164C10.007 16.1192 9.98678 15.523 9.97716 14.9258C9.97716 14.8095 9.92812 14.7854 9.82522 14.7874C9.53672 14.7874 9.56461 14.8162 9.56269 14.5123C9.56269 14.32 9.56269 14.1277 9.56269 13.9074H9.12321V13.4632H7.82209C7.73843 13.4632 7.65477 13.4814 7.57206 13.4747C7.44128 13.4632 7.39897 13.5103 7.39897 13.643C7.39897 14.2469 7.38743 14.8499 7.38262 15.4528C7.38262 15.799 7.38262 16.1442 7.38262 16.5001C7.30472 16.5087 7.25664 16.5164 7.20856 16.5174C6.94603 16.5174 6.96526 16.4904 6.95853 16.777C6.95853 16.9693 6.93641 17.1617 6.92583 17.354C6.91471 17.3623 6.90239 17.3687 6.88929 17.3732C6.77293 17.3819 6.6258 17.3511 6.55079 17.4107C6.49116 17.4579 6.52963 17.6185 6.50655 17.7242C6.49713 17.7464 6.48236 17.7659 6.46357 17.781C6.44478 17.7962 6.42254 17.8064 6.39885 17.8108C6.20651 17.8271 6.00938 17.8368 5.81416 17.8339C5.69203 17.8339 5.64683 17.8695 5.64683 17.9954C5.64683 18.233 5.6401 18.232 5.41123 18.233C4.40534 18.2368 3.39945 18.2397 2.39356 18.2416C2.22719 18.2416 2.05986 18.2205 1.89254 18.2205C1.78002 18.2205 1.74444 18.1724 1.75117 18.0685C1.75598 17.9964 1.75117 17.9243 1.75117 17.8233C1.63866 17.8233 1.53961 17.8156 1.44248 17.8233C1.31362 17.8358 1.27227 17.781 1.28381 17.6598C1.2915 17.5829 1.28381 17.505 1.28381 17.4117C1.21553 17.4059 1.16168 17.3992 1.10879 17.3992C0.820291 17.3992 0.855872 17.4213 0.852987 17.1338C0.852987 17.0838 0.852987 17.0376 0.852987 16.9655L0.411588 16.9415V15.8836C0.411588 15.6423 0.411588 15.6346 0.167328 15.6394C0.0298113 15.6394 0 15.5875 0 15.4605C0 11.2292 0 6.99796 0 2.76668C0.00192331 2.64166 0.0432744 2.59647 0.173098 2.59647C0.397163 2.59647 0.399086 2.59166 0.400048 2.35894C0.400048 2.0089 0.400048 1.65885 0.400048 1.29342H0.848179V0.859719H1.28669V0.413511C1.67135 0.413511 2.03005 0.404856 2.39067 0.413511C2.56473 0.419281 2.62724 0.362544 2.6032 0.196177C2.58204 0.0519293 2.63782 0 2.79841 0C3.53504 0.00769323 4.27359 0 5.01022 0H5.19486C5.20586 0.0783627 5.21101 0.157438 5.21024 0.236567C5.20062 0.371198 5.2439 0.428898 5.38911 0.419281C5.61125 0.40678 5.83436 0.419281 6.07765 0.419281C6.08631 0.569299 6.09304 0.699122 6.10266 0.85491C6.1917 0.859745 6.28095 0.859745 6.37 0.85491C6.50655 0.840486 6.54309 0.900108 6.54117 1.02801C6.54117 1.26554 6.54117 1.26938 6.78639 1.27515C6.90371 1.27515 6.9643 1.3117 6.94987 1.44056C6.94411 1.51835 6.94411 1.59645 6.94987 1.67424C6.95476 1.69754 6.96251 1.72016 6.97295 1.74156H7.38743C7.38743 2.09448 7.38743 2.42818 7.38743 2.76091C7.38743 2.95324 7.40089 3.14076 7.39608 3.33117C7.39608 3.45907 7.44993 3.50715 7.56629 3.4908C7.74805 3.46484 7.79421 3.54273 7.7894 3.71679C7.77786 4.14665 7.7817 4.57747 7.7894 5.00829C7.7894 5.14581 7.74612 5.20062 7.60668 5.19582C7.54321 5.19582 7.4307 5.22467 7.42397 5.25736C7.40907 5.36713 7.40907 5.4784 7.42397 5.58817C7.42397 5.60067 7.46917 5.61798 7.49417 5.61991C7.6865 5.63914 7.87883 5.6651 8.07116 5.66799C8.19522 5.66799 8.23753 5.70742 8.23657 5.83243C8.23657 6.06611 8.23657 6.06227 8.47506 6.06804C8.9328 6.07862 9.39055 6.09112 9.84734 6.11227C9.87522 6.11804 9.90123 6.13064 9.92305 6.14893C9.94487 6.16723 9.96181 6.19065 9.97235 6.21709C10.0204 6.52867 10.0416 6.54502 10.4157 6.47097V5.9411C10.4157 4.74031 10.4192 3.53889 10.4263 2.33682C10.4263 2.19257 10.4445 2.04832 10.4407 1.90215C10.4407 1.77425 10.4916 1.73194 10.6119 1.74348C10.683 1.75021 10.7542 1.74348 10.8542 1.74348V0.871259C10.9734 0.871259 11.0667 0.864527 11.1581 0.871259C11.286 0.88376 11.3302 0.822214 11.3273 0.705854C11.3273 0.667388 11.3273 0.62796 11.3273 0.588532C11.3196 0.481789 11.3667 0.440438 11.4754 0.439476C11.7985 0.439476 12.1216 0.419281 12.4457 0.420243C12.5698 0.420243 12.6159 0.386585 12.6102 0.260608C12.5996 -0.00673157 12.5996 0.00769323 12.8689 0.00769323H15.3999C15.6201 0.00769323 15.6192 0.00769323 15.624 0.225989C15.624 0.286573 15.6326 0.346195 15.6394 0.425051H16.5049C16.5116 0.574107 16.5183 0.704892 16.5251 0.859719H16.953V1.29823H17.3742C17.3877 1.58673 17.4002 1.8608 17.4136 2.1493C17.4771 2.15411 17.5367 2.16084 17.5963 2.1618C17.8108 2.1618 17.8108 2.1618 17.8118 2.38779C17.8175 3.4158 17.8243 4.4438 17.8252 5.47181C17.8252 5.60452 17.8531 5.66414 17.9993 5.65645C18.1656 5.64972 18.333 5.67761 18.5003 5.67472C18.6253 5.67472 18.6657 5.71799 18.6647 5.84013C18.6647 6.069 18.6696 6.06708 18.8955 6.06996C19.2196 6.07573 19.5437 6.08919 19.8668 6.08919C19.9889 6.08919 20.0226 6.13728 20.0197 6.24883C20.012 6.51905 20.0197 6.48539 20.2659 6.49213C20.5669 6.50078 20.8679 6.52194 21.1689 6.52771C21.2756 6.52771 21.2978 6.57579 21.2997 6.67003C21.3064 6.9393 21.3103 6.93545 21.5824 6.94314C21.7661 6.94314 21.9488 6.9643 22.1517 6.97776L22.1748 7.37685C22.2786 7.37685 22.3777 7.38262 22.4748 7.37685C22.5719 7.37108 22.6287 7.41724 22.622 7.52206C22.622 7.56149 22.622 7.60091 22.622 7.63938C22.6104 7.75766 22.6508 7.80671 22.7806 7.80767C22.9737 7.81142 23.1664 7.82716 23.3576 7.85479C23.3809 7.86229 23.402 7.87557 23.4188 7.89339C23.4356 7.91121 23.4477 7.933 23.4538 7.95673C23.4788 8.15483 23.4836 8.35485 23.5115 8.55199C23.5198 8.57909 23.5347 8.60372 23.5548 8.62368C23.575 8.64365 23.5997 8.65833 23.6269 8.66643C23.9086 8.69816 23.9086 8.69335 23.9154 8.97319C23.9154 9.01647 23.9211 9.05974 23.925 9.11937H24.3529C24.3529 9.35497 24.3625 9.57615 24.3529 9.79252C24.3443 9.95023 24.3875 10.0233 24.5549 9.99928C24.634 9.99479 24.7133 9.99479 24.7924 9.99928V11.0686C24.7924 11.3052 24.7924 11.3148 25.0232 11.3042C25.1742 11.2975 25.2155 11.3504 25.2098 11.4966C25.203 12.1495 25.2098 12.8025 25.2098 13.4708C25.2897 13.4824 25.3704 13.4879 25.4511 13.4872C25.5954 13.4737 25.6435 13.5237 25.6435 13.6795C25.6435 14.6623 25.6521 15.6461 25.6589 16.6299C25.6589 17.2607 25.6704 17.8925 25.6665 18.5243C25.6665 18.6686 25.706 18.7234 25.8589 18.7167C26.0791 18.7109 26.0801 18.7167 26.0801 18.9388C26.0839 24.9011 26.0874 30.8633 26.0906 36.8256C26.0906 37.2449 26.081 37.6641 26.0906 38.0825C26.0906 38.2152 26.0522 38.2584 25.9204 38.2556C25.6319 38.2498 25.6781 38.245 25.6752 38.5123C25.6752 38.7123 25.6752 38.9114 25.6752 39.1268H25.2386V39.5624H24.3577V40H21.742C21.742 39.9221 21.742 39.8433 21.7497 39.7663C21.768 39.6134 21.7084 39.5615 21.5526 39.574C21.3372 39.5874 21.1208 39.574 20.8996 39.574C20.8871 39.3143 20.864 39.0932 20.8679 38.8701C20.8679 38.7229 20.8256 38.6681 20.6756 38.6777C20.615 38.6777 20.5246 38.67 20.4967 38.6306C20.4731 38.5957 20.4595 38.5551 20.4572 38.513C20.455 38.471 20.4643 38.4291 20.4841 38.3919C20.5038 38.3548 20.5334 38.3237 20.5695 38.302C20.6056 38.2804 20.6469 38.269 20.689 38.269C20.8131 38.269 20.864 38.2373 20.865 38.0988C20.8785 36.6352 20.9006 35.1715 20.9121 33.7079C20.9121 33.5511 20.9525 33.4752 21.1189 33.4973C21.2602 33.5156 21.2997 33.4444 21.2968 33.3107C21.2901 33.0309 21.2968 32.752 21.2968 32.4722C21.2968 28.957 21.2968 25.4422 21.2968 21.9276C21.2968 21.768 21.2526 21.6978 21.09 21.719C20.9621 21.7353 20.915 21.6824 20.9131 21.5478C20.8996 20.3755 20.8756 19.2023 20.8669 18.0291C20.8669 17.8502 20.815 17.7848 20.6419 17.806C20.5275 17.8204 20.4717 17.78 20.4698 17.6492C20.4582 16.9116 20.4323 16.175 20.4265 15.4374C20.4265 15.2682 20.3832 15.197 20.212 15.2259C20.0668 15.2499 20.0149 15.1893 20.0197 15.0403C20.0322 14.8085 20.0197 14.5768 20.0197 14.3431L19.6043 14.3248C19.5822 14.0363 19.562 13.7622 19.5398 13.4737H17.8339C17.8339 13.5228 17.8252 13.5603 17.8243 13.5988C17.8153 14.3411 17.8066 15.0839 17.7983 15.8269C17.7983 16.0923 17.8223 16.0904 17.5473 16.0865C17.4733 16.0865 17.404 16.0817 17.4002 16.1933C17.3877 16.4991 17.3627 16.8039 17.3492 17.1097C17.3386 17.3434 17.3425 17.3502 17.1126 17.3482C16.9751 17.3482 16.9145 17.3973 16.9261 17.5348C16.9367 17.5839 16.9367 17.6347 16.9261 17.6839C16.9078 17.7291 16.8616 17.7896 16.8232 17.7944C16.6358 17.8202 16.4468 17.8311 16.2577 17.8271C16.0952 17.8204 16.0433 17.8829 16.0654 18.0291C16.0885 18.1964 16.0087 18.2532 15.8538 18.2291C15.6827 18.2031 15.6384 18.2762 15.6394 18.4445C15.6535 20.2044 15.6621 21.9645 15.6653 23.725C15.6653 23.8788 15.7221 23.9279 15.8577 23.9096C15.9933 23.8913 16.05 23.9577 16.05 24.1019C16.0442 24.4991 16.0558 24.8953 16.0558 25.2925C16.0558 27.6645 16.0532 30.0392 16.0481 32.4164C16.0481 32.5376 16.0096 32.6001 15.8846 32.5837C15.7019 32.5587 15.6644 32.6433 15.6644 32.8136C15.6644 34.5907 15.6548 36.3669 15.648 38.144C15.648 38.3219 15.648 38.4989 15.648 38.696H15.2163V39.1393C15.1057 39.1393 15.0162 39.1451 14.9278 39.1393C14.822 39.1316 14.7883 39.1787 14.795 39.2778C14.8018 39.3768 14.795 39.4615 14.795 39.574C14.6152 39.574 14.4652 39.574 14.3142 39.574C14.1882 39.574 14.0065 39.5451 13.9498 39.6134C13.8815 39.6961 13.918 39.8663 13.9094 39.9981L11.2917 39.9952ZM14.3421 38.2738V38.0719C14.3479 36.7592 14.3565 35.4456 14.3565 34.1291C14.3565 33.9743 14.4046 33.9098 14.5585 33.9291C14.7123 33.9483 14.7508 33.8656 14.7508 33.7204C14.7508 33.3175 14.7614 32.9155 14.7614 32.5135C14.7575 29.2721 14.754 26.0307 14.7508 22.7893C14.7508 22.6393 14.7037 22.5662 14.5489 22.5873C14.394 22.6085 14.3565 22.5325 14.3565 22.3844C14.3508 20.6352 14.3363 18.8859 14.3325 17.1367C14.3325 16.9607 14.2709 16.902 14.1094 16.9232C13.9478 16.9443 13.9171 16.8722 13.9171 16.7309C13.9171 16.1 13.9103 15.4682 13.9036 14.8374C13.8959 14.1555 13.8815 13.4737 13.8796 12.7929C13.8796 12.6419 13.8257 12.5919 13.6872 12.6054C13.6135 12.6055 13.5399 12.6004 13.467 12.59V10.859H13.0343V9.99351L12.5909 9.97331C12.5909 9.72425 12.5909 9.49249 12.5861 9.26746C12.5821 9.24165 12.5718 9.21725 12.556 9.19643C12.5402 9.17562 12.5195 9.15905 12.4957 9.14821C12.3909 9.12129 12.2294 9.15783 12.1842 9.09725C12.1255 9.02032 12.1592 8.87414 12.1524 8.75778C12.1484 8.74592 12.1429 8.73461 12.1361 8.72413C11.9437 8.70393 11.7514 8.67508 11.5591 8.66546C11.3389 8.65392 11.3331 8.66546 11.3312 8.43082C11.3312 8.29907 11.2917 8.2308 11.1465 8.24618C11.0504 8.25106 10.9541 8.25106 10.858 8.24618C10.8513 8.09713 10.8446 7.97211 10.8369 7.80959C10.5888 7.80959 10.3561 7.80382 10.1214 7.80959C10.0012 7.80959 9.95793 7.7692 9.97043 7.65477C9.97043 7.6163 9.97043 7.57591 9.97043 7.53744C9.97716 7.44128 9.94158 7.40858 9.84638 7.4057C9.37805 7.39223 8.90972 7.36531 8.4414 7.3605C8.28369 7.3605 8.22599 7.31049 8.24907 7.16048C8.27215 7.01046 8.1981 6.96814 8.04808 6.96814C7.58456 6.96814 7.12105 6.94699 6.65753 6.94122C6.54694 6.94122 6.50559 6.89987 6.51521 6.79312C6.51521 6.75466 6.51521 6.71523 6.51521 6.6758C6.52675 6.56233 6.48251 6.51905 6.36423 6.52098C6.02284 6.52098 5.68145 6.52098 5.34103 6.52098C5.20543 6.52098 5.16793 6.57194 5.16985 6.69888C5.16985 6.9191 5.16504 6.92776 4.93809 6.92102C4.78519 6.91622 4.74576 6.98161 4.74576 7.12009C4.74576 7.36627 4.74576 7.37396 4.49573 7.37108C4.36495 7.37108 4.33706 7.42108 4.33802 7.54033C4.33802 7.79132 4.31975 8.04231 4.32167 8.2933C4.33065 9.39921 4.34347 10.5048 4.36014 11.61C4.36014 11.6476 4.42265 11.6899 4.464 11.7197C4.48227 11.7331 4.51785 11.7197 4.54574 11.7197C4.7775 11.7197 4.77654 11.7197 4.77846 11.9601C4.77846 12.0245 4.78423 12.089 4.78808 12.1745H9.55307V12.6092H10.0031V13.0439H10.4224C10.4224 13.1747 10.4224 13.2853 10.4224 13.3968C10.4436 13.868 10.4455 13.8671 10.8071 13.9046C10.8176 13.9046 10.8263 13.9142 10.86 13.9334C10.86 14.1305 10.86 14.3421 10.86 14.5527C10.86 14.8047 10.8225 14.8018 11.1023 14.796C11.2187 14.796 11.2744 14.8201 11.2754 14.9528C11.2754 15.5509 11.2937 16.1481 11.3023 16.7453C11.3023 16.9674 11.3023 16.9761 11.5225 16.9684C11.6716 16.9626 11.7149 17.0174 11.7149 17.1607C11.7235 18.3291 11.7437 19.4966 11.7524 20.664C11.7524 20.8275 11.7966 20.9102 11.9697 20.8881C12.1111 20.8698 12.1534 20.9371 12.1495 21.0727C12.1438 21.341 12.1495 21.6093 12.1495 21.8776L12.1438 35.4071C12.1438 35.6245 12.1438 35.6302 11.9216 35.6283C11.7889 35.6283 11.7351 35.6658 11.7351 35.811C11.7351 36.5929 11.7274 37.3756 11.7226 38.1575C11.7226 38.3286 11.7226 38.5008 11.7226 38.6796H13.9055V38.2738H14.3421ZM23.9115 11.3023C23.8331 11.2977 23.7544 11.2977 23.6759 11.3023C23.5211 11.3225 23.4749 11.261 23.4769 11.11C23.4769 10.7926 23.4596 10.4743 23.4547 10.157C23.4547 10.0608 23.424 10.0195 23.3297 10.0243C23.2788 10.0243 23.2288 10.0243 23.1787 10.0243C23.0739 10.0243 23.0249 9.98678 23.0335 9.87619C23.0422 9.7656 23.0335 9.66943 23.0335 9.55115H22.6143L22.5921 9.11456H22.17C22.17 9.00589 22.17 8.91165 22.17 8.81837C22.17 8.72509 22.1334 8.677 22.0325 8.68374C21.9315 8.69047 21.8469 8.68374 21.7324 8.68374C21.7324 8.57411 21.7324 8.48564 21.7324 8.39524C21.7324 8.30484 21.7084 8.25388 21.6016 8.25388C21.4574 8.25388 21.3131 8.23561 21.1689 8.22984C20.9073 8.21926 20.9035 8.22118 20.8919 7.96346C20.8919 7.85768 20.8496 7.8144 20.741 7.81632C20.5794 7.81632 20.4178 7.80575 20.2553 7.80286C19.988 7.80286 19.9966 7.83556 20.0024 7.55187C20.0024 7.44032 19.9687 7.39223 19.8485 7.39223C19.5254 7.39223 19.2013 7.36723 18.8782 7.37493C18.7071 7.37493 18.6397 7.3278 18.6638 7.15951C18.683 7.02296 18.6282 6.9768 18.4868 6.97584C18.0176 6.97584 17.5483 6.95468 17.0799 6.94891C16.9732 6.94891 16.9222 6.91718 16.9318 6.80659C16.9318 6.76812 16.9318 6.72773 16.9318 6.68927C16.9415 6.57771 16.9011 6.52963 16.7809 6.53059C16.4404 6.53059 16.0991 6.52482 15.7586 6.52194H15.2134C15.2134 6.64791 15.2076 6.73639 15.2134 6.8239C15.222 6.93641 15.1701 6.97295 15.0653 6.96814C14.9605 6.96334 14.8816 6.96814 14.746 6.96814C14.746 7.34031 14.746 7.67977 14.746 8.01923C14.746 8.24234 14.746 8.24907 14.5258 8.24426C14.3892 8.24426 14.3421 8.28273 14.344 8.42505C14.3508 9.02897 14.3536 9.63193 14.344 10.2358C14.344 10.4099 14.3873 10.4849 14.5662 10.4638C14.6566 10.4532 14.7316 10.4715 14.7345 10.5926C14.7402 10.7926 14.7585 10.9927 14.7643 11.1927C14.7691 11.3696 14.7643 11.5466 14.7643 11.7447H15.2047V12.1726C15.7942 12.1726 16.3587 12.1726 16.9357 12.1726C17.8973 12.1726 18.8686 12.1822 19.8341 12.1851C19.9303 12.1851 19.9659 12.2274 19.9601 12.3178C19.9601 12.3678 19.9601 12.4188 19.9601 12.4688C19.9514 12.5784 19.9995 12.6198 20.1072 12.6121C20.2149 12.6044 20.2996 12.6121 20.3957 12.6121C20.4015 12.6602 20.4053 12.6823 20.4063 12.7083C20.4111 12.8131 20.3774 12.9516 20.4323 13.015C20.4871 13.0785 20.6246 13.0381 20.7265 13.0631C20.7501 13.0728 20.771 13.0878 20.7877 13.107C20.8044 13.1262 20.8164 13.1491 20.8227 13.1737C20.8419 13.3449 20.8477 13.517 20.8506 13.6901C20.8506 13.9555 20.8352 13.9363 21.0968 13.9324C21.1929 13.9324 21.2564 13.9392 21.2602 14.0623C21.2737 14.5085 21.2978 14.9537 21.3131 15.399C21.3208 15.6259 21.3131 15.6307 21.541 15.6336C21.6545 15.6336 21.7093 15.6577 21.7113 15.7923C21.718 16.551 21.7401 17.3107 21.7459 18.0704C21.7459 18.2224 21.7882 18.2916 21.944 18.2705C22.0853 18.2522 22.1363 18.3041 22.1363 18.4561C22.1459 20.0707 22.1661 21.6853 22.1757 23.2999C22.1757 23.4624 22.2296 23.5278 22.3883 23.5096C22.5152 23.4951 22.5739 23.5461 22.5662 23.6807C22.5585 23.8154 22.5662 23.9269 22.5662 24.05C22.5662 27.1177 22.5662 30.1854 22.5662 33.253C22.5662 33.4098 22.5267 33.4858 22.3604 33.4646C22.2238 33.4473 22.1748 33.5098 22.1757 33.6483C22.1757 33.9368 22.1594 34.2176 22.1565 34.5022C22.1469 35.5523 22.1363 36.6034 22.1344 37.6536C22.1344 37.8007 22.0805 37.8372 21.9488 37.8305C21.8872 37.8305 21.7738 37.8469 21.7699 37.8709C21.7488 37.9853 21.7488 38.1027 21.7699 38.2171C21.7757 38.2459 21.894 38.2671 21.9623 38.2671C22.0786 38.2671 22.1469 38.2979 22.1325 38.4287C22.1277 38.4671 22.1325 38.5065 22.1325 38.545C22.12 38.6604 22.1661 38.7008 22.2844 38.6989C22.7989 38.6931 23.3124 38.6989 23.8231 38.6989H24.3318C24.3318 38.5777 24.3375 38.4892 24.3318 38.4008C24.3231 38.2892 24.3722 38.2527 24.4789 38.2594C24.5751 38.2661 24.6635 38.2594 24.7607 38.2594C24.7607 38.1902 24.7684 38.1459 24.7684 38.1017C24.7761 34.3474 24.7825 30.5925 24.7876 26.8369C24.7876 24.0596 24.7722 21.2824 24.7626 18.5051C24.7626 18.282 24.7626 18.2762 24.5366 18.2743C24.4183 18.2743 24.3616 18.2349 24.3654 18.1089C24.3693 17.9829 24.3549 17.8521 24.3539 17.7242C24.3452 16.5222 24.3347 15.3201 24.3347 14.12C24.3347 13.9498 24.2904 13.8844 24.1202 13.9046C24.0356 13.9142 23.9481 13.9142 23.9442 13.7872C23.9385 13.5949 23.9173 13.4093 23.9163 13.2199C23.9096 12.5842 23.9115 11.9582 23.9115 11.2975V11.3023ZM3.88893 12.1265C3.88893 11.7706 3.88124 11.4091 3.88893 11.0475C3.88893 10.885 3.83892 10.8186 3.67929 10.8426C3.51965 10.8667 3.48696 10.8003 3.48696 10.6503C3.48696 9.78483 3.48696 8.91934 3.48696 8.05385C3.48696 7.83652 3.48696 7.83652 3.70525 7.82883C3.78796 7.82883 3.87739 7.83844 3.87931 7.70862C3.87931 7.53552 3.89758 7.36338 3.90143 7.19029C3.9072 6.91429 3.86873 6.92487 4.15915 6.91814C4.2082 6.91814 4.29379 6.86813 4.29956 6.83159C4.33225 6.63926 4.34668 6.44693 4.3611 6.2546C4.36783 6.17767 4.3611 6.10939 4.47169 6.10554C4.61113 6.10073 4.74961 6.0815 4.88809 6.07862C5.36218 6.06611 5.83724 6.05265 6.31134 6.05265C6.45558 6.05265 6.48732 6.00072 6.48732 5.86705C6.48732 5.00733 6.48732 4.14665 6.48732 3.28597C6.48732 3.02825 6.51424 3.03017 6.24787 3.0369C6.13631 3.0369 6.08631 3.00709 6.09016 2.88496C6.09016 2.72437 6.07765 2.56281 6.07381 2.40413C6.06708 2.14353 6.119 2.14257 5.82474 2.14834C5.69395 2.14834 5.63241 2.10602 5.65549 1.97428C5.65549 1.95793 5.65549 1.94062 5.65549 1.92331C5.67568 1.77618 5.62568 1.70213 5.46316 1.72521C5.37669 1.73056 5.28998 1.73056 5.20351 1.72521L5.17562 1.29823H4.11492C3.87835 1.29823 3.87258 1.29823 3.87258 1.52903C3.87258 1.65501 3.82546 1.69347 3.70429 1.69347C3.45522 1.69347 3.44849 1.70117 3.45522 1.96081C3.45522 2.10506 3.41868 2.17238 3.2677 2.15314C3.19692 2.1488 3.12595 2.1488 3.05517 2.15314C3.04748 2.1993 3.04171 2.22046 3.04075 2.24162C3.02633 2.90035 2.99844 3.55908 3.00036 4.21878C3.01318 8.21797 3.03017 12.2178 3.05133 16.2183C3.05133 16.5068 3.00325 16.4972 3.3129 16.4972C3.32444 16.4972 3.33598 16.4972 3.34656 16.4972C3.44272 16.4914 3.48792 16.5347 3.48023 16.6366C3.47253 16.7386 3.48023 16.8289 3.48023 16.9434H4.98041C5.22659 16.9434 5.23236 16.9434 5.2314 16.6991C5.2314 16.5751 5.27371 16.5347 5.3968 16.5337C5.57997 16.531 5.76276 16.5162 5.94398 16.4895C5.9708 16.4797 5.99477 16.4635 6.01374 16.4421C6.03271 16.4208 6.04608 16.3951 6.05265 16.3674C6.07765 15.9221 6.09496 15.4759 6.10843 15.0297C6.11612 14.7979 6.10843 14.795 6.34211 14.7845C6.4325 14.7845 6.4902 14.7614 6.48924 14.6527C6.48924 14.1559 6.48924 13.6584 6.48924 13.1602C6.48924 13.0737 6.4527 13.0439 6.36807 13.0429C6.07284 13.0371 5.77762 13.0227 5.48143 13.0179C5.24101 13.0179 5.23524 13.0179 5.23621 12.7708C5.23621 12.6419 5.19678 12.5938 5.06119 12.5996C4.82943 12.6102 4.59671 12.5996 4.36014 12.5996C4.35148 12.439 4.39187 12.2649 4.32456 12.1976C4.25724 12.1303 4.07934 12.1534 3.88893 12.1265ZM13.9094 7.38935C13.992 7.37999 14.0753 7.37646 14.1584 7.37877C14.2998 7.39223 14.3421 7.3355 14.3354 7.19702C14.3248 6.9768 14.3354 6.75466 14.3354 6.53059L14.7902 6.5104V6.07477H16.5087V2.16757H16.0817V1.75213C15.8683 1.73098 15.6807 1.7002 15.4932 1.69732C15.2191 1.69732 15.223 1.69059 15.2336 1.44248C15.2336 1.33381 15.1989 1.29535 15.0884 1.29823C14.7999 1.30593 14.5191 1.30304 14.2344 1.30496H13.9276C13.9161 1.46075 13.9526 1.63097 13.8844 1.70117C13.8161 1.77137 13.6459 1.73482 13.5199 1.74733C13.5112 1.74733 13.5026 1.75887 13.4583 1.7906V2.76668C13.4583 2.99844 13.4583 3.00517 13.2324 3.00132C13.0891 3.00132 13.04 3.0446 13.04 3.19365C13.04 4.70153 13.04 6.2094 13.04 7.71343C13.04 7.88556 13.04 8.05674 13.04 8.25003H13.4651V8.68374H13.9074L13.9094 7.38935ZM1.7329 1.73098C1.7329 1.84734 1.72713 1.94158 1.7329 2.03486C1.74156 2.14449 1.69924 2.19065 1.58961 2.18103C1.54538 2.17622 1.50018 2.18103 1.45594 2.18103C1.34824 2.16949 1.30689 2.2118 1.30977 2.32336C1.31458 2.51569 1.304 2.71379 1.30304 2.90997C1.30304 5.29615 1.30048 7.68233 1.29535 10.0685C1.29535 12.0139 1.30496 13.9584 1.30593 15.9029C1.30593 16.0327 1.33766 16.0885 1.47325 16.076C1.56061 16.0735 1.64803 16.0774 1.73482 16.0875V16.5356H2.1541C2.1541 16.6049 2.16276 16.6539 2.16276 16.7039C2.16276 16.9703 2.13968 16.9443 2.40798 16.9463C2.4301 16.9463 2.45222 16.9463 2.47434 16.9463C2.5705 16.9559 2.6032 16.9107 2.60031 16.8184C2.5955 16.6453 2.60031 16.4722 2.60031 16.2991C2.60031 16.0539 2.60031 16.0481 2.35413 16.0481C2.232 16.0481 2.18776 16.0087 2.18776 15.8827C2.18776 15.3913 2.17238 14.8999 2.17141 14.4085C2.17141 11.4408 2.17141 8.47313 2.17141 5.50547C2.17141 4.45534 2.18584 3.40522 2.19353 2.35413C2.19353 2.26662 2.19353 2.19161 2.31759 2.18488C2.60608 2.16853 2.60608 2.16276 2.60608 1.86753C2.60608 1.82426 2.59839 1.78098 2.59358 1.73194L1.7329 1.73098ZM12.5996 7.35569V2.16949L13.0256 2.14257C13.031 2.03717 13.031 1.93157 13.0256 1.82618C13.0256 1.7906 12.9737 1.73002 12.9439 1.73002C12.6852 1.72232 12.4246 1.72521 12.1495 1.72521V2.1541H11.7437V7.35569H12.5996ZM16.1 16.0779C16.1894 16.0779 16.2721 16.0731 16.3529 16.0779C16.4674 16.0875 16.5097 16.0452 16.5097 15.9269C16.5097 15.0056 16.5193 14.0853 16.5241 13.165C16.5215 13.1167 16.5163 13.0686 16.5087 13.0208C16.2645 13.0208 16.0279 13.0208 15.7971 13.0208C15.6875 13.0208 15.6432 12.9843 15.6519 12.8765C15.6519 12.8323 15.6519 12.7871 15.6519 12.7419C15.6577 12.6458 15.623 12.5929 15.5173 12.6054C15.4786 12.6107 15.4395 12.6107 15.4009 12.6054C15.2566 12.5832 15.2086 12.6361 15.2086 12.7871C15.2172 13.0939 15.2086 13.4006 15.2086 13.7074C15.2134 14.5883 15.222 15.4701 15.2239 16.352C15.2239 16.4741 15.2566 16.5241 15.3836 16.5174C15.5105 16.5106 15.6509 16.5241 15.7846 16.5251C16.0885 16.5251 16.0885 16.5251 16.0933 16.2308C16.0914 16.1894 16.0952 16.1452 16.1 16.0779Z" fill="#48494B"/>
</svg>
