<svg width="17" height="17" viewBox="0 0 17 17" fill="none" xmlns="http://www.w3.org/2000/svg">
<path d="M16.9947 8.50823C16.9947 10.5231 16.9947 12.5379 16.9947 14.5527C16.9947 15.8852 15.8796 17 14.5468 17H10.2404C8.1001 17 5.95991 16.9994 3.81982 16.9982C3.35488 16.9982 2.88964 17.0012 2.4247 16.9982C1.24282 16.9949 0.164723 16.0522 0.0332038 14.8754C-0.0148111 14.4451 0.00338086 14.0064 0.00338086 13.5713C0.00119384 11.7642 0.00109443 9.95653 0.00308263 8.14826V2.51353C0.00308263 1.21563 0.942802 0.152148 2.23234 0.0224183C2.63078 -0.0175444 3.03756 0.00810331 3.43808 0.00810331C6.47147 0.00810331 9.50486 0.00810331 12.5382 0.00810331C13.217 0.00810331 13.8961 0.0104891 14.5749 0.00810331C15.6485 0.00333165 16.6648 0.80855 16.9204 1.88337C16.9668 2.0773 16.9906 2.27595 16.9914 2.47535C16.9966 4.48621 16.9977 6.49717 16.9947 8.50823ZM8.22675 0.545512H8.11193C6.23408 0.545512 4.35603 0.545512 2.47779 0.545512C1.41579 0.545512 0.539298 1.42111 0.539298 2.48221C0.539298 4.36404 0.539298 6.24576 0.539298 8.12739C0.539298 8.16228 0.542579 8.19717 0.544368 8.23177H8.22764L8.22675 0.545512ZM8.77698 16.465H8.86347C10.5831 16.465 12.3028 16.4645 14.0228 16.4635C14.2844 16.4635 14.5483 16.4709 14.8069 16.4393C15.7102 16.329 16.4579 15.485 16.4591 14.584C16.4618 12.68 16.4618 10.7759 16.4591 8.87177C16.4591 8.84194 16.4552 8.81481 16.4531 8.78528H8.77698V16.465ZM8.77698 8.22908H16.4594V2.47535C16.4594 1.4226 15.5817 0.544319 14.5265 0.543723C12.7298 0.54253 10.933 0.54253 9.13605 0.543723H8.77817L8.77698 8.22908ZM8.22436 8.78618H0.54407C0.541982 8.80884 0.539298 8.82316 0.539298 8.83747C0.539298 10.756 0.529755 12.6748 0.543175 14.5933C0.550035 15.6147 1.44293 16.4647 2.46586 16.465H8.22555L8.22436 8.78618Z" fill="#F26422"/>
<path d="M4.38139 4.65235C3.75451 4.65235 3.12823 4.65235 2.50254 4.65235C2.38623 4.65235 2.29378 4.61567 2.23623 4.5092C2.21188 4.46746 2.19995 4.41963 2.20186 4.37135C2.20376 4.32306 2.21941 4.27632 2.24696 4.23662C2.31168 4.13642 2.41308 4.11017 2.52551 4.11017C2.94303 4.11017 3.35975 4.11017 3.77568 4.11017H6.17643C6.22061 4.10872 6.26484 4.11012 6.30884 4.11435C6.46034 4.13403 6.56353 4.24825 6.55965 4.38872C6.55577 4.53634 6.44394 4.64699 6.28558 4.64907C5.99421 4.65265 5.70284 4.65116 5.41177 4.65146L4.38139 4.65235Z" fill="#F26422"/>
<path d="M12.999 12.6262C13.3814 13.0083 13.7539 13.3816 14.1284 13.7532C14.2003 13.8248 14.2501 13.9024 14.2358 14.007C14.2314 14.0572 14.2122 14.1049 14.1808 14.1442C14.1493 14.1836 14.1069 14.2127 14.059 14.228C13.9465 14.2671 13.8502 14.2358 13.7667 14.1526C13.4148 13.8001 13.0628 13.4477 12.7107 13.0953C12.6828 13.0623 12.6573 13.0272 12.6346 12.9904C12.2395 13.3861 11.864 13.7613 11.4897 14.1377C11.4155 14.2125 11.3331 14.262 11.2243 14.2397C11.1745 14.2324 11.128 14.2106 11.0906 14.177C11.0531 14.1434 11.0264 14.0995 11.0137 14.0509C10.9986 14.0031 10.9974 13.9519 11.0105 13.9035C11.0236 13.855 11.0502 13.8114 11.0874 13.7777C11.4402 13.4264 11.7918 13.0733 12.1449 12.722C12.1778 12.6931 12.2125 12.6663 12.2487 12.6417C12.2064 12.5961 12.1807 12.5666 12.1533 12.5391C11.7984 12.1841 11.4437 11.8291 11.0892 11.4742C11.0441 11.4325 11.0145 11.3768 11.0052 11.3161C10.9959 11.2554 11.0076 11.1934 11.0382 11.1402C11.0676 11.0884 11.114 11.0483 11.1695 11.0265C11.2249 11.0048 11.2862 11.0028 11.343 11.0209C11.3977 11.0414 11.4472 11.074 11.4876 11.1163C11.8366 11.4614 12.1838 11.8083 12.5293 12.1568C12.5592 12.1927 12.5865 12.2307 12.6111 12.2704C12.7464 12.1294 12.8571 12.0107 12.971 11.8959C13.2335 11.6312 13.4969 11.3676 13.7613 11.105C13.8842 10.983 14.0428 10.9746 14.1556 11.082C14.2683 11.1894 14.2692 11.357 14.1425 11.4843C13.7646 11.8628 13.3856 12.2403 12.999 12.6262Z" fill="#F26422"/>
<path d="M12.8904 4.65235V5.96456C12.8904 6.06775 12.8927 6.17093 12.8904 6.27442C12.8877 6.43904 12.78 6.55744 12.63 6.56311C12.48 6.56877 12.3532 6.45097 12.3518 6.28247C12.3479 5.78085 12.3497 5.27893 12.3488 4.77731C12.3488 4.74122 12.3455 4.70514 12.3431 4.65802C12.2835 4.65533 12.2298 4.65086 12.1758 4.65086C11.6923 4.65086 11.2089 4.65086 10.7258 4.65086C10.6026 4.65086 10.5114 4.60046 10.4616 4.48654C10.4171 4.38514 10.4341 4.2575 10.5239 4.19517C10.5955 4.14639 10.6795 4.1188 10.7661 4.11554C11.2495 4.10838 11.7329 4.11196 12.2161 4.11226H12.3503V3.40635C12.3503 3.10037 12.3488 2.79409 12.3503 2.48781C12.3503 2.36583 12.4048 2.27487 12.5203 2.22775C12.6276 2.18391 12.7356 2.20151 12.803 2.2874C12.8544 2.35658 12.8836 2.43981 12.8865 2.52598C12.8939 3.00941 12.8901 3.49284 12.8901 3.97597V4.11077H14.4343C14.4641 4.11077 14.4939 4.11077 14.5238 4.11077C14.6943 4.12449 14.8083 4.24199 14.8005 4.39528C14.7928 4.54857 14.6773 4.64997 14.5097 4.65056C14.0114 4.65205 13.5134 4.65056 13.0153 4.65056L12.8904 4.65235Z" fill="#F26422"/>
<path d="M4.39158 13.1026C5.01786 13.1026 5.64414 13.1026 6.27221 13.1026C6.42133 13.1026 6.52094 13.1859 6.55195 13.3215C6.56423 13.3781 6.55707 13.4372 6.53163 13.4892C6.5062 13.5412 6.46398 13.5831 6.41179 13.6081C6.35787 13.631 6.29977 13.6424 6.2412 13.6415C5.01707 13.6429 3.79274 13.6429 2.56821 13.6415C2.53839 13.6415 2.50856 13.6415 2.47874 13.6415C2.31114 13.6326 2.1999 13.5255 2.2002 13.3731C2.2002 13.2169 2.31949 13.1023 2.48739 13.1021C3.02599 13.1021 3.5643 13.1021 4.1026 13.1021H4.39039L4.39158 13.1026Z" fill="#F26422"/>
<path d="M4.38386 12.1479H2.50502C2.32399 12.1479 2.2044 12.042 2.2041 11.8819C2.2038 11.7217 2.32041 11.6114 2.50054 11.6111C3.7531 11.6111 5.00666 11.6111 6.26121 11.6111C6.41032 11.6111 6.50337 11.674 6.54333 11.7951C6.57942 11.9048 6.5487 12.0286 6.45088 12.0888C6.3915 12.124 6.32397 12.1432 6.25495 12.1443C5.63016 12.1494 5.00716 12.1479 4.38386 12.1479Z" fill="#F26422"/>
</svg>
