<svg width="10" height="30" viewBox="0 0 10 30" fill="none" xmlns="http://www.w3.org/2000/svg">
<path d="M5.3761 0.161285C5.69666 0.313815 6.04969 0.423019 6.33176 0.627184C6.93318 1.064 7.20682 1.68718 7.20562 2.42608C7.20562 3.61309 7.20562 4.80009 7.20562 5.98709V6.35209H8.72541V6.91592H7.22727V10.4615H8.71338V11.0134H7.23509V14.5774H8.71759V15.1258H7.23208V18.672H8.71157V19.2471H7.20803V20.3949C7.20803 20.7706 7.10398 21.1896 7.2399 21.5095C7.3662 21.8063 7.76013 21.9843 8.01754 22.2306C9.29796 23.4639 9.74782 24.9607 9.25947 26.6474C8.75668 28.3846 7.52738 29.4173 5.72914 29.7794C5.65155 29.7954 5.57577 29.8185 5.49879 29.8387H4.47638C3.94893 29.6642 3.3854 29.5562 2.89886 29.3046C-0.0420853 27.7793 -0.268219 23.6853 2.47786 21.8413C2.7076 21.687 2.77857 21.5303 2.77857 21.2686C2.77135 15.1371 2.79301 9.00504 2.75812 2.87418C2.74549 1.48182 3.23024 0.560712 4.59426 0.161285H5.3761ZM6.40814 12.0829C6.40814 8.9176 6.40814 5.75345 6.40814 2.59048C6.40814 2.46229 6.41114 2.33291 6.40092 2.2053C6.34078 1.42069 5.54931 0.823039 4.76626 0.964886C4.03434 1.09724 3.56824 1.66818 3.56824 2.44567C3.56824 8.76408 3.57164 15.0823 3.57846 21.4003C3.57846 21.8911 3.45818 22.1719 3.01192 22.4478C1.78443 23.2194 1.21849 24.3856 1.36644 25.81C1.5198 27.2843 2.34615 28.3259 3.7643 28.8315C5.13734 29.3218 6.40633 29.044 7.47265 28.0707C9.29555 26.4053 8.92327 23.5547 6.73351 22.3001C6.48211 22.1564 6.39972 22.0033 6.40092 21.7232C6.41235 18.51 6.40814 15.2956 6.40814 12.0829Z" fill="#F26422"/>
<path d="M5.83828 22.4471C6.68026 22.7189 7.31596 23.1955 7.74056 23.9368C8.04221 24.4713 8.17711 25.0818 8.12832 25.6917C8.07953 26.3016 7.84922 26.8837 7.46632 27.3648C6.71334 28.3281 5.36135 28.7738 4.18257 28.4492C2.93883 28.1067 2.03189 27.0948 1.87492 25.8734C1.68848 24.4175 2.47033 23.0875 3.84758 22.5646C4.08815 22.4738 4.12724 22.3545 4.12664 22.1337C4.12062 19.3553 4.11922 16.5772 4.12243 13.7992V13.4223H5.83828V22.4471Z" fill="#ABABAB"/>
</svg>
