<svg width="24" height="30" viewBox="0 0 24 30" fill="none" xmlns="http://www.w3.org/2000/svg">
<path d="M11.8921 29.8387C11.0201 29.5222 10.1381 29.2294 9.27667 28.8849C7.08845 28.009 5.08708 26.8319 3.46354 25.074C1.7689 23.2401 0.760577 21.0605 0.3851 18.5959C0.22853 17.52 0.148412 16.4342 0.145359 15.3468C0.116567 11.6748 0.134195 8.00164 0.134782 4.33026C0.134782 3.82427 0.236437 3.68115 0.704755 3.53862C4.35571 2.42528 8.00765 1.31532 11.6606 0.208716C11.8835 0.145475 12.1193 0.145475 12.3422 0.208716C15.9853 1.3074 19.6273 2.4142 23.268 3.52911C23.7505 3.67877 23.868 3.83199 23.868 4.33679C23.868 8.08835 23.8744 11.8393 23.868 15.5909C23.8627 17.9634 23.4807 20.2582 22.399 22.3944C21.2361 24.6856 19.461 26.3698 17.2774 27.6449C15.7432 28.5399 14.0985 29.1676 12.4197 29.714C12.3204 29.7467 12.227 29.7965 12.1306 29.8387H11.8921ZM22.7039 10.7216C22.7039 8.78141 22.6998 6.84179 22.7098 4.90158C22.7098 4.66759 22.654 4.55653 22.4213 4.48586C19.061 3.47269 15.7013 2.45181 12.3422 1.42321C12.1215 1.34922 11.8834 1.34756 11.6617 1.41845C8.31164 2.44785 4.95957 3.46775 1.60555 4.47814C1.35758 4.55297 1.27649 4.6563 1.27767 4.92414C1.28765 8.42805 1.27767 11.932 1.29118 15.4359C1.29031 16.2463 1.34035 17.056 1.44102 17.8601C1.85234 21.0023 3.24789 23.594 5.74108 25.5538C7.56911 26.991 9.66743 27.87 11.8521 28.5684C11.9551 28.5947 12.0634 28.5906 12.1641 28.5565C13.7577 28.0582 15.2966 27.4281 16.7345 26.5658C18.7811 25.3377 20.4552 23.7437 21.5146 21.554C22.3825 19.7605 22.6928 17.8393 22.7039 15.8587C22.7127 14.1465 22.7057 12.4338 22.7057 10.7216H22.7039Z" fill="#F26422"/>
<path d="M21.712 11.4425C21.712 13.046 21.7496 14.6495 21.7049 16.253C21.5833 20.6477 19.5579 23.8547 15.6903 25.8394C14.5879 26.4054 13.4068 26.8182 12.2493 27.2648C12.0607 27.3384 11.7874 27.2778 11.5835 27.1988C11.5269 27.1783 11.475 27.1464 11.4308 27.1052C11.3867 27.0639 11.3512 27.0141 11.3265 26.9586C11.3019 26.9032 11.2885 26.8433 11.2872 26.7826C11.2859 26.7218 11.2968 26.6614 11.3191 26.605C11.3873 26.4268 11.5606 26.1993 11.724 26.1637C12.9327 25.9 14.0321 25.3661 15.1132 24.7948C16.6046 24.0067 17.9155 22.987 18.908 21.5878C19.909 20.1922 20.4699 18.5237 20.5174 16.8006C20.5891 14.5961 20.5668 12.3892 20.5791 10.1829C20.5856 9.02544 20.575 7.86677 20.585 6.71048C20.585 6.49965 20.5321 6.39869 20.3211 6.33515C17.5582 5.50371 14.7965 4.66594 12.036 3.82183C11.9702 3.80164 11.9038 3.78501 11.8397 3.76245C11.5154 3.64367 11.3502 3.34138 11.439 3.0385C11.5277 2.73562 11.8227 2.55924 12.1594 2.64476C12.4961 2.73028 12.8151 2.8348 13.143 2.93695C15.8189 3.75255 18.4947 4.56834 21.1702 5.38434C21.6133 5.51915 21.7296 5.67772 21.7302 6.15639C21.7302 7.91784 21.7302 9.6797 21.7302 11.4419L21.712 11.4425Z" fill="#ABABAB"/>
<path d="M3.7227 11.5709C3.7227 13.2718 3.66394 14.9756 3.73681 16.6735C3.85433 19.3899 4.92141 21.6621 7.09788 23.3381C7.32469 23.5127 7.48041 23.7188 7.40755 24.0181C7.34879 24.2556 7.19131 24.4391 6.94099 24.4445C6.7686 24.4508 6.5986 24.4022 6.45505 24.3055C4.38317 22.74 3.12746 20.6603 2.73318 18.0781C2.6061 17.208 2.54169 16.3297 2.54045 15.4501C2.51753 12.4558 2.53164 9.45547 2.53164 6.45755C2.53164 5.90465 2.72319 5.63443 3.11101 5.6374C3.49883 5.64037 3.67805 5.90227 3.67805 6.46884V11.5709H3.7227Z" fill="#F26422"/>
<path d="M10.2271 18.1102C10.961 17.3631 11.6614 16.6463 12.366 15.933C13.7492 14.533 15.1334 13.134 16.5185 11.736C16.8217 11.4296 17.169 11.4058 17.4205 11.6683C17.672 11.9308 17.6409 12.2545 17.3412 12.5592C15.1349 14.7898 12.9267 17.02 10.7166 19.2499C10.3799 19.5896 10.0831 19.5896 9.75173 19.2552C8.71951 18.2139 7.68827 17.1719 6.65801 16.129C6.45177 15.9211 6.35834 15.6889 6.48585 15.4062C6.66213 15.0161 7.12809 14.9573 7.46068 15.2875C8.12858 15.955 8.79296 16.6265 9.45382 17.3019C9.70237 17.5573 9.94211 17.8156 10.2271 18.1102Z" fill="#ABABAB"/>
</svg>
