<svg width="32" height="30" viewBox="0 0 32 30" fill="none" xmlns="http://www.w3.org/2000/svg">
<path d="M0.419922 10.1482C0.64665 9.32455 1.28482 8.96126 2.17112 8.95893C4.91644 8.95194 7.66096 8.91546 10.4055 8.90071C10.6433 8.90071 10.7535 8.83162 10.8558 8.61815C12.0148 6.2071 13.1825 3.8007 14.359 1.39896C14.4578 1.17219 14.586 0.958787 14.7403 0.763978C15.5378 -0.148901 16.8126 -0.00839806 17.4357 1.07448C17.7995 1.71024 18.1095 2.37704 18.4274 3.03764C19.3179 4.89393 20.2058 6.75306 21.0911 8.61505C21.1894 8.82231 21.2988 8.90071 21.5398 8.90149C24.3453 8.91158 27.1501 8.94263 29.9557 8.95039C30.6509 8.95039 31.106 9.30902 31.4048 9.8493C31.7037 10.3896 31.6054 10.95 31.2407 11.4158C30.448 12.4249 29.6283 13.4154 28.8014 14.3989C27.4759 15.9789 26.1412 17.5511 24.7972 19.1155C24.7208 19.1967 24.6666 19.2955 24.6399 19.4028C24.6131 19.51 24.6146 19.6222 24.6442 19.7287C25.1674 22.3732 25.683 25.0197 26.1909 27.6683C26.2408 27.9276 26.2884 28.2031 26.2519 28.4593C26.1576 29.1222 25.7977 29.6074 25.131 29.8387H24.2225C23.9846 29.7362 23.7389 29.6493 23.509 29.5282C21.0778 28.2282 18.6467 26.9226 16.2156 25.6112C16.1423 25.5631 16.0558 25.5379 15.9675 25.5387C15.8793 25.5395 15.7933 25.5664 15.7209 25.6159C14.5722 26.2423 13.4211 26.875 12.2542 27.4843C10.7377 28.2784 9.2108 29.0539 7.68792 29.8372H6.84125C5.9058 29.4319 5.55065 28.8078 5.7417 27.8026C6.25541 25.0942 6.78497 22.389 7.31294 19.6837C7.33859 19.5907 7.33998 19.4928 7.31699 19.3991C7.294 19.3054 7.24736 19.2188 7.18135 19.1473C5.60059 17.2998 4.01825 15.4523 2.46603 13.5823C1.75255 12.7207 1.10011 11.8086 0.419922 10.9198V10.1482ZM2.47237 10.6481L2.43987 10.7459C2.56512 10.9011 2.68879 11.0525 2.81643 11.2031C4.91935 13.6913 7.02412 16.1779 9.13074 18.6629C9.19457 18.729 9.24021 18.81 9.26337 18.8981C9.28652 18.9862 9.28644 19.0786 9.26313 19.1667C8.83609 21.2978 8.41567 23.4299 8.00185 25.5631C7.85281 26.3261 7.71408 27.0908 7.55949 27.9182C7.71249 27.8468 7.8108 27.8072 7.90434 27.7576C10.5062 26.3681 13.1072 24.977 15.7074 23.5844C15.8953 23.4827 16.0325 23.4703 16.2275 23.5759C18.5397 24.8267 20.8556 26.0708 23.1752 27.3081C23.5518 27.5099 23.9355 27.6962 24.3572 27.9159C24.3461 27.7746 24.3485 27.683 24.3326 27.6015C23.7888 24.7992 23.2418 21.9975 22.6916 19.1962C22.6665 19.0985 22.6671 18.9961 22.6933 18.8987C22.7195 18.8012 22.7705 18.7118 22.8415 18.6389C24.975 16.1238 27.1041 13.6053 29.2287 11.0835C29.327 10.9671 29.4182 10.8437 29.5506 10.6745C29.2953 10.6745 29.1138 10.6745 28.933 10.6745C26.0875 10.6569 23.2418 10.6406 20.3958 10.6256C20.1516 10.6256 20.0193 10.5479 19.9146 10.3314C18.809 8.00258 17.6967 5.67872 16.5779 3.35978C16.3924 2.97165 16.2029 2.58353 15.9889 2.14649C15.9096 2.30174 15.8557 2.39101 15.8105 2.48649C14.558 5.08385 13.3075 7.68199 12.0592 10.2809C11.9419 10.5254 11.8063 10.6287 11.5185 10.6287C9.51047 10.624 7.50162 10.6403 5.49357 10.6473C4.48677 10.6512 3.47996 10.6481 2.47237 10.6481Z" fill="#F26422"/>
<path d="M16.0004 5.3548L13.0326 12.0322H5.61328" stroke="#ABABAB" stroke-linecap="round" stroke-linejoin="round"/>
<path d="M5.61328 12.0322L11.1778 18.7096L10.0649 25.0161" stroke="#ABABAB" stroke-linecap="round" stroke-linejoin="round"/>
</svg>
