<svg width="30" height="30" viewBox="0 0 30 30" fill="none" xmlns="http://www.w3.org/2000/svg">
<path d="M8.01562 15.0124C8.01562 11.2924 10.8772 8.00628 15.0574 8.00028C19.1431 7.99368 22.0729 11.2162 22.0812 14.9992C22.0908 18.8907 18.9307 22.0653 15.0556 22.0683C11.1805 22.0713 8.01742 18.9039 8.01562 15.0124ZM15.0466 20.6523C16.5388 20.6539 17.9705 20.0614 19.0274 19.0051C20.0842 17.9487 20.6797 16.5148 20.683 15.0184C20.689 11.9134 18.1571 9.35987 15.0658 9.35507C11.9547 9.34967 9.41142 11.8948 9.41381 15.0136C9.41603 16.5103 10.0105 17.9449 11.0666 19.0023C12.1228 20.0598 13.5542 20.6537 15.0466 20.6535V20.6523Z" fill="#F26422"/>
<path d="M5.15841 4.30124C5.27089 4.36124 5.48328 4.42604 5.62268 4.56344C6.6236 5.55102 7.60778 6.55001 8.59793 7.54839C8.92519 7.87959 8.93895 8.25458 8.64998 8.55278C8.33289 8.88098 7.96016 8.87677 7.60598 8.52518C6.60885 7.53559 5.6149 6.54361 4.62415 5.54922C4.37167 5.29663 4.31543 4.99783 4.44945 4.70023C4.56731 4.43204 4.78987 4.32824 5.15841 4.30124Z" fill="#F26422"/>
<path d="M22.0346 8.80128C21.6547 8.76468 21.4291 8.62128 21.3065 8.33868C21.1838 8.05609 21.2466 7.80949 21.456 7.59709C22.3534 6.6899 23.2519 5.78412 24.1513 4.87973C24.2709 4.75973 24.3858 4.63433 24.5103 4.51974C24.8321 4.23294 25.2659 4.23834 25.5327 4.52634C25.7798 4.79273 25.7672 5.24633 25.4837 5.53432C24.4722 6.55311 23.4551 7.56709 22.4324 8.57628C22.3164 8.69688 22.1333 8.74908 22.0346 8.80128Z" fill="#ABABAB"/>
<path d="M25.7655 24.9691C25.7272 25.3333 25.6261 25.5691 25.3377 25.6825C25.0224 25.8079 24.7478 25.7347 24.5157 25.5025C23.9712 24.9625 23.4328 24.4135 22.8925 23.8681C22.4366 23.4079 21.9766 22.9513 21.5261 22.4851C21.2144 22.1623 21.2132 21.7705 21.5045 21.4729C21.7779 21.1939 22.1836 21.1879 22.4911 21.4909C23.5142 22.4989 24.53 23.5137 25.5387 24.5353C25.662 24.6619 25.7092 24.8605 25.7655 24.9691Z" fill="#ABABAB"/>
<path d="M5.16249 25.7459C4.75028 25.7309 4.52473 25.6133 4.40567 25.3325C4.34217 25.2004 4.32261 25.0514 4.34986 24.9073C4.3771 24.7632 4.44972 24.6317 4.55703 24.5321C5.57411 23.5081 6.59638 22.4893 7.62382 21.4758C7.9104 21.1926 8.30826 21.2088 8.58108 21.486C8.85389 21.7632 8.88022 22.164 8.59783 22.4513C7.82784 23.2433 7.04229 24.0233 6.26453 24.8081C6.05453 25.0205 5.8577 25.2479 5.63155 25.4411C5.47061 25.5827 5.26719 25.6805 5.16249 25.7459Z" fill="#F26422"/>
<path d="M26.9597 15.7089C26.2622 15.7089 25.5652 15.7089 24.8658 15.7089C24.4057 15.7089 24.1012 15.4311 24.0958 15.0171C24.0904 14.6031 24.3949 14.3091 24.8514 14.3079C26.2562 14.3043 27.6605 14.3043 29.0645 14.3079C29.533 14.3079 29.8351 14.5887 29.8387 15.0021C29.8423 15.4269 29.5348 15.7047 29.0483 15.7071C28.3537 15.7113 27.6567 15.7083 26.9597 15.7089Z" fill="#ABABAB"/>
<path d="M2.99328 15.7089C2.30646 15.7089 1.61723 15.7089 0.932801 15.7089C0.474517 15.7077 0.168795 15.4305 0.162214 15.0165C0.155632 14.6025 0.461354 14.3091 0.91904 14.3079C2.32261 14.3043 3.72638 14.3043 5.13035 14.3079C5.60239 14.3079 5.89675 14.5833 5.89974 15.0021C5.89974 15.4305 5.60059 15.7047 5.11419 15.7071C4.41001 15.7113 3.70045 15.7083 2.99328 15.7089Z" fill="#F26422"/>
<path d="M14.3517 2.98902C14.3517 2.30982 14.3517 1.63063 14.3517 0.949044C14.3553 0.473851 14.6406 0.161255 15.0594 0.161255C15.4645 0.161255 15.7421 0.472051 15.7433 0.941244C15.7469 2.31962 15.7469 3.69761 15.7433 5.07519C15.7433 5.54798 15.4669 5.83178 15.0373 5.82638C14.6185 5.82098 14.3547 5.54318 14.3511 5.08599C14.3475 4.387 14.3517 3.68801 14.3517 2.98902Z" fill="#ABABAB"/>
<path d="M15.7462 27.0122C15.7462 27.6812 15.7462 28.3508 15.7462 29.0197C15.7462 29.5387 15.4811 29.8423 15.042 29.8387C14.6028 29.8351 14.3522 29.5315 14.3516 29.0053C14.3516 27.6674 14.3516 26.329 14.3516 24.9902C14.3516 24.4874 14.631 24.1676 15.0581 24.1682C15.4853 24.1688 15.7432 24.4766 15.7456 24.9746C15.7486 25.6538 15.7462 26.333 15.7462 27.0122Z" fill="#ABABAB"/>
</svg>
