<svg width="36" height="27" viewBox="0 0 36 27" fill="none" xmlns="http://www.w3.org/2000/svg">
<path d="M0 14.7325C1.99179 13.0573 3.97721 11.3743 5.97679 9.70825C9.72687 6.58892 13.4904 3.48165 17.227 0.34531C17.7577 -0.0991942 18.108 -0.127552 18.6613 0.336093C24.2218 4.9872 29.7941 9.62247 35.3782 14.2419C35.5197 14.361 35.7362 14.4666 35.7815 14.6191C35.8459 14.8381 35.8586 15.1387 35.7496 15.3174C35.6853 15.4237 35.3301 15.4209 35.1362 15.3627C34.9423 15.3046 34.7987 15.1196 34.6366 14.9849C29.1143 10.4004 23.5793 5.80413 18.0315 1.19603C17.8646 1.3201 17.6955 1.43353 17.5363 1.56326C12.1253 6.05793 6.71478 10.5557 1.30475 15.0565C0.890115 15.4017 0.512276 15.635 0 15.2961V14.7325Z" fill="#ABABAB"/>
<path d="M18.0438 26.9959C13.9192 26.9959 9.79528 26.9959 5.67208 26.9959C4.76639 26.9959 4.66521 26.8945 4.66451 25.9793C4.66451 22.3169 4.65177 18.6545 4.68502 14.9908C4.68502 14.6568 4.90154 14.223 5.1598 14.0075C9.19291 10.6421 13.2536 7.31367 17.2874 3.95118C17.8252 3.50313 18.1924 3.49817 18.7337 3.95118C22.6961 7.25483 26.6733 10.5396 30.6653 13.8054C31.1606 14.2123 31.3793 14.6349 31.3729 15.2942C31.3418 18.863 31.3595 22.4311 31.3573 25.9991C31.3573 26.9101 31.2646 26.9994 30.3448 27.0002C26.2424 26.9987 22.142 26.9973 18.0438 26.9959ZM18.0092 4.83735C13.9838 8.13249 10.0087 11.3794 6.05133 14.6498C5.86312 14.8057 5.7683 15.1715 5.7683 15.4402C5.7492 18.7013 5.75486 21.9624 5.75769 25.2285C5.75769 25.4334 5.78104 25.6383 5.79519 25.8609H30.2295V25.0456C30.2295 22.463 30.1113 19.8739 30.2705 17.3012C30.3802 15.5324 29.8184 14.4073 28.4075 13.3226C24.8803 10.6102 21.4989 7.70713 18.0063 4.83735H18.0092Z" fill="#ABABAB"/>
<path d="M17.0055 18.2582C17.0055 19.2188 16.9977 20.1794 17.0055 21.14C17.0112 21.6362 16.7862 21.8752 16.2894 21.8737C15.0498 21.8702 13.813 21.8737 12.5719 21.8737C12.0568 21.8737 11.8077 21.6384 11.8106 21.0989C11.8228 19.1318 11.8228 17.164 11.8106 15.1955C11.8106 14.666 12.0292 14.4242 12.5655 14.4299C13.7811 14.4419 14.9974 14.4455 16.2123 14.4299C16.7869 14.4214 17.0126 14.6837 17.0055 15.2388C16.9963 16.2434 17.0055 17.2508 17.0055 18.2582ZM13.0014 15.5968V20.7579H15.855V15.5968H13.0014Z" fill="#ABABAB"/>
<path d="M24.1985 18.1679C24.1985 19.1299 24.1865 20.0919 24.2035 21.0533C24.2134 21.6204 23.9622 21.8756 23.4068 21.8735C22.2124 21.8692 21.0183 21.8692 19.8244 21.8735C19.2774 21.8735 19.0043 21.6431 19.0078 21.071C19.0178 19.1242 19.0178 17.177 19.0078 15.2293C19.0078 14.6721 19.235 14.4169 19.8081 14.4261C21.002 14.4445 22.1961 14.4445 23.3905 14.4261C24.0061 14.4148 24.219 14.6955 24.2042 15.2832C24.1801 16.2438 24.1985 17.2059 24.1985 18.1679ZM23.0211 20.7647V15.6157H20.1541V20.7647H23.0211Z" fill="#ABABAB"/>
</svg>
