<svg width="22" height="22" viewBox="0 0 22 22" fill="none" xmlns="http://www.w3.org/2000/svg">
<path d="M21.9989 21.9982H0.00669222C0.00490763 21.9592 0.00133844 21.9201 0.00133844 21.8813C0.00133844 17.7828 0.000892296 13.6843 0 9.5858C0 9.51434 0.0173998 9.46307 0.0742836 9.41424C1.21092 8.43771 2.3457 7.45962 3.47862 6.47998C3.52111 6.43783 3.54591 6.38118 3.54799 6.32151C3.55171 5.12688 3.55268 3.93218 3.55089 2.7374V2.58782H3.69634C5.09427 2.58782 6.4922 2.58693 7.89013 2.58515C7.95449 2.58383 8.01663 2.56153 8.06702 2.52168C9.02743 1.69873 9.98598 0.874073 10.9427 0.047717C10.9592 0.0335129 10.9766 0.0204185 11.002 0L11.6331 0.543752C12.3967 1.20291 13.1609 1.86133 13.9256 2.51902C13.9789 2.56113 14.0447 2.58454 14.1128 2.5856C15.5107 2.5893 16.9086 2.59026 18.3066 2.58848H18.4498V2.72986C18.4498 3.92079 18.4493 5.11186 18.4482 6.30309C18.4482 6.38365 18.4687 6.43869 18.5319 6.49263C19.6651 7.46694 20.7976 8.44207 21.9293 9.41801C21.992 9.47194 22 9.52898 22 9.60245C21.9991 12.606 21.9991 15.6096 22 18.6132V22L21.9989 21.9982ZM3.54688 11.3935V7.34021L0.863519 9.65238C0.896311 9.67968 0.917949 9.69966 0.941372 9.71741C1.72168 10.3092 2.502 10.9006 3.28231 11.4914C4.62789 12.5099 5.97377 13.5277 7.31995 14.5446C7.37166 14.5832 7.43384 14.6054 7.49841 14.6083C9.81838 14.6049 12.1383 14.5986 14.4583 14.5894C14.5128 14.5885 14.5657 14.5712 14.61 14.5397C15.1295 14.1507 15.6474 13.7597 16.1639 13.3665L20.4023 10.1549C20.6292 9.98285 20.8559 9.81018 21.0939 9.62886L18.4438 7.34288V11.3915H17.7529V11.2302C17.7529 8.63346 17.7529 6.03676 17.7529 3.44007C17.7529 3.27627 17.7529 3.27605 17.5936 3.27605H4.3988C4.2451 3.27605 4.24487 3.27605 4.24487 3.4343V11.3935H3.54688ZM20.776 21.308C20.7448 21.2736 20.7271 21.2521 20.7073 21.2328C20.3556 20.8924 20.0037 20.5521 19.6517 20.2118C17.9703 18.5908 16.2884 16.9706 14.606 15.3514C14.5585 15.3085 14.4974 15.2838 14.4333 15.2814C12.1324 15.2859 9.83154 15.2938 7.53075 15.3052C7.47033 15.3081 7.41275 15.3316 7.36769 15.3718C7.08081 15.6401 6.79885 15.914 6.51599 16.187C4.8755 17.7701 3.23532 19.3533 1.59542 20.9365C1.4743 21.0534 1.35718 21.1744 1.22535 21.3064L20.776 21.308ZM21.2982 20.8293V10.3502C19.2611 11.8931 17.2409 13.4234 15.2116 14.9601L21.2982 20.8293ZM0.700229 20.831L6.75758 14.9907L0.700229 10.401V20.831ZM9.06974 2.57961H12.9307L11 0.916389L9.06974 2.57961Z" fill="#F26422"/>
<path d="M12.2966 10.7531C12.0655 11.0195 11.8154 11.2316 11.518 11.385C11.0817 11.6103 10.6148 11.6866 10.1281 11.6684C9.72653 11.6535 9.34731 11.5637 9.0127 11.3368C8.50833 10.9951 8.23417 10.5092 8.17372 9.91354C8.11706 9.3527 8.16167 8.79563 8.39255 8.27274C8.80925 7.32883 9.52488 6.74646 10.5519 6.5638C11.0746 6.47103 11.5905 6.49722 12.0722 6.74002C12.2818 6.84567 12.4721 6.98926 12.6765 7.1191L12.718 6.91025C12.7641 6.67899 12.9656 6.54205 13.2243 6.56269C13.4039 6.5769 13.639 6.78974 13.6051 6.99503C13.5569 7.28555 13.5159 7.5774 13.4675 7.86814C13.3464 8.60276 13.2163 9.33627 13.1043 10.0722C13.0646 10.333 13.0878 10.5962 13.2275 10.835C13.3283 11.0075 13.4806 11.0887 13.6778 11.0918C14.3471 11.1022 14.8104 10.7716 15.0819 10.102C15.2991 9.5662 15.3513 9.01047 15.3183 8.43919C15.2974 8.07521 15.2427 7.72033 15.1147 7.37832C14.874 6.73581 14.4619 6.22424 13.9085 5.82097C13.2504 5.34202 12.5118 5.09989 11.7001 5.02066C9.65181 4.82091 7.76371 6.07709 7.00637 7.85327C6.76545 8.41855 6.63004 9.00292 6.64945 9.61836C6.68961 10.914 7.22074 11.9487 8.31693 12.6711C8.79966 12.9892 9.33928 13.1512 9.91548 13.2016C10.356 13.2406 10.7994 13.2323 11.2381 13.1767C11.7226 13.1148 12.1815 12.9548 12.6379 12.7874C12.7632 12.7417 12.8884 12.6953 13.0158 12.6563C13.1737 12.6077 13.3098 12.6678 13.3673 12.8041C13.4342 12.9634 13.3896 13.1159 13.2402 13.1934C12.7252 13.4578 12.1734 13.644 11.603 13.746C10.9189 13.8705 10.2293 13.9109 9.54228 13.7904C8.41107 13.5922 7.48866 13.0418 6.80873 12.1125C6.21959 11.3073 5.99272 10.3936 6.01971 9.40885C6.05273 8.23479 6.502 7.21919 7.22833 6.31767C7.92142 5.45766 8.81215 4.87506 9.87153 4.55658C10.4167 4.39257 10.9757 4.34441 11.5446 4.37659C12.1317 4.40988 12.7003 4.51952 13.2435 4.74234C14.495 5.25613 15.385 6.12126 15.8089 7.41738C16.0128 8.03882 16.0183 8.68355 15.936 9.32607C15.8691 9.84762 15.7116 10.3425 15.4056 10.7791C15.0009 11.3561 14.4423 11.6549 13.7345 11.66C13.5422 11.6618 13.3502 11.6425 13.1621 11.6025C12.7606 11.5153 12.4737 11.2856 12.3436 10.885C12.3307 10.8475 12.3166 10.8104 12.2966 10.7531ZM10.9983 7.38143C10.4198 7.38676 9.84476 7.64643 9.42806 8.21947C9.18915 8.54817 9.09992 8.92569 9.08252 9.32296C9.06941 9.56337 9.10671 9.80387 9.19205 10.0292C9.33749 10.4036 9.60295 10.6581 9.99645 10.7633C10.5662 10.9156 11.1118 10.8628 11.5957 10.5083C11.9914 10.2187 12.198 9.8019 12.2932 9.33339C12.3789 8.9117 12.4402 8.48403 12.5163 8.0599C12.5245 8.02627 12.5229 7.99101 12.5117 7.95824C12.5005 7.92547 12.4802 7.89654 12.4532 7.8748C12.0784 7.52569 11.6276 7.38187 10.9983 7.38143Z" fill="#F26422"/>
<path d="M10.6543 17.7793H11.3436V18.4646H10.6543V17.7793Z" fill="#F26422"/>
<path d="M9.24219 17.7793H9.91721V18.464H9.24219V17.7793Z" fill="#F26422"/>
<path d="M12.7597 18.4677H12.084V17.7832H12.7597V18.4677Z" fill="#F26422"/>
</svg>
