<svg width="28" height="27" viewBox="0 0 28 27" fill="none" xmlns="http://www.w3.org/2000/svg">
<path d="M9.87455 25.687C9.87455 25.9864 9.87455 26.2482 9.87455 26.5101C9.87455 26.9778 9.72726 27.0834 9.29383 26.9414C8.12606 26.5534 6.9604 26.1585 5.79157 25.7752C5.6256 25.7204 5.45214 25.6918 5.27737 25.6902C3.68515 25.6839 2.0924 25.6865 0.50018 25.686C0.082591 25.6854 0.00234633 25.6052 0.00234633 25.1971C0.00234633 17.5883 0.00234633 9.97931 0.00234633 2.37015C0.00234633 2.15054 -0.00293292 1.93039 0.00234633 1.7113C0.00973729 1.45315 0.130632 1.32539 0.389843 1.32381C1.99896 1.31642 3.61019 1.318 5.21719 1.30638C5.42659 1.30402 5.63445 1.27021 5.83381 1.20608C6.97888 0.836531 8.11972 0.449562 9.26215 0.0689281C9.73201 -0.0894495 9.86716 0.0113842 9.87032 0.515025C9.87032 0.752591 9.8756 0.990157 9.87983 1.2272C9.88897 1.25672 9.90155 1.28507 9.91731 1.31166H10.2869C15.6182 1.31166 20.9502 1.31166 26.283 1.31166C26.964 1.31166 27.0084 1.27999 27.0089 1.99797C27.0089 4.11811 27.0115 6.23826 27.0168 8.35841C27.0168 13.417 27.0168 18.4756 27.0168 23.5341C27.0168 24.0881 27.0168 24.6421 27.0168 25.1961C27.0168 25.6078 26.9392 25.686 26.5232 25.686H12.5332L9.87455 25.687ZM9.88986 24.3672C9.88035 24.4538 9.87191 24.4966 9.87191 24.5393C9.87824 25.1369 9.79747 25.0461 10.3676 25.0472C13.4472 25.0507 16.5268 25.0507 19.6063 25.0472C21.7618 25.0472 23.9174 25.044 26.0729 25.0514C26.2909 25.0514 26.397 25.0065 26.3859 24.7669C26.3706 24.4427 26.3785 24.117 26.3785 23.7923L26.3754 2.30575V1.94834H10.2314C10.1612 1.94834 10.0836 1.93092 10.0203 1.9552C9.9569 1.97949 9.88405 2.04073 9.87877 2.09247C9.86822 2.27124 9.86681 2.45044 9.87455 2.62937H11.972C12.4471 2.62937 12.5089 2.69008 12.5089 3.15412V23.8488C12.5089 24.3049 12.4455 24.3688 11.9942 24.3688L9.88986 24.3672ZM11.8749 3.26657C11.282 3.26657 10.7293 3.27871 10.1781 3.26076C9.93526 3.25337 9.86663 3.32359 9.86768 3.56802C9.87719 5.49441 9.87244 7.42187 9.87244 9.34616C9.87244 14.0341 9.87244 18.7219 9.87244 23.4096C9.87244 23.6207 9.88194 23.7538 10.1607 23.7379C10.6168 23.7121 11.075 23.7311 11.5333 23.7311C11.8775 23.7311 11.878 23.7311 11.878 23.3911V3.26657H11.8749ZM9.2215 0.777932C9.09955 0.814358 9.01614 0.836531 8.93484 0.863983C6.73339 1.59674 4.53458 2.33848 2.32786 3.0554C2.0243 3.15412 1.95567 3.29191 1.95567 3.59072C1.96482 9.20362 1.96711 14.8172 1.96253 20.4315C1.96253 21.4768 1.96781 22.5226 1.95778 23.5685C1.95778 23.7654 2.03222 23.8403 2.20802 23.8984C4.45135 24.6386 6.69433 25.3835 8.93695 26.1331C9.023 26.1616 9.11117 26.1859 9.2215 26.2155V0.777932ZM3.41063 25.0477L3.41961 24.9807C2.83889 24.7869 2.25817 24.5863 1.67376 24.4036C1.42352 24.326 1.32427 24.1766 1.32427 23.9222C1.32638 21.6795 1.32638 19.4369 1.32427 17.1943C1.32427 12.506 1.32427 7.81729 1.32427 3.12825C1.32427 2.7492 1.36175 2.70011 1.71916 2.58185C2.14502 2.44107 2.57035 2.30029 2.99515 2.15951C3.13769 2.11253 3.28023 2.05973 3.4233 2.00694C2.53797 1.94993 1.66373 1.94729 0.789483 1.95415C0.740914 1.95415 0.668588 2.03756 0.651166 2.09563C0.62741 2.17641 0.643775 2.26985 0.643775 2.3596V22.945C0.643775 23.5686 0.643775 24.1923 0.643775 24.8159C0.643775 24.9342 0.634801 25.0493 0.810072 25.0488C1.67587 25.0461 2.54325 25.0477 3.41063 25.0477Z" fill="#ABABAB"/>
<path d="M3.41013 25.0475C2.54274 25.0475 1.67536 25.0475 0.80851 25.0475C0.633239 25.0475 0.641686 24.933 0.642214 24.8147C0.642214 24.1914 0.642214 23.5678 0.642214 22.9438V2.36047C0.642214 2.27231 0.625848 2.17887 0.649604 2.09651C0.667026 2.03844 0.739352 1.95503 0.787921 1.95503C1.66216 1.94605 2.53641 1.94869 3.42174 2.00782C3.27867 2.06061 3.13613 2.11341 2.99201 2.15881C2.5672 2.29959 2.14187 2.44037 1.71601 2.58115C1.35966 2.69993 1.32165 2.74903 1.32165 3.12808C1.32165 7.81676 1.32165 12.5054 1.32165 17.1941C1.32165 19.4367 1.32165 21.6794 1.32165 23.922C1.32165 24.1765 1.4209 24.3259 1.67114 24.4035C2.25608 24.5861 2.83521 24.7867 3.41699 24.9805L3.41013 25.0475Z" fill="white"/>
<path d="M14.5108 13.4697C14.5108 10.0206 14.5108 6.57288 14.5108 3.12658C14.5108 2.70952 14.5868 2.63086 14.9965 2.63086H25.1839C25.6194 2.63086 25.6976 2.70741 25.6976 3.13028C25.6976 10.0285 25.6976 16.9255 25.6976 23.8212C25.6976 24.3043 25.6337 24.3692 25.1538 24.3692H15.0176C14.581 24.3692 14.5098 24.2995 14.5098 23.8693C14.5105 20.4022 14.5108 16.9357 14.5108 13.4697ZM15.1443 3.26701V3.54681C15.1443 6.47574 15.1443 9.40467 15.1443 12.3336C15.1443 16.0291 15.1435 19.7245 15.1417 23.42C15.1417 23.6449 15.1771 23.741 15.4379 23.7399C18.5438 23.7304 21.6494 23.7304 24.7547 23.7399C24.9938 23.7399 25.0662 23.6761 25.0656 23.4306C25.0589 16.8234 25.057 10.2164 25.0598 3.60963C25.0598 3.27176 25.0598 3.27123 24.7093 3.27123H15.1449L15.1443 3.26701Z" fill="#ABABAB"/>
<path d="M8.55497 13.5264V24.6355C8.55497 25.1635 8.41771 25.258 7.91301 25.0896C6.28771 24.5469 4.66223 24.005 3.03657 23.4641C2.67388 23.3432 2.64062 23.3004 2.64062 22.9182C2.64062 16.6387 2.64062 10.359 2.64062 4.07919C2.64062 3.6975 2.67283 3.65685 3.03762 3.53438C4.67947 2.98639 6.32132 2.43893 7.96317 1.892C8.39923 1.74682 8.55444 1.85716 8.55444 2.3117C8.5548 6.05082 8.55497 9.78906 8.55497 13.5264ZM7.89137 24.3974C7.90099 24.355 7.90822 24.3119 7.91301 24.2686C7.91301 20.8547 7.91477 17.4419 7.91829 14.0301C7.91829 13.8442 7.84016 13.8126 7.68073 13.8141C7.02135 13.8194 6.36091 13.8173 5.70153 13.8141C5.42173 13.8141 5.27919 13.7017 5.27919 13.4947C5.27919 13.2878 5.42279 13.1827 5.7084 13.1822C6.33293 13.1822 6.958 13.1701 7.58201 13.1875C7.84174 13.1949 7.92304 13.1347 7.92199 12.8554C7.9109 9.53953 7.91513 6.2231 7.91407 2.90667C7.91407 2.81534 7.90615 2.72348 7.9014 2.61104C7.80215 2.6369 7.73405 2.65063 7.66911 2.67227C6.30179 3.12893 4.93604 3.59139 3.56555 4.0359C3.34171 4.10876 3.27202 4.20854 3.27255 4.44241C3.28205 6.70298 3.27836 8.96356 3.27836 11.2241C3.27836 15.0136 3.27713 18.8032 3.27466 22.593C3.27466 22.791 3.32746 22.886 3.52437 22.9494C4.70323 23.3326 5.87681 23.7302 7.0525 24.1219C7.32543 24.2132 7.5989 24.3014 7.89137 24.3974Z" fill="#ABABAB"/>
<path d="M17.4448 13.8444C17.3592 13.7773 17.2204 13.7224 17.1914 13.6332C17.1581 13.5276 17.2014 13.384 17.2531 13.2768C17.2848 13.2109 17.3914 13.1765 17.4696 13.1375C19.1403 12.3009 20.812 11.4662 22.4849 10.6335C22.5904 10.5807 22.7314 10.5374 22.8296 10.5696C22.9278 10.6019 23.0513 10.7449 23.0408 10.8236C23.0249 10.9482 22.9352 11.1087 22.827 11.1683C22.375 11.4201 21.9057 11.6403 21.4427 11.872C20.2032 12.4925 18.9634 13.1127 17.7235 13.7324C17.647 13.7694 17.5641 13.7963 17.4448 13.8444Z" fill="#ABABAB"/>
<path d="M23.0617 8.30574C22.9931 8.36804 22.8949 8.50266 22.7629 8.5697C21.5661 9.17893 20.3629 9.77601 19.1614 10.3763C18.6667 10.6239 18.1736 10.8741 17.6763 11.1154C17.4324 11.2336 17.2381 11.1761 17.1711 10.9723C17.1041 10.7685 17.1901 10.6349 17.3722 10.5436C19.0838 9.68838 20.7953 8.83314 22.5068 7.9779C22.7961 7.83483 23.0501 7.94939 23.0617 8.30574Z" fill="#ABABAB"/>
</svg>
