<svg width="10" height="10" viewBox="0 0 10 10" fill="none" xmlns="http://www.w3.org/2000/svg">
<path d="M0 4.99934C0 2.23874 2.22807 0.00230184 4.98115 2.06763e-06C7.77509 -0.00247461 9.99078 2.22034 9.99998 5.01403C10.0086 7.68052 7.79259 10.0153 4.97391 9.99992C2.21163 9.98506 0 7.7718 0 4.99934ZM5.00291 0.983595C2.77802 0.981826 0.98884 2.77281 0.985657 5.00377C0.983887 5.53052 1.08611 6.05245 1.28646 6.53958C1.48682 7.02672 1.78135 7.46948 2.15317 7.84246C2.52499 8.21543 2.96677 8.51128 3.45316 8.71303C3.93955 8.91478 4.46098 9.01845 4.98752 9.0181C7.23328 9.02075 9.01927 7.24604 9.02086 5.00943C9.02263 2.78997 7.22161 0.985541 5.00291 0.983595Z" fill="#ABABAB"/>
<path d="M7.26651 3.81823L6.208 4.06908C6.16078 3.97249 6.12064 3.88085 6.07237 3.79382C5.85309 3.39808 5.53002 3.16704 5.06443 3.15855C4.57408 3.14953 4.20857 3.36004 3.96436 3.78214C3.79673 4.07156 3.72423 4.38892 3.70813 4.71974C3.68373 5.22162 3.71273 5.71766 3.92617 6.18327C4.2121 6.80704 4.91642 7.05683 5.51517 6.75114C5.77334 6.61935 5.94133 6.40193 6.06335 6.1463C6.12241 6.02247 6.16821 5.89138 6.22409 5.75304L7.26385 6.10473C7.09551 6.91955 6.39208 7.59657 5.57193 7.74323C5.07893 7.83168 4.593 7.82655 4.1175 7.64947C3.50213 7.42055 3.06801 6.99191 2.82327 6.39344C2.44026 5.45885 2.43088 4.50816 2.85174 3.58471C3.21796 2.78139 3.87736 2.35611 4.75108 2.25792C5.13604 2.21476 5.51641 2.24023 5.88705 2.35929C6.48261 2.55194 6.87872 2.9636 7.14396 3.51607C7.1834 3.59834 7.21611 3.68378 7.25147 3.76799C7.25643 3.7809 7.25943 3.7947 7.26651 3.81823Z" fill="#ABABAB"/>
</svg>
