<svg width="15" height="21" viewBox="0 0 15 21" fill="none" xmlns="http://www.w3.org/2000/svg">
<path d="M7.48549 21C7.15239 20.5912 6.80906 20.2067 6.51007 19.7951C5.54868 18.4741 4.57213 17.158 3.66038 15.807C2.64214 14.2987 1.74593 12.7263 1.03048 11.0733C0.599611 10.0784 0.234683 9.0633 0.0831039 7.9985C-0.303424 5.28417 0.655316 3.05097 3.02375 1.3712C4.53537 0.299101 6.2827 -0.121883 8.17745 0.0300328C11.2848 0.279286 13.8996 2.29661 14.7333 5.05647C15.1236 6.34445 15.0573 7.6307 14.7173 8.91521C14.2925 10.5199 13.5744 12.0185 12.7517 13.4786C11.6528 15.4285 10.3928 17.2883 9.02553 19.0877C8.56397 19.695 8.07323 20.2832 7.595 20.8797C7.56734 20.9166 7.53285 20.9492 7.48549 21ZM7.50254 19.2052C8.03117 18.5068 8.5401 17.8532 9.02781 17.1865C9.89136 16.0052 10.6872 14.7835 11.4122 13.5262C12.1822 12.1923 12.8703 10.8258 13.3592 9.38208C13.6623 8.48623 13.8844 7.57438 13.8355 6.6243C13.7779 5.49762 13.421 4.46236 12.6987 3.55261C11.1984 1.66878 9.15741 0.858097 6.6446 1.11708C5.16215 1.2697 3.8995 1.89057 2.87406 2.89245C1.84863 3.89433 1.27717 5.09436 1.16235 6.47308C1.09187 7.322 1.25292 8.14381 1.49734 8.95483C2.04151 10.7591 2.91991 12.4336 3.89608 14.0675C4.64675 15.325 5.46776 16.5462 6.35584 17.726C6.72077 18.2088 7.09896 18.6848 7.50292 19.2052H7.50254Z" fill="#CDCDCD"/>
<path d="M4.61544 6.87909C4.58892 5.52715 5.80534 4.24333 7.48674 4.23708C7.86592 4.23589 8.24163 4.30333 8.59236 4.43553C8.94308 4.56774 9.26194 4.76212 9.53066 5.00753C9.79938 5.25295 10.0127 5.54458 10.1584 5.86574C10.304 6.18689 10.3792 6.53125 10.3796 6.87909C10.3796 8.3475 9.08476 9.54857 7.4856 9.5371C5.80004 9.52737 4.57565 8.23417 4.61544 6.87909ZM7.49545 8.47369C8.45306 8.47369 9.25378 7.76174 9.23028 6.88674C9.20338 5.87652 8.35188 5.30223 7.51099 5.30327C6.53027 5.30327 5.75873 6.00097 5.76025 6.88848C5.75994 7.0974 5.80472 7.30432 5.892 7.49729C5.97928 7.69027 6.10733 7.86549 6.26878 8.01285C6.43022 8.16021 6.62186 8.2768 6.83266 8.35589C7.04345 8.43498 7.26923 8.47502 7.49697 8.47369H7.49545Z" fill="#CDCDCD"/>
</svg>
