<svg width="98" height="40" viewBox="0 0 98 40" fill="none" xmlns="http://www.w3.org/2000/svg">
<path d="M26.0075 12.7627C26.3126 19.7067 19.7218 25.4799 13.1962 25.5315C5.97244 25.5927 -0.0805466 19.4551 0.000810711 12.6974C0.082168 5.72524 6.02125 0.0576841 12.8959 0.000436028C20.0595 -0.0584247 26.2386 5.85022 26.0075 12.7627ZM13.0343 23.3464C18.6617 23.5729 24.395 18.5214 23.8385 12.0395C23.3357 6.27111 18.8855 2.10975 12.8626 2.19199C6.86574 2.27423 2.1161 6.73635 2.21048 13.1506C2.28858 18.3134 6.8812 23.4455 13.0343 23.3464Z" fill="#F26422"/>
<path d="M10.2747 15.2537C9.27235 15.1376 8.42379 15.1126 7.61103 14.9311C6.05792 14.5836 4.48203 12.6735 4.68217 11.0609C4.81071 10.0497 4.76353 9.00557 4.6903 7.98317C4.61952 7.01559 5.06129 6.43827 5.94483 6.41489C6.88451 6.3899 7.24167 7.1704 7.30187 7.97752C7.37103 8.92655 7.31571 9.88445 7.31977 10.8383C7.32628 12.1429 7.72005 12.5437 9.01445 12.5461C11.9018 12.5509 14.7908 12.5461 17.6774 12.5509C19.9049 12.5509 21.563 14.3111 21.5597 16.6494C21.5597 18.7861 19.896 20.4229 17.7229 20.4302C17.2079 20.4302 16.693 20.4302 16.2349 20.4302C16.1316 20.5503 16.0502 20.6011 16.0445 20.6584C15.842 22.6741 15.536 22.9862 13.4126 23.058C12.6511 23.0838 11.8742 22.9668 11.1216 22.8225C10.5269 22.7088 10.2381 22.3347 10.2551 21.6413C10.3088 19.5207 10.2747 17.3985 10.2747 15.2537ZM16.0576 18.0185C17.0883 18.0451 18.1728 18.341 18.7993 17.3348C19.0515 16.9316 19.0914 16.1116 18.84 15.7415C18.172 14.7586 17.0753 15.2005 16.0576 15.1771V18.0185Z" fill="#F26422"/>
<path d="M10.4886 9.07545C10.5 7.51605 11.6358 6.41463 13.158 6.36061C14.4597 6.31626 15.9778 7.47412 15.955 9.22704C15.9404 10.4462 14.8665 11.879 13.136 11.8379C11.5194 11.7992 10.4764 10.7437 10.4886 9.07545Z" fill="#F26422"/>
<path d="M38.4238 6.17459C38.8823 6.32948 39.2393 6.57288 39.4948 6.9048C39.7579 7.22934 39.8895 7.6092 39.8895 8.04437C39.8895 8.51643 39.7316 8.92579 39.4159 9.27246C39.1002 9.61913 38.6718 9.88466 38.1307 10.0691C37.597 10.2535 37.0107 10.3456 36.3719 10.3456C35.8307 10.3456 35.2895 10.2793 34.7484 10.1465C34.2147 10.0137 33.7074 9.8109 33.2263 9.53799L33.79 8.25459C34.1358 8.46111 34.5154 8.61969 34.9287 8.73033C35.3497 8.83359 35.7593 8.88522 36.1576 8.88522C36.6988 8.88522 37.146 8.78934 37.4993 8.59757C37.8601 8.40579 38.0405 8.13657 38.0405 7.78991C38.0405 7.50225 37.9164 7.28466 37.6684 7.13714C37.4279 6.98962 37.0972 6.91586 36.6763 6.91586H34.7484V5.56608H36.541C36.9093 5.56608 37.1949 5.49232 37.3978 5.3448C37.6083 5.19728 37.7135 4.99444 37.7135 4.73629C37.7135 4.43388 37.5632 4.19785 37.2625 4.0282C36.9694 3.85856 36.5898 3.77374 36.1238 3.77374C35.7781 3.77374 35.4211 3.82168 35.0528 3.91757C34.6845 4.00608 34.335 4.14253 34.0042 4.32693L33.4518 2.93288C34.2861 2.51246 35.1881 2.30225 36.1576 2.30225C36.774 2.30225 37.3415 2.39076 37.8601 2.56778C38.3787 2.7448 38.7921 3.00296 39.1002 3.34225C39.4084 3.68154 39.5625 4.07615 39.5625 4.52608C39.5625 4.89487 39.461 5.2231 39.2581 5.51076C39.0552 5.79842 38.7771 6.01969 38.4238 6.17459Z" fill="#48494B"/>
<path d="M46.6794 8.55331H43.0153L42.3163 10.2129H40.4447L43.9623 2.4682H45.7662L49.2951 10.2129H47.3784L46.6794 8.55331ZM46.1044 7.19246L44.853 4.22735L43.6015 7.19246H46.1044Z" fill="#48494B"/>
<path d="M55.8097 6.17459C56.2907 6.31473 56.659 6.54338 56.9146 6.86054C57.1701 7.17771 57.2979 7.56863 57.2979 8.03331C57.2979 8.71927 57.0311 9.25402 56.4974 9.63757C55.9713 10.0211 55.2159 10.2129 54.2313 10.2129H50.3416V2.4682H54.0171C54.9341 2.4682 55.6481 2.64154 56.1592 2.9882C56.6703 3.33487 56.9259 3.82905 56.9259 4.47076C56.9259 4.8543 56.8281 5.19359 56.6327 5.48863C56.4373 5.77629 56.163 6.00494 55.8097 6.17459ZM52.1568 5.67671H53.8592C54.2576 5.67671 54.5582 5.59927 54.7612 5.44437C54.9641 5.2821 55.0656 5.04608 55.0656 4.73629C55.0656 4.43388 54.9604 4.20154 54.7499 4.03927C54.547 3.877 54.2501 3.79586 53.8592 3.79586H52.1568V5.67671ZM54.1636 8.88522C55.0205 8.88522 55.4489 8.55331 55.4489 7.88948C55.4489 7.24778 55.0205 6.92693 54.1636 6.92693H52.1568V8.88522H54.1636Z" fill="#48494B"/>
<path d="M62.508 10.3456C61.6887 10.3456 60.9484 10.1723 60.2869 9.82565C59.633 9.47898 59.1182 9.00324 58.7423 8.39842C58.374 7.78622 58.1899 7.10026 58.1899 6.34054C58.1899 5.58083 58.374 4.89856 58.7423 4.29374C59.1182 3.68154 59.633 3.2021 60.2869 2.85544C60.9484 2.50877 61.6887 2.33544 62.508 2.33544C63.3272 2.33544 64.0638 2.50877 64.7177 2.85544C65.3717 3.2021 65.8865 3.68154 66.2623 4.29374C66.6381 4.89856 66.826 5.58083 66.826 6.34054C66.826 7.10026 66.6381 7.78622 66.2623 8.39842C65.8865 9.00324 65.3717 9.47898 64.7177 9.82565C64.0638 10.1723 63.3272 10.3456 62.508 10.3456ZM62.508 8.81884C62.974 8.81884 63.3949 8.71558 63.7707 8.50905C64.1465 8.29515 64.4396 8.00012 64.6501 7.62395C64.8681 7.24778 64.9771 6.81998 64.9771 6.34054C64.9771 5.86111 64.8681 5.43331 64.6501 5.05714C64.4396 4.68097 64.1465 4.38962 63.7707 4.1831C63.3949 3.9692 62.974 3.86225 62.508 3.86225C62.042 3.86225 61.6211 3.9692 61.2452 4.1831C60.8694 4.38962 60.5725 4.68097 60.3546 5.05714C60.1441 5.43331 60.0389 5.86111 60.0389 6.34054C60.0389 6.81998 60.1441 7.24778 60.3546 7.62395C60.5725 8.00012 60.8694 8.29515 61.2452 8.50905C61.6211 8.71558 62.042 8.81884 62.508 8.81884Z" fill="#48494B"/>
<path d="M76.1529 8.75246V11.8171H74.4618V10.2129H68.8922V11.8171H67.2011L67.2124 8.75246H67.528C68.0016 8.73771 68.336 8.39842 68.5315 7.73459C68.7269 7.07076 68.8471 6.12296 68.8922 4.89118L68.9824 2.4682H75.048V8.75246H76.1529ZM70.5045 5.05714C70.4669 5.97913 70.388 6.75359 70.2677 7.38054C70.1474 8.00012 69.9633 8.45742 69.7153 8.75246H73.2441V3.92863H70.5383L70.5045 5.05714Z" fill="#48494B"/>
<path d="M37.7022 23.1116C36.883 23.1116 36.1426 22.9383 35.4812 22.5916C34.8273 22.2449 34.3124 21.7692 33.9366 21.1644C33.5683 20.5522 33.3842 19.8662 33.3842 19.1065C33.3842 18.3468 33.5683 17.6645 33.9366 17.0597C34.3124 16.4475 34.8273 15.9681 35.4812 15.6214C36.1426 15.2747 36.883 15.1014 37.7022 15.1014C38.5215 15.1014 39.2581 15.2747 39.912 15.6214C40.5659 15.9681 41.0808 16.4475 41.4566 17.0597C41.8324 17.6645 42.0203 18.3468 42.0203 19.1065C42.0203 19.8662 41.8324 20.5522 41.4566 21.1644C41.0808 21.7692 40.5659 22.2449 39.912 22.5916C39.2581 22.9383 38.5215 23.1116 37.7022 23.1116ZM37.7022 21.5848C38.1682 21.5848 38.5891 21.4815 38.965 21.275C39.3408 21.0611 39.6339 20.7661 39.8444 20.3899C40.0623 20.0137 40.1713 19.5859 40.1713 19.1065C40.1713 18.6271 40.0623 18.1993 39.8444 17.8231C39.6339 17.4469 39.3408 17.1556 38.965 16.9491C38.5891 16.7352 38.1682 16.6282 37.7022 16.6282C37.2362 16.6282 36.8153 16.7352 36.4395 16.9491C36.0637 17.1556 35.7668 17.4469 35.5488 17.8231C35.3384 18.1993 35.2332 18.6271 35.2332 19.1065C35.2332 19.5859 35.3384 20.0137 35.5488 20.3899C35.7668 20.7661 36.0637 21.0611 36.4395 21.275C36.8153 21.4815 37.2362 21.5848 37.7022 21.5848Z" fill="#48494B"/>
<path d="M46.4826 19.8588H45.2199V22.9788H43.4048V15.2342H45.2199V18.3652H46.5277L48.6022 15.2342H50.5301L47.9483 18.9737L50.6091 22.9788H48.5346L46.4826 19.8588Z" fill="#48494B"/>
<path d="M55.1973 23.1116C54.378 23.1116 53.6377 22.9383 52.9762 22.5916C52.3223 22.2449 51.8075 21.7692 51.4316 21.1644C51.0633 20.5522 50.8792 19.8662 50.8792 19.1065C50.8792 18.3468 51.0633 17.6645 51.4316 17.0597C51.8075 16.4475 52.3223 15.9681 52.9762 15.6214C53.6377 15.2747 54.378 15.1014 55.1973 15.1014C56.0165 15.1014 56.7531 15.2747 57.407 15.6214C58.061 15.9681 58.5758 16.4475 58.9516 17.0597C59.3274 17.6645 59.5153 18.3468 59.5153 19.1065C59.5153 19.8662 59.3274 20.5522 58.9516 21.1644C58.5758 21.7692 58.061 22.2449 57.407 22.5916C56.7531 22.9383 56.0165 23.1116 55.1973 23.1116ZM55.1973 21.5848C55.6633 21.5848 56.0842 21.4815 56.46 21.275C56.8358 21.0611 57.1289 20.7661 57.3394 20.3899C57.5574 20.0137 57.6663 19.5859 57.6663 19.1065C57.6663 18.6271 57.5574 18.1993 57.3394 17.8231C57.1289 17.4469 56.8358 17.1556 56.46 16.9491C56.0842 16.7352 55.6633 16.6282 55.1973 16.6282C54.7313 16.6282 54.3104 16.7352 53.9345 16.9491C53.5587 17.1556 53.2618 17.4469 53.0439 17.8231C52.8334 18.1993 52.7282 18.6271 52.7282 19.1065C52.7282 19.5859 52.8334 20.0137 53.0439 20.3899C53.2618 20.7661 53.5587 21.0611 53.9345 21.275C54.3104 21.4815 54.7313 21.5848 55.1973 21.5848Z" fill="#48494B"/>
<path d="M68.1605 15.2342V22.9788H66.334V19.8035H62.7488V22.9788H60.9223V15.2342H62.7488V18.2878H66.334V15.2342H68.1605Z" fill="#48494B"/>
<path d="M80.5237 15.2342V22.9788H78.7086V16.6946H75.1459V22.9788H73.3307V15.2342H80.5237Z" fill="#48494B"/>
<path d="M87.9482 18.9405C88.4292 19.0807 88.7975 19.3093 89.053 19.6265C89.3086 19.9437 89.4364 20.3346 89.4364 20.7993C89.4364 21.4852 89.1695 22.02 88.6359 22.4035C88.1098 22.7871 87.3544 22.9788 86.3698 22.9788H82.4801V15.2342H86.1555C87.0725 15.2342 87.7866 15.4075 88.2977 15.7542C88.8088 16.1008 89.0643 16.595 89.0643 17.2367C89.0643 17.6203 88.9666 17.9595 88.7712 18.2546C88.5758 18.5422 88.3014 18.7709 87.9482 18.9405ZM84.2953 18.4427H85.9977C86.3961 18.4427 86.6967 18.3652 86.8996 18.2103C87.1026 18.0481 87.2041 17.812 87.2041 17.5022C87.2041 17.1998 87.0988 16.9675 86.8884 16.8052C86.6854 16.643 86.3885 16.5618 85.9977 16.5618H84.2953V18.4427ZM86.3021 21.6512C87.159 21.6512 87.5874 21.3193 87.5874 20.6554C87.5874 20.0137 87.159 19.6929 86.3021 19.6929H84.2953V21.6512H86.3021Z" fill="#48494B"/>
<path d="M92.1913 15.2342L93.8261 17.5797L95.4608 15.2342H97.603L94.976 18.9405L97.8172 22.9788H95.6638L93.8261 20.412L92.0109 22.9788H89.9026L92.7212 19.018L90.083 15.2342H92.1913Z" fill="#48494B"/>
<path d="M0 31.4893H4.24619V32.023H0.637925V38.1605H0V31.4893Z" fill="#48494B"/>
<path d="M4.07892 35.6922C4.07892 35.3173 4.13872 34.9742 4.25833 34.6629C4.37794 34.3452 4.54407 34.072 4.75671 33.8433C4.976 33.6145 5.23516 33.4366 5.53418 33.3096C5.83321 33.1761 6.16546 33.1094 6.53094 33.1094C6.89642 33.1094 7.22867 33.1761 7.5277 33.3096C7.82672 33.4366 8.08256 33.6145 8.2952 33.8433C8.51449 34.072 8.68394 34.3452 8.80355 34.6629C8.92316 34.9742 8.98296 35.3173 8.98296 35.6922C8.98296 36.067 8.92316 36.4133 8.80355 36.731C8.68394 37.0423 8.51449 37.3123 8.2952 37.5411C8.08256 37.7698 7.82672 37.9509 7.5277 38.0843C7.22867 38.2114 6.89642 38.2749 6.53094 38.2749C6.16546 38.2749 5.83321 38.2114 5.53418 38.0843C5.23516 37.9509 4.976 37.7698 4.75671 37.5411C4.54407 37.3123 4.37794 37.0423 4.25833 36.731C4.13872 36.4133 4.07892 36.067 4.07892 35.6922ZM4.69691 35.6922C4.69691 36.0098 4.7401 36.2958 4.82649 36.5499C4.91952 36.804 5.04577 37.0201 5.20525 37.198C5.37138 37.3759 5.56741 37.5156 5.79334 37.6173C6.01927 37.7126 6.26514 37.7603 6.53094 37.7603C6.79674 37.7603 7.04261 37.7126 7.26854 37.6173C7.49447 37.5156 7.68718 37.3759 7.84666 37.198C8.01279 37.0201 8.13904 36.804 8.22543 36.5499C8.31846 36.2958 8.36497 36.0098 8.36497 35.6922C8.36497 35.3808 8.31846 35.0981 8.22543 34.844C8.13904 34.5835 8.01279 34.3643 7.84666 34.1864C7.68718 34.0085 7.49447 33.8719 7.26854 33.7766C7.04261 33.6749 6.79674 33.6241 6.53094 33.6241C6.26514 33.6241 6.01927 33.6749 5.79334 33.7766C5.56741 33.8719 5.37138 34.0085 5.20525 34.1864C5.04577 34.3643 4.91952 34.5835 4.82649 34.844C4.7401 35.0981 4.69691 35.3808 4.69691 35.6922Z" fill="#48494B"/>
<path d="M12.254 33.1094C12.5929 33.1094 12.9086 33.1698 13.201 33.2905C13.4933 33.4049 13.7459 33.5764 13.9585 33.8051C14.1778 34.0275 14.3506 34.2975 14.4768 34.6152C14.6031 34.9329 14.6662 35.2919 14.6662 35.6922C14.6662 36.0924 14.6031 36.4514 14.4768 36.7691C14.3506 37.0868 14.1778 37.36 13.9585 37.5887C13.7459 37.8111 13.4933 37.9826 13.201 38.1033C12.9086 38.2177 12.5929 38.2749 12.254 38.2749C11.955 38.2749 11.6693 38.2241 11.3968 38.1224C11.131 38.0208 10.9051 37.881 10.719 37.7031V39.9999H10.121V33.2238H10.719V33.6717C10.9051 33.5002 11.131 33.3636 11.3968 33.2619C11.6693 33.1603 11.955 33.1094 12.254 33.1094ZM12.1743 33.6241C11.8952 33.6241 11.6261 33.6749 11.3669 33.7766C11.1078 33.8782 10.8918 34.0275 10.719 34.2245V37.1598C10.8918 37.3568 11.1078 37.5061 11.3669 37.6078C11.6261 37.7094 11.8952 37.7603 12.1743 37.7603C12.4335 37.7603 12.676 37.7158 12.9019 37.6268C13.1345 37.5315 13.3339 37.3981 13.5 37.2266C13.6728 37.0487 13.8057 36.8326 13.8987 36.5785C13.9984 36.318 14.0482 36.0225 14.0482 35.6922C14.0482 35.3618 13.9984 35.0695 13.8987 34.8154C13.8057 34.5549 13.6728 34.3388 13.5 34.1673C13.3339 33.9894 13.1345 33.856 12.9019 33.767C12.676 33.6717 12.4335 33.6241 12.1743 33.6241Z" fill="#48494B"/>
<path d="M20.186 39.1136H19.588V38.1605H15.6209V39.1136H15.0129V37.665H15.5013C15.9066 37.0105 16.2289 36.3148 16.4681 35.5778C16.714 34.8344 16.8569 34.0498 16.8967 33.2238H19.4285V37.665H20.186V39.1136ZM18.8305 37.665V33.7194H17.445C17.3918 34.4119 17.2556 35.0917 17.0363 35.7589C16.8237 36.4196 16.5379 37.055 16.1791 37.665H18.8305Z" fill="#48494B"/>
<path d="M20.8213 35.6922C20.8213 35.3173 20.8811 34.9742 21.0007 34.6629C21.1203 34.3452 21.2865 34.072 21.4991 33.8433C21.7184 33.6145 21.9776 33.4366 22.2766 33.3096C22.5756 33.1761 22.9079 33.1094 23.2733 33.1094C23.6388 33.1094 23.9711 33.1761 24.2701 33.3096C24.5691 33.4366 24.825 33.6145 25.0376 33.8433C25.2569 34.072 25.4263 34.3452 25.5459 34.6629C25.6656 34.9742 25.7254 35.3173 25.7254 35.6922C25.7254 36.067 25.6656 36.4133 25.5459 36.731C25.4263 37.0423 25.2569 37.3123 25.0376 37.5411C24.825 37.7698 24.5691 37.9509 24.2701 38.0843C23.9711 38.2114 23.6388 38.2749 23.2733 38.2749C22.9079 38.2749 22.5756 38.2114 22.2766 38.0843C21.9776 37.9509 21.7184 37.7698 21.4991 37.5411C21.2865 37.3123 21.1203 37.0423 21.0007 36.731C20.8811 36.4133 20.8213 36.067 20.8213 35.6922ZM21.4393 35.6922C21.4393 36.0098 21.4825 36.2958 21.5689 36.5499C21.6619 36.804 21.7882 37.0201 21.9477 37.198C22.1138 37.3759 22.3098 37.5156 22.5357 37.6173C22.7617 37.7126 23.0075 37.7603 23.2733 37.7603C23.5391 37.7603 23.785 37.7126 24.0109 37.6173C24.2369 37.5156 24.4296 37.3759 24.5891 37.198C24.7552 37.0201 24.8814 36.804 24.9678 36.5499C25.0609 36.2958 25.1074 36.0098 25.1074 35.6922C25.1074 35.3808 25.0609 35.0981 24.9678 34.844C24.8814 34.5835 24.7552 34.3643 24.5891 34.1864C24.4296 34.0085 24.2369 33.8719 24.0109 33.7766C23.785 33.6749 23.5391 33.6241 23.2733 33.6241C23.0075 33.6241 22.7617 33.6749 22.5357 33.7766C22.3098 33.8719 22.1138 34.0085 21.9477 34.1864C21.7882 34.3643 21.6619 34.5835 21.5689 34.844C21.4825 35.0981 21.4393 35.3808 21.4393 35.6922Z" fill="#48494B"/>
<path d="M26.5644 35.6922C26.5644 35.2982 26.6308 34.9424 26.7637 34.6248C26.9033 34.3071 27.0926 34.037 27.3319 33.8147C27.5711 33.5859 27.8568 33.4112 28.1891 33.2905C28.5213 33.1698 28.8835 33.1094 29.2755 33.1094C29.5347 33.1094 29.7872 33.1317 30.0331 33.1761C30.2789 33.2206 30.5015 33.2873 30.7009 33.3763L30.6411 33.9481C30.4484 33.8337 30.2357 33.7511 30.0032 33.7003C29.7706 33.6495 29.5314 33.6241 29.2855 33.6241C28.9865 33.6241 28.7074 33.6717 28.4482 33.767C28.1957 33.856 27.9731 33.9894 27.7804 34.1673C27.5943 34.3452 27.4481 34.5644 27.3418 34.8249C27.2355 35.079 27.1823 35.3681 27.1823 35.6922C27.1823 36.0162 27.2355 36.3085 27.3418 36.569C27.4481 36.8231 27.5943 37.0391 27.7804 37.217C27.9731 37.3886 28.199 37.522 28.4582 37.6173C28.7174 37.7126 29.0031 37.7603 29.3154 37.7603C29.5679 37.7603 29.8138 37.7317 30.053 37.6745C30.2989 37.6173 30.5115 37.5252 30.6909 37.3981L30.7507 37.9699C30.558 38.0716 30.3387 38.1478 30.0929 38.1987C29.847 38.2495 29.5879 38.2749 29.3154 38.2749C28.9101 38.2749 28.5379 38.2145 28.199 38.0938C27.8601 37.9731 27.5678 37.8016 27.3219 37.5792C27.0827 37.3504 26.8966 37.0772 26.7637 36.7596C26.6308 36.4419 26.5644 36.0861 26.5644 35.6922Z" fill="#48494B"/>
<path d="M33.1731 33.7194H31.2394V33.2238H35.7148V33.7194H33.7711V38.1605H33.1731V33.7194Z" fill="#48494B"/>
<path d="M37.1467 33.2238V34.9488H38.2232C39.9244 34.9488 40.7749 35.4857 40.7749 36.5594C40.7749 37.6268 39.9244 38.1605 38.2232 38.1605H36.5487V33.2238H37.1467ZM40.1569 36.5594C40.1569 36.1909 40.0074 35.9145 39.7084 35.7303C39.416 35.5397 38.9243 35.4444 38.2332 35.4444H37.1467V37.665H38.2332C38.9243 37.665 39.416 37.5728 39.7084 37.3886C40.0074 37.198 40.1569 36.9216 40.1569 36.5594Z" fill="#48494B"/>
<path d="M45.1818 35.3014C45.9261 35.3014 46.5009 35.2283 46.9062 35.0822C47.3182 34.9361 47.5242 34.7074 47.5242 34.396C47.5242 34.1355 47.4013 33.9417 47.1554 33.8147C46.9095 33.6812 46.5208 33.6145 45.9892 33.6145C45.7301 33.6145 45.4676 33.6336 45.2018 33.6717C44.9426 33.7098 44.6967 33.7702 44.4642 33.8528L44.4044 33.3096C44.6436 33.2397 44.8994 33.1888 45.1719 33.1571C45.4443 33.1253 45.7234 33.1094 46.0091 33.1094C46.7335 33.1094 47.2717 33.2206 47.6239 33.443C47.9761 33.6654 48.1522 33.983 48.1522 34.396C48.1522 34.7328 48.0226 34.9964 47.7634 35.187C47.5043 35.3777 47.1521 35.5079 46.7069 35.5778C47.1455 35.6795 47.5043 35.8415 47.7834 36.0638C48.0625 36.2799 48.202 36.5626 48.202 36.912C48.202 37.1471 48.1455 37.3504 48.0326 37.522C47.9196 37.6935 47.7601 37.8365 47.5541 37.9509C47.3548 38.0589 47.1122 38.1383 46.8265 38.1891C46.5474 38.2463 46.2384 38.2749 45.8995 38.2749C45.6204 38.2749 45.3413 38.2558 45.0622 38.2177C44.7831 38.1796 44.524 38.1192 44.2848 38.0366L44.3446 37.5029C44.5771 37.5919 44.8263 37.6586 45.0921 37.7031C45.3579 37.7475 45.6204 37.7698 45.8796 37.7698C46.451 37.7698 46.8763 37.6935 47.1554 37.5411C47.4345 37.3822 47.5741 37.163 47.5741 36.8835C47.5741 36.5594 47.3714 36.2989 46.966 36.102C46.5607 35.905 45.966 35.8065 45.1818 35.8065V35.3014Z" fill="#48494B"/>
<path d="M50.9814 38.2749C50.7223 38.2749 50.4764 38.2431 50.2438 38.1796C50.0112 38.1161 49.8086 38.0208 49.6358 37.8937C49.4697 37.7666 49.3368 37.6078 49.2371 37.4172C49.1374 37.2266 49.0876 37.0074 49.0876 36.7596C49.0876 36.264 49.277 35.8732 49.6557 35.5873C50.0345 35.3014 50.586 35.1585 51.3103 35.1585H52.7656V34.8344C52.7656 34.377 52.6493 34.0625 52.4167 33.8909C52.1908 33.713 51.822 33.6241 51.3103 33.6241C50.9914 33.6241 50.689 33.659 50.4033 33.7289C50.1242 33.7924 49.8617 33.8846 49.6159 34.0053L49.5461 33.4716C49.7787 33.3636 50.0478 33.2778 50.3535 33.2143C50.6658 33.1444 50.9914 33.1094 51.3303 33.1094C52.0147 33.1094 52.5231 33.2428 52.8553 33.5097C53.1942 33.7702 53.3637 34.234 53.3637 34.9011V38.1605H52.7656V37.5696C52.5729 37.792 52.3237 37.9667 52.018 38.0938C51.719 38.2145 51.3735 38.2749 50.9814 38.2749ZM51.0312 37.7603C51.41 37.7603 51.7456 37.7031 52.038 37.5887C52.3304 37.468 52.5729 37.2742 52.7656 37.0074V35.654H51.3203C50.7621 35.654 50.3535 35.7557 50.0943 35.959C49.8351 36.156 49.7056 36.4165 49.7056 36.7405C49.7056 37.09 49.8285 37.3473 50.0744 37.5125C50.3269 37.6777 50.6458 37.7603 51.0312 37.7603Z" fill="#48494B"/>
<path d="M59.0253 35.5873L61.9059 38.1605H61.0986L58.3375 35.6922V38.1605H57.7395V33.2238H58.3375V35.492L60.8892 33.2238H61.7166L59.0253 35.5873Z" fill="#48494B"/>
<path d="M64.1417 38.2749C63.8826 38.2749 63.6367 38.2431 63.4041 38.1796C63.1715 38.1161 62.9689 38.0208 62.7961 37.8937C62.63 37.7666 62.4971 37.6078 62.3974 37.4172C62.2977 37.2266 62.2479 37.0074 62.2479 36.7596C62.2479 36.264 62.4373 35.8732 62.816 35.5873C63.1948 35.3014 63.7463 35.1585 64.4706 35.1585H65.9259V34.8344C65.9259 34.377 65.8096 34.0625 65.577 33.8909C65.3511 33.713 64.9823 33.6241 64.4706 33.6241C64.1517 33.6241 63.8493 33.659 63.5636 33.7289C63.2845 33.7924 63.022 33.8846 62.7762 34.0053L62.7064 33.4716C62.939 33.3636 63.2081 33.2778 63.5138 33.2143C63.8261 33.1444 64.1517 33.1094 64.4906 33.1094C65.175 33.1094 65.6834 33.2428 66.0156 33.5097C66.3545 33.7702 66.524 34.234 66.524 34.9011V38.1605H65.9259V37.5696C65.7332 37.792 65.484 37.9667 65.1784 38.0938C64.8793 38.2145 64.5338 38.2749 64.1417 38.2749ZM64.1916 37.7603C64.5703 37.7603 64.9059 37.7031 65.1983 37.5887C65.4907 37.468 65.7332 37.2742 65.9259 37.0074V35.654H64.4806C63.9224 35.654 63.5138 35.7557 63.2546 35.959C62.9955 36.156 62.8659 36.4165 62.8659 36.7405C62.8659 37.09 62.9888 37.3473 63.2347 37.5125C63.4872 37.6777 63.8061 37.7603 64.1916 37.7603Z" fill="#48494B"/>
<path d="M69.7655 35.9876C70.0379 35.9876 70.2937 35.9495 70.533 35.8732C70.7788 35.7906 70.9981 35.6667 71.1908 35.5016V33.2238H71.7889V38.1605H71.1908V36.0734C70.9981 36.2004 70.7722 36.3053 70.513 36.3879C70.2539 36.4641 69.9847 36.5022 69.7057 36.5022C69.1009 36.5022 68.6258 36.3212 68.2803 35.959C67.9347 35.5905 67.762 35.0917 67.762 34.4627V33.2238H68.36V34.4627C68.36 34.9393 68.4796 35.3141 68.7189 35.5873C68.9581 35.8542 69.3069 35.9876 69.7655 35.9876Z" fill="#48494B"/>
<path d="M75.5287 37.7603C75.8278 37.7603 76.1035 37.7285 76.356 37.665C76.6086 37.5951 76.8378 37.4871 77.0438 37.3409L77.1036 37.9032C76.891 38.0303 76.6484 38.1224 76.376 38.1796C76.1035 38.2431 75.8145 38.2749 75.5088 38.2749C75.0769 38.2749 74.6981 38.2082 74.3725 38.0748C74.0535 37.9413 73.7877 37.7603 73.5751 37.5315C73.3624 37.2964 73.1996 37.0201 73.0867 36.7024C72.9804 36.3847 72.9272 36.0416 72.9272 35.6731C72.9272 35.2855 72.9804 34.9329 73.0867 34.6152C73.1996 34.2975 73.3558 34.0275 73.5552 33.8051C73.7545 33.5828 73.9937 33.4112 74.2728 33.2905C74.5586 33.1698 74.8742 33.1094 75.2197 33.1094C75.5719 33.1094 75.8909 33.173 76.1766 33.3C76.4624 33.4208 76.7049 33.5955 76.9043 33.8242C77.1036 34.0466 77.2564 34.3134 77.3628 34.6248C77.4691 34.9361 77.5222 35.276 77.5222 35.6445C77.5222 35.6636 77.5222 35.7049 77.5222 35.7684C77.5222 35.8319 77.5189 35.8859 77.5123 35.9304H73.5751C73.5884 36.1973 73.6382 36.4451 73.7246 36.6738C73.811 36.8962 73.9339 37.09 74.0934 37.2551C74.2595 37.414 74.4622 37.5379 74.7014 37.6268C74.9406 37.7158 75.2164 37.7603 75.5287 37.7603ZM76.8744 35.4253C76.8677 35.1521 76.8212 34.9075 76.7348 34.6915C76.6551 34.4691 76.5421 34.2785 76.3959 34.1196C76.2564 33.9608 76.0869 33.8401 75.8876 33.7575C75.6882 33.6685 75.4656 33.6241 75.2197 33.6241C74.7347 33.6241 74.3459 33.7829 74.0535 34.1006C73.7612 34.4183 73.6017 34.8598 73.5751 35.4253H76.8744Z" fill="#48494B"/>
<path d="M78.3101 35.6922C78.3101 35.2982 78.3765 34.9424 78.5094 34.6248C78.649 34.3071 78.8384 34.037 79.0776 33.8147C79.3168 33.5859 79.6025 33.4112 79.9348 33.2905C80.2671 33.1698 80.6292 33.1094 81.0213 33.1094C81.2804 33.1094 81.5329 33.1317 81.7788 33.1761C82.0247 33.2206 82.2473 33.2873 82.4466 33.3763L82.3868 33.9481C82.1941 33.8337 81.9815 33.7511 81.7489 33.7003C81.5163 33.6495 81.2771 33.6241 81.0312 33.6241C80.7322 33.6241 80.4531 33.6717 80.194 33.767C79.9414 33.856 79.7188 33.9894 79.5261 34.1673C79.3401 34.3452 79.1939 34.5644 79.0875 34.8249C78.9812 35.079 78.9281 35.3681 78.9281 35.6922C78.9281 36.0162 78.9812 36.3085 79.0875 36.569C79.1939 36.8231 79.3401 37.0391 79.5261 37.217C79.7188 37.3886 79.9448 37.522 80.2039 37.6173C80.4631 37.7126 80.7488 37.7603 81.0611 37.7603C81.3136 37.7603 81.5595 37.7317 81.7987 37.6745C82.0446 37.6173 82.2572 37.5252 82.4367 37.3981L82.4965 37.9699C82.3037 38.0716 82.0845 38.1478 81.8386 38.1987C81.5927 38.2495 81.3336 38.2749 81.0611 38.2749C80.6558 38.2749 80.2837 38.2145 79.9448 38.0938C79.6059 37.9731 79.3135 37.8016 79.0676 37.5792C78.8284 37.3504 78.6423 37.0772 78.5094 36.7596C78.3765 36.4419 78.3101 36.0861 78.3101 35.6922Z" fill="#48494B"/>
<path d="M84.9188 33.7194H82.9851V33.2238H87.4605V33.7194H85.5169V38.1605H84.9188V33.7194Z" fill="#48494B"/>
<path d="M88.2944 38.1605V33.2238H89.8992C90.5836 33.2238 91.1019 33.3318 91.4541 33.5478C91.813 33.7638 91.9924 34.0783 91.9924 34.4913C91.9924 34.7582 91.9093 34.9837 91.7432 35.168C91.5837 35.3459 91.3578 35.4761 91.0654 35.5587C91.4309 35.635 91.7199 35.7779 91.9326 35.9876C92.1518 36.1973 92.2615 36.4609 92.2615 36.7786C92.2615 37.2297 92.0655 37.5728 91.6734 37.8079C91.288 38.043 90.7132 38.1605 89.949 38.1605H88.2944ZM91.3744 34.5295C91.3744 34.2626 91.2514 34.0625 91.0056 33.929C90.7663 33.7893 90.3776 33.7194 89.8394 33.7194H88.8924V35.3491H89.8992C90.4175 35.3491 90.7929 35.2728 91.0255 35.1203C91.2581 34.9678 91.3744 34.7709 91.3744 34.5295ZM91.6435 36.7691C91.6435 36.4832 91.5106 36.2576 91.2448 36.0924C90.9856 35.9272 90.5471 35.8446 89.9291 35.8446H88.8924V37.665H89.8792C91.0554 37.665 91.6435 37.3663 91.6435 36.7691Z" fill="#48494B"/>
<path d="M93.096 35.6922C93.096 35.3173 93.1558 34.9742 93.2754 34.6629C93.395 34.3452 93.5611 34.072 93.7738 33.8433C93.993 33.6145 94.2522 33.4366 94.5512 33.3096C94.8503 33.1761 95.1825 33.1094 95.548 33.1094C95.9135 33.1094 96.2457 33.1761 96.5447 33.3096C96.8438 33.4366 97.0996 33.6145 97.3122 33.8433C97.5315 34.072 97.701 34.3452 97.8206 34.6629C97.9402 34.9742 98 35.3173 98 35.6922C98 36.067 97.9402 36.4133 97.8206 36.731C97.701 37.0423 97.5315 37.3123 97.3122 37.5411C97.0996 37.7698 96.8438 37.9509 96.5447 38.0843C96.2457 38.2114 95.9135 38.2749 95.548 38.2749C95.1825 38.2749 94.8503 38.2114 94.5512 38.0843C94.2522 37.9509 93.993 37.7698 93.7738 37.5411C93.5611 37.3123 93.395 37.0423 93.2754 36.731C93.1558 36.4133 93.096 36.067 93.096 35.6922ZM93.7139 35.6922C93.7139 36.0098 93.7571 36.2958 93.8435 36.5499C93.9366 36.804 94.0628 37.0201 94.2223 37.198C94.3884 37.3759 94.5844 37.5156 94.8104 37.6173C95.0363 37.7126 95.2822 37.7603 95.548 37.7603C95.8138 37.7603 96.0596 37.7126 96.2856 37.6173C96.5115 37.5156 96.7042 37.3759 96.8637 37.198C97.0298 37.0201 97.1561 36.804 97.2425 36.5499C97.3355 36.2958 97.382 36.0098 97.382 35.6922C97.382 35.3808 97.3355 35.0981 97.2425 34.844C97.1561 34.5835 97.0298 34.3643 96.8637 34.1864C96.7042 34.0085 96.5115 33.8719 96.2856 33.7766C96.0596 33.6749 95.8138 33.6241 95.548 33.6241C95.2822 33.6241 95.0363 33.6749 94.8104 33.7766C94.5844 33.8719 94.3884 34.0085 94.2223 34.1864C94.0628 34.3643 93.9366 34.5835 93.8435 34.844C93.7571 35.0981 93.7139 35.3808 93.7139 35.6922Z" fill="#48494B"/>
</svg>
