<svg width="24" height="18" viewBox="0 0 24 18" fill="none" xmlns="http://www.w3.org/2000/svg">
<path d="M17.7922 16.083H23.2622C23.2654 16.0125 23.2717 15.9428 23.2717 15.873C23.2717 15.3446 23.2717 14.8162 23.2717 14.2878C23.2707 14.2216 23.2738 14.1554 23.2811 14.0896C23.3075 13.8863 23.4433 13.7595 23.6302 13.7575C23.7233 13.7552 23.8136 13.7901 23.8815 13.8544C23.9493 13.9187 23.9893 14.0073 23.9926 14.1011C24.0052 14.3314 23.9978 14.5632 23.9981 14.7942C23.9981 15.3026 23.9981 15.811 23.9981 16.3196C23.9981 16.7049 23.875 16.8309 23.4921 16.8309C21.6818 16.8309 19.8716 16.8344 18.0613 16.8269C17.8626 16.8269 17.7859 16.8666 17.754 17.0833C17.6887 17.5482 17.2873 17.912 16.8229 17.9778C16.7125 17.9927 16.6013 18.0001 16.49 18C14.0705 18 11.651 18 9.23128 18C7.4116 18 5.71429 17.5526 4.17559 16.5654C2.788 15.6756 1.69634 14.501 0.948631 13.0168C0.186361 11.5092 -0.113903 9.90893 0.0383935 8.22462C0.190297 6.50661 0.786103 4.95506 1.83801 3.58977C2.92101 2.18089 4.29129 1.17189 5.96497 0.580592C7.23096 0.133158 8.53355 -0.0210067 9.85739 0.142273C10.5087 0.221535 11.1478 0.41969 11.7857 0.590103C11.9754 0.640435 12.0875 0.625375 12.2304 0.485081C12.395 0.317649 12.5877 0.180685 12.7994 0.0804486C13.1143 -0.0606377 13.4444 -0.00555068 13.7439 0.163277C15.0768 0.912699 16.196 1.90347 17.0783 3.1574C17.2896 3.45859 17.4817 3.77485 17.6686 4.09229C17.9834 4.62454 17.9295 5.16867 17.4789 5.584C17.229 5.81426 17.1932 6.00845 17.3105 6.32788C17.6713 7.30954 17.7902 8.33875 17.7914 9.38145C17.7937 11.5279 17.7937 13.674 17.7914 15.8199L17.7922 16.083ZM12.4287 17.2526V17.2676C13.793 17.2676 15.1572 17.2676 16.5215 17.2676C16.9221 17.2676 17.0649 17.1214 17.0649 16.716C17.0649 14.2459 17.0649 11.7756 17.0649 9.30496C17.0649 8.43545 16.9563 7.57705 16.6926 6.74797C15.9662 4.47156 14.5699 2.74999 12.4429 1.66569C10.5276 0.689973 8.52017 0.558795 6.48089 1.17783C4.76746 1.69819 3.372 2.71234 2.31458 4.17354C0.878189 6.15786 0.418938 8.37046 0.917149 10.7614C1.31265 12.6589 2.32206 14.2065 3.82259 15.4101C5.25898 16.5626 6.90906 17.1935 8.75039 17.245C9.97545 17.2803 11.2025 17.2526 12.4287 17.2526ZM12.7703 0.993943C14.5939 1.93676 15.9422 3.33693 16.8607 5.16273C17.1476 4.9186 17.1956 4.73194 17.0515 4.47434C16.2081 2.94879 14.9604 1.68924 13.4476 0.836212C13.169 0.677688 12.9816 0.717715 12.7703 0.993943Z" fill="#F26422"/>
<path d="M13.9144 9.05049C13.8751 11.8805 11.6477 14.0983 8.87722 14.0896C6.08866 14.0809 3.8534 11.787 3.87937 9.0168C3.90692 6.21886 6.14533 3.97653 8.89887 3.98882C11.6729 4.00111 13.9302 6.27949 13.9144 9.05049ZM4.59993 9.04375C4.60465 11.4216 6.54319 13.3671 8.90241 13.358C10.0371 13.3544 11.1242 12.8987 11.9262 12.0903C12.7282 11.282 13.1799 10.1868 13.1825 9.04415C13.186 6.6647 11.2541 4.71724 8.89296 4.71724C6.53177 4.71724 4.59521 6.66946 4.59993 9.04375Z" fill="#F26422"/>
<path d="M15.5436 5.96313C15.4606 6.05507 15.3897 6.17951 15.2827 6.24054C15.1512 6.31545 14.9978 6.28533 14.8892 6.16128C14.8349 6.09516 14.7881 6.02311 14.7498 5.94648C14.3315 5.15001 13.7599 4.44541 13.0683 3.87378C13.0016 3.82038 12.9403 3.76051 12.8853 3.69504C12.8293 3.63322 12.7983 3.55259 12.7983 3.46895C12.7983 3.38531 12.8293 3.30468 12.8853 3.24286C12.9982 3.10652 13.1734 3.06174 13.3268 3.15567C13.4598 3.24041 13.5848 3.33725 13.7003 3.44497C14.3941 4.07233 14.9738 4.79243 15.4094 5.62468C15.457 5.71623 15.4865 5.81768 15.5436 5.96313Z" fill="#F26422"/>
<path d="M11.2858 2.05097C11.372 2.08148 11.5039 2.12032 11.6286 2.17462C11.8443 2.26854 12.0615 2.36009 12.2669 2.47462C12.3433 2.51959 12.4002 2.59175 12.4265 2.67687C12.4527 2.762 12.4463 2.85392 12.4086 2.93455C12.3709 3.01519 12.3046 3.07868 12.2227 3.11252C12.1408 3.14637 12.0493 3.14812 11.9663 3.11744C11.6624 2.99854 11.363 2.86895 11.0678 2.72866C10.8903 2.64424 10.8199 2.4659 10.8793 2.29945C10.9387 2.133 11.0572 2.04621 11.2858 2.05097Z" fill="#F26422"/>
<path d="M5.42554 8.81789C5.49165 7.62579 6.10202 6.54228 7.36879 5.91651C8.61708 5.29985 9.83348 5.44094 10.9712 6.24782C11.1121 6.34769 11.2195 6.46936 11.1853 6.65959C11.1763 6.71345 11.1552 6.76453 11.1236 6.80889C11.092 6.85325 11.0506 6.88969 11.0028 6.91543C10.955 6.94116 10.9019 6.95548 10.8477 6.9573C10.7935 6.95912 10.7396 6.94838 10.6902 6.92591C10.5967 6.8782 10.5071 6.82307 10.4222 6.76104C9.32032 6.02787 7.96224 6.12695 7.00635 7.05114C6.21024 7.82316 5.95838 8.78183 6.28422 9.84632C6.60416 10.8918 7.32708 11.5504 8.40103 11.7407C10.2404 12.0649 11.7791 10.6175 11.6063 8.74101C11.5792 8.44536 11.454 8.15804 11.3671 7.86913C11.3407 7.78194 11.2833 7.70426 11.2533 7.61747C11.1837 7.41496 11.2561 7.23662 11.4344 7.15062C11.4754 7.12875 11.5204 7.11567 11.5667 7.11221C11.613 7.10874 11.6595 7.11497 11.7033 7.1305C11.747 7.14602 11.7871 7.17051 11.8211 7.20241C11.855 7.23432 11.882 7.27295 11.9003 7.31588C12.0361 7.60717 12.1809 7.90361 12.2521 8.21392C12.6618 9.99295 11.7571 11.6753 10.0649 12.3197C8.46989 12.9272 6.57307 12.1734 5.8112 10.6334C5.56131 10.1281 5.42632 9.59743 5.42554 8.81789Z" fill="#F26422"/>
</svg>
