<svg width="17" height="17" viewBox="0 0 17 17" fill="none" xmlns="http://www.w3.org/2000/svg">
<path d="M8.50034 17H0.370993C0.082264 17 0.00231305 16.9209 0.00201134 16.6355C0.00201134 16.3186 -0.00251418 16.0018 0.00201134 15.6852C0.0116658 15.1242 0.392112 14.7286 0.95207 14.6987C1.04801 14.6939 1.09176 14.6664 1.08331 14.5675C1.07878 14.5125 1.08331 14.457 1.08331 14.4018C1.08331 9.72522 1.08331 5.04875 1.08331 0.37238C1.08422 0.0718204 1.15481 0 1.45591 0H15.5577C15.8395 0 15.9156 0.0781575 15.9156 0.356084C15.9156 5.03769 15.9156 9.71919 15.9156 14.4006C15.9156 14.4558 15.9195 14.5116 15.9156 14.5666C15.9074 14.6643 15.9494 14.6933 16.0462 14.6984C16.6071 14.7286 16.9863 15.1209 16.9969 15.684C17.0029 16.0057 16.9987 16.3277 16.9969 16.6496C16.9969 16.9155 16.9112 16.9997 16.6436 17H8.50034ZM15.415 7.60934C15.415 5.32135 15.415 3.03315 15.415 0.744759C15.415 0.51934 15.415 0.51934 15.1845 0.51934H1.78899C1.58444 0.51934 1.58383 0.51934 1.58383 0.725144V14.4996C1.58383 14.6954 1.58383 14.6957 1.78447 14.6957H15.2102C15.4147 14.6957 15.415 14.6957 15.415 14.489C15.4152 12.196 15.4152 9.90276 15.415 7.60934ZM16.4791 16.471C16.4791 16.1949 16.4791 15.939 16.4791 15.6828C16.477 15.4064 16.3024 15.2208 16.0266 15.2C15.9316 15.1936 15.8359 15.1966 15.7403 15.1966H1.26131C1.16085 15.1966 1.06008 15.193 0.959613 15.2012C0.741482 15.2193 0.544773 15.3668 0.532403 15.5615C0.513396 15.8599 0.527274 16.1605 0.527274 16.4695L16.4791 16.471Z" fill="#F26422"/>
<path d="M14.4906 7.61433C14.4906 9.55529 14.4906 11.4967 14.4906 13.4384C14.4906 13.6841 14.4031 13.7722 14.1548 13.7722H2.84313C2.59604 13.7722 2.50854 13.6835 2.50854 13.4369C2.50854 9.55982 2.50854 5.68292 2.50854 1.80623C2.50854 1.51382 2.58065 1.4408 2.87391 1.4408C6.61923 1.4408 10.3646 1.4408 14.1099 1.4408C14.4221 1.4408 14.4879 1.50839 14.4879 1.82283V7.61674L14.4906 7.61433ZM13.9747 5.2168L13.8785 5.24697C13.75 5.28741 13.6371 5.26779 13.5626 5.14799C13.4881 5.02819 13.5146 4.91714 13.6109 4.82028C13.6993 4.73125 13.7807 4.63107 13.8824 4.56015C13.9138 4.54153 13.9393 4.51438 13.9559 4.48185C13.9725 4.44932 13.9796 4.41275 13.9762 4.37638C13.9738 3.62196 13.9717 2.86755 13.9762 2.11313C13.9762 1.98277 13.9461 1.94203 13.8094 1.94233C12.4216 1.94756 11.0337 1.94756 9.6459 1.94233C9.49716 1.94233 9.46036 1.99122 9.46066 2.13275C9.46428 4.34047 9.46538 6.54829 9.46398 8.75621C9.46398 8.80691 9.47303 8.85761 9.48087 8.93938C9.54423 8.87903 9.58073 8.84885 9.61573 8.81325C9.75844 8.67172 9.89722 8.52566 10.0445 8.38896C10.1917 8.25226 10.4186 8.30537 10.4705 8.48613C10.5045 8.60503 10.4545 8.69737 10.3691 8.78247C10.0933 9.05406 9.81878 9.32565 9.54966 9.60508C9.50183 9.65394 9.47258 9.71799 9.46699 9.78614C9.46217 10.8978 9.46428 12.0093 9.46217 13.1207C9.46217 13.2317 9.5044 13.2715 9.61302 13.2715C9.88455 13.2673 10.1561 13.2761 10.4276 13.2664C10.5001 13.2597 10.5681 13.2284 10.6204 13.1777C11.7045 12.0978 12.7865 11.0173 13.8664 9.93642C13.9028 9.90343 13.9315 9.86284 13.9505 9.81752C13.9695 9.77221 13.9783 9.72327 13.9762 9.67418C13.9732 8.28103 13.9727 6.88788 13.9747 5.49472V5.2168ZM7.52313 7.70154C7.45283 7.76732 7.41572 7.80022 7.38103 7.83492C7.15656 8.05823 6.9336 8.28334 6.70793 8.50514C6.60988 8.60141 6.49402 8.61408 6.37606 8.54498C6.25809 8.47587 6.24572 8.36573 6.28012 8.25407C6.29943 8.19161 6.35313 8.13548 6.4008 8.08629C6.73659 7.7468 7.07269 7.40762 7.41421 7.07387C7.45441 7.03731 7.48606 6.99235 7.50692 6.94218C7.52778 6.892 7.53733 6.83785 7.5349 6.78357C7.53067 5.95884 7.5349 5.13441 7.53278 4.30908C7.53278 4.25839 7.52313 4.20769 7.51498 4.12802C7.45132 4.18385 7.41271 4.21433 7.37801 4.24873C5.95619 5.67065 4.53538 7.09368 3.11557 8.51782C3.06012 8.57847 3.02804 8.65688 3.02506 8.73901C3.01872 9.5236 3.02114 10.3082 3.02114 11.0928C3.02114 11.7666 3.02385 12.4405 3.01872 13.1146C3.01872 13.2353 3.05945 13.2752 3.1747 13.27C3.3153 13.2637 3.4574 13.2791 3.59708 13.264C3.67896 13.2565 3.75647 13.2237 3.81884 13.1701C4.18088 12.8204 4.53266 12.4625 4.88776 12.107C5.18947 11.8053 5.48664 11.4972 5.7983 11.205C5.83546 11.1756 5.87836 11.1544 5.92425 11.1426C5.97013 11.1308 6.01798 11.1287 6.0647 11.1365C6.13047 11.151 6.19836 11.2476 6.22642 11.3224C6.26714 11.4314 6.19896 11.5213 6.11961 11.6001C5.67008 12.0464 5.22386 12.4957 4.77402 12.9417C4.68351 13.0322 4.58003 13.1128 4.48258 13.1979L4.51275 13.2504C4.57309 13.2565 4.63524 13.2673 4.69649 13.2673C5.56599 13.2685 6.4357 13.2685 7.3056 13.2673C7.53127 13.2673 7.53188 13.2673 7.53188 13.0443C7.53188 11.3301 7.53188 9.61554 7.53188 7.9007C7.5349 7.8491 7.52886 7.79629 7.52313 7.70154ZM3.02476 7.86329C3.08721 7.80867 3.11828 7.78422 3.14544 7.75646C4.57349 6.3281 6.00155 4.89843 7.4296 3.46746C7.49073 3.39827 7.52621 3.31015 7.53007 3.2179C7.54123 2.86121 7.5352 2.50422 7.53459 2.14723C7.53459 1.94686 7.53459 1.94595 7.33638 1.94595C5.95911 1.94595 4.58214 1.94776 3.20487 1.94203C3.05855 1.94203 3.02083 1.98277 3.02144 2.12671C3.02586 3.97171 3.02697 5.81661 3.02476 7.6614V7.86329ZM8.96194 7.6092V2.2103C8.96194 2.16021 8.95893 2.10951 8.96194 2.05942C8.96768 1.97341 8.92665 1.94414 8.84519 1.94505C8.64908 1.94746 8.45297 1.94505 8.25717 1.94505C8.03693 1.94505 8.03663 1.94505 8.03663 2.16624V11.6824C8.03663 12.155 8.04145 12.6276 8.03361 13.1007C8.03119 13.2365 8.07705 13.277 8.20618 13.2715C8.39686 13.2634 8.58844 13.2616 8.77942 13.2715C8.92514 13.2794 8.96587 13.229 8.96557 13.0835C8.96054 11.2587 8.95933 9.43388 8.96194 7.6092ZM13.9669 10.6193L11.3213 13.2543C11.3632 13.2615 11.4055 13.2664 11.448 13.2688C12.2372 13.2688 13.0265 13.267 13.8157 13.2712C13.9424 13.2712 13.9777 13.2281 13.9768 13.1056C13.9723 12.311 13.9747 11.5165 13.9741 10.7216C13.9741 10.6827 13.9687 10.6456 13.9669 10.6193Z" fill="#F26422"/>
<path d="M13.444 3.4625C13.3918 3.55303 13.3649 3.63119 13.3124 3.6843C12.6153 4.38641 11.9159 5.08681 11.2141 5.7855C11.0886 5.91104 10.9293 5.91979 10.8273 5.81296C10.7253 5.70614 10.7368 5.5459 10.8575 5.42338C11.4776 4.79973 12.0989 4.17789 12.7214 3.55786C12.8137 3.46552 12.897 3.35749 13.005 3.28989C13.0448 3.26839 13.0885 3.25507 13.1335 3.25072C13.1786 3.24637 13.224 3.25107 13.2672 3.26455C13.3369 3.28899 13.38 3.38616 13.444 3.4625Z" fill="#F26422"/>
<path d="M11.972 7.06956C11.9035 7.0092 11.8039 6.96454 11.7834 6.89544C11.7586 6.81275 11.7677 6.67817 11.8211 6.62143C12.1548 6.26716 12.5028 5.92556 12.8519 5.58577C12.8761 5.56353 12.9044 5.54629 12.9352 5.53505C12.9661 5.52381 12.9988 5.51879 13.0316 5.52027C13.0644 5.52176 13.0966 5.52973 13.1263 5.54371C13.156 5.5577 13.1827 5.57743 13.2047 5.60177C13.2462 5.64969 13.2688 5.71111 13.2682 5.77449C13.2677 5.83788 13.244 5.89889 13.2017 5.94608C12.8597 6.29311 12.5147 6.63692 12.1666 6.97752C12.1244 7.01916 12.0538 7.03123 11.972 7.06956Z" fill="#F26422"/>
<path d="M11.2697 7.27502C11.3328 7.32361 11.4335 7.36284 11.4574 7.42923C11.4718 7.47418 11.4771 7.52155 11.4731 7.56859C11.4691 7.61563 11.4557 7.66139 11.4338 7.70323C11.3641 7.81458 11.2546 7.9033 11.1535 7.99232C11.0584 8.07561 10.891 8.06505 10.8098 7.98297C10.7653 7.93816 10.7392 7.87823 10.7369 7.8151C10.7345 7.75197 10.756 7.69026 10.7971 7.64227C10.8891 7.53693 10.9879 7.43773 11.0928 7.34534C11.13 7.31214 11.1906 7.3052 11.2697 7.27502Z" fill="#F26422"/>
<path d="M5.63551 9.46324C5.48463 9.46324 5.37207 9.354 5.3766 9.21005C5.38112 9.05615 5.60805 8.83979 5.76195 8.8428C5.82776 8.84442 5.8904 8.87137 5.93683 8.91803C5.98327 8.96469 6.00991 9.02746 6.01121 9.09327C6.01332 9.2523 5.79967 9.46233 5.63551 9.46324Z" fill="#F26422"/>
</svg>
