<svg width="62" height="17" viewBox="0 0 62 17" fill="none" xmlns="http://www.w3.org/2000/svg">
<path d="M17.448 8.12294C17.6439 12.5425 13.4123 16.2169 9.22253 16.2497C4.58458 16.2887 0.698285 12.3824 0.750521 8.08137C0.802756 3.64388 4.61592 0.0367135 9.02979 0.000277514C13.6291 -0.0371849 17.5963 3.72342 17.448 8.12294ZM9.11859 14.859C12.7317 15.0032 16.4127 11.7881 16.0554 7.66262C15.7326 3.9913 12.8753 1.34276 9.00837 1.39511C5.15812 1.44745 2.10863 4.28741 2.16923 8.36978C2.21937 11.6557 5.16804 14.9221 9.11859 14.859Z" fill="#F26422"/>
<path d="M7.23189 9.81467C6.5712 9.73911 6.01187 9.72285 5.47613 9.60479C4.45239 9.37863 3.41363 8.13559 3.54555 7.08616C3.63028 6.42817 3.59918 5.74866 3.55091 5.08333C3.50426 4.45367 3.79545 4.07798 4.37785 4.06276C4.99724 4.04649 5.23267 4.55442 5.27235 5.07965C5.31793 5.69724 5.28147 6.3206 5.28415 6.94134C5.28844 7.79033 5.548 8.05111 6.40121 8.05268C8.30444 8.05583 10.2087 8.05268 12.1114 8.05583C13.5798 8.05583 14.6727 9.20128 14.6705 10.723C14.6705 12.1134 13.5739 13.1786 12.1415 13.1833C11.802 13.1833 11.4626 13.1833 11.1606 13.1833C11.0925 13.2615 11.0389 13.2946 11.0351 13.3318C10.9016 14.6436 10.7 14.8467 9.3003 14.8934C8.79835 14.9102 8.28621 14.8341 7.79015 14.7402C7.39814 14.6662 7.20776 14.4227 7.21902 13.9715C7.25442 12.5915 7.23189 11.2104 7.23189 9.81467ZM11.0437 11.6139C11.7232 11.6312 12.438 11.8238 12.851 11.169C13.0172 10.9066 13.0435 10.373 12.8778 10.1321C12.4375 9.4925 11.7146 9.78004 11.0437 9.76482V11.6139Z" fill="#F26422"/>
<path d="M7.71014 5.40488C7.71594 4.6341 8.29435 4.08969 9.06957 4.06299C9.7325 4.04107 10.5056 4.61337 10.494 5.4798C10.4866 6.0824 9.93967 6.79061 9.05838 6.77028C8.2351 6.75115 7.70392 6.22946 7.71014 5.40488Z" fill="#F26422"/>
<path d="M24.8792 3.87393C25.1657 3.97472 25.3889 4.13312 25.5486 4.34911C25.713 4.5603 25.7952 4.8075 25.7952 5.09069C25.7952 5.39788 25.6965 5.66427 25.4992 5.88986C25.3019 6.11545 25.0342 6.28825 24.696 6.40825C24.3624 6.52824 23.996 6.58824 23.5967 6.58824C23.2585 6.58824 22.9202 6.54504 22.582 6.45864C22.2485 6.37225 21.9314 6.24025 21.6307 6.06266L21.9831 5.22748C22.1992 5.36188 22.4364 5.46508 22.6948 5.53707C22.9578 5.60427 23.2138 5.63787 23.4628 5.63787C23.801 5.63787 24.0806 5.57547 24.3013 5.45068C24.5268 5.32588 24.6396 5.15069 24.6396 4.92509C24.6396 4.7379 24.5621 4.5963 24.407 4.50031C24.2567 4.40431 24.05 4.35631 23.787 4.35631H22.582V3.47794H23.7024C23.9326 3.47794 24.1111 3.42994 24.2379 3.33394C24.3695 3.23794 24.4352 3.10595 24.4352 2.93795C24.4352 2.74116 24.3413 2.58757 24.1534 2.47717C23.9702 2.36677 23.7329 2.31157 23.4417 2.31157C23.2256 2.31157 23.0024 2.34277 22.7723 2.40517C22.5421 2.46277 22.3236 2.55157 22.1169 2.67156L21.7717 1.76439C22.2931 1.4908 22.8568 1.354 23.4628 1.354C23.848 1.354 24.2027 1.4116 24.5268 1.5268C24.851 1.64199 25.1093 1.80999 25.3019 2.03078C25.4946 2.25158 25.5909 2.50837 25.5909 2.80116C25.5909 3.04115 25.5274 3.25474 25.4006 3.44194C25.2738 3.62913 25.0999 3.77313 24.8792 3.87393Z" fill="#F26422"/>
<path d="M30.0389 5.42188H27.7488L27.312 6.50184H26.1422L28.3407 1.462H29.4682L31.6737 6.50184H30.4758L30.0389 5.42188ZM29.6796 4.5363L28.8974 2.60676L28.1152 4.5363H29.6796Z" fill="#F26422"/>
<path d="M35.7454 3.87393C36.046 3.96512 36.2762 4.11392 36.4359 4.32031C36.5956 4.5267 36.6755 4.7811 36.6755 5.08349C36.6755 5.52987 36.5087 5.87786 36.1752 6.12745C35.8464 6.37705 35.3742 6.50184 34.7589 6.50184H32.3278V1.462H34.625C35.1981 1.462 35.6444 1.5748 35.9638 1.80039C36.2832 2.02598 36.443 2.34757 36.443 2.76516C36.443 3.01475 36.3819 3.23555 36.2598 3.42754C36.1376 3.61473 35.9662 3.76353 35.7454 3.87393ZM33.4623 3.54994H34.5263C34.7753 3.54994 34.9632 3.49954 35.09 3.39874C35.2169 3.29314 35.2803 3.13955 35.2803 2.93795C35.2803 2.74116 35.2145 2.58997 35.083 2.48437C34.9562 2.37877 34.7706 2.32597 34.5263 2.32597H33.4623V3.54994ZM34.7166 5.63787C35.2521 5.63787 35.5199 5.42188 35.5199 4.98989C35.5199 4.5723 35.2521 4.36351 34.7166 4.36351H33.4623V5.63787H34.7166Z" fill="#F26422"/>
<path d="M39.9318 6.58824C39.4197 6.58824 38.957 6.47544 38.5436 6.24985C38.1349 6.02426 37.8132 5.71467 37.5783 5.32108C37.3481 4.92269 37.233 4.47631 37.233 3.98192C37.233 3.48754 37.3481 3.04355 37.5783 2.64996C37.8132 2.25158 38.1349 1.93959 38.5436 1.71399C38.957 1.4884 39.4197 1.3756 39.9318 1.3756C40.4438 1.3756 40.9042 1.4884 41.3129 1.71399C41.7216 1.93959 42.0434 2.25158 42.2783 2.64996C42.5131 3.04355 42.6306 3.48754 42.6306 3.98192C42.6306 4.47631 42.5131 4.92269 42.2783 5.32108C42.0434 5.71467 41.7216 6.02426 41.3129 6.24985C40.9042 6.47544 40.4438 6.58824 39.9318 6.58824ZM39.9318 5.59467C40.223 5.59467 40.4861 5.52747 40.721 5.39308C40.9559 5.25388 41.1391 5.06189 41.2706 4.8171C41.4068 4.5723 41.475 4.29391 41.475 3.98192C41.475 3.66993 41.4068 3.39154 41.2706 3.14675C41.1391 2.90196 40.9559 2.71236 40.721 2.57797C40.4861 2.43877 40.223 2.36917 39.9318 2.36917C39.6405 2.36917 39.3775 2.43877 39.1426 2.57797C38.9077 2.71236 38.7221 2.90196 38.5859 3.14675C38.4544 3.39154 38.3886 3.66993 38.3886 3.98192C38.3886 4.29391 38.4544 4.5723 38.5859 4.8171C38.7221 5.06189 38.9077 5.25388 39.1426 5.39308C39.3775 5.52747 39.6405 5.59467 39.9318 5.59467Z" fill="#F26422"/>
<path d="M48.4599 5.55147V7.54581H47.4029V6.50184H43.922V7.54581H42.865L42.872 5.55147H43.0693C43.3653 5.54187 43.5743 5.32108 43.6965 4.88909C43.8186 4.45711 43.8938 3.84033 43.922 3.03875L43.9783 1.462H47.7693V5.55147H48.4599ZM44.9296 3.14675C44.9061 3.74673 44.8568 4.25071 44.7816 4.6587C44.7065 5.06189 44.5914 5.35948 44.4364 5.55147H46.6419V2.41237H44.9507L44.9296 3.14675Z" fill="#F26422"/>
<path d="M24.4282 14.8957C23.9161 14.8957 23.4534 14.7829 23.04 14.5573C22.6313 14.3317 22.3095 14.0221 22.0747 13.6285C21.8445 13.2301 21.7294 12.7837 21.7294 12.2894C21.7294 11.795 21.8445 11.351 22.0747 10.9574C22.3095 10.559 22.6313 10.247 23.04 10.0214C23.4534 9.79583 23.9161 9.68303 24.4282 9.68303C24.9402 9.68303 25.4006 9.79583 25.8093 10.0214C26.218 10.247 26.5398 10.559 26.7747 10.9574C27.0095 11.351 27.127 11.795 27.127 12.2894C27.127 12.7837 27.0095 13.2301 26.7747 13.6285C26.5398 14.0221 26.218 14.3317 25.8093 14.5573C25.4006 14.7829 24.9402 14.8957 24.4282 14.8957ZM24.4282 13.9021C24.7194 13.9021 24.9825 13.8349 25.2174 13.7005C25.4523 13.5613 25.6355 13.3693 25.767 13.1245C25.9032 12.8797 25.9714 12.6013 25.9714 12.2894C25.9714 11.9774 25.9032 11.699 25.767 11.4542C25.6355 11.2094 25.4523 11.0198 25.2174 10.8854C24.9825 10.7462 24.7194 10.6766 24.4282 10.6766C24.1369 10.6766 23.8739 10.7462 23.639 10.8854C23.4041 11.0198 23.2185 11.2094 23.0823 11.4542C22.9508 11.699 22.885 11.9774 22.885 12.2894C22.885 12.6013 22.9508 12.8797 23.0823 13.1245C23.2185 13.3693 23.4041 13.5613 23.639 13.7005C23.8739 13.8349 24.1369 13.9021 24.4282 13.9021Z" fill="#F26422"/>
<path d="M29.916 12.7789H29.1267V14.8093H27.9923V9.76943H29.1267V11.807H29.9441L31.2407 9.76943H32.4456L30.832 12.203L32.495 14.8093H31.1984L29.916 12.7789Z" fill="#F26422"/>
<path d="M35.3626 14.8957C34.8506 14.8957 34.3878 14.7829 33.9744 14.5573C33.5657 14.3317 33.244 14.0221 33.0091 13.6285C32.7789 13.2301 32.6638 12.7837 32.6638 12.2894C32.6638 11.795 32.7789 11.351 33.0091 10.9574C33.244 10.559 33.5657 10.247 33.9744 10.0214C34.3878 9.79583 34.8506 9.68303 35.3626 9.68303C35.8746 9.68303 36.335 9.79583 36.7437 10.0214C37.1524 10.247 37.4742 10.559 37.7091 10.9574C37.944 11.351 38.0614 11.795 38.0614 12.2894C38.0614 12.7837 37.944 13.2301 37.7091 13.6285C37.4742 14.0221 37.1524 14.3317 36.7437 14.5573C36.335 14.7829 35.8746 14.8957 35.3626 14.8957ZM35.3626 13.9021C35.6538 13.9021 35.9169 13.8349 36.1518 13.7005C36.3867 13.5613 36.5699 13.3693 36.7014 13.1245C36.8377 12.8797 36.9058 12.6013 36.9058 12.2894C36.9058 11.9774 36.8377 11.699 36.7014 11.4542C36.5699 11.2094 36.3867 11.0198 36.1518 10.8854C35.9169 10.7462 35.6538 10.6766 35.3626 10.6766C35.0713 10.6766 34.8083 10.7462 34.5734 10.8854C34.3385 11.0198 34.153 11.2094 34.0167 11.4542C33.8852 11.699 33.8194 11.9774 33.8194 12.2894C33.8194 12.6013 33.8852 12.8797 34.0167 13.1245C34.153 13.3693 34.3385 13.5613 34.5734 13.7005C34.8083 13.8349 35.0713 13.9021 35.3626 13.9021Z" fill="#F26422"/>
<path d="M43.4646 9.76943V14.8093H42.3231V12.7429H40.0823V14.8093H38.9408V9.76943H40.0823V11.7566H42.3231V9.76943H43.4646Z" fill="#F26422"/>
<path d="M51.1917 9.76943V14.8093H50.0572V10.7198H47.8305V14.8093H46.696V9.76943H51.1917Z" fill="#F26422"/>
<path d="M55.8319 12.1814C56.1326 12.2726 56.3628 12.4213 56.5225 12.6277C56.6822 12.8341 56.7621 13.0885 56.7621 13.3909C56.7621 13.8373 56.5953 14.1853 56.2618 14.4349C55.9329 14.6845 55.4608 14.8093 54.8454 14.8093H52.4144V9.76943H54.7115C55.2846 9.76943 55.7309 9.88223 56.0504 10.1078C56.3698 10.3334 56.5295 10.655 56.5295 11.0726C56.5295 11.3222 56.4685 11.543 56.3463 11.735C56.2242 11.9222 56.0527 12.071 55.8319 12.1814ZM53.5489 11.8574H54.6129C54.8619 11.8574 55.0498 11.807 55.1766 11.7062C55.3034 11.6006 55.3669 11.447 55.3669 11.2454C55.3669 11.0486 55.3011 10.8974 55.1696 10.7918C55.0427 10.6862 54.8572 10.6334 54.6129 10.6334H53.5489V11.8574ZM54.8031 13.9453C55.3387 13.9453 55.6064 13.7293 55.6064 13.2973C55.6064 12.8797 55.3387 12.6709 54.8031 12.6709H53.5489V13.9453H54.8031Z" fill="#F26422"/>
<path d="M58.4839 9.76943L59.5056 11.2958L60.5273 9.76943H61.8662L60.2243 12.1814L62.0001 14.8093H60.6542L59.5056 13.1389L58.3711 14.8093H57.0534L58.8151 12.2318L57.1662 9.76943H58.4839Z" fill="#F26422"/>
</svg>
