<svg width="17" height="17" viewBox="0 0 17 17" fill="none" xmlns="http://www.w3.org/2000/svg">
<path d="M17 13.0254C16.9292 13.2519 16.8761 13.2911 16.6375 13.2918C16.4732 13.2918 16.3078 13.302 16.1444 13.2891C15.9742 13.2761 15.9331 13.3467 15.9354 13.5057C15.9436 14.0399 15.946 14.5745 15.9354 15.1091C15.9239 15.7828 15.654 16.3293 15.0846 16.7025C14.7991 16.8895 14.4853 17.0007 14.1317 17C10.0089 16.9959 5.886 16.995 1.76299 16.9973C1.07586 16.9973 0.367627 16.4934 0.127352 15.8442C0.0411706 15.6105 -0.00195692 15.363 6.81408e-05 15.1138C0.00483279 12.4591 0.00540001 9.80444 0.0017698 7.14992C0.0017698 6.49868 0.297178 6.01256 0.802231 5.63765C1.12146 5.40089 1.4914 5.31083 1.88347 5.30503C2.14416 5.30128 2.4052 5.31049 2.66623 5.3006C2.74417 5.29753 2.84116 5.27092 2.89391 5.21907C3.27304 4.84688 3.64264 4.4631 4.01701 4.08785C4.28927 3.81493 4.57039 3.55226 4.84402 3.28207C5.08871 3.04055 5.32899 2.79424 5.57131 2.55067C5.8649 2.25501 6.15872 1.95936 6.45277 1.66371C6.81726 1.29766 7.18108 0.926843 7.54625 0.560458C7.69736 0.408992 7.85255 0.262984 8.01149 0.116976C8.18165 -0.0402894 8.30315 -0.0389249 8.46311 0.120729C8.94502 0.601736 9.42625 1.08354 9.9068 1.56614C10.6737 2.33143 11.441 3.09615 12.2088 3.86031C12.6444 4.2956 13.076 4.73499 13.5085 5.17369C13.596 5.26239 13.691 5.31254 13.8233 5.30503C14.3168 5.2774 14.7763 5.37701 15.183 5.68029C15.5822 5.97571 15.8401 6.36666 15.8895 6.85176C15.9422 7.36927 15.9259 7.89395 15.9382 8.41555C15.9416 8.57475 15.9416 8.73395 15.9382 8.89314C15.9358 8.9815 15.9722 9.01459 16.0586 9.01323C16.2513 9.01016 16.4442 9.01084 16.6372 9.01323C16.8863 9.0163 16.9806 9.11557 16.9806 9.36392C16.9806 10.4783 16.9806 11.5927 16.9806 12.7071C16.9806 12.7794 16.9929 12.8521 16.9993 12.9244L17 13.0254ZM15.3521 9.01186V8.81025C15.3521 8.25317 15.348 7.69608 15.3521 7.13866C15.3555 6.80639 15.2204 6.53416 15.0091 6.29502C14.7072 5.95388 14.2995 5.85836 13.8723 5.85768C10.0046 5.85245 6.13682 5.85245 2.26906 5.85768C2.06063 5.86135 1.85263 5.87798 1.64625 5.90749C1.02209 5.98527 0.557192 6.5519 0.55515 7.1697C0.547663 9.82446 0.542898 12.4792 0.557873 15.134C0.561957 15.8916 1.11091 16.4378 1.86543 16.4398C5.93172 16.4505 9.99801 16.4521 14.0643 16.4446C14.765 16.4446 15.3504 15.8558 15.3508 15.1561C15.3508 14.6049 15.3426 14.0532 15.3552 13.5019C15.3593 13.3222 15.3004 13.2874 15.1336 13.2867C14.6306 13.2867 14.1239 13.2986 13.6259 13.2417C13.059 13.1768 12.6291 12.8408 12.2987 12.384C11.9985 11.9709 11.9165 11.5008 11.9345 10.998C11.9542 10.4423 12.1931 9.99162 12.573 9.61432C13.0127 9.17766 13.563 9.00401 14.1763 9.0105C14.5608 9.01527 14.9454 9.01186 15.3521 9.01186ZM7.10552 1.81278L3.66511 5.30435H3.84786C4.50538 5.30435 5.16325 5.29651 5.82179 5.30844C6.08146 5.31288 6.31833 5.31595 6.44222 5.03007C6.45821 4.99357 6.51028 4.97447 6.54431 4.94308C7.15215 4.34745 7.88352 4.14209 8.70747 4.29492C9.30849 4.40511 9.7887 4.73328 10.1637 5.216C10.2006 5.26266 10.2542 5.29293 10.3132 5.30026C10.7324 5.30708 11.1521 5.3064 11.5724 5.30026C11.5977 5.29801 11.622 5.28986 11.6436 5.27647C11.6652 5.26309 11.6833 5.24483 11.6966 5.22316C11.7922 4.97379 11.8766 4.72032 11.9614 4.47777L9.32517 1.82404C8.60162 2.28492 7.86855 2.28697 7.10552 1.81278ZM16.4218 9.59453H16.2149C15.5059 9.59453 14.797 9.60476 14.0885 9.59009C13.7175 9.58259 13.4017 9.70096 13.1117 9.91315C12.4191 10.4191 12.2881 11.4254 12.8119 12.107C13.1594 12.559 13.6287 12.7344 14.1732 12.7395C14.8651 12.746 15.557 12.7415 16.2492 12.7395C16.3044 12.7395 16.3595 12.734 16.4218 12.731V9.59453ZM9.40855 5.29173C8.94094 4.73601 7.72186 4.60194 7.02623 5.29173H9.40855ZM7.56429 1.39148C7.9601 1.71078 8.65846 1.62618 8.89431 1.38022L8.24496 0.725911L7.56429 1.39148Z" fill="#F26422"/>
<path d="M6.90529 15.9528C6.826 15.9528 6.74636 15.9555 6.66706 15.9528C6.48022 15.9446 6.3492 15.8269 6.34613 15.6683C6.34273 15.5155 6.47818 15.378 6.65685 15.3681C6.81557 15.3599 6.9746 15.3599 7.13332 15.3681C7.31709 15.3773 7.46174 15.522 7.45527 15.6751C7.4488 15.8283 7.31335 15.945 7.12651 15.9528C7.05266 15.9552 6.97881 15.9528 6.90529 15.9528Z" fill="#F26422"/>
<path d="M10.074 15.9667C9.95672 15.9577 9.83996 15.9429 9.72415 15.9223C9.59856 15.8943 9.51995 15.7859 9.5373 15.6736C9.55364 15.5774 9.6394 15.4287 9.71053 15.4178C9.94795 15.3839 10.1885 15.3783 10.4273 15.401C10.5706 15.4137 10.6427 15.5416 10.6335 15.6903C10.6243 15.8391 10.512 15.938 10.3473 15.952C10.2575 15.9598 10.1662 15.952 10.075 15.952L10.074 15.9667Z" fill="#F26422"/>
<path d="M2.13389 15.9527C2.05459 15.9527 1.97563 15.9558 1.89565 15.9527C1.70915 15.9438 1.60501 15.8538 1.59752 15.6996C1.58799 15.5109 1.67274 15.3888 1.85856 15.3714C2.03848 15.3557 2.21942 15.3557 2.39934 15.3714C2.56406 15.385 2.68965 15.5362 2.68284 15.6784C2.67535 15.8251 2.54364 15.9428 2.36939 15.953C2.2918 15.9564 2.21216 15.9523 2.13389 15.9527Z" fill="#F26422"/>
<path d="M5.31372 15.9525C5.23409 15.9525 5.15479 15.9566 5.07549 15.9525C4.88422 15.9416 4.76919 15.8317 4.77089 15.6646C4.77259 15.4974 4.89409 15.3756 5.07413 15.3678C5.23238 15.361 5.39166 15.3606 5.5506 15.3678C5.71906 15.3753 5.86711 15.5182 5.86983 15.6625C5.87221 15.8126 5.7337 15.9402 5.5523 15.9525C5.47266 15.9569 5.39302 15.9525 5.31372 15.9525Z" fill="#F26422"/>
<path d="M11.6643 15.9524C11.585 15.9524 11.5053 15.9575 11.426 15.9524C11.2525 15.9394 11.1197 15.8159 11.1139 15.6743C11.1081 15.5328 11.2555 15.3775 11.4202 15.3673C11.5903 15.3572 11.7607 15.3572 11.9307 15.3673C12.0982 15.3779 12.1999 15.5109 12.2146 15.6675C12.2306 15.8357 12.0805 15.9268 11.9352 15.9479C11.8446 15.9551 11.7536 15.9559 11.6629 15.9503L11.6643 15.9524Z" fill="#F26422"/>
<path d="M8.48091 15.9526C8.40773 15.9526 8.33422 15.9553 8.26105 15.9526C8.07659 15.9444 7.94624 15.8278 7.94045 15.6695C7.93535 15.5279 8.0657 15.3819 8.23212 15.37C8.4067 15.357 8.582 15.357 8.75658 15.37C8.923 15.3829 9.05097 15.532 9.04246 15.6732C9.03293 15.8281 8.91075 15.9414 8.73616 15.9516C8.65073 15.9564 8.56565 15.9523 8.48091 15.9526Z" fill="#F26422"/>
<path d="M3.71656 15.949C3.62058 15.949 3.52257 15.9626 3.42965 15.9459C3.28501 15.92 3.17577 15.835 3.17338 15.6757C3.17134 15.5334 3.24145 15.4086 3.38915 15.3939C3.60548 15.3668 3.82427 15.3655 4.04089 15.3902C4.22467 15.4161 4.27708 15.5379 4.25054 15.7344C4.22842 15.8974 4.10249 15.9346 3.9701 15.9507C3.88569 15.9562 3.80103 15.9568 3.71656 15.9524V15.949Z" fill="#F26422"/>
<path d="M13.2618 15.9527C13.1825 15.9527 13.1029 15.9561 13.0236 15.9527C12.8402 15.9428 12.7367 15.8479 12.7313 15.691C12.7251 15.4986 12.8109 15.384 13.0035 15.37C13.1787 15.3557 13.3548 15.3557 13.53 15.37C13.6075 15.3751 13.68 15.4098 13.7327 15.4669C13.7855 15.524 13.8144 15.5992 13.8135 15.677C13.807 15.8278 13.6794 15.9417 13.5007 15.9516C13.4208 15.9561 13.3411 15.9527 13.2618 15.9527Z" fill="#F26422"/>
<path d="M2.13224 6.93164C2.03014 6.93164 1.92089 6.95518 1.82866 6.92481C1.74494 6.89718 1.64727 6.82588 1.6146 6.74845C1.56967 6.64338 1.57001 6.50965 1.69389 6.43051C1.73041 6.40569 1.77276 6.39088 1.81675 6.38752C2.02606 6.38309 2.2357 6.38172 2.44501 6.38752C2.57603 6.39093 2.67541 6.5117 2.67711 6.65259C2.67881 6.79348 2.58046 6.9197 2.45454 6.92959C2.34767 6.93812 2.23945 6.9313 2.13224 6.9313V6.93164Z" fill="#F26422"/>
<path d="M8.49475 6.38547C8.59107 6.38547 8.68738 6.38717 8.7837 6.38547C8.93855 6.3824 9.01376 6.4745 9.03418 6.61096C9.05767 6.77129 8.96203 6.91798 8.81977 6.92685C8.5992 6.93981 8.37805 6.93981 8.15748 6.92685C8.02135 6.91866 7.93082 6.78016 7.94817 6.62256C7.96315 6.4861 8.0336 6.3882 8.18879 6.38717C8.29089 6.38478 8.39265 6.38547 8.49475 6.38547Z" fill="#F26422"/>
<path d="M10.0773 6.9333C9.99797 6.9333 9.91867 6.935 9.83903 6.9333C9.6008 6.92818 9.46467 6.73953 9.56677 6.52836C9.58965 6.49193 9.6201 6.46089 9.65605 6.43734C9.69199 6.41379 9.73258 6.39829 9.77505 6.3919C9.97108 6.3728 10.1702 6.38269 10.3682 6.3861C10.5122 6.38883 10.6276 6.49527 10.632 6.62081C10.6374 6.7866 10.5374 6.91624 10.3808 6.93023C10.2787 6.93944 10.1766 6.93023 10.0745 6.93023L10.0773 6.9333Z" fill="#F26422"/>
<path d="M3.71723 6.38539C3.81933 6.38539 3.92143 6.38198 4.02353 6.38539C4.16988 6.39153 4.25088 6.46352 4.25326 6.6184C4.25598 6.81421 4.19574 6.91997 4.04123 6.92781C3.82682 6.93873 3.61105 6.93805 3.39459 6.92781C3.24348 6.92031 3.18086 6.8108 3.19039 6.61396C3.19686 6.4717 3.2748 6.39631 3.41127 6.38642C3.51303 6.38062 3.61547 6.38539 3.71723 6.38539Z" fill="#F26422"/>
<path d="M11.6752 6.38511C11.7599 6.38511 11.8453 6.38511 11.9294 6.38511C12.1224 6.38716 12.2105 6.46664 12.2126 6.63926C12.2149 6.83167 12.12 6.93026 11.9243 6.93299C11.7541 6.93537 11.584 6.93674 11.4158 6.93299C11.2218 6.92821 11.1146 6.80949 11.1232 6.61743C11.1293 6.4837 11.2532 6.38682 11.4209 6.38545C11.5057 6.38443 11.5904 6.38511 11.6752 6.38511Z" fill="#F26422"/>
<path d="M13.2577 6.38535C13.354 6.38535 13.4507 6.38535 13.547 6.38535C13.6978 6.38228 13.7818 6.4703 13.8046 6.60402C13.8342 6.77459 13.7366 6.91992 13.5807 6.92845C13.3653 6.9406 13.1494 6.9406 12.934 6.92845C12.7839 6.91958 12.7234 6.80734 12.7298 6.61255C12.7353 6.45665 12.8204 6.38944 12.9681 6.38672C13.0651 6.38399 13.1614 6.38535 13.2577 6.38535Z" fill="#F26422"/>
<path d="M5.31128 6.93337C5.22075 6.93337 5.13056 6.93576 5.03901 6.93337C4.86 6.92757 4.76674 6.82352 4.76947 6.6376C4.77219 6.47078 4.85829 6.38823 5.03765 6.38618C5.21701 6.38413 5.39909 6.38413 5.57946 6.38618C5.74963 6.38618 5.84526 6.48136 5.84697 6.63862C5.84697 6.83341 5.76563 6.92689 5.58082 6.93303C5.492 6.93576 5.40147 6.93337 5.31128 6.93337Z" fill="#F26422"/>
<path d="M6.90887 6.38519C6.99906 6.38519 7.08925 6.38519 7.18114 6.38519C7.32748 6.38314 7.41597 6.45342 7.43128 6.59874C7.45204 6.79217 7.38057 6.91703 7.22708 6.92692C7.01324 6.94108 6.79871 6.94108 6.58487 6.92692C6.43002 6.91634 6.35617 6.78603 6.37148 6.60011C6.38408 6.44489 6.48447 6.39031 6.62367 6.38621C6.71624 6.38314 6.81222 6.38519 6.90887 6.38519Z" fill="#F26422"/>
<path d="M14.0495 12.2214C13.4522 12.2668 12.9785 11.7568 12.9727 11.157C12.9669 10.5508 13.4648 10.0746 14.0642 10.078C14.6635 10.0814 15.1447 10.5498 15.1413 11.1567C15.1382 11.7486 14.674 12.2691 14.0495 12.2214ZM14.56 11.1639C14.56 10.8807 14.3167 10.6334 14.0478 10.6419C13.9144 10.6493 13.7888 10.7076 13.6968 10.8047C13.6048 10.9019 13.5534 11.0306 13.553 11.1645C13.553 11.4375 13.7895 11.6763 14.057 11.6763C14.3245 11.6763 14.5617 11.4361 14.561 11.1642L14.56 11.1639Z" fill="#F26422"/>
</svg>
