<svg width="17" height="17" viewBox="0 0 17 17" fill="none" xmlns="http://www.w3.org/2000/svg">
<path d="M10.54 17H9.86C9.46254 16.8208 9.06916 16.6314 8.66524 16.4693C8.54718 16.43 8.41906 16.4338 8.30348 16.4798C7.91044 16.6403 7.52692 16.8246 7.14 17H6.46C6.1982 16.8953 5.93504 16.7902 5.75144 16.5611C5.56784 16.3319 5.37404 16.0956 5.19962 15.8528C5.00208 15.5781 4.7498 15.4499 4.40742 15.4516C4.09659 15.4492 3.78622 15.4271 3.4782 15.3853C2.99982 15.3269 2.516 14.8828 2.40924 14.4112C2.34124 14.1052 2.2831 13.7931 2.23686 13.4817C2.19232 13.1832 2.07094 12.9486 1.79486 12.8017C1.58576 12.6902 1.38482 12.5637 1.18286 12.4409C0.62084 12.104 0.31518 11.6229 0.42466 10.9575C0.4811 10.6148 0.59908 10.2799 0.714 9.94976C0.80716 9.68184 0.77962 9.44554 0.64056 9.20482C0.42126 8.82572 0.21284 8.4405 0 8.058V7.378C0.06154 7.25356 0.102 7.1094 0.18836 7.00774C0.45798 6.69664 0.74052 6.39574 1.02986 6.10198C1.22604 5.90376 1.2869 5.67528 1.2648 5.40634C1.23862 5.09116 1.21142 4.77496 1.21074 4.4591C1.20721 4.18254 1.2906 3.91186 1.44914 3.68523C1.60769 3.45861 1.83339 3.28748 2.0944 3.196C2.38 3.094 2.67546 3.00968 2.96786 2.92196C3.23 2.84308 3.434 2.70164 3.5377 2.43644C3.62746 2.21068 3.73558 1.9924 3.82398 1.76664C4.06198 1.16042 4.60326 0.76228 5.2581 0.81464C5.55485 0.84247 5.84902 0.893052 6.13802 0.96594C6.4566 1.04142 6.73336 1.00776 6.99482 0.7939C7.3593 0.49572 7.6959 0.153 8.16 0H8.84C8.99538 0.07752 9.163 0.1377 9.30376 0.238C9.54176 0.408 9.76752 0.59568 9.99396 0.782C10.1898 0.94248 10.402 1.05026 10.6621 1.00266C10.9164 0.95608 11.17 0.9044 11.4233 0.85136C12.0782 0.71536 12.6636 0.9163 12.9989 1.44024C13.1556 1.68504 13.2658 1.96418 13.3664 2.2389C13.5109 2.63262 13.7601 2.88082 14.1783 2.9716C14.4314 3.03174 14.6801 3.10922 14.9226 3.20348C15.4302 3.3898 15.7893 3.89096 15.7886 4.42748C15.7886 4.75456 15.7617 5.08198 15.7349 5.40838C15.7121 5.68446 15.7814 5.91328 15.9817 6.11626C16.3628 6.5008 16.813 6.834 17 7.378V8.058C16.916 8.228 16.8395 8.40242 16.7467 8.568C16.6141 8.806 16.4696 9.03448 16.3299 9.26704C16.2085 9.46934 16.1962 9.67946 16.271 9.90182C16.3591 10.1643 16.441 10.4292 16.5226 10.693C16.7266 11.3421 16.539 11.9337 15.9841 12.325C15.7213 12.5096 15.4401 12.6691 15.1637 12.8323C15.0641 12.8865 14.9786 12.9631 14.9137 13.056C14.8488 13.1489 14.8063 13.2557 14.7897 13.3678C14.7305 13.7119 14.6707 14.0563 14.5935 14.3963C14.4755 14.9161 14.0063 15.3323 13.4715 15.3911C13.1573 15.4251 12.8411 15.4431 12.5253 15.4571C12.2631 15.469 12.0384 15.5417 11.8793 15.7648C11.7739 15.9113 11.6542 16.048 11.5518 16.1969C11.2948 16.5665 10.982 16.8613 10.54 17ZM15.0872 4.67636C15.0933 4.20342 14.9294 3.93822 14.604 3.8335C14.3942 3.7655 14.1838 3.6975 13.9699 3.64616C13.3844 3.50404 12.9642 3.18002 12.7531 2.60066C12.6701 2.37252 12.5644 2.15254 12.4593 1.93324C12.3131 1.62724 12.0108 1.46302 11.7147 1.51878C11.4316 1.57182 11.1483 1.62645 10.8647 1.68266C10.3853 1.7782 9.95622 1.6779 9.57916 1.36238C9.38842 1.20292 9.1953 1.04652 9.00116 0.88978C8.68054 0.62934 8.33578 0.6239 8.01074 0.87788C7.85944 0.9962 7.70882 1.11588 7.56874 1.24508C7.19984 1.58508 6.77756 1.7748 6.27028 1.7068C5.96258 1.666 5.65828 1.59562 5.35228 1.5368C4.99494 1.4688 4.69676 1.60752 4.53968 1.93426C4.41456 2.19402 4.30406 2.46092 4.1888 2.7251C4.0069 3.14262 3.70532 3.42992 3.2708 3.5683C2.96922 3.66452 2.66186 3.7434 2.36402 3.84948C2.08862 3.9474 1.92508 4.16126 1.91658 4.45162C1.91199 4.73435 1.92767 5.01705 1.9635 5.29754C2.01348 5.7273 1.94786 6.12544 1.6575 6.45626C1.43106 6.715 1.1815 6.95334 0.93772 7.19746C0.7412 7.395 0.61642 7.62654 0.7225 7.8982C0.815222 8.13489 0.938068 8.35864 1.088 8.56392C1.50382 9.1341 1.5946 9.73284 1.32328 10.3884C1.24984 10.5658 1.20088 10.7535 1.14478 10.9378C1.09209 11.0948 1.09621 11.2654 1.15642 11.4197C1.21664 11.5739 1.32912 11.7022 1.47424 11.782C1.7034 11.918 1.92882 12.0571 2.159 12.19C2.62616 12.459 2.873 12.8659 2.941 13.395C2.97262 13.6411 3.02192 13.8856 3.07394 14.1287C3.14738 14.4687 3.33914 14.6547 3.6822 14.6989C3.92307 14.732 4.16599 14.748 4.40912 14.7468C4.98372 14.7393 5.44102 14.9508 5.77524 15.4234C5.91532 15.6216 6.06492 15.8134 6.21078 16.0075C6.4107 16.2744 6.72996 16.3778 7.03562 16.2547C7.3134 16.1432 7.58268 16.0113 7.85502 15.8868C8.23854 15.7121 8.63124 15.6828 9.0236 15.8409C9.33232 15.9647 9.62812 16.1221 9.93752 16.2445C10.2901 16.3836 10.5896 16.2826 10.814 15.979C10.9551 15.7882 11.1007 15.6009 11.2414 15.4102C11.545 14.9991 11.934 14.7601 12.461 14.7584C12.7494 14.7559 13.0373 14.736 13.3232 14.6985C13.6653 14.6564 13.8574 14.4687 13.9308 14.1277C13.9832 13.8846 14.0328 13.6401 14.0638 13.394C14.1352 12.8442 14.3993 12.4318 14.8896 12.1638C15.0977 12.0499 15.2959 11.918 15.5016 11.798C15.8464 11.596 15.9695 11.2863 15.8505 10.9045C15.776 10.6665 15.7015 10.4285 15.6206 10.1932C15.4435 9.67504 15.5033 9.19326 15.8154 8.73936C15.9562 8.53536 16.0837 8.32048 16.2088 8.1056C16.2918 7.96904 16.3264 7.80854 16.3071 7.64993C16.2878 7.49131 16.2157 7.3438 16.1024 7.23112C15.9183 7.04752 15.7318 6.86619 15.5428 6.68712C15.1718 6.33556 14.9862 5.91056 15.0249 5.39512C15.0419 5.13196 15.0695 4.86778 15.0872 4.67636Z" fill="#F26422"/>
<path d="M8.31801 2.16333C9.74601 2.18169 10.902 2.50741 11.9516 3.19931C13.3343 4.11164 14.2307 5.36964 14.641 6.97331C14.7953 7.5701 14.8578 8.1869 14.8263 8.80251C14.7916 9.52578 14.6328 10.2377 14.3567 10.9071C14.2949 11.0564 14.2003 11.1689 14.0212 11.1771C13.8685 11.1839 13.7413 11.1227 13.6978 10.9826C13.6643 10.8714 13.6662 10.7526 13.7033 10.6426C13.9858 9.89901 14.1524 9.13503 14.1232 8.33739C14.092 7.41777 13.8367 6.51966 13.3796 5.72109C12.7195 4.55944 11.6665 3.6715 10.4101 3.21706C9.15368 2.76261 7.77632 2.77151 6.52587 3.24215C6.25756 3.34709 5.99694 3.4707 5.74591 3.61207C5.47901 3.75861 5.21925 3.71577 5.12541 3.48355C5.06047 3.32341 5.11589 3.14899 5.28521 3.04835C5.92479 2.66124 6.63165 2.39824 7.36873 2.27315C7.74069 2.21195 8.11843 2.18577 8.31801 2.16333Z" fill="#F26422"/>
<path d="M8.54566 14.8298C7.03096 14.8332 5.67572 14.3603 4.50578 13.4076C3.28552 12.4144 2.53378 11.1296 2.26518 9.57171C2.0588 8.38409 2.19242 7.23387 2.6334 6.11629C2.69426 5.96227 2.78368 5.83681 2.9734 5.82525C3.12504 5.81573 3.25424 5.87183 3.29946 6.01293C3.33526 6.12262 3.33526 6.24086 3.29946 6.35055C3.01318 7.09855 2.84794 7.86967 2.87854 8.67241C2.91101 9.57726 3.15994 10.4611 3.60445 11.2499C4.04896 12.0388 4.6761 12.7095 5.4333 13.206C6.10613 13.6493 6.8681 13.9395 7.6654 14.056C8.88565 14.2436 10.0403 14.0298 11.1334 13.4647C11.221 13.4134 11.3118 13.368 11.4054 13.3287C11.6142 13.2549 11.7869 13.3202 11.8678 13.4909C11.9514 13.667 11.893 13.8564 11.6941 13.9621C11.3949 14.1209 11.0943 14.2827 10.7798 14.4062C10.0682 14.6862 9.31034 14.8299 8.54566 14.8298Z" fill="#F26422"/>
<path d="M6.65588 11.9031C6.38558 11.8708 6.21932 11.6494 6.30432 11.406C6.35396 11.2646 6.44032 11.134 6.5141 11.0028C6.98171 10.1704 7.45 9.33858 7.91897 8.50717C8.40177 7.65127 8.88547 6.79595 9.37009 5.94119C9.48772 5.73413 9.70736 5.66681 9.8896 5.77119C10.0569 5.86639 10.1082 6.09283 9.99432 6.2958C9.55233 7.08358 9.10489 7.86864 8.66051 8.65506C8.15187 9.5547 7.6438 10.455 7.1363 11.356C7.0615 11.4883 6.99112 11.6263 6.89626 11.7433C6.83846 11.814 6.73748 11.8507 6.65588 11.9031Z" fill="#F26422"/>
<path d="M5.08944 6.28498C5.06394 5.54752 5.73953 4.875 6.50623 4.87806C7.24097 4.88112 7.91791 5.49958 7.91451 6.29314C7.91111 7.0799 7.26613 7.72114 6.48651 7.71026C6.3011 7.70871 6.11783 7.67058 5.94719 7.59805C5.77655 7.52553 5.6219 7.42004 5.49211 7.28763C5.36233 7.15522 5.25995 6.99849 5.19085 6.82644C5.12175 6.65438 5.08729 6.47038 5.08944 6.28498ZM6.49399 5.59716C6.30851 5.5977 6.13078 5.67157 5.99956 5.80266C5.86835 5.93375 5.7943 6.11141 5.79359 6.29688C5.79732 6.48182 5.87332 6.65794 6.00532 6.78752C6.13732 6.9171 6.31482 6.98984 6.49979 6.99015C6.68477 6.99046 6.86251 6.91832 6.99494 6.78918C7.12738 6.66005 7.20397 6.48418 7.20833 6.29926C7.21513 5.91608 6.88941 5.5958 6.49399 5.59716Z" fill="#F26422"/>
<path d="M10.4992 12.1143C9.76412 12.1432 9.08854 11.5145 9.08548 10.7114C9.08434 10.5245 9.12039 10.3392 9.19154 10.1664C9.26268 9.99349 9.36749 9.83651 9.49988 9.70454C9.63226 9.57257 9.78957 9.46824 9.96265 9.39764C10.1357 9.32703 10.3211 9.29156 10.508 9.29327C11.29 9.29599 11.8997 9.9233 11.9139 10.7104C11.9269 11.4462 11.2642 12.1493 10.4992 12.1143ZM10.5111 10.0063C10.3229 10.004 10.1414 10.0765 10.0066 10.2079C9.87178 10.3393 9.79459 10.5188 9.792 10.707C9.792 11.081 10.1177 11.406 10.4958 11.4071C10.6813 11.4074 10.8596 11.335 10.9925 11.2055C11.1254 11.076 11.2023 10.8996 11.2067 10.7141C11.2105 10.3361 10.8861 10.0063 10.5111 10.0056V10.0063Z" fill="#F26422"/>
<path d="M13.0698 12.7252C13.0719 12.935 12.9321 13.0737 12.7179 13.0741C12.671 13.076 12.6242 13.0682 12.5805 13.051C12.5368 13.0339 12.4971 13.0078 12.464 12.9745C12.431 12.9411 12.4052 12.9013 12.3884 12.8574C12.3716 12.8136 12.3641 12.7667 12.3664 12.7198C12.3664 12.5396 12.5507 12.3642 12.7353 12.3672C12.9199 12.3703 13.0681 12.5287 13.0698 12.7252Z" fill="#F26422"/>
<path d="M3.93009 4.27611C3.92737 4.06905 4.06983 3.92591 4.27961 3.92489C4.32631 3.92387 4.37274 3.93231 4.41609 3.94969C4.45945 3.96707 4.49884 3.99305 4.53191 4.02605C4.56497 4.05904 4.59102 4.09839 4.60848 4.14171C4.62595 4.18504 4.63448 4.23145 4.63355 4.27815C4.63355 4.45155 4.46015 4.62733 4.28437 4.63141C4.23761 4.63196 4.19121 4.62314 4.14791 4.60546C4.10461 4.58779 4.06529 4.56162 4.03227 4.52851C3.99925 4.49539 3.97319 4.45599 3.95565 4.41264C3.9381 4.3693 3.92941 4.32287 3.93009 4.27611Z" fill="#F26422"/>
<path d="M6.49408 5.59705C6.88984 5.59705 7.21556 5.91597 7.20808 6.29915C7.20373 6.48407 7.12713 6.65993 6.99469 6.78907C6.86226 6.9182 6.68452 6.99034 6.49954 6.99003C6.31457 6.98972 6.13707 6.91698 6.00507 6.7874C5.87307 6.65782 5.79707 6.4817 5.79333 6.29677C5.79405 6.11123 5.86814 5.93352 5.99943 5.80242C6.13072 5.67133 6.30854 5.59749 6.49408 5.59705Z" fill="white"/>
</svg>
