<svg width="37" height="44" viewBox="0 0 37 44" fill="none" xmlns="http://www.w3.org/2000/svg">
<path d="M0 6.50897C0.39517 5.73943 1.05379 5.49967 1.90034 5.50049C11.1003 5.51203 20.3013 5.5145 29.5035 5.50791C30.8845 5.50791 31.5633 6.16704 31.5641 7.52734C31.5641 19.0073 31.5655 30.4873 31.5683 41.9674C31.5683 42.9561 31.1614 43.6465 30.2066 44H12.8367C12.7663 43.9011 12.6898 43.8064 12.6077 43.7165C8.72982 39.9034 4.85027 36.0922 0.969048 32.283C0.6561 31.9756 0.323855 31.6881 0 31.3915V6.50897ZM29.6747 42.1511V7.36091H1.72667V29.3358H12.6236C14.1137 29.3358 14.7698 29.9801 14.7698 31.445C14.7698 34.8506 14.7698 38.2561 14.7698 41.6617V42.1519L29.6747 42.1511ZM12.8804 42.0011V31.183H1.85755L12.8804 42.0011Z" fill="#F26422"/>
<path d="M37 35.6759C36.5763 36.443 35.8958 36.705 35.0417 36.6646C34.5274 36.6407 34.0097 36.6605 33.4619 36.6605V34.8413H35.2808V1.85383H9.17863V3.62526H7.32695C7.32695 2.91916 7.26906 2.218 7.34206 1.5292C7.42596 0.734116 7.93859 0.226579 8.72557 0H35.7414C36.0083 0.072913 36.2573 0.198095 36.4736 0.368011C36.6899 0.537926 36.8689 0.749062 37 0.988708V35.6759Z" fill="#F26422"/>
<path d="M25.9446 12.8696V14.6444H5.4729V12.8696H25.9446Z" fill="#F26422"/>
<path d="M25.942 18.3735V20.1516H5.47034V18.3735H25.942Z" fill="#F26422"/>
<path d="M25.942 23.8579V25.6368H5.47034V23.8579H25.942Z" fill="#F26422"/>
</svg>
