<svg width="45" height="44" viewBox="0 0 45 44" fill="none" xmlns="http://www.w3.org/2000/svg">
<path d="M0 0H9.54703C9.70746 0 9.86691 0.012795 10.0264 0.0108265C10.1248 0.0108265 10.1651 0.0403534 10.17 0.14665C10.1819 0.457667 10.1858 0.456683 10.4978 0.465541C10.5401 0.465541 10.5824 0.474399 10.6464 0.480304V0.919271H11.1139C11.1139 1.03935 11.1139 1.14171 11.1139 1.24308C11.1139 1.34446 11.1503 1.39957 11.2625 1.39269C11.361 1.3858 11.4594 1.39269 11.5716 1.39269V1.86019C11.6848 1.86019 11.7802 1.86512 11.8747 1.86019C11.984 1.8533 12.0381 1.89169 12.0253 2.00684C12.0253 2.03637 12.0253 2.06787 12.0253 2.09838C12.0253 2.33656 12.0253 2.35034 12.2724 2.33361C12.4692 2.31983 12.5302 2.38873 12.5046 2.57179C12.485 2.71549 12.5479 2.76175 12.6936 2.75978C13.0371 2.75388 13.3826 2.77356 13.7251 2.76667C13.8767 2.76667 13.9219 2.8208 13.9062 2.96352C13.9062 2.99304 13.9062 3.02552 13.9062 3.05505C13.8757 3.23221 13.9603 3.28831 14.1217 3.26568C14.2831 3.24304 14.3392 3.30111 14.3363 3.46843C14.3333 3.63575 14.2989 3.70563 14.1306 3.67905C13.9396 3.64854 13.8747 3.73417 13.8993 3.91724C13.9048 4.00245 13.9048 4.08792 13.8993 4.17314H12.982C12.982 4.4684 12.9751 4.74399 12.9899 5.0176C12.9899 5.05796 13.0952 5.11603 13.1562 5.12587C13.4042 5.15146 13.4042 5.14555 13.4062 5.39063C13.4108 6.30006 13.416 7.20916 13.4219 8.11793V8.35316H1.09643C0.924192 8.35316 0.751952 8.34233 0.580696 8.34627C0.477352 8.34627 0.442903 8.30985 0.437982 8.20749C0.420266 7.87089 0.416329 7.87187 0.0738172 7.864C0.0492115 7.864 0.0246057 7.864 0 7.864V7.42109C0.0305111 7.42109 0.0610223 7.42995 0.0915334 7.43094C0.436014 7.44078 0.438967 7.44078 0.454714 7.09335C0.454714 6.99492 0.490147 6.95162 0.594475 6.95358C0.840532 6.95358 1.08659 6.94768 1.33166 6.94768H11.3186C11.4013 6.94768 11.484 6.94079 11.5677 6.93685V5.31976C11.5677 5.07961 11.5677 5.06977 11.3314 5.07666C11.1799 5.08158 11.1474 5.02154 11.1444 4.87981C11.1395 4.64852 11.112 4.41821 11.0913 4.16821H0.481288C0.47181 4.13955 0.464247 4.11029 0.458651 4.08062C0.425187 3.66724 0.425187 3.66724 0 3.68693V3.24796C0.133855 3.24796 0.287395 3.27256 0.393692 3.21646C0.450777 3.18694 0.433061 3.00485 0.437982 2.89167C0.442903 2.77848 0.516721 2.77159 0.602349 2.77061C0.860217 2.77061 1.11809 2.75781 1.37595 2.75781H9.43188C9.48109 2.75781 9.5303 2.75781 9.57951 2.75781C9.67793 2.76569 9.72518 2.72238 9.72419 2.62002C9.72419 2.40447 9.73108 2.18893 9.72419 1.97437C9.71557 1.94765 9.70044 1.9235 9.68017 1.90409C9.6599 1.88467 9.63511 1.8706 9.60805 1.86315C9.43813 1.84344 9.2673 1.8326 9.09625 1.83067C8.84035 1.82476 8.83248 1.83067 8.83543 1.57083C8.83543 1.43402 8.79114 1.38776 8.65433 1.3917C8.46438 1.39465 8.26753 1.36513 8.08151 1.37792C7.89549 1.39072 7.83053 1.32477 7.85317 1.1486C7.87187 1.00785 7.81183 0.95175 7.66617 0.95175C7.48802 0.95175 7.30988 0.936003 7.13271 0.935018H1.10529H0.464557C0.452746 0.758841 0.492115 0.561995 0.418298 0.492115C0.34448 0.422235 0.143698 0.454714 0 0.442903V0Z" fill="#F26422"/>
<path d="M5.53137 43.9952C5.53137 43.9095 5.5422 43.8239 5.5422 43.7383C5.5422 41.5927 5.5422 39.4477 5.5422 37.3034V35.205C5.64018 35.1932 5.73878 35.1873 5.83747 35.1873C5.96148 35.1942 6.01364 35.1538 6.00971 35.021C6.0038 34.8182 6.02546 34.6155 6.01955 34.4137C6.01955 34.2818 6.06482 34.2424 6.19081 34.2454C6.44671 34.2523 6.45261 34.2916 6.4595 33.9737C6.4595 33.7769 6.49395 33.5732 6.51462 33.3507H6.94079L6.96047 32.8891H7.41125V32.4167H8.32265V31.9443C8.59134 31.9443 8.84134 31.9364 9.09035 31.9443C9.24192 31.9511 9.31377 31.897 9.2931 31.7474C9.26554 31.5417 9.36495 31.5063 9.549 31.5063C14.4971 31.5063 19.4444 31.5043 24.3912 31.5004C24.465 31.5004 24.5388 31.5004 24.6126 31.5063C24.7278 31.5112 24.8725 31.4787 24.9502 31.5358C25.0083 31.5791 24.9719 31.7405 24.9965 31.8448C25.0186 31.893 25.0564 31.9323 25.1038 31.9561C25.1303 31.9728 25.1756 31.9561 25.212 31.961C25.4581 31.961 25.4571 31.961 25.4591 32.2169C25.4591 32.3822 25.4591 32.5486 25.4669 32.7139C25.4768 32.8527 25.4246 32.9049 25.2878 32.8911C25.2042 32.8832 25.1185 32.8911 25.0152 32.8911V33.3389H9.25176C9.25176 33.4501 9.24586 33.5358 9.25176 33.6174C9.26259 33.7454 9.21239 33.7897 9.08444 33.7917C8.84626 33.7917 8.60709 33.8163 8.34824 33.831V34.2631L7.90238 34.2848C7.87471 34.5098 7.85894 34.7362 7.85514 34.9629C7.85514 35.1479 7.7951 35.205 7.62286 35.1814C7.5524 35.1767 7.48171 35.1767 7.41125 35.1814C7.41125 35.3379 7.41125 35.4767 7.41125 35.6154C7.39846 36.0199 7.37779 36.4245 7.3709 36.829C7.3709 36.9697 7.32562 37.0396 7.17996 37.0258C7.00575 37.0052 6.96441 37.0888 6.96441 37.2522C6.96966 39.5015 6.96966 41.7508 6.96441 44.0001L5.53137 43.9952Z" fill="#F26422"/>
<path d="M42.1515 43.9952C42.1515 43.7806 42.1564 43.5661 42.1564 43.3515V20.4357C42.1879 20.417 42.1977 20.4062 42.2086 20.4052C42.3365 20.3845 42.5176 20.4052 42.5796 20.3324C42.6416 20.2595 42.6082 20.0774 42.616 19.9308H43.5196C43.5284 20.0656 43.5363 20.2024 43.5461 20.3629H43.995V20.5833C43.995 28.1849 43.995 35.7861 43.995 43.387C43.995 43.5897 43.995 43.7925 43.995 43.9952H42.1515Z" fill="#F26422"/>
<path d="M0 11.5794C0.42125 11.6158 0.419282 11.6148 0.440935 11.2103C0.455698 10.9298 0.481288 10.6493 0.493099 10.3678C0.493099 10.2694 0.536405 10.231 0.636797 10.2241C0.842501 10.2113 1.04624 10.1808 1.25194 10.166C1.37595 10.1582 1.36414 10.0745 1.36316 9.99575C1.36316 9.67686 1.39367 9.73887 1.62693 9.73887C1.95271 9.73887 2.27751 9.74674 2.60329 9.74773C2.69285 9.74773 2.75191 9.7556 2.7588 9.87174C2.77651 10.1808 2.78242 10.1798 3.09048 10.1847C3.1328 10.1847 3.17513 10.1847 3.25485 10.1936C3.24941 10.2952 3.24941 10.3971 3.25485 10.4987C3.25485 10.542 3.29914 10.6158 3.32768 10.6178C3.59441 10.6424 3.86212 10.6552 4.14558 10.6719C4.15837 10.4278 4.1751 10.2103 4.18101 9.99182C4.18691 9.75363 4.18101 9.75363 4.42903 9.75265C7.28527 9.74674 10.1418 9.74117 12.9987 9.73592C13.6877 9.73592 14.3766 9.75068 15.0656 9.7497C15.2123 9.7497 15.2536 9.79792 15.2546 9.94654C15.2674 11.48 15.2871 13.0144 15.3028 14.5478C15.3028 14.7506 15.289 14.9533 15.291 15.1561C15.291 15.2771 15.2418 15.3135 15.1256 15.3175C14.8481 15.3254 14.8412 15.3293 14.8383 15.6C14.8383 15.724 14.79 15.7633 14.6739 15.7545C14.5577 15.7456 14.4524 15.7545 14.3422 15.7486V15.6748C14.3422 15.5645 14.3727 15.4218 14.3166 15.3539C14.2605 15.286 14.1198 15.3067 14.0095 15.3027C13.8757 15.3027 13.8914 15.2043 13.8914 15.1216C13.8914 14.5757 13.8898 14.0291 13.8865 13.4819C13.8865 12.9229 13.8865 12.3638 13.8865 11.8087V11.5735H13.2271C10.4319 11.5735 7.63631 11.5735 4.84044 11.5735C4.65541 11.5735 4.57569 11.5262 4.60521 11.3392C4.63474 11.1522 4.53927 11.1424 4.38967 11.1424C4.24006 11.1424 4.16231 11.1631 4.17117 11.3392C4.18298 11.5823 4.17117 11.5912 3.9192 11.5853C3.77452 11.5853 3.72236 11.6286 3.73023 11.7743C3.73614 12.0518 3.73023 12.0518 3.44776 12.0518C3.08064 12.0518 2.71352 12.0518 2.3277 12.0518L2.3031 11.5951H1.85035C1.85035 11.792 1.85035 11.9888 1.85035 12.1798C1.85626 12.6778 1.87004 13.1748 1.86708 13.6719C1.86708 13.8382 1.91137 13.914 2.08558 13.8913C2.15589 13.8888 2.22629 13.8914 2.29621 13.8992C2.30999 14.1571 2.32672 14.4002 2.33361 14.6443C2.33361 14.7427 2.36314 14.787 2.46746 14.7968C2.77651 14.8244 2.77553 14.8273 2.79226 15.1472C2.79528 15.1822 2.80021 15.2171 2.80702 15.2515C3.0231 15.28 3.24066 15.2957 3.45858 15.2988C3.65543 15.2919 3.71252 15.3598 3.68988 15.5409C3.68736 15.6067 3.69065 15.6726 3.69972 15.7378H4.16132V17.1413H3.25583C3.21351 17.1413 3.1702 17.1354 3.12788 17.1344C2.78832 17.1344 2.7834 17.1344 2.75683 16.7997C2.74797 16.7013 2.69974 16.6806 2.61411 16.6806C2.37003 16.6806 2.122 16.6806 1.85921 16.6806V16.2131L1.39662 16.1915V15.7476H0.948798L0.906476 14.8411L0.492115 14.8145C0.482273 14.6256 0.469478 14.4386 0.462588 14.2516C0.45373 14.037 0.439951 13.8215 0.447825 13.6069C0.45373 13.4494 0.391724 13.3963 0.244089 13.41C0.164366 13.4179 0.0846438 13.4179 0.00492115 13.4219L0 11.5794Z" fill="#F26422"/>
<path d="M32.891 34.7364H32.4225V35.1921C32.3005 35.1921 32.1981 35.198 32.0967 35.1921C31.9776 35.1832 31.9265 35.2295 31.9343 35.3505C31.9402 35.4401 31.9343 35.5306 31.9343 35.6753C31.5406 35.6753 31.1775 35.6842 30.8123 35.6753C30.6322 35.6684 30.5417 35.7098 30.5722 35.9056C30.5948 36.0533 30.5358 36.1123 30.3753 36.1074C30.0377 36.0976 29.6992 36.0985 29.3616 36.1074C29.2129 36.1074 29.1381 36.069 29.1647 35.9106C29.1923 35.7285 29.1263 35.6655 28.9334 35.6714C28.6027 35.6822 28.271 35.6547 27.9403 35.6507C27.8321 35.6507 27.7986 35.6025 27.8055 35.5051C27.8055 35.4627 27.8055 35.4184 27.8055 35.3761C27.8222 35.2295 27.7573 35.1793 27.6136 35.1901C27.524 35.199 27.4335 35.1901 27.3272 35.1901V34.7433H26.8587C26.8587 34.6153 26.8537 34.512 26.8587 34.4096C26.8665 34.2925 26.8242 34.2482 26.7022 34.2462C26.4177 34.2462 26.4217 34.2374 26.4118 33.951C26.402 33.6645 26.3803 33.3506 26.3744 33.0504C26.3744 32.9175 26.3095 32.8722 26.1923 32.887C26.0034 32.9126 25.9551 32.8319 25.9551 32.6478C25.9551 30.7857 25.9551 28.9245 25.9502 27.0623C25.9502 26.896 25.961 26.7306 25.9581 26.5643C25.9581 26.4442 26.0083 26.3901 26.1235 26.4049C26.3252 26.4324 26.3666 26.3369 26.3675 26.1519C26.3675 25.7799 26.398 25.4078 26.4167 25.0181H26.8528C26.8528 24.899 26.8577 24.7976 26.8528 24.6962C26.8478 24.5949 26.8882 24.5388 27.0014 24.5457C27.1146 24.5525 27.2071 24.5457 27.3252 24.5457V24.0978H27.7986V23.8183C27.7986 23.3636 27.7986 22.9089 27.7986 22.4542C27.7986 22.2091 27.7986 22.2081 27.5594 22.2071C26.7356 22.2071 25.9128 22.2071 25.089 22.2071C24.8125 22.2071 24.5369 22.1884 24.2603 22.1904C24.1264 22.1904 24.093 22.1333 24.0959 22.0113C24.1028 21.716 24.1107 21.7367 23.8263 21.7485C23.6737 21.7544 23.6422 21.6953 23.6422 21.5565C23.6422 19.0743 23.6373 16.5921 23.6274 14.1099C23.6274 13.9534 23.6619 13.8776 23.8312 13.9022C23.9112 13.9072 23.9914 13.9072 24.0713 13.9022L24.092 13.4268H24.6589L34.5996 13.4317C34.6794 13.4317 34.7581 13.4435 34.8378 13.4485C35.141 13.4681 35.1331 13.4691 35.1872 13.7644C35.1996 13.7934 35.2188 13.819 35.2431 13.839C35.2674 13.859 35.2962 13.8729 35.327 13.8796C35.5415 13.896 35.7567 13.9006 35.9717 13.8933C36.1085 13.8884 36.1567 13.9337 36.1528 14.0715C36.1429 14.3559 36.137 14.3264 36.4096 14.3323C36.5807 14.333 36.7516 14.3435 36.9214 14.3638C36.9486 14.3725 36.9732 14.3877 36.9931 14.4081C37.013 14.4285 37.0276 14.4535 37.0356 14.4809C37.0461 14.5958 37.0481 14.7112 37.0415 14.8264H37.4992C37.4992 14.9415 37.5061 15.039 37.4992 15.1344C37.4884 15.2634 37.5405 15.3077 37.6675 15.3096C37.9322 15.3096 37.9322 15.3195 37.946 15.5892C37.946 15.6699 37.946 15.7506 38.0671 15.7496C38.6497 15.7496 39.2324 15.7496 39.8436 15.7496C39.8436 15.6108 39.8515 15.4848 39.8387 15.3559C39.8294 15.3338 39.8149 15.3142 39.7964 15.2989C39.7779 15.2837 39.7559 15.2732 39.7324 15.2683C39.6157 15.2623 39.4987 15.2623 39.382 15.2683C39.3722 15.1197 39.3643 14.9829 39.3545 14.8224H38.9007V14.3599H38.4371V12.9819H39.8151V13.4199H40.2855C40.2934 13.5794 40.3013 13.7152 40.3092 13.8707C40.5532 13.8864 40.7895 13.9061 41.0257 13.915C41.1241 13.915 41.1723 13.9425 41.1763 14.0508C41.1891 14.3982 41.2186 14.7457 41.2225 15.0931C41.2225 15.2998 41.192 15.5055 41.1733 15.7299H40.7471C40.7389 15.8611 40.7415 15.9928 40.755 16.1236C40.7619 16.1649 40.8534 16.222 40.9086 16.222C41.1802 16.2456 41.1871 16.2397 41.1881 16.5015C41.1881 16.6374 41.2343 16.6836 41.3711 16.6817C41.8633 16.6757 42.3554 16.6817 42.8475 16.6757C43.0148 16.6757 43.0926 16.7191 43.067 16.8923C43.0414 17.0655 43.1231 17.1108 43.2874 17.1098C43.5128 17.1098 43.7382 17.1393 43.998 17.158C43.998 17.4405 43.998 17.7269 43.998 18.0133C43.998 18.159 44.0256 18.344 43.9488 18.4385C43.8868 18.5153 43.69 18.4926 43.5551 18.4966C43.187 18.5084 42.8189 18.5123 42.4508 18.5153C42.1005 18.5153 41.7501 18.5222 41.4007 18.5153C41.2599 18.5153 41.2186 18.5605 41.2235 18.6954C41.2294 18.8785 41.2068 19.0635 41.2127 19.2475C41.2176 19.3883 41.1753 19.4542 41.0257 19.4375C40.9424 19.433 40.8589 19.433 40.7757 19.4375V19.9021H38.9253V21.2888H39.3672V20.8469H39.8407V20.3735C40.1487 20.3735 40.4391 20.3735 40.7265 20.3735C40.8741 20.3735 41.065 20.3351 41.1546 20.4099C41.2442 20.4847 41.2166 20.6776 41.2215 20.8194C41.2324 21.1008 41.2343 21.3833 41.2274 21.6648C41.2274 21.7042 41.1645 21.7534 41.1202 21.775C41.0729 21.7894 41.0228 21.7914 40.9745 21.781C40.8091 21.7593 40.7501 21.8321 40.7698 21.9916C40.7743 22.0696 40.7743 22.1478 40.7698 22.2258H40.3111C40.3013 22.3803 40.2924 22.5211 40.2826 22.6727H39.8387C39.8308 22.8321 39.8239 22.9758 39.8161 23.1421C39.3889 23.1421 38.9667 23.1421 38.5454 23.1362C38.512 23.1362 38.4539 23.0486 38.4529 22.9994C38.4431 22.7504 38.448 22.4994 38.448 22.2347C38.2019 22.2239 37.9952 22.2071 37.7885 22.2061C35.9185 22.2061 34.0485 22.2061 32.1834 22.2061C32.0052 22.2061 31.9373 22.2455 31.9422 22.4404C31.956 22.9797 31.9471 23.523 31.9471 24.0781H32.4068V24.527L32.8792 24.5506C32.8861 24.7002 32.893 24.8458 32.9009 25.0023H33.3506C33.3506 25.2602 33.3625 25.5043 33.3506 25.7464C33.3398 25.9187 33.4018 25.9875 33.5672 25.9669C33.7325 25.9462 33.7788 26.0131 33.7798 26.1755C33.7867 28.209 33.8004 30.2424 33.8083 32.2778C33.8083 32.5789 33.7817 32.8791 33.7788 33.1803C33.7788 33.3319 33.6804 33.3348 33.5819 33.321C33.393 33.2964 33.3339 33.3683 33.3487 33.5563C33.3654 33.7817 33.3487 34.008 33.3487 34.2157C33.3298 34.2299 33.3093 34.2418 33.2877 34.2511C33.1577 34.2757 32.9747 34.2511 32.9107 34.3348C32.8467 34.4185 32.891 34.5868 32.891 34.7364ZM36.076 15.7407C35.8378 15.7407 35.6104 15.7319 35.387 15.7407C35.2433 15.7486 35.199 15.6915 35.2118 15.5606C35.2167 15.5183 35.2118 15.474 35.2118 15.4317C35.2187 15.3195 35.1675 15.2811 35.0573 15.284C34.892 15.284 34.7256 15.2772 34.5603 15.2772H28.458C27.524 15.2772 26.588 15.2772 25.6559 15.2693C25.5113 15.2693 25.4591 15.3087 25.467 15.4563C25.4807 15.6827 25.4798 15.91 25.4798 16.1374C25.4798 17.4838 25.4771 18.8289 25.4719 20.1727C25.4719 20.2377 25.4778 20.3026 25.4827 20.3794H25.6687C29.399 20.3794 33.1295 20.3794 36.8604 20.3794C37.0327 20.3794 37.0632 20.3184 37.0573 20.1658C37.0464 19.3912 37.0445 18.6167 37.0395 17.843C37.0395 17.5822 37.0395 17.5734 36.7817 17.5793C36.6301 17.5793 36.5917 17.5222 36.5966 17.3824C36.6055 17.1442 36.5966 16.9061 36.5966 16.6511C36.5176 16.6471 36.4385 16.6471 36.3594 16.6511C36.2 16.6718 36.1488 16.6098 36.1468 16.4464C36.1468 16.224 36.1055 16.0016 36.076 15.7358V15.7407ZM30.0988 28.2532C30.0919 28.1962 30.086 28.1656 30.085 28.1361C30.0712 27.8231 30.0722 27.8231 29.7582 27.7897C29.7247 27.7828 29.6918 27.7733 29.6598 27.7611C29.6598 27.6686 29.6667 27.5771 29.6598 27.4865C29.646 27.3517 29.709 27.3153 29.831 27.3222C29.9172 27.3221 30.0033 27.3168 30.0889 27.3064C30.0939 27.2199 30.0939 27.1331 30.0889 27.0466C30.0702 26.8901 30.1381 26.8497 30.2858 26.8497C30.648 26.8566 31.0111 26.8497 31.3684 26.8448H31.9393C31.9393 26.5604 31.9393 26.3094 31.9393 26.0574C31.9393 25.959 31.8891 25.9324 31.8015 25.9354C31.703 25.9354 31.5977 25.9354 31.4777 25.9354C31.4777 25.8094 31.4777 25.712 31.4777 25.6145C31.4777 25.5171 31.4462 25.4836 31.3497 25.4836C30.3615 25.4876 29.373 25.4895 28.3842 25.4895C28.2858 25.4895 28.2523 25.5318 28.2582 25.6234C28.2582 25.6785 28.2533 25.7346 28.2582 25.7887C28.272 25.9137 28.21 25.9541 28.0968 25.9462C28.0535 25.9462 28.0102 25.9462 27.9679 25.9462C27.8547 25.9393 27.7986 25.9787 27.8016 26.1037C27.8016 26.269 27.7878 26.4354 27.7878 26.6007C27.7878 28.6099 27.7878 30.619 27.7878 32.6281C27.7878 32.8978 27.7878 32.9057 28.0525 32.9027C28.1943 32.9027 28.2336 32.9569 28.2287 33.0888C28.2208 33.3201 28.2287 33.5514 28.2287 33.7895C28.3153 33.7964 28.3626 33.8023 28.4098 33.8033C28.7159 33.8092 28.7218 33.8082 28.7336 34.1084C28.7385 34.2334 28.8006 34.2433 28.898 34.2443C29.4009 34.2443 29.9049 34.2551 30.4078 34.26C30.6046 34.26 30.7966 34.26 31.0072 34.26C31.0072 34.1419 31.0141 34.0632 31.0072 33.9844C30.9944 33.8506 31.0397 33.7876 31.1814 33.8033C31.2798 33.8084 31.3783 33.8084 31.4767 33.8033V33.3358H30.0988C30.0988 33.2138 30.0988 33.1104 30.0988 33.009C30.0988 32.9077 30.0643 32.8594 29.9619 32.8644C29.9127 32.8644 29.8635 32.8644 29.8143 32.8644C29.6982 32.8742 29.645 32.8319 29.6529 32.7079C29.6637 32.5179 29.6657 32.327 29.6627 32.137C29.6627 32.0238 29.708 31.9894 29.8163 31.9864C30.1243 31.9766 30.1302 31.9727 30.1352 31.6744C30.1352 31.5416 30.1913 31.5071 30.3133 31.5091C30.5771 31.5091 30.8418 31.5091 31.1056 31.5042C31.3694 31.4992 31.6558 31.5042 31.9402 31.5042V31.012H31.7267C31.2533 31.012 30.7808 30.9992 30.3074 31.0022C30.1745 31.0022 30.1234 30.9658 30.1234 30.826C30.1234 30.5436 30.1155 30.5485 29.8281 30.5308C29.77 30.5308 29.6696 30.4747 29.6677 30.4412C29.6539 30.1853 29.6598 29.9294 29.6598 29.6814C29.6759 29.6726 29.6927 29.665 29.71 29.6587C29.7405 29.6587 29.771 29.6528 29.8025 29.6518C30.0978 29.643 30.0978 29.643 30.1027 29.3566C30.1032 29.3503 30.1032 29.3441 30.1027 29.3379C30.0889 29.2198 30.1362 29.1755 30.2592 29.1784C30.523 29.1843 30.7877 29.1784 31.0466 29.1735H31.9196V28.2513L30.0988 28.2532ZM30.0919 22.2258H29.6362C29.6362 22.6707 29.6362 23.0988 29.6362 23.527C29.6428 23.5504 29.6553 23.5718 29.6726 23.589C29.6898 23.6062 29.7111 23.6188 29.7346 23.6254C29.8528 23.6335 29.9715 23.6352 30.0899 23.6303L30.0919 22.2258ZM38.9096 18.0704C39.3663 18.1236 39.3791 18.1127 39.3594 17.6875C39.356 17.658 39.3504 17.6287 39.3426 17.5999H38.9096V18.0704Z" fill="#F26422"/>
<path d="M4.18502 27.342C3.91239 27.3213 3.66338 27.2977 3.41437 27.2849C3.3061 27.28 3.26378 27.2416 3.26083 27.1314C3.25098 26.8528 3.24606 26.8538 2.96556 26.8489C2.91733 26.8489 2.86713 26.843 2.78446 26.8381C2.78446 26.7327 2.77954 26.6314 2.78446 26.531C2.78938 26.4306 2.74903 26.3705 2.63682 26.3774C2.5758 26.3774 2.51478 26.3774 2.45277 26.3774C2.35435 26.3774 2.32778 26.3351 2.32679 26.2426C2.31793 25.7387 2.29825 25.2357 2.29431 24.7328C2.29431 24.5261 2.32187 24.3194 2.3386 24.098C2.7569 24.098 3.17224 24.098 3.58759 24.098C3.61712 24.098 3.66731 24.1678 3.67027 24.2082C3.69487 24.5625 3.71652 24.9168 3.72735 25.2712C3.72735 25.3853 3.75983 25.4336 3.88384 25.4385C4.08193 25.4462 4.27924 25.4676 4.47438 25.5025C4.50313 25.5157 4.52805 25.536 4.54681 25.5615C4.56557 25.5869 4.57756 25.6168 4.58166 25.6481C4.58166 25.971 4.59052 25.9217 4.8848 25.9286C5.04425 25.9286 5.2037 25.9523 5.36216 25.9473C5.52062 25.9424 5.5718 25.9965 5.55113 26.1393C5.52455 26.3292 5.6092 26.3755 5.79128 26.3765C6.87393 26.3833 7.96545 26.405 9.05302 26.4148C9.1977 26.4148 9.26069 26.4631 9.24199 26.6068C9.21837 26.7829 9.28923 26.8479 9.46836 26.8351C9.65882 26.8243 9.84974 26.8243 10.0402 26.8351C10.1593 26.8351 10.2026 26.7918 10.2075 26.6747C10.2203 26.4198 10.2252 26.4198 10.4802 26.4198C15.0732 26.4198 19.6699 26.4198 24.2702 26.4198C24.4523 26.4198 24.5369 26.4621 24.5113 26.655C24.4926 26.7928 24.5497 26.8518 24.6993 26.8469C24.9076 26.8448 25.1157 26.857 25.3223 26.8833C25.3498 26.8915 25.3749 26.9064 25.3951 26.9267C25.4154 26.9469 25.4303 26.972 25.4385 26.9995C25.4552 27.2261 25.4591 27.4535 25.4503 27.6806C25.4418 27.7108 25.4257 27.7384 25.4034 27.7607C25.3812 27.7829 25.3536 27.799 25.3233 27.8075C25.0448 27.8469 25.0448 27.841 25.0231 28.1156C25.0231 28.1579 25.0074 28.1983 24.9966 28.2534H24.3667C18.7611 28.2534 13.1566 28.2517 7.55305 28.2485C7.09834 28.2485 6.64362 28.2357 6.18891 28.2396C6.04816 28.2396 6.0088 28.1904 6.00978 28.0575C6.00978 27.8124 6.00978 27.8174 5.75486 27.8095C5.27653 27.7947 4.79819 27.7711 4.32084 27.7573C4.20372 27.7573 4.17025 27.7022 4.17616 27.5979C4.18797 27.5123 4.18502 27.4276 4.18502 27.342Z" fill="#F26422"/>
<path d="M14.3412 15.7477L14.3648 16.1857L14.8097 16.2122V19.4297C14.4455 19.4444 14.0922 19.4622 13.7398 19.473C13.5489 19.4789 13.3579 19.4799 13.168 19.473C13.039 19.4681 12.9839 19.5005 12.9829 19.6462C12.9829 19.9946 12.9544 20.344 12.9465 20.6924C12.9465 20.8066 12.9022 20.847 12.793 20.8391C12.7083 20.8332 12.6227 20.8391 12.5105 20.8391V21.782C12.4187 21.7932 12.3264 21.7988 12.2339 21.7987C12.104 21.7918 12.0676 21.8479 12.0656 21.9729C12.0656 22.2042 12.0371 22.4355 12.0204 22.6885H11.5794V23.1599H11.1218V23.6176H10.6454V24.0821H9.74384L9.71628 24.5073C9.51943 24.5181 9.32258 24.5319 9.13164 24.5388C8.92299 24.5467 8.71433 24.5575 8.50567 24.5496C8.35804 24.5437 8.31473 24.5979 8.3167 24.7396C8.3167 24.9807 8.3167 24.9817 8.07557 24.9817C7.46731 24.9817 6.86004 24.9817 6.25179 24.9817C6.11203 24.9817 6.05494 24.9463 6.05494 24.7967C6.05494 24.5654 6.00868 24.3351 6.00671 24.1077C6.00671 23.8331 6.03132 23.5575 6.03919 23.2829C6.03919 23.1638 6.11596 23.1658 6.20159 23.1658C6.80985 23.1619 7.41777 23.1563 8.02537 23.1491C8.22222 23.1491 8.41906 23.1294 8.61591 23.1274C8.73402 23.1274 8.77535 23.0782 8.77831 22.9611C8.78618 22.6885 8.7911 22.6904 9.0657 22.6875C9.22416 22.6875 9.38361 22.6658 9.54305 22.6717C9.67199 22.6717 9.7212 22.6284 9.71431 22.5015C9.7137 22.4111 9.71765 22.3208 9.72612 22.2308H10.172V21.7643L9.73399 21.7416C9.73399 21.6432 9.72907 21.5507 9.73399 21.4611C9.74088 21.3519 9.69954 21.3096 9.58636 21.3105C9.3777 21.3105 9.16904 21.2918 8.96039 21.2977C8.81866 21.3027 8.77929 21.2466 8.78323 21.1147C8.79208 20.8096 8.78323 20.8539 8.51256 20.847C8.31572 20.842 8.11887 20.8273 7.90431 20.8155C7.89546 20.7209 7.89152 20.626 7.8925 20.531C7.89939 20.4051 7.85313 20.3499 7.72321 20.3598C7.63168 20.3667 7.54014 20.3598 7.43582 20.3598C7.4181 20.1226 7.39153 19.8992 7.38759 19.6757C7.38759 19.532 7.35117 19.4622 7.19074 19.4661C6.95256 19.472 6.95256 19.4661 6.95256 19.22C6.95256 18.846 6.95256 18.472 6.95256 18.0685H8.3482C8.3482 18.1482 8.3541 18.2378 8.3482 18.3254C8.33835 18.4474 8.37379 18.5055 8.50961 18.5015C8.81669 18.4917 8.7852 18.4838 8.79208 18.7968C8.79579 18.9677 8.80893 19.1382 8.83145 19.3076C8.83939 19.3328 8.85343 19.3555 8.87233 19.3739C8.89122 19.3923 8.91437 19.4057 8.93972 19.4129C9.14551 19.4382 9.35248 19.4526 9.55978 19.4563C9.68773 19.4563 9.7399 19.4996 9.72809 19.6275C9.7212 19.7112 9.72809 19.7968 9.72809 19.9041H11.1454C11.1454 19.5104 11.1454 19.1167 11.1454 18.7289C11.1454 18.5852 11.1916 18.5202 11.3353 18.539C11.5263 18.5636 11.608 18.4878 11.5775 18.2929C11.5718 18.212 11.5718 18.1307 11.5775 18.0498H12.1837C12.3806 18.0498 12.5774 18.039 12.7743 18.0498C12.9446 18.0626 12.979 17.9937 12.979 17.8382C12.979 17.3598 12.9967 16.8815 13.0046 16.4022C13.0046 16.3087 13.0115 16.2388 13.1365 16.2309C13.4396 16.2112 13.4396 16.2053 13.4455 15.9052C13.4455 15.8628 13.4524 15.8205 13.4583 15.7408H14.354L14.3412 15.7477Z" fill="#F26422"/>
<path d="M42.1672 0.0088501H43.9831V14.8215C43.8847 14.8215 43.7863 14.8284 43.6928 14.8215C43.5589 14.8087 43.4959 14.853 43.5117 14.9947C43.5195 15.0735 43.5117 15.1532 43.5117 15.2556C43.2351 15.2556 42.9733 15.2605 42.7125 15.2477C42.6829 15.2477 42.6367 15.1493 42.6327 15.0961C42.6121 14.8176 42.616 14.8097 42.3375 14.8117C42.1957 14.8117 42.1633 14.7585 42.1633 14.6266C42.1633 9.8085 42.1616 4.99037 42.1583 0.172232C42.1564 0.123021 42.1623 0.0747935 42.1672 0.0088501Z" fill="#F26422"/>
<path d="M25.9343 17.5863V15.7537H28.7118V17.5863H25.9343Z" fill="#F26422"/>
</svg>
