<svg width="47" height="44" viewBox="0 0 47 44" fill="none" xmlns="http://www.w3.org/2000/svg">
<path d="M11.0262 39.1723C11.2987 40.0657 11.5663 40.9448 11.8388 41.8394L4.77809 43.9999C3.18613 38.6596 1.59968 33.332 0 27.9663L7.06067 25.8377C7.13955 26.0872 7.21457 26.3272 7.30007 26.5988C7.46556 26.3432 7.61946 26.1131 7.7695 25.8813C8.66201 24.5057 9.55452 23.1298 10.447 21.7535C11.1498 20.6685 11.852 19.5832 12.5537 18.4975C12.9365 17.9059 13.3033 17.3027 13.7049 16.7244C14.3988 15.7255 15.3597 15.124 16.5319 14.8017C17.9826 14.4033 19.4168 13.9541 20.8626 13.5269L22.5346 13.0303C22.5616 13.0225 22.5897 13.0176 22.6311 13.0082C22.5208 13.198 22.4314 13.3801 22.3189 13.5479C22.0762 13.9094 21.8175 14.2603 21.5737 14.6213C21.4131 14.8591 21.2719 15.1108 21.1109 15.3486C21.0627 15.4115 20.9959 15.4577 20.92 15.4805C19.515 15.9016 18.1068 16.3149 16.7034 16.7354C16.0415 16.9335 15.5451 17.3518 15.1705 17.9263C13.9202 19.8527 12.6708 21.7796 11.4223 23.707C10.5143 25.1093 9.5981 26.5049 8.7089 27.9188C8.52245 28.2146 8.2676 28.3377 7.97414 28.442C7.93774 28.4546 7.90299 28.4718 7.8572 28.4911C8.73979 31.4505 9.62237 34.4105 10.505 37.371L11.7566 37.0912C13.5835 36.6839 15.4099 36.2723 17.2385 35.8711C18.2204 35.6558 19.1879 35.4058 20.0848 34.9329C21.1647 34.3576 22.1089 33.5577 22.854 32.587C23.7917 31.3856 24.7432 30.1974 25.6876 28.9999C27.006 27.3329 28.3243 25.6656 29.6427 23.9979C29.9058 23.6667 30.1673 23.3356 30.2699 22.9157C30.4513 22.1696 30.2572 21.5432 29.7012 21.009C29.3007 20.6227 28.8384 20.4279 28.2896 20.429C27.7407 20.4301 27.2382 20.6426 26.8907 21.0432C26.6419 21.3302 26.3242 21.4847 26.0478 21.7093C24.5529 22.9289 23.0542 24.1439 21.5516 25.3543C21.3696 25.5017 21.1919 25.6545 21.0176 25.8002L16.6246 23.1778L17.5347 21.706C17.8045 21.8406 18.0621 21.9681 18.3186 22.0984C19.146 22.5183 19.9696 22.9521 20.7518 23.4565C20.8483 23.5188 20.9023 23.478 20.968 23.4245C21.6428 22.8726 22.3178 22.3208 22.993 21.7689C23.5341 21.3274 24.073 20.8859 24.6213 20.456C24.922 20.2198 25.2419 20.0096 25.5486 19.7811C25.8713 19.5405 26.1885 19.2911 26.5084 19.0455C27.1152 18.5808 27.8229 18.5168 28.5422 18.561C29.4474 18.6161 30.2213 18.9881 30.9031 19.5907C31.7802 20.3666 32.2022 21.3374 32.1691 22.4885C32.1448 23.3124 31.9126 24.0988 31.4222 24.7754C31.0316 25.314 30.5981 25.8212 30.1844 26.3427C28.7391 28.1657 27.2945 29.9888 25.8503 31.8121C25.4532 32.3149 25.0863 32.843 24.677 33.3358C24.1337 33.9903 23.6135 34.6658 22.9637 35.2265C21.6609 36.3599 20.0947 37.1482 18.4085 37.5194C16.0858 38.0389 13.7626 38.5579 11.4388 39.0762C11.3081 39.1055 11.1746 39.1375 11.0262 39.1723ZM9.50322 40.6071C8.26503 36.4498 7.0296 32.3015 5.79692 28.1622L2.32561 29.2537C3.56674 33.4081 4.7996 37.5371 6.03301 41.6705L9.50322 40.6071Z" fill="#F26422"/>
<path d="M28.8769 36.5009L24.8931 33.6898L26.0217 32.213L28.4118 33.9017L35.7058 23.3353C34.6054 24.0957 33.3808 24.4484 32.0299 24.4886C32.3186 23.8959 32.4902 23.253 32.5352 22.5952C32.811 22.5318 33.1066 22.481 33.3907 22.3966C34.1768 22.1642 34.8051 21.7106 35.2999 21.0517C36.2409 19.7973 36.2227 18.4425 35.7169 17.0524C35.2756 15.8333 34.4559 14.893 33.4194 14.1275C32.6185 13.5359 31.7452 13.1143 30.7639 12.9427C29.3231 12.6905 27.9672 12.8875 26.7923 13.8201C26.0493 14.409 25.6339 15.1998 25.5236 16.1429C25.4259 16.9933 25.5953 17.7985 25.9191 18.5805C26.0498 18.8961 26.0487 18.8967 25.7779 19.1031C25.5495 19.2769 25.3267 19.4574 25.0922 19.6218C24.9052 19.7532 24.7061 19.8646 24.4932 19.9943C23.7535 18.5799 23.4341 17.0822 23.7209 15.4658C23.5996 15.6551 23.4776 15.8438 23.3574 16.0336C22.3685 17.5928 21.3799 19.1518 20.3914 20.7106C20.0951 21.1781 19.7973 21.6444 19.5088 22.1162C19.4464 22.2189 19.3858 22.2387 19.2881 22.1868C18.945 22.008 18.6017 21.8303 18.2583 21.6538L17.7397 21.3894C17.9825 21.0064 18.2169 20.6345 18.453 20.2631C19.4422 18.7046 20.4322 17.1464 21.4229 15.5883C21.7776 15.0331 22.1449 14.4846 22.5129 13.9399C22.6679 13.7092 22.8438 13.4934 23.0016 13.2644C23.4032 12.6811 23.7943 12.0906 24.1975 11.5084C25.2573 9.97831 26.3188 8.44985 27.382 6.92304C28.3822 5.48196 29.3807 4.04033 30.3772 2.59814C30.9642 1.74828 31.5461 0.89456 32.1308 0.0430448C32.1427 0.0275337 32.156 0.0131274 32.1705 0L47.0002 10.3015L28.8769 36.5009ZM37.6966 20.4419L44.3816 10.7761L32.6466 2.59649L26.2412 11.9024C26.5799 11.7402 26.8761 11.5796 27.1867 11.4527C28.4626 10.9317 29.7832 10.8677 31.1247 11.1155C32.3267 11.3382 33.4628 11.8299 34.4482 12.5536C35.2673 13.1367 35.9807 13.8557 36.5575 14.6794C37.3712 15.8598 37.8527 17.155 37.9046 18.5976C37.922 19.2185 37.852 19.8388 37.6966 20.4402V20.4419Z" fill="#F26422"/>
<path d="M36.5018 11.3764C35.5878 11.3333 34.9347 10.516 34.9833 9.72079C35.0384 8.78264 35.8416 8.11489 36.7081 8.19326C37.6156 8.27769 38.2267 9.05029 38.1903 9.84607C38.1823 10.0582 38.1319 10.2667 38.0422 10.4591C37.9525 10.6516 37.8253 10.8241 37.668 10.9667C37.5107 11.1092 37.3265 11.2189 37.1262 11.2893C36.926 11.3596 36.7137 11.3892 36.5018 11.3764Z" fill="#F26422"/>
</svg>
