<svg width="10" height="18" viewBox="0 0 10 18" fill="none" xmlns="http://www.w3.org/2000/svg">
<path d="M9.99626 8.97462C9.99626 10.623 9.99626 12.2715 9.99626 13.9201C9.99626 14.7923 9.9926 15.6645 9.99992 16.5367C10.0041 17.0635 9.83629 17.4956 9.39227 17.7919C9.16391 17.9442 8.91088 18.0005 8.6393 18C7.03565 17.9968 5.43185 17.9957 3.82788 17.9965C2.98552 17.9965 2.14267 18.0005 1.30079 17.9965C0.678238 17.9945 0.154356 17.5671 0.0341928 16.9476C-0.00464045 16.743 0.00219811 16.527 0.00195387 16.3159C0.000651291 14.2108 0.000814114 12.1055 0.00244234 10.0001C0.00244234 7.62104 0.00162823 5.24182 0 2.86243C0 2.36004 0 1.8574 0.00122117 1.355C0.00488468 0.668451 0.436202 0.13441 1.08587 0.0195274C1.22117 -0.00414689 1.36161 0.000338756 1.4996 0.000338756C2.83849 0.000338756 4.17738 0.000338756 5.51627 0.000338756C6.58651 0.00208317 7.65674 0.000338756 8.72698 0.00357839C9.33756 0.00582121 9.87634 0.463357 9.96964 1.07864C10.0097 1.34304 9.9965 1.61692 9.99675 1.88655C9.99887 3.53511 9.99887 5.18359 9.99675 6.83198V8.97512L9.99626 8.97462ZM9.40644 2.40514H0.595687V13.7937H9.40644V2.40514ZM0.598618 14.4055C0.593388 14.4271 0.589795 14.4491 0.587872 14.4713C0.587872 15.2064 0.581277 15.9416 0.591047 16.6765C0.596908 17.1173 0.894386 17.3992 1.32815 17.3992C3.68061 17.4007 6.0334 17.4007 8.38651 17.3992C8.53696 17.3992 8.69034 17.4101 8.83712 17.385C9.1898 17.3244 9.40863 17.0313 9.41059 16.6294C9.41401 15.9234 9.41205 15.2174 9.41059 14.5112C9.41059 14.4758 9.40473 14.4404 9.40131 14.403L0.598618 14.4055ZM9.41352 1.7946V1.39587C9.41352 0.894478 9.12337 0.598425 8.63319 0.59693C7.79107 0.59693 6.94903 0.59693 6.10708 0.59693C4.5163 0.59693 2.92568 0.596265 1.33523 0.594936C1.16182 0.594936 1.006 0.636802 0.867764 0.744458C0.605701 0.948555 0.49262 1.40609 0.610585 1.7946H9.41352Z" fill="#F26422"/>
<path d="M5.0024 17.096C4.77037 17.0968 4.5433 17.0273 4.34997 16.8964C4.15664 16.7655 4.00573 16.579 3.91636 16.3605C3.82699 16.142 3.80319 15.9013 3.84795 15.669C3.89271 15.4367 4.00404 15.2232 4.16782 15.0555C4.33161 14.8878 4.54049 14.7734 4.76801 14.7269C4.99553 14.6804 5.23146 14.7039 5.44592 14.7943C5.66037 14.8847 5.84371 15.038 5.97271 15.2348C6.10171 15.4316 6.17058 15.663 6.17058 15.8998C6.17161 16.0568 6.14213 16.2125 6.08384 16.3578C6.02555 16.5031 5.93961 16.6352 5.83099 16.7465C5.72236 16.8577 5.5932 16.9458 5.45098 17.0058C5.30876 17.0658 5.1563 17.0964 5.0024 17.096ZM4.41014 15.8998C4.40839 15.9796 4.42227 16.059 4.45097 16.1333C4.47967 16.2076 4.5226 16.2753 4.57727 16.3325C4.63193 16.3896 4.69722 16.4351 4.76932 16.4662C4.84141 16.4973 4.91886 16.5134 4.99713 16.5135C5.0754 16.5137 5.15291 16.4979 5.22513 16.4671C5.29735 16.4364 5.36283 16.3912 5.41772 16.3343C5.47262 16.2773 5.51583 16.2098 5.54483 16.1356C5.57383 16.0615 5.58804 15.9821 5.58661 15.9023C5.58836 15.8224 5.57448 15.743 5.54578 15.6687C5.51708 15.5944 5.47415 15.5267 5.41948 15.4696C5.36482 15.4124 5.29953 15.367 5.22743 15.3359C5.15534 15.3048 5.07789 15.2887 4.99962 15.2885C4.92135 15.2884 4.84384 15.3041 4.77162 15.3349C4.6994 15.3657 4.63392 15.4109 4.57903 15.4678C4.52413 15.5247 4.48092 15.5922 4.45192 15.6664C4.42292 15.7406 4.40871 15.8199 4.41014 15.8998Z" fill="#F26422"/>
<path d="M4.405 1.49662C4.21792 1.49662 4.03108 1.49836 3.84326 1.49662C3.65545 1.49487 3.53162 1.36928 3.5326 1.1886C3.5326 1.02338 3.65472 0.904513 3.83716 0.903017C4.21947 0.899695 4.6021 0.89903 4.98506 0.901024C5.16311 0.901024 5.29011 1.03136 5.29133 1.20281C5.29255 1.36977 5.16286 1.49313 4.97895 1.49512C4.78772 1.49712 4.59673 1.49512 4.40549 1.49512L4.405 1.49662Z" fill="#F26422"/>
<path d="M6.01961 1.49521C5.96685 1.49521 5.91361 1.49969 5.86159 1.49521C5.78569 1.48885 5.7151 1.45297 5.66441 1.39499C5.61372 1.33701 5.58682 1.26136 5.58926 1.1837C5.59415 1.02521 5.71969 0.904346 5.88454 0.901605C5.98224 0.89986 6.07993 0.898864 6.17763 0.901605C6.34248 0.907087 6.46045 1.02122 6.46558 1.17573C6.46829 1.21524 6.46329 1.2549 6.45086 1.29242C6.43843 1.32994 6.41881 1.36456 6.39316 1.39428C6.36751 1.424 6.33633 1.44823 6.30142 1.46556C6.26652 1.48288 6.22859 1.49296 6.18984 1.49521C6.13342 1.49994 6.07627 1.49521 6.01887 1.49521H6.01961Z" fill="#F26422"/>
</svg>
