<svg width="30" height="36" viewBox="0 0 30 36" fill="none" xmlns="http://www.w3.org/2000/svg">
<path d="M14.7795 36C13.8143 35.6652 12.8491 35.352 11.8929 34.992C9.1799 33.9782 6.67484 32.6347 4.59595 30.623C2.10277 28.211 0.714363 25.272 0.24587 21.9175C0.0890818 20.7164 0.0119549 19.5067 0.0149647 18.2959C-0.0110215 13.9169 0.00457022 9.53784 0.00531268 5.1588C0.00531268 4.46832 0.122622 4.32 0.816823 4.1148C5.35772 2.78712 9.8991 1.4592 14.441 0.13104C14.5568 0.0972 14.6637 0.04392 14.7795 0H15.225C16.3194 0.33192 17.4116 0.67176 18.5089 0.9936C22.0797 2.04048 25.6509 3.084 29.2226 4.12416C29.8857 4.31856 30 4.47408 30 5.15592C30 9.67992 30 14.2032 30 18.7258C30 21.2458 29.6288 23.6938 28.6101 26.0309C27.2143 29.2255 24.8466 31.5641 21.7928 33.2971C19.8402 34.4059 17.7435 35.1842 15.597 35.8517C15.47 35.8913 15.3498 35.9503 15.2258 36H14.7795ZM28.524 12.9701H28.5373C28.5373 10.5588 28.5336 8.14608 28.5425 5.73624C28.5425 5.49576 28.4832 5.38272 28.2285 5.30928C23.9222 4.05792 19.6177 2.80224 15.3149 1.54224C15.1173 1.48822 14.9081 1.48822 14.7105 1.54224C10.4272 2.78496 6.14769 4.0428 1.86592 5.28624C1.56894 5.37264 1.46425 5.48712 1.46499 5.79816C1.47761 10.0922 1.45831 14.387 1.4843 18.6811C1.48638 19.7478 1.56677 20.813 1.72485 21.8686C2.30694 25.632 4.1579 28.6898 7.30593 30.9874C9.57044 32.6383 12.1423 33.6694 14.8204 34.483C14.9483 34.5172 15.0836 34.5149 15.2102 34.4765C17.0299 33.925 18.7985 33.2525 20.4683 32.3489C22.7246 31.1299 24.6862 29.587 26.1377 27.486C27.8023 25.0754 28.4713 22.3783 28.5136 19.5192C28.5522 17.3369 28.524 15.1531 28.524 12.9701Z" fill="#F26422"/>
<path d="M27.2594 13.7803C27.2594 15.8308 27.3373 17.8843 27.2438 19.932C27.0307 24.5983 24.8679 28.1868 20.722 30.616C19.0188 31.6132 17.1894 32.3282 15.302 32.92C14.887 33.0504 14.446 32.92 14.2403 32.6191C14.1778 32.5259 14.1383 32.4199 14.1251 32.3095C14.1118 32.199 14.1252 32.0871 14.164 31.9825C14.2028 31.8778 14.2661 31.7834 14.3489 31.7064C14.4317 31.6295 14.5318 31.5722 14.6412 31.5391C15.5983 31.2338 16.5716 30.9631 17.4975 30.5822C19.5289 29.7441 21.3761 28.6216 22.8863 27.0304C24.4981 25.3334 25.4106 23.3224 25.6831 21.0429C25.7809 20.185 25.8304 19.3226 25.8316 18.4596C25.8472 14.969 25.8316 11.4756 25.8442 7.98787C25.8442 7.71355 25.77 7.60195 25.4878 7.52131C21.9735 6.50611 18.4612 5.48155 14.9508 4.44763C14.4504 4.30363 14.1987 3.98035 14.2737 3.60451C14.3643 3.15235 14.7934 2.92627 15.3035 3.07459C16.8795 3.53347 18.4523 3.99427 20.0218 4.45699L26.6179 6.39019C27.1554 6.54787 27.3091 6.75019 27.3098 7.30243C27.3098 9.46243 27.3098 11.6224 27.3098 13.7824L27.2594 13.7803Z" fill="#ABABAB"/>
<path d="M4.52865 13.7934C4.52865 15.8202 4.47148 17.8492 4.5435 19.8738C4.62814 22.2498 5.30081 24.4696 6.9023 26.3279C7.48439 27.0033 8.19492 27.5771 8.86462 28.1783C9.13414 28.4209 9.29748 28.6737 9.17943 29.0293C9.01534 29.5211 8.44216 29.6536 7.97144 29.3073C5.78341 27.6966 4.28364 25.6273 3.57087 23.0397C3.22541 21.7874 3.04945 20.4969 3.04744 19.2006C3.03803 15.3025 3.03655 11.4047 3.04298 7.5071C3.04298 6.99302 3.31547 6.68918 3.76391 6.68558C4.21236 6.68198 4.50043 6.9887 4.50192 7.49702C4.50712 9.59582 4.50192 11.6946 4.50192 13.7934H4.52865Z" fill="#F26422"/>
<path d="M12.7348 21.831C14.1626 20.4429 15.5057 19.1354 16.851 17.8293C18.1533 16.565 19.4563 15.3011 20.7601 14.0378C21.0236 13.7814 21.3236 13.6835 21.6659 13.8563C21.9539 14.0003 22.1114 14.2523 22.049 14.5684C22.0111 14.7421 21.9236 14.9021 21.7965 15.0299C18.9856 17.7659 16.1699 20.4969 13.3496 23.2228C12.9746 23.5828 12.5826 23.5864 12.2106 23.2278C10.8772 21.9424 9.54792 20.6534 8.22287 19.3607C7.88357 19.0302 7.87466 18.6335 8.1709 18.3362C8.46714 18.0388 8.91336 18.0402 9.25712 18.3693C10.3114 19.3826 11.3608 20.4002 12.4052 21.4221C12.523 21.5522 12.633 21.6888 12.7348 21.831Z" fill="#ABABAB"/>
</svg>
