<svg width="38" height="36" viewBox="0 0 38 36" fill="none" xmlns="http://www.w3.org/2000/svg">
<path d="M8.91482 32.0501C9.13514 32.7811 9.35145 33.5003 9.57176 34.2322L3.86314 35.9999C2.57602 31.6306 1.29336 27.2716 0 22.8815L5.70863 21.14C5.7724 21.3441 5.83306 21.5405 5.90219 21.7626C6.03598 21.5536 6.16041 21.3653 6.28172 21.1757C7.00333 20.0502 7.72493 18.9244 8.44654 17.7983C9.01472 16.9106 9.58247 16.0226 10.1498 15.1343C10.4593 14.6503 10.7559 14.1568 11.0805 13.6836C11.6416 12.8664 12.4185 12.3742 13.3662 12.1105C14.5392 11.7845 15.6987 11.417 16.8677 11.0675L18.2194 10.6611C18.2413 10.6548 18.264 10.6508 18.2975 10.6431C18.2083 10.7984 18.136 10.9474 18.0451 11.0847C17.8488 11.3804 17.6397 11.6676 17.4425 11.9629C17.3127 12.1575 17.1986 12.3634 17.0683 12.558C17.0294 12.6095 16.9754 12.6472 16.914 12.6659C15.7781 13.0104 14.6395 13.3486 13.5049 13.6926C12.9697 13.8547 12.5683 14.197 12.2655 14.667C11.2546 16.2431 10.2445 17.8197 9.23504 19.3967C8.50095 20.544 7.76017 21.6859 7.04123 22.8427C6.89049 23.0847 6.68445 23.1854 6.44718 23.2707C6.41775 23.2811 6.38965 23.2951 6.35263 23.3109C7.06621 25.7323 7.77979 28.154 8.49337 30.5763L9.50531 30.3474C10.9824 30.0142 12.4591 29.6773 13.9375 29.3491C14.7314 29.173 15.5136 28.9684 16.2388 28.5815C17.1119 28.1108 17.8752 27.4563 18.4777 26.6621C19.2358 25.6791 20.0052 24.707 20.7687 23.7272C21.8346 22.3633 22.9005 20.9991 23.9664 19.6346C24.1792 19.3637 24.3906 19.0928 24.4735 18.7492C24.6202 18.1388 24.4633 17.6263 24.0137 17.1892C23.6899 16.8731 23.3162 16.7138 22.8724 16.7147C22.4287 16.7156 22.0224 16.8894 21.7414 17.2172C21.5403 17.452 21.2834 17.5784 21.0599 17.7622C19.8513 18.76 18.6396 19.7541 17.4247 20.7445C17.2775 20.865 17.1339 20.9901 16.993 21.1093L13.4411 18.9637L14.177 17.7595C14.3951 17.8696 14.6034 17.9739 14.8108 18.0805C15.4797 18.4241 16.1456 18.779 16.778 19.1917C16.8561 19.2427 16.8998 19.2093 16.9528 19.1655C17.4984 18.714 18.0442 18.2625 18.5901 17.8109C19.0276 17.4497 19.4633 17.0885 19.9066 16.7368C20.1497 16.5435 20.4083 16.3715 20.6563 16.1846C20.9172 15.9877 21.1737 15.7836 21.4323 15.5827C21.9229 15.2025 22.4951 15.1501 23.0767 15.1863C23.8085 15.2314 24.4343 15.5357 24.9855 16.0288C25.6946 16.6636 26.0358 17.4579 26.009 18.3997C25.9894 19.0738 25.8017 19.7173 25.4052 20.2708C25.0894 20.7115 24.7389 21.1265 24.4044 21.5531C23.2359 23.0447 22.0679 24.5363 20.9003 26.0281C20.5792 26.4395 20.2826 26.8716 19.9517 27.2748C19.5124 27.8103 19.0918 28.363 18.5664 28.8217C17.513 29.749 16.2468 30.394 14.8835 30.6978C13.0056 31.1228 11.1272 31.5474 9.24842 31.9715C9.14272 31.9954 9.03479 32.0216 8.91482 32.0501ZM7.68346 33.224C6.68236 29.8226 5.6835 26.4285 4.68687 23.0418L1.88028 23.9349C2.88375 27.3339 3.88053 30.7122 4.87775 34.0941L7.68346 33.224Z" fill="#F26422"/>
<path d="M23.3472 29.8644L20.1263 27.5643L21.0388 26.3561L22.9713 27.7377L28.8686 19.0925C27.9788 19.7147 26.9887 20.0032 25.8965 20.0362C26.1299 19.5512 26.2686 19.0252 26.305 18.487C26.528 18.4351 26.7671 18.3935 26.9967 18.3245C27.6323 18.1344 28.1403 17.7632 28.5403 17.2241C29.3012 16.1978 29.2864 15.0893 28.8775 13.9519C28.5207 12.9545 27.8579 12.1851 27.0199 11.5589C26.3724 11.0749 25.6664 10.7299 24.873 10.5895C23.708 10.3831 22.6118 10.5443 21.6619 11.3074C21.0611 11.7892 20.7253 12.4362 20.6361 13.2078C20.5571 13.9036 20.6941 14.5624 20.9559 15.2022C21.0616 15.4605 21.0607 15.4609 20.8417 15.6298C20.6571 15.772 20.4769 15.9197 20.2873 16.0542C20.1361 16.1617 19.9751 16.2529 19.803 16.359C19.2049 15.2017 18.9467 13.9763 19.1786 12.6538C19.0805 12.8087 18.9819 12.9631 18.8847 13.1184C18.0852 14.3941 17.2858 15.6697 16.4866 16.9451C16.2471 17.3275 16.0063 17.709 15.7731 18.0951C15.7227 18.1791 15.6736 18.1953 15.5947 18.1529C15.3173 18.0066 15.0397 17.8612 14.762 17.7167L14.3428 17.5004C14.539 17.1871 14.7286 16.8828 14.9194 16.5789C15.7192 15.3038 16.5196 14.0289 17.3206 12.7541C17.6074 12.2998 17.9044 11.851 18.2019 11.4054C18.3272 11.2166 18.4695 11.0401 18.597 10.8527C18.9217 10.3755 19.2379 9.89233 19.5639 9.41598C20.4208 8.16407 21.2791 6.91351 22.1386 5.66431C22.9473 4.48524 23.7546 3.30572 24.5603 2.12575C25.0349 1.43041 25.5054 0.731913 25.9781 0.0352185C25.9878 0.0225276 25.9985 0.0107406 26.0102 0L38.0001 8.42851L23.3472 29.8644ZM30.4781 16.7252L35.883 8.81681L26.3951 2.1244L21.2163 9.73837C21.4902 9.60562 21.7296 9.47423 21.9807 9.37038C23.0123 8.94414 24.08 8.89177 25.1646 9.0945C26.1365 9.27674 27.055 9.67897 27.8517 10.2712C28.514 10.7482 29.0908 11.3365 29.5572 12.0104C30.215 12.9762 30.6043 14.0359 30.6463 15.2162C30.6603 15.7242 30.6037 16.2317 30.4781 16.7238V16.7252Z" fill="#CDCDCD"/>
<path d="M29.5121 9.30869C28.7731 9.27347 28.245 8.60477 28.2843 7.95413C28.3289 7.18655 28.9782 6.64021 29.6789 6.70433C30.4125 6.77341 30.9067 7.40554 30.8772 8.05663C30.8707 8.23023 30.83 8.40077 30.7575 8.55822C30.685 8.71567 30.5821 8.85686 30.4549 8.9735C30.3277 9.09014 30.1788 9.17987 30.0169 9.23744C29.855 9.295 29.6834 9.31922 29.5121 9.30869Z" fill="#CDCDCD"/>
</svg>
