<svg width="40" height="36" viewBox="0 0 40 36" fill="none" xmlns="http://www.w3.org/2000/svg">
<path d="M37.5528 21.9873L37.5537 21.9864C38.4553 21.1167 38.9007 20.0093 39.2145 18.7429V17.2495C39.1988 17.1939 39.1826 17.1373 39.1662 17.0798C39.1208 16.9207 39.0738 16.7561 39.0311 16.5948L39.0309 16.5939C38.3711 14.0825 36.2084 12.3863 33.6441 12.3548C31.1255 12.3239 28.8532 14.0394 28.1768 16.4912L28.1768 16.4913C27.494 18.9654 28.5434 21.5291 30.817 22.8828L37.5528 21.9873ZM37.5528 21.9873C35.7115 23.7722 32.9273 24.1375 30.8172 22.883L37.5528 21.9873ZM31.1662 13.7023L30.6815 13.982L31.0138 14.4323L36.2268 21.4963L36.5525 21.9378L36.9619 21.5725C38.8096 19.924 39.0484 17.0948 37.6054 15.0797L37.6054 15.0797L37.6036 15.0772C36.8891 14.0923 35.8365 13.4067 34.648 13.1528C33.4595 12.8989 32.2193 13.0947 31.1662 13.7023ZM30.6065 14.9139L30.2561 14.4391L29.8452 14.8627C28.302 16.4541 28.2652 19.1553 29.6354 20.9532C31.015 22.7684 33.5935 23.5246 35.4912 22.4905L35.9947 22.216L35.6542 21.7546L30.6065 14.9139Z" fill="#ABABAB" stroke="#ABABAB"/>
<path d="M23.9089 18.0562V34.5797C23.9089 34.746 23.9533 34.9288 23.8992 35.0751C23.7852 35.386 23.6884 35.814 23.4508 35.9397C23.2132 36.0654 22.7448 35.9808 22.4969 35.8123C20.8685 34.7048 19.2628 33.5637 17.6686 32.4065C14.2966 29.958 10.9405 27.4894 7.56457 25.0459C7.31162 24.8752 7.01474 24.7817 6.70989 24.7768C4.94869 24.7522 3.18691 24.7676 1.4257 24.7631C0.547094 24.7602 0.286133 24.4911 0.286133 23.6019C0.286133 19.8606 0.286133 16.1194 0.286133 12.3784C0.286133 11.4893 0.547094 11.223 1.43026 11.2207C3.17153 11.2155 4.91222 11.2344 6.65291 11.2053C6.99704 11.1977 7.33181 11.0914 7.61756 10.899C12.5502 7.35609 17.4652 3.78579 22.4023 0.248048C22.6781 0.0514758 23.2 -0.0805251 23.4496 0.0560472C23.6992 0.19262 23.8883 0.693194 23.8901 1.03548C23.9163 6.70695 23.9089 12.3813 23.9089 18.0562ZM22.2736 2.32978C21.9836 2.54121 21.8035 2.67264 21.6217 2.80464C17.3871 5.86466 13.1433 8.91325 8.92465 11.9944C8.08364 12.6087 7.23694 12.919 6.176 12.8561C4.77718 12.7733 3.36981 12.8356 1.9368 12.8356V23.1476C3.35728 23.1476 4.7447 23.2082 6.12358 23.1288C7.22213 23.0653 8.10245 23.3871 8.97992 24.0362C13.1627 27.1322 17.3791 30.1814 21.5876 33.2454C21.791 33.3934 22.0069 33.5231 22.2713 33.6985L22.2736 2.32978Z" fill="#F26422"/>
</svg>
