<svg width="36" height="36" viewBox="0 0 36 36" fill="none" xmlns="http://www.w3.org/2000/svg">
<path d="M0 12.5309C0.126333 12.2771 0.225058 12.0054 0.383184 11.7713C0.906087 10.9961 1.65405 10.6254 2.60782 10.6254C4.30872 10.6311 6.00879 10.618 7.71136 10.6335C7.8674 10.6414 8.02328 10.6154 8.16789 10.5575C8.3125 10.4997 8.44229 10.4113 8.54801 10.2988C11.6637 7.2337 14.7902 4.1779 17.9276 1.13138C18.3726 0.704962 18.9011 0.370874 19.4813 0.149164C20.5974 -0.268279 21.7478 0.215464 22.2305 1.28772C22.4541 1.79871 22.5705 2.34845 22.5727 2.90429C22.5944 10.0909 22.5869 17.2783 22.5869 24.4648C22.5869 27.2609 22.6003 30.0569 22.5752 32.8522C22.5775 33.3958 22.4911 33.9362 22.3192 34.4532C21.8264 35.8512 20.466 36.3824 19.1199 35.7112C18.6657 35.4737 18.251 35.1701 17.89 34.8109C14.7665 31.7927 11.6528 28.7642 8.54884 25.7253C8.44295 25.613 8.31313 25.5248 8.16856 25.467C8.02399 25.4091 7.8682 25.383 7.7122 25.3906C6.17863 25.4078 4.64338 25.3505 3.11065 25.4119C1.57791 25.4732 0.527087 24.9314 0 23.499V12.5309ZM20.9161 17.8905C20.9161 12.9123 20.9161 7.93435 20.9161 2.95668C20.9227 2.69835 20.9006 2.44009 20.85 2.18645C20.7404 1.7068 20.4049 1.51363 19.9473 1.71253C19.6207 1.85958 19.3234 2.06247 19.0697 2.31168C15.6545 5.62831 12.2457 8.94849 8.84334 12.2722C8.69278 12.4141 8.57336 12.5846 8.49237 12.7732C8.41138 12.9617 8.37053 13.1645 8.37231 13.369C8.36227 16.4647 8.35474 19.5611 8.38486 22.6567C8.39545 23.0198 8.53645 23.3675 8.78311 23.6389C12.2134 27.0342 15.6595 30.4135 19.1215 33.7771C19.2865 33.9433 19.4694 34.0915 19.667 34.2191C20.2184 34.5637 20.6375 34.4155 20.8024 33.7943C20.8826 33.4629 20.9209 33.1231 20.9161 32.7826C20.9195 27.8186 20.9195 22.8545 20.9161 17.8905ZM6.74838 12.3058C5.40975 12.3058 4.05857 12.3058 2.70822 12.3058C1.98871 12.3058 1.69421 12.5955 1.69337 13.3052C1.69337 16.4423 1.69337 19.5799 1.69337 22.7181C1.69337 23.4425 1.98954 23.7208 2.74587 23.7224C3.97295 23.7257 5.20003 23.7257 6.42711 23.7224C6.54759 23.7224 6.6689 23.7102 6.74838 23.7052V12.3058Z" fill="#F26422"/>
<path d="M32.1469 18.0256C32.3979 18.2711 32.633 18.479 32.8573 18.6984C33.7848 19.6031 34.7107 20.5092 35.6349 21.4167C36.0591 21.8349 36.0967 22.3285 35.747 22.6821C35.3973 23.0357 34.8652 23.0144 34.4243 22.5839C33.2806 21.4683 32.1411 20.3477 30.9681 19.1977C30.8443 19.3131 30.7355 19.4105 30.6335 19.5128C29.5684 20.5531 28.5075 21.5968 27.4391 22.6338C27.1045 22.9612 26.7221 23.0259 26.3766 22.8352C26.0311 22.6445 25.8637 22.3498 25.9516 21.9823C26.0155 21.7622 26.1369 21.5622 26.3038 21.402C27.3379 20.3706 28.3879 19.3557 29.4312 18.3317C29.5282 18.2367 29.6203 18.1369 29.7349 18.0182C29.6219 17.8995 29.5232 17.789 29.4178 17.6859C28.3748 16.6633 27.3309 15.6415 26.2862 14.6205C25.8403 14.1835 25.7926 13.6825 26.1566 13.3297C26.5205 12.977 27.0442 13.0105 27.4826 13.4386C28.6255 14.5567 29.7633 15.6781 30.9388 16.8338C31.0635 16.7209 31.1739 16.6267 31.2735 16.526L34.318 13.5475C34.4035 13.4577 34.4943 13.373 34.59 13.2937C34.7575 13.1568 34.9714 13.0863 35.1895 13.0962C35.4076 13.106 35.614 13.1955 35.7679 13.3469C35.9192 13.5019 36.0024 13.7086 35.9996 13.9229C35.9968 14.1372 35.9082 14.3418 35.7529 14.4929C35.3036 14.9578 34.8326 15.403 34.3682 15.8557C33.6429 16.5653 32.915 17.2725 32.1469 18.0256Z" fill="#ABABAB"/>
</svg>
