<svg width="28" height="36" viewBox="0 0 28 36" fill="none" xmlns="http://www.w3.org/2000/svg">
<path d="M5.12684 0C4.7461 0.185025 4.32679 0.317495 3.99177 0.565155C3.27745 1.09503 2.95243 1.85097 2.95386 2.7473C2.95386 4.18718 2.95386 5.62707 2.95386 7.06695V7.50972H1.14876V8.19366H2.92814V12.4946H1.16304V13.1641H2.91886V17.4874H1.15804V18.1526H2.92243V22.4543H1.16519V23.1519H2.951V24.5443C2.951 25 3.07458 25.5083 2.91314 25.8963C2.76313 26.2563 2.29525 26.4723 1.98952 26.7711C0.468719 28.2671 -0.0655975 30.0828 0.514435 32.1289C1.11161 34.2361 2.57169 35.4888 4.70753 35.928C4.79968 35.9474 4.88968 35.9755 4.98112 36H6.19547C6.82193 35.7883 7.49126 35.6573 8.06915 35.3521C11.5622 33.5018 11.8308 28.5356 8.56917 26.2988C8.2963 26.1116 8.21201 25.9215 8.21201 25.604C8.22058 18.1663 8.19487 10.7279 8.2363 3.29086C8.2513 1.60187 7.67555 0.484521 6.05546 0H5.12684ZM3.90105 14.4615C3.90105 10.6218 3.90105 6.78354 3.90105 2.94672C3.90105 2.79122 3.89748 2.63427 3.90963 2.47948C3.98106 1.52772 4.92111 0.802736 5.85116 0.974802C6.7205 1.13535 7.2741 1.82793 7.2741 2.77106C7.2741 10.4356 7.27005 18.0998 7.26196 25.7639C7.26196 26.3592 7.40482 26.6998 7.93485 27.0346C9.39279 27.9705 10.065 29.3852 9.88925 31.113C9.70709 32.9014 8.72561 34.1649 7.04123 34.7783C5.41043 35.3729 3.9032 35.036 2.6367 33.8553C0.471577 31.8351 0.913744 28.3772 3.5146 26.8553C3.81319 26.6811 3.91106 26.4953 3.90963 26.1555C3.89605 22.2577 3.90105 18.3585 3.90105 14.4615Z" fill="#F26422"/>
<path d="M5.57955 27.7572V27.0339V17.0865H5.61808C5.62113 20.2747 5.61928 23.4631 5.61252 26.6517C5.61211 26.8086 5.61601 27.1409 5.80063 27.467C6.00594 27.8296 6.32671 28.0101 6.58326 28.1092C7.77274 28.5708 8.46132 29.7357 8.29478 31.0653L5.57955 27.7572ZM5.57955 27.7572L4.89268 27.9837M5.57955 27.7572L4.89268 27.9837M4.89268 27.9837C4.10364 28.2438 3.56246 28.6717 3.19386 29.3274C2.9315 29.8035 2.81392 30.3477 2.85653 30.8917C2.89923 31.4368 3.10072 31.9562 3.43468 32.3848L3.43471 32.3847M4.89268 27.9837L3.43471 32.3847M3.43471 32.3847L3.43996 32.3916M3.43471 32.3847L3.43996 32.3916M3.43996 32.3916C4.08885 33.2394 5.27472 33.6335 6.27531 33.3521L6.27538 33.3521M3.43996 32.3916L6.27538 33.3521M6.27538 33.3521C7.37969 33.0415 8.16015 32.1338 8.29472 31.0658L6.27538 33.3521Z" fill="#ABABAB" stroke="#ABABAB" stroke-width="2"/>
<path d="M20.6715 20.4676C20.4663 20.5695 20.4073 20.7267 20.4218 20.94C20.4418 21.2358 20.427 21.5335 20.427 21.8304L20.3804 21.8571C20.2341 21.7126 20.0905 21.5655 19.9406 21.4246C19.7777 21.2717 19.6139 21.1193 19.4413 20.9756C19.2826 20.8443 19.1154 20.8473 18.9857 20.9675C18.856 21.0876 18.8482 21.2481 18.9942 21.3901C19.3267 21.7159 19.6477 22.0552 20.0113 22.3488C20.3342 22.6095 20.505 22.8933 20.4291 23.2921C20.414 23.3718 20.427 23.4559 20.427 23.5379L20.3698 23.5749C20.3194 23.5129 20.2758 23.4442 20.2169 23.3903C19.9518 23.147 19.6861 22.9042 19.4131 22.6687C19.2635 22.5396 19.1136 22.5447 18.9875 22.6628C18.9264 22.7169 18.8907 22.7913 18.8884 22.8697C18.8861 22.9481 18.9173 23.0242 18.9751 23.0813C19.1429 23.2556 19.3179 23.4237 19.4948 23.5904C19.7738 23.8536 20.06 24.1104 20.3357 24.3762C20.3871 24.4294 20.4178 24.4971 20.4227 24.5684C20.4336 24.7879 20.4246 25.0079 20.4282 25.2277C20.4282 25.2998 20.41 25.3368 20.3257 25.3509C19.8487 25.4294 19.4567 25.6559 19.1042 25.9554C18.8624 26.1605 18.9555 26.1238 18.6617 26.005C18.2497 25.8367 18.0042 25.5824 17.9302 25.1522C17.8649 24.7716 17.7207 24.4028 17.6061 24.0296C17.5792 23.9396 17.5408 23.853 17.4919 23.7714C17.4569 23.7164 17.4028 23.6739 17.3386 23.6509C17.2744 23.628 17.2036 23.6258 17.1379 23.6448C17.0073 23.6813 16.8988 23.8132 16.9245 23.9476C16.9674 24.1772 17.0324 24.4031 17.0917 24.6296C17.1421 24.823 17.1975 25.0149 17.2507 25.2075L17.2114 25.2403C16.9825 25.1 16.7519 24.9625 16.5273 24.8165C16.4929 24.7943 16.4823 24.7354 16.4693 24.6911C16.3157 24.1783 16.1649 23.6647 16.011 23.152C15.9911 23.0842 15.964 23.0184 15.93 22.9556C15.8563 22.8211 15.7027 22.7591 15.5646 22.7976C15.489 22.8186 15.4247 22.8652 15.3844 22.9281C15.3441 22.991 15.3307 23.0657 15.3469 23.1374C15.4376 23.5202 15.5404 23.9008 15.6377 24.2822C15.6422 24.2998 15.6444 24.3181 15.6528 24.3647C15.5531 24.3187 15.4715 24.2833 15.3905 24.2434C15.1423 24.1194 14.8971 23.9909 14.6469 23.8699C14.4619 23.7809 14.3328 23.8199 14.2119 23.9869C14.1212 24.1107 14.1484 24.265 14.3098 24.3652C14.5689 24.5258 14.8421 24.6669 15.1096 24.8143C15.1773 24.8519 15.2463 24.8878 15.3439 24.94C15.0447 25.0161 14.7793 25.0803 14.516 25.1513C14.3328 25.201 14.1496 25.2529 13.9719 25.3172C13.8135 25.3733 13.7524 25.5417 13.8162 25.702C13.8513 25.7901 14.0396 25.9192 14.1889 25.8793C14.6484 25.7572 15.1115 25.6472 15.5733 25.5327C15.6365 25.5173 15.7048 25.512 15.7626 25.4859C16.2253 25.2762 16.521 25.59 16.8631 25.8021C16.8093 25.8187 16.7561 25.8372 16.7017 25.8513C16.339 25.9458 15.9745 26.0379 15.6117 26.1339C15.4878 26.1664 15.3953 26.2338 15.375 26.3615C15.3548 26.4892 15.3844 26.6056 15.5062 26.6668C15.5886 26.7067 15.683 26.7198 15.7743 26.7041C16.2882 26.5919 16.8021 26.4796 17.3096 26.3413C17.6119 26.2585 17.8839 26.2444 18.1457 26.437C18.2633 26.5231 18.4549 26.556 18.5178 26.6615C18.5713 26.7516 18.4818 26.9107 18.4661 27.0404C18.419 27.4279 18.402 27.8152 18.5426 28.191C18.5728 28.2699 18.5477 28.3094 18.4728 28.3468C18.3216 28.422 18.1672 28.4938 18.0302 28.5875C17.8588 28.7049 17.6881 28.7124 17.4904 28.6625C16.9662 28.5303 16.4387 28.4099 15.9125 28.2845C15.849 28.2694 15.7846 28.2582 15.7196 28.2508C15.5558 28.232 15.4234 28.31 15.382 28.4472C15.3312 28.6156 15.382 28.7492 15.5519 28.8011C15.8907 28.9047 16.2362 28.9894 16.5796 29.0818C16.6736 29.1073 16.7682 29.1317 16.8625 29.1567L16.8731 29.2047C16.6467 29.3212 16.4221 29.4413 16.1918 29.5507C16.1507 29.5701 16.083 29.5507 16.0307 29.5392C15.4261 29.3933 14.8229 29.2461 14.2209 29.0978C14.0562 29.0576 13.87 29.1334 13.8177 29.2611C13.7485 29.4295 13.8132 29.6018 13.9991 29.6576C14.3815 29.7736 14.7702 29.8709 15.1562 29.9756L15.3376 30.0247C15.1801 30.1109 15.0468 30.1825 14.9144 30.2563C14.7164 30.3671 14.5154 30.4743 14.3225 30.593C14.1575 30.6944 14.1109 30.8397 14.2016 30.9624C14.3467 31.1535 14.4579 31.1945 14.6417 31.1002C14.8881 30.9733 15.1362 30.8496 15.3844 30.7255C15.4633 30.6859 15.544 30.6492 15.6604 30.5933C15.5966 30.835 15.5395 31.0443 15.4857 31.2542C15.4367 31.4448 15.3853 31.6354 15.3448 31.8276C15.3275 31.8998 15.3404 31.9754 15.3809 32.0391C15.4215 32.1028 15.4866 32.1498 15.5631 32.1705C15.7063 32.2135 15.8653 32.1489 15.9346 32.0022C15.9922 31.8728 16.0404 31.7399 16.0787 31.6045C16.2108 31.1639 16.3345 30.7207 16.4717 30.2812C16.4989 30.2032 16.5518 30.135 16.6228 30.0862C16.8139 29.9605 17.0158 29.8507 17.2156 29.7345L17.2519 29.7626C17.1888 29.9911 17.1257 30.2193 17.0626 30.4474C17.0179 30.6102 16.968 30.7724 16.9321 30.9368C16.8903 31.1285 16.9762 31.2809 17.1367 31.3244C17.3084 31.371 17.4783 31.2899 17.5466 31.0999C17.6424 30.8344 17.7186 30.563 17.8002 30.2933C17.8909 29.9967 17.9713 29.6975 18.0683 29.4028C18.0943 29.3304 18.1445 29.2676 18.2116 29.2235C18.3733 29.1211 18.5556 29.0458 18.7146 28.9403C18.8615 28.8429 18.9498 28.8884 19.0773 28.981C19.3295 29.1649 19.594 29.3336 19.8693 29.4862C19.9947 29.5561 20.1507 29.5861 20.2973 29.6142C20.4037 29.6344 20.4348 29.6736 20.4312 29.7716C20.423 29.9818 20.4357 30.1926 20.4246 30.4028C20.419 30.4741 20.388 30.5417 20.3366 30.595C19.9068 31.0092 19.4679 31.4156 19.0383 31.8298C18.9721 31.8938 18.9099 31.9822 18.8956 32.0664C18.8745 32.193 18.9431 32.3011 19.0725 32.3664C19.2018 32.4318 19.3083 32.3979 19.4032 32.314C19.6984 32.052 19.9917 31.7888 20.2831 31.5242C20.3177 31.4857 20.3481 31.444 20.3738 31.3999L20.4273 31.4341C20.4273 31.6845 20.4312 31.9348 20.423 32.1849C20.423 32.2267 20.3735 32.273 20.3366 32.3078C19.9336 32.6883 19.5305 33.0679 19.1275 33.4464C19.0742 33.4959 19.0238 33.548 18.9764 33.6024C18.8536 33.7427 18.8636 33.883 19.0026 34.0141C19.1236 34.1283 19.2372 34.1435 19.3877 34.0186C19.6994 33.7604 19.9965 33.4873 20.2979 33.2188C20.3276 33.1869 20.3541 33.1526 20.3771 33.1163L20.4161 33.136C20.422 33.169 20.4261 33.2022 20.4282 33.2356C20.4282 33.5118 20.4427 33.7885 20.424 34.0632C20.4107 34.2569 20.4772 34.3952 20.6431 34.5013H20.8849C21.0515 34.3891 21.1322 34.2431 21.0965 34.0464C21.0835 33.9734 21.0944 33.8971 21.0944 33.8219V33.1407L21.1394 33.1158C21.2223 33.2014 21.299 33.2923 21.3882 33.3712C21.643 33.5957 21.8963 33.8244 22.1635 34.0371C22.299 34.1446 22.4187 34.1185 22.5335 33.9976C22.6623 33.862 22.6653 33.7385 22.5408 33.5965C22.4964 33.546 22.4501 33.4974 22.3993 33.4509C21.9929 33.0679 21.586 32.6852 21.1787 32.3027C21.1485 32.2747 21.1014 32.2385 21.1007 32.2051C21.0941 31.9469 21.0971 31.6884 21.0971 31.4299L21.1503 31.4005C21.1845 31.4468 21.2108 31.4995 21.254 31.5383C21.5421 31.7998 21.8265 32.065 22.1255 32.3154C22.3111 32.4706 22.5405 32.39 22.6176 32.168C22.6687 32.021 22.5873 31.9239 22.4903 31.8312C22.0574 31.4198 21.6213 31.0115 21.1884 30.5998C21.1488 30.5622 21.1004 30.5103 21.0977 30.4637C21.0893 30.1931 21.0938 29.9223 21.0938 29.656C21.2752 29.6029 21.4532 29.5636 21.6195 29.501C21.9339 29.3837 22.2175 29.2051 22.4513 28.9774C22.5619 28.8696 22.6587 28.8469 22.798 28.9358C22.9637 29.0414 23.1478 29.1216 23.3146 29.2252C23.3785 29.2661 23.4265 29.3252 23.4512 29.3936C23.5582 29.7303 23.6501 30.0694 23.7535 30.4064C23.8288 30.6531 23.8992 30.9023 23.9975 31.1414C24.0812 31.3443 24.3345 31.3977 24.4923 31.2666C24.6074 31.1712 24.6223 31.0499 24.5863 30.9194C24.4956 30.5936 24.4049 30.2686 24.3142 29.9431C24.2967 29.8794 24.2819 29.8151 24.2659 29.7514L24.3012 29.7301C24.4917 29.8423 24.68 29.9574 24.8728 30.0668C24.9203 30.0924 24.9615 30.127 24.9937 30.1682C25.026 30.2094 25.0487 30.2564 25.0603 30.3062C25.1842 30.7491 25.3154 31.1903 25.4475 31.6309C25.4838 31.7572 25.529 31.8812 25.5826 32.0022C25.6331 32.1122 25.7368 32.1986 25.8637 32.1767C25.9732 32.1554 26.0707 32.0981 26.1382 32.0154C26.1856 31.9505 26.1744 31.8349 26.1581 31.7465C26.1279 31.586 26.0762 31.4291 26.0339 31.2694C25.9771 31.0553 25.9208 30.8409 25.8558 30.5939C25.9737 30.65 26.0541 30.6887 26.1333 30.7283C26.3951 30.8583 26.6542 30.9932 26.9193 31.1176C27.068 31.1874 27.2176 31.1235 27.3183 30.9646C27.3917 30.8493 27.3669 30.7174 27.2436 30.6278C27.1513 30.563 27.0548 30.5034 26.9546 30.4496C26.7065 30.3113 26.4562 30.1766 26.1766 30.0239C26.4084 29.9664 26.6085 29.9265 26.8014 29.8665C27.1085 29.7708 27.4105 29.6616 27.7148 29.5577V29.2518C27.5882 29.0815 27.4156 29.0759 27.2203 29.1247C26.7201 29.2496 26.2146 29.3576 25.7189 29.4963C25.4632 29.5678 25.2428 29.5634 25.0237 29.4155C24.9052 29.3352 24.7743 29.2706 24.6111 29.1772C24.7172 29.146 24.7731 29.1281 24.8296 29.1135C25.1881 29.0203 25.5475 28.9316 25.9045 28.8328C26.1092 28.7767 26.192 28.633 26.1388 28.4559C26.0922 28.3019 25.9378 28.2174 25.7491 28.2612C25.1295 28.4043 24.5109 28.5515 23.8935 28.7029C23.8486 28.7161 23.8011 28.7197 23.7546 28.7134C23.708 28.7071 23.6636 28.691 23.6247 28.6664C23.4373 28.5572 23.2466 28.4526 23.0504 28.3557C22.9673 28.3145 22.9461 28.2715 22.9758 28.191C23.1115 27.8189 23.1021 27.4369 23.0528 27.0538C23.0356 26.9202 22.9458 26.7555 23.0012 26.6632C23.0667 26.554 23.2644 26.5203 23.3863 26.4319C23.6408 26.247 23.9019 26.2621 24.1948 26.3407C24.7066 26.4782 25.2259 26.5919 25.7434 26.7103C25.9314 26.7533 26.0759 26.6806 26.1309 26.5304C26.1968 26.3528 26.1131 26.1936 25.906 26.1375C25.5433 26.0384 25.1806 25.9489 24.8178 25.8543C24.7637 25.8403 24.7105 25.8226 24.657 25.8066L24.6492 25.7603C24.8765 25.6439 25.1026 25.5246 25.3326 25.4143C25.3695 25.3969 25.4308 25.4143 25.4783 25.4269C26.0526 25.5672 26.627 25.6989 27.1983 25.8524C27.4177 25.9122 27.5788 25.8788 27.7145 25.7157V25.407C27.5552 25.3422 27.4008 25.2641 27.236 25.2153C26.9679 25.1356 26.6919 25.0767 26.4217 25.0057C26.3503 24.9829 26.2803 24.9566 26.2119 24.9268C26.4166 24.8162 26.5925 24.7256 26.7633 24.6276C26.9324 24.5357 27.0961 24.4354 27.2536 24.3271C27.3784 24.2375 27.3875 24.1012 27.3053 23.9886C27.1922 23.8337 27.0671 23.788 26.9123 23.8564C26.7612 23.9224 26.6164 23.9968 26.4701 24.0692C26.2766 24.166 26.0847 24.2656 25.8516 24.384C25.9239 24.1183 25.9885 23.894 26.0454 23.6681C26.0934 23.4776 26.1427 23.2867 26.1729 23.0931C26.1932 22.9544 26.0865 22.8346 25.9483 22.7987C25.8793 22.7827 25.8064 22.7892 25.7418 22.817C25.6773 22.8448 25.6249 22.8923 25.5935 22.9516C25.559 23.0143 25.5316 23.0801 25.5119 23.1481C25.3607 23.6563 25.2096 24.1651 25.0584 24.6737C25.0439 24.7225 25.0361 24.7893 24.998 24.814C24.7713 24.963 24.5373 25.1022 24.3055 25.2445L24.268 25.2108C24.3351 24.9726 24.4037 24.7337 24.4681 24.4957C24.5156 24.3192 24.5669 24.1427 24.5984 23.9625C24.6088 23.8945 24.5926 23.8252 24.5527 23.7673C24.5129 23.7094 24.452 23.6666 24.3811 23.6468C24.3102 23.6271 24.234 23.6315 24.1663 23.6594C24.0986 23.6873 24.044 23.7368 24.0123 23.7989C23.9709 23.8737 23.938 23.9522 23.914 24.0332C23.8025 24.4017 23.6583 24.7663 23.5957 25.1423C23.5223 25.5846 23.2656 25.844 22.8446 26.0137C22.5701 26.1246 22.6566 26.1631 22.4262 25.9658C22.0711 25.6615 21.6751 25.4325 21.1932 25.3528C21.1056 25.3382 21.0932 25.2967 21.0941 25.2277C21.0971 25.0031 21.0899 24.7786 21.0989 24.5541C21.104 24.4914 21.1316 24.4321 21.1772 24.3857C21.3453 24.2173 21.5242 24.0599 21.6968 23.896C21.9752 23.6319 22.2554 23.3695 22.5269 23.0995C22.6717 22.9556 22.6656 22.7883 22.5323 22.662C22.399 22.5357 22.2648 22.5388 22.0943 22.68C21.9063 22.8354 21.7286 23.0013 21.5475 23.1638C21.4054 23.2918 21.2649 23.4211 21.0941 23.5761C21.0941 23.3928 21.1089 23.2477 21.0911 23.1063C21.059 22.8537 21.1292 22.6572 21.3559 22.4989C21.4877 22.4077 21.5935 22.284 21.7092 22.1731C21.9867 21.9086 22.2634 21.6433 22.5393 21.3772C22.6411 21.279 22.6659 21.1678 22.5904 21.0444C22.4797 20.8645 22.2784 20.8198 22.1085 20.9546C21.9217 21.1036 21.7497 21.2686 21.5732 21.4286C21.4221 21.5658 21.2724 21.7056 21.0929 21.8711C21.0929 21.5321 21.0862 21.2383 21.0953 20.945C21.1014 20.7519 21.0581 20.5872 20.8837 20.4679L20.6715 20.4676ZM19.0891 27.4812C19.0891 26.6362 19.8514 25.9346 20.7679 25.9346C21.6681 25.9346 22.4289 26.6427 22.4305 27.4821C22.432 28.3215 21.6642 29.0422 20.7616 29.0397C19.859 29.0371 19.0882 28.3209 19.0891 27.4812Z" fill="#F26422"/>
<path d="M24.042 9.98939C24.042 8.23802 22.7014 6.69089 20.7432 6.68806C18.8292 6.68496 17.4566 8.20215 17.4527 9.98318C17.4482 11.8153 18.9287 13.3099 20.744 13.3113C22.5593 13.3128 24.0412 11.8216 24.042 9.98939ZM20.7482 12.6447C20.0492 12.6454 19.3784 12.3665 18.8834 11.8692C18.3883 11.3718 18.1093 10.6967 18.1077 9.99222C18.1049 8.53039 19.291 7.32816 20.7392 7.3259C22.1967 7.32336 23.3881 8.52163 23.387 9.98996C23.3859 10.6946 23.1075 11.37 22.6127 11.8679C22.1179 12.3657 21.4473 12.6453 20.7482 12.6453V12.6447Z" fill="#F26422"/>
<path d="M25.3731 4.94866C25.3204 4.97691 25.2209 5.00742 25.1556 5.0721C24.6867 5.53706 24.2257 6.00739 23.7618 6.47744C23.6085 6.63337 23.6021 6.80991 23.7374 6.95031C23.886 7.10482 24.0606 7.10284 24.2265 6.93731C24.6936 6.47141 25.1593 6.00438 25.6234 5.53622C25.7417 5.41729 25.768 5.27662 25.7052 5.13651C25.65 5.01024 25.5458 4.96137 25.3731 4.94866Z" fill="#F26422"/>
<path d="M17.4725 7.06772C17.6505 7.05049 17.7561 6.98297 17.8136 6.84992C17.871 6.71688 17.8416 6.60078 17.7435 6.50078C17.3231 6.07367 16.9022 5.64722 16.4809 5.22143C16.4248 5.16494 16.371 5.1059 16.3127 5.05195C16.1619 4.91692 15.9587 4.91946 15.8337 5.05505C15.718 5.18048 15.7238 5.39403 15.8567 5.52962C16.3306 6.00927 16.807 6.48666 17.2861 6.96179C17.3405 7.01856 17.4262 7.04314 17.4725 7.06772Z" fill="#F26422"/>
<path d="M15.7184 14.682C15.7363 14.8535 15.7837 14.9645 15.9188 15.0179C16.0665 15.0769 16.1951 15.0425 16.3039 14.9332C16.5589 14.6789 16.8112 14.4205 17.0643 14.1637C17.2778 13.947 17.4934 13.7321 17.7044 13.5126C17.8504 13.3606 17.851 13.1761 17.7145 13.036C17.5864 12.9047 17.3964 12.9018 17.2523 13.0445C16.773 13.5191 16.2971 13.9968 15.8246 14.4778C15.7669 14.5374 15.7447 14.6309 15.7184 14.682Z" fill="#F26422"/>
<path d="M25.3705 15.0445C25.5636 15.0374 25.6693 14.9821 25.7251 14.8499C25.7548 14.7877 25.764 14.7175 25.7512 14.6497C25.7385 14.5818 25.7044 14.5199 25.6542 14.473C25.1777 13.9909 24.6988 13.5113 24.2175 13.0341C24.0832 12.9008 23.8969 12.9084 23.769 13.0389C23.6412 13.1694 23.6289 13.3581 23.7612 13.4934C24.1219 13.8663 24.4899 14.2335 24.8543 14.603C24.9526 14.703 25.0449 14.81 25.1508 14.901C25.2262 14.9677 25.3215 15.0137 25.3705 15.0445Z" fill="#F26422"/>
<path d="M15.1583 10.3171C15.4851 10.3171 15.8116 10.3171 16.1393 10.3171C16.3548 10.3171 16.4974 10.1863 16.5 9.99141C16.5025 9.7965 16.3598 9.65809 16.146 9.65752C15.4879 9.65583 14.83 9.65583 14.1723 9.65752C13.9528 9.65752 13.8113 9.78972 13.8096 9.98435C13.8079 10.1843 13.952 10.3151 14.1798 10.3163C14.5052 10.3182 14.8318 10.3168 15.1583 10.3171Z" fill="#F26422"/>
<path d="M26.3885 10.3205C26.7103 10.3205 27.0332 10.3205 27.3538 10.3205C27.5685 10.3199 27.7117 10.1894 27.7148 9.99448C27.7179 9.79957 27.5747 9.66143 27.3602 9.66087C26.7027 9.65917 26.0451 9.65917 25.3874 9.66087C25.1663 9.66087 25.0284 9.79053 25.027 9.9877C25.027 10.1894 25.1671 10.3185 25.395 10.3196C25.7248 10.3216 26.0572 10.3202 26.3885 10.3205Z" fill="#F26422"/>
<path d="M21.0703 4.33132C21.0703 4.01156 21.0703 3.69179 21.0703 3.37089C21.0686 3.14717 20.935 3 20.7388 3C20.549 3 20.419 3.14632 20.4184 3.36722C20.4167 4.01617 20.4167 4.66493 20.4184 5.3135C20.4184 5.5361 20.5479 5.66971 20.7491 5.66717C20.9453 5.66462 21.0689 5.53384 21.0706 5.31859C21.0723 4.9895 21.0703 4.66041 21.0703 4.33132Z" fill="#F26422"/>
<path d="M20.418 15.6425C20.418 15.9575 20.418 16.2727 20.418 16.5877C20.418 16.832 20.5421 16.975 20.7479 16.9733C20.9536 16.9716 21.071 16.8287 21.0713 16.5809C21.0713 15.951 21.0713 15.3209 21.0713 14.6906C21.0713 14.4539 20.9404 14.3033 20.7403 14.3036C20.5402 14.3039 20.4194 14.4488 20.4182 14.6832C20.4168 15.003 20.418 15.3228 20.418 15.6425Z" fill="#F26422"/>
</svg>
