<svg width="42" height="36" viewBox="0 0 42 36" fill="none" xmlns="http://www.w3.org/2000/svg">
<path d="M36.501 18.4237C35.7849 19.1675 35.1223 19.8578 34.4577 20.5467C34.1874 20.8271 33.8586 20.9196 33.4984 20.8018C33.1382 20.684 32.9251 20.4014 32.8756 20.0067C32.8345 19.6778 32.962 19.4096 33.1835 19.1798C34.2434 18.0835 35.3025 16.9858 36.361 15.8866C36.5003 15.7464 36.6264 15.5975 36.7672 15.4652C37.1893 15.0589 37.7104 15.0626 38.118 15.4832C39.3083 16.7135 40.4964 17.9464 41.6821 19.182C42.0931 19.6106 42.105 20.1939 41.7225 20.5799C41.34 20.9659 40.7848 20.9348 40.3724 20.5076C39.7133 19.8245 39.0571 19.1386 38.3611 18.4114C38.3395 18.7056 38.32 18.9506 38.3047 19.1957C38.1375 21.8391 37.4687 24.3357 36.2063 26.6408C33.4079 31.778 29.2042 34.9259 23.5815 35.781C17.3812 36.7206 12.1423 34.6317 7.93099 29.822C6.49448 28.1804 5.45436 26.2758 4.72287 24.1919C4.55079 23.7011 4.70545 23.2334 5.10464 22.9905C5.28727 22.8814 5.50089 22.8417 5.70868 22.8784C5.91647 22.915 6.10542 23.0258 6.24298 23.1915C6.33564 23.3105 6.40776 23.4452 6.45616 23.5898C7.06351 25.3456 7.97248 26.9727 9.139 28.3922C11.3558 31.079 14.1243 32.868 17.4522 33.6833C20.4165 34.4114 23.5218 34.2159 26.3795 33.1213C29.2371 32.0267 31.72 30.0817 33.5172 27.5299C35.3759 24.888 36.3617 21.9222 36.501 18.6565C36.5059 18.6044 36.501 18.5531 36.501 18.4237Z" fill="#ABABAB"/>
<path d="M3.59882 17.5453C3.72421 16.5413 3.80224 15.5409 3.98128 14.5615C4.51356 11.5791 5.78945 8.79339 7.68194 6.48169C10.3007 3.26077 13.6036 1.19132 17.5926 0.36368C21.3267 -0.411191 24.9326 0.0550327 28.3867 1.73488C32.5166 3.75113 35.7123 7.37756 37.2789 11.8256C37.4147 12.2116 37.3555 12.5592 37.0817 12.8513C36.8079 13.1433 36.4812 13.2076 36.1203 13.0761C35.8207 12.9669 35.6473 12.7291 35.54 12.4255C35.0687 11.0641 34.4118 9.77988 33.5893 8.61187C31.0479 5.02737 27.6747 2.79021 23.4362 2.12955C18.0155 1.28529 13.3632 2.97598 9.60194 7.10983C7.01175 9.95633 5.70064 13.4078 5.50209 17.3162C5.50209 17.3841 5.50209 17.4528 5.50209 17.5742C5.6052 17.4752 5.67486 17.413 5.73965 17.3458C6.33042 16.7328 6.92096 16.1196 7.51126 15.5062C7.91672 15.0862 8.49425 15.0588 8.86348 15.4397C9.24316 15.8308 9.22713 16.4097 8.81401 16.8405C7.64084 18.0621 6.46511 19.2815 5.28682 20.4988C4.81936 20.9816 4.3115 20.9773 3.84474 20.493C2.66134 19.268 1.47934 18.0419 0.298736 16.8145C-0.0182448 16.4835 -0.0844275 16.0527 0.107154 15.6717C0.196598 15.4884 0.343116 15.3418 0.522939 15.2557C0.702762 15.1697 0.905339 15.1492 1.09781 15.1976C1.29607 15.2581 1.47694 15.3683 1.62448 15.5185C2.23336 16.1257 2.82343 16.7524 3.42117 17.3711C3.48317 17.434 3.54657 17.4925 3.59882 17.5453Z" fill="#F26422"/>
<path d="M20.0902 11.3414C20.0902 9.23652 20.0902 7.13141 20.0902 5.02605C20.0902 4.61693 20.1223 4.23094 20.4873 3.96927C21.0481 3.56377 21.8409 3.93096 21.9078 4.63572C21.9199 4.77993 21.925 4.92468 21.9231 5.06942C21.9231 8.75536 21.9231 12.4418 21.9231 16.1287C21.9231 16.5523 21.912 16.9766 21.9301 17.3987C21.9369 17.5369 21.9887 17.6687 22.0771 17.7724C23.7208 19.4898 25.3695 21.2022 27.0234 22.9095C27.2324 23.1264 27.3996 23.3606 27.3968 23.6837C27.3926 24.095 27.2094 24.4 26.8492 24.5612C26.6819 24.6448 26.4931 24.6705 26.3106 24.6345C26.1281 24.5984 25.9616 24.5026 25.8356 24.361C25.0741 23.5796 24.3203 22.791 23.5631 22.006C22.5348 20.9398 21.5107 19.8693 20.4755 18.8111C20.3485 18.6885 20.2482 18.5392 20.1812 18.3732C20.1143 18.2071 20.0823 18.0282 20.0874 17.8483C20.0937 15.6776 20.0902 13.5092 20.0902 11.3414Z" fill="#F26422"/>
</svg>
