<svg width="29" height="28" viewBox="0 0 29 28" fill="none" xmlns="http://www.w3.org/2000/svg">
<path d="M29 24.2945C28.917 24.6162 28.8719 24.9542 28.7441 25.2564C28.3415 26.2113 27.6176 26.8097 26.6208 27.0333C26.1855 27.1298 25.7412 27.1787 25.2956 27.179C18.1074 27.1875 10.9189 27.1896 3.7303 27.1854C3.04779 27.1854 2.37348 27.1215 1.74966 26.8164C0.769594 26.3372 0.19752 25.5385 0.0347017 24.4523C-0.10098 23.5473 0.176379 22.7272 0.602673 21.9506C1.57517 20.175 2.55113 18.4016 3.53057 16.6305C4.72962 14.4539 5.92951 12.2776 7.13025 10.1016C8.46561 7.67939 9.8014 5.2574 11.1376 2.83564C11.4068 2.34909 11.674 1.85775 11.987 1.40091C12.4704 0.698085 13.1141 0.19812 13.9715 0.0473321C14.9418 -0.122944 15.7757 0.171605 16.4882 0.843762C16.864 1.19869 17.1616 1.61304 17.4118 2.06828C18.325 3.7295 19.2476 5.38817 20.1649 7.04844C21.6633 9.7622 23.1612 12.4767 24.6588 15.192C25.8532 17.3539 27.0492 19.5143 28.2468 21.6733C28.5702 22.2554 28.8463 22.8534 28.9536 23.5192C28.9694 23.6179 28.9852 23.7166 29 23.8153V24.2945ZM14.5038 25.0932C18.122 25.0932 21.7402 25.0913 25.3584 25.0874C25.6726 25.0855 25.985 25.0399 26.287 24.952C26.7508 24.8168 26.9641 24.4504 26.9275 23.9616C26.9039 23.6422 26.784 23.3527 26.6325 23.077C26.0284 21.9761 25.4226 20.876 24.8153 19.7766C23.7986 17.9352 22.7813 16.0939 21.7634 14.2527C19.7103 10.5322 17.6566 6.81172 15.6022 3.09121C15.4669 2.83977 15.3032 2.60509 15.1144 2.3919C14.7537 1.99608 14.3022 1.98745 13.9207 2.35995C13.7439 2.52654 13.5916 2.71781 13.4682 2.92796C12.3507 4.93208 11.24 6.93972 10.1361 8.95086C8.70437 11.5492 7.27392 14.1491 5.84474 16.7506C4.68544 18.8591 3.52689 20.9676 2.36907 23.0761C2.25634 23.28 2.16881 23.4971 2.10843 23.7227C1.93804 24.3769 2.21887 24.8507 2.87141 25.0028C3.12762 25.0611 3.38944 25.0905 3.65205 25.0903C7.26898 25.0958 10.8862 25.097 14.5038 25.0938V25.0932Z" fill="#F26422"/>
<path d="M13.4678 11.9931V8.57639C13.4678 8.14 13.4602 7.70329 13.4694 7.26658C13.482 6.68004 13.9518 6.23502 14.5368 6.24237C15.0748 6.24908 15.5298 6.72892 15.5298 7.29405C15.5298 10.4338 15.5291 13.5736 15.5276 16.7135C15.5276 17.4259 14.7937 17.9313 14.1393 17.6774C13.7622 17.5307 13.4728 17.1394 13.4719 16.7509C13.4689 15.1651 13.4689 13.579 13.4719 11.9928L13.4678 11.9931Z" fill="#F26422"/>
<path d="M12.9561 21.389C12.9561 20.5392 13.6654 19.8236 14.5038 19.8236C15.3422 19.8236 16.0515 20.5395 16.0543 21.3871C16.0562 21.5946 16.0175 21.8005 15.9404 21.9929C15.8634 22.1853 15.7495 22.3603 15.6054 22.508C15.4613 22.6557 15.2898 22.7731 15.1008 22.8534C14.9117 22.9337 14.7088 22.9754 14.5038 22.9761C13.6452 22.9793 12.9557 22.272 12.9561 21.389Z" fill="#F26422"/>
</svg>
