<svg width="30" height="36" viewBox="0 0 30 36" fill="none" xmlns="http://www.w3.org/2000/svg">
<path d="M0 18.6736C0.0393548 18.3917 0.0590323 18.1028 0.120968 17.8242C0.468387 16.2592 1.47581 15.2973 3.03903 14.8622C3.51976 14.7315 4.01696 14.667 4.51613 14.6704C11.6071 14.6729 18.6981 14.6569 25.7887 14.6823C27.7477 14.6892 29.3529 15.987 29.8145 17.625C29.931 18.0382 29.9274 18.46 29.9329 18.8823C29.9439 19.754 29.9606 20.6256 29.9768 21.4972C29.9812 21.5486 29.9889 21.5997 30 21.6501V23.5614C29.9897 23.6748 29.9732 23.7882 29.9706 23.9019C29.9445 24.9985 29.9113 26.092 29.7368 27.177C29.511 28.5769 29.009 29.8741 28.2 31.0549C27.2968 32.3728 26.1058 33.3926 24.7355 34.2335C22.8572 35.3859 20.8092 35.9636 18.5916 35.9665C17.3931 35.9698 16.1946 35.9739 14.9961 35.9787C14.9223 35.9787 14.8481 35.9925 14.7742 36H13.5161C13.4588 35.9894 13.4008 35.9823 13.3426 35.9787C12.7942 35.9746 12.2458 35.9706 11.6974 35.9712C10.3197 35.9731 8.96935 35.7964 7.65677 35.3796C5.46581 34.6838 3.70387 33.4039 2.28129 31.6587C0.982796 30.0652 0.244516 28.2568 0.0664516 26.2336C0.0470968 26.0109 0.0222581 25.789 0 25.5666V18.6736ZM15.0187 34.6593C16.1584 34.6593 17.2981 34.6703 18.4381 34.6546C18.9856 34.65 19.5324 34.6152 20.0758 34.5503C21.2694 34.4018 22.3939 34.0308 23.4506 33.4734C25.5887 32.3455 27.1177 30.6953 27.9719 28.4723C28.3781 27.4152 28.5374 26.3164 28.5397 25.1906C28.5429 23.53 28.5535 21.8695 28.5487 20.2089C28.5468 19.5625 28.5623 18.9099 28.4784 18.2713C28.3729 17.4689 27.9332 16.8323 27.2132 16.3996C26.6797 16.0791 26.0842 15.9776 25.4713 15.9747C24.3906 15.9697 23.31 15.9791 22.2297 15.9794C16.4826 15.9794 10.7355 15.9794 4.98839 15.9794C4.6929 15.9794 4.39613 15.9776 4.10258 16.0036C3.35806 16.0731 2.69032 16.3178 2.16839 16.8602C1.63742 17.4116 1.42419 18.0877 1.41935 18.8231C1.40882 20.8594 1.40882 22.896 1.41935 24.9328C1.42121 25.449 1.45071 25.9648 1.50774 26.478C1.66539 27.9163 2.20078 29.2911 3.06258 30.4706C4.01871 31.7903 5.21129 32.8549 6.69903 33.589C8.17161 34.3159 9.74774 34.6358 11.3897 34.6565C12.5994 34.6716 13.809 34.6593 15.0187 34.6593Z" fill="#F26422"/>
<path d="M15.7738 0C15.9877 0.041671 16.2 0.0955614 16.4158 0.123446C17.6416 0.280104 18.7938 0.665483 19.9022 1.18371C21.3796 1.873 22.6361 2.83332 23.6119 4.12104C24.6223 5.44764 25.2793 6.9964 25.5242 8.62935C25.6332 9.33713 25.6209 10.0646 25.6367 10.7837C25.66 11.8954 25.659 13.0083 25.669 14.1193C25.669 14.176 25.669 14.2327 25.669 14.2991H24.2645C24.2645 14.2365 24.2645 14.1719 24.2645 14.1067C24.2645 12.7281 24.2722 11.3496 24.2577 9.97097C24.2345 7.80533 23.4658 5.91603 21.9793 4.30308C20.5332 2.73399 18.7158 1.8235 16.5951 1.46131C14.7496 1.1458 12.9564 1.32219 11.2403 2.06789C9.63351 2.76627 8.24609 3.74381 7.23028 5.16689C6.50931 6.17765 6.07673 7.30026 5.86157 8.50935C5.70028 9.41389 5.69738 10.3266 5.69705 11.2399C5.69705 12.1952 5.70028 13.1511 5.70222 14.1064C5.70222 14.1691 5.70222 14.2292 5.70222 14.3001H4.29931V14.1193C4.29931 12.772 4.29383 11.4248 4.29931 10.0775C4.3106 7.62078 5.13802 5.45984 6.81544 3.6141C8.53566 1.72063 10.6794 0.568146 13.2467 0.156658C13.5048 0.115614 13.7658 0.078329 14.0251 0.0369713C14.0608 0.0280475 14.0955 0.0156615 14.1287 0L15.7738 0Z" fill="#F26422"/>
<path d="M22.2976 9.87198C22.3009 10.8933 22.3011 11.9143 22.3013 12.9367C22.3014 13.2277 22.3015 13.5189 22.3016 13.8103C22.2558 13.8101 22.2089 13.8097 22.1612 13.8094C22.0804 13.8088 21.9973 13.8081 21.9132 13.8082C21.9182 13.3391 21.9212 12.8683 21.9189 12.3964L21.9189 12.3961C21.9175 12.1518 21.9183 11.9035 21.9191 11.6527C21.9212 10.9721 21.9233 10.273 21.8832 9.58326L21.8832 9.58322C21.7855 7.9053 21.0698 6.48172 19.833 5.336C18.8141 4.39171 17.596 3.81766 16.2266 3.58465L16.2265 3.58463C13.1804 3.06707 10.0773 4.49059 8.70755 7.22824L8.70749 7.22837C8.24059 8.16216 8.05987 9.14606 8.06503 10.1513L8.06503 10.1514C8.07003 11.0786 8.06379 12.0043 8.05753 12.9334C8.05557 13.224 8.05361 13.5149 8.05199 13.8064H7.65438C7.65564 13.4115 7.65386 13.0204 7.65209 12.6315C7.64793 11.7203 7.64383 10.8217 7.67916 9.91724C7.78096 7.31531 9.01994 5.38797 11.3644 4.09594L11.3646 4.09581C12.6288 3.39829 14.0135 3.11979 15.4805 3.20686C18.5931 3.39178 21.177 5.45232 22.0208 8.12749L22.0213 8.12909C22.2015 8.69384 22.2946 9.28114 22.2976 9.87198ZM22.2976 9.87198C22.2976 9.87179 22.2976 9.8716 22.2976 9.87142L22.7976 9.86983M22.2976 9.87198C22.2976 9.87211 22.2976 9.87224 22.2976 9.87238L22.7976 9.86983M22.7976 9.86983C22.8009 10.8922 22.8011 11.9146 22.8013 12.9375C22.8014 13.2284 22.8015 13.5194 22.8016 13.8105L22.4976 7.97709C22.6932 8.59016 22.7943 9.22799 22.7976 9.86983ZM21.5731 14.3136C21.7638 14.3065 21.9548 14.3079 22.1459 14.3093C22.1978 14.3097 22.2498 14.3101 22.3018 14.3103V14.1313L21.9092 14.1596M21.5731 14.3136L21.5674 14.1554L21.9092 14.1596M21.5731 14.3136L21.5672 14.1554L21.4092 14.1535M21.5731 14.3136C21.4421 14.3183 21.4079 14.2725 21.4092 14.1535M21.9092 14.1596C21.9092 14.1623 21.9093 14.1619 21.9092 14.1589H21.9092C21.9092 14.1591 21.9092 14.1594 21.9092 14.1596ZM21.5672 14.1552L21.5544 13.8139L21.5672 14.1552ZM21.5672 14.1552L21.4092 14.1535M21.5672 14.1552L21.4092 14.1535M21.5674 14.1552L21.5552 13.8139L21.5674 14.1552Z" fill="black" stroke="#ABABAB"/>
<path d="M13.368 28.0637V27.528C13.368 27.4131 13.367 27.3026 13.3661 27.1948C13.364 26.9562 13.3621 26.7306 13.3709 26.4986L13.3709 26.4981C13.3879 26.0382 13.2295 25.6574 12.8928 25.338L12.8917 25.337C12.1836 24.6692 11.8638 23.8856 11.9644 22.9593L11.9644 22.9592C12.0457 22.2101 12.4395 21.613 13.0973 21.1222L13.368 28.0637ZM13.368 28.0637C13.3708 28.1474 13.3725 28.2385 13.3741 28.3232C13.3756 28.3998 13.3769 28.471 13.3789 28.527C13.385 28.6985 13.3977 28.8437 13.4273 28.9744L13.4273 28.9745C13.6104 29.7835 14.5438 30.3278 15.4362 30.0762C16.0684 29.8979 16.6068 29.3572 16.5958 28.6405C16.5958 28.6405 16.5958 28.6405 16.5958 28.6405L13.368 28.0637ZM16.2073 25.645C16.2061 25.5708 16.2154 25.5424 16.2181 25.5362M16.2073 25.645L12.9196 21.8007C13.5872 21.0242 14.4918 20.6656 15.5413 20.8871L15.5415 20.8872C16.5708 21.105 17.2642 21.7717 17.55 22.7555C17.7064 23.2817 17.6661 23.8447 17.4369 24.344C17.2081 24.8426 16.8071 25.2431 16.3081 25.4783C16.2441 25.5094 16.2229 25.5304 16.2181 25.5362M16.2073 25.645C16.2199 26.3653 16.2171 27.0885 16.2143 27.8051M16.2073 25.645L16.2143 27.8051M16.2181 25.5362C16.2181 25.5362 16.2181 25.5362 16.2181 25.5363M16.2181 25.5362C16.2181 25.5362 16.2181 25.5362 16.2181 25.5362M16.2181 25.5363L16.2188 25.5348C16.2188 25.5349 16.2186 25.5353 16.2181 25.5362M16.2181 25.5363C16.2181 25.5362 16.2181 25.5362 16.2181 25.5362C16.2181 25.5362 16.2181 25.5362 16.2181 25.5362M16.2181 25.5363L16.2181 25.5362M16.2181 25.5363C16.2174 25.5373 16.217 25.5378 16.217 25.5378C16.2169 25.5378 16.2172 25.5373 16.2181 25.5363ZM14.8889 29.8266L14.8876 29.8265C14.5975 29.8037 14.3067 29.7071 14.0886 29.4794C13.8697 29.2509 13.7872 28.9565 13.7817 28.6658C13.7817 28.6652 13.7816 28.6646 13.7816 28.664L14.2816 28.655L14.8889 29.8266ZM14.8889 29.8266C15.1882 29.8492 15.4909 29.7868 15.7393 29.5989C15.9902 29.4089 16.1312 29.1318 16.1795 28.8302L16.1795 28.8297M14.8889 29.8266L16.1795 28.8297M16.1795 28.8297C16.2008 28.6964 16.2117 28.5616 16.2122 28.4266L16.2122 28.4257M16.1795 28.8297L16.2122 28.4257M16.2122 28.4257C16.2126 28.2196 16.2134 28.0126 16.2143 27.8051M16.2122 28.4257L16.2143 27.8051M12.3535 23.5618L12.3534 23.5616C12.2768 22.8849 12.5017 22.2866 12.9195 21.8008L12.3535 23.5618ZM12.3535 23.5618C12.4563 24.4665 12.9912 25.0877 13.7026 25.5011L13.7027 25.5011M12.3535 23.5618L13.7027 25.5011M13.7027 25.5011C13.7327 25.5186 13.7486 25.5312 13.7561 25.538L13.7027 25.5011ZM13.0974 21.1221C14.3261 20.2072 16.2232 20.3501 17.2462 21.4185L13.0974 21.1221Z" fill="black" stroke="#ABABAB"/>
</svg>
