<svg width="15" height="15" viewBox="0 0 15 15" fill="none" xmlns="http://www.w3.org/2000/svg">
<path d="M7.20918 0H7.79082C7.81553 0.00525543 7.84052 0.00908826 7.86566 0.0114796C8.32956 0.0297615 8.79043 0.0948884 9.24122 0.205867C11.111 0.67148 12.5952 1.69628 13.6938 3.28026C14.4066 4.30959 14.8223 5.45372 14.9559 6.7001C14.9724 6.85423 14.9855 7.00883 15 7.16327V7.83673C14.9954 7.86918 14.9882 7.90163 14.9864 7.93423C14.9452 8.6801 14.799 9.40531 14.5322 10.1027C13.8168 11.9715 12.5626 13.3526 10.7694 14.2457C9.98663 14.6357 9.15536 14.8674 8.2849 14.9559C8.12036 14.9728 7.95551 14.9855 7.79082 15H7.20918C7.09775 14.9904 6.98648 14.9803 6.8749 14.9712C6.08083 14.9088 5.30241 14.7163 4.57071 14.4015C3.16643 13.7968 2.04551 12.8542 1.20796 11.5737C0.557041 10.5771 0.169286 9.48571 0.0446939 8.29959C0.027551 8.14546 0.0153061 7.99102 0 7.83673V7.16327C0.00443878 7.13357 0.0113265 7.10388 0.0130102 7.07403C0.0412073 6.52363 0.132886 5.97834 0.286225 5.44898C0.727041 3.9298 1.56138 2.67097 2.78923 1.6725C3.93321 0.744541 5.23934 0.201939 6.7076 0.0446939C6.87429 0.0266327 7.04189 0.0153061 7.20918 0ZM14.2632 7.50582C14.2694 3.79332 11.2405 0.749388 7.52847 0.73852C3.78857 0.7275 0.742347 3.75719 0.736684 7.49388C0.731174 11.2097 3.76347 14.2535 7.47872 14.2615C11.2149 14.2694 14.2569 11.2404 14.2632 7.50582Z" fill="#F26422"/>
<path d="M7.50425 6.97807C7.52325 6.95103 7.54369 6.92502 7.56548 6.90016C8.53364 5.93128 9.50186 4.96261 10.4701 3.99413C10.5485 3.91577 10.6336 3.85638 10.7486 3.85255C10.9038 3.84765 11.0218 3.91271 11.092 4.05031C11.1623 4.18791 11.1461 4.32199 11.0541 4.44567C11.0332 4.47145 11.0106 4.4957 10.9863 4.51822L7.79507 7.71032C7.59242 7.91287 7.39083 7.91287 7.19032 7.71032C6.66175 7.17419 6.13374 6.63792 5.60629 6.10149C5.39338 5.88445 5.48123 5.54404 5.76822 5.47393C5.91149 5.43858 6.03287 5.48358 6.13557 5.58873C6.54302 6.00353 6.95119 6.41766 7.36007 6.83113C7.40476 6.87552 7.44869 6.92129 7.50425 6.97807Z" fill="#F26422"/>
<path d="M13.0043 7.75516C12.8436 7.75516 12.6829 7.75714 12.5223 7.75439C12.4015 7.7524 12.3092 7.68383 12.2774 7.58112C12.2468 7.48162 12.276 7.37264 12.3627 7.31615C12.4111 7.28409 12.4672 7.26569 12.5252 7.26289C12.844 7.25799 13.1629 7.25875 13.4816 7.2612C13.6316 7.26227 13.7407 7.36835 13.7418 7.50611C13.7428 7.64387 13.6319 7.75271 13.4777 7.75516C13.3205 7.75699 13.1624 7.75516 13.0043 7.75516Z" fill="#F26422"/>
<path d="M1.99064 7.75477C1.83008 7.75477 1.66921 7.75599 1.5088 7.75477C1.39952 7.7537 1.31656 7.70441 1.27293 7.60278C1.23191 7.50712 1.24447 7.40977 1.32237 7.34258C1.37227 7.29972 1.44727 7.26605 1.51202 7.2639C1.83053 7.25594 2.14936 7.25855 2.46803 7.26099C2.6188 7.26207 2.72548 7.36661 2.72732 7.50589C2.72915 7.64732 2.62017 7.75232 2.46482 7.75477C2.30946 7.75722 2.14875 7.75477 1.99064 7.75477Z" fill="#F26422"/>
<path d="M7.73911 13.0155C7.73911 13.1711 7.74033 13.3266 7.73911 13.4821C7.73788 13.6376 7.63579 13.7459 7.49283 13.7454C7.34987 13.7449 7.24793 13.6364 7.24701 13.48C7.24579 13.1663 7.24579 12.8527 7.24701 12.5391C7.24701 12.3815 7.34742 12.2742 7.49191 12.273C7.63977 12.2716 7.7388 12.3775 7.74003 12.5411C7.74003 12.6992 7.73911 12.8572 7.73911 13.0155Z" fill="#F26422"/>
<path d="M7.73848 1.98274C7.73848 2.13825 7.73971 2.29376 7.73848 2.44927C7.7368 2.60708 7.63655 2.71223 7.49191 2.71147C7.35002 2.71147 7.24701 2.60142 7.24701 2.44575C7.24579 2.13208 7.24579 1.81851 7.24701 1.50504C7.24701 1.34815 7.34895 1.23994 7.49191 1.23902C7.63486 1.2381 7.7368 1.34433 7.7391 1.50091C7.73986 1.66147 7.73848 1.82218 7.73848 1.98274Z" fill="#F26422"/>
</svg>
