<svg width="13" height="13" viewBox="0 0 13 13" fill="none" xmlns="http://www.w3.org/2000/svg">
<path d="M9.8327 12.9998C9.69926 12.9857 9.56568 12.9722 9.43224 12.9572C8.95182 12.9035 8.48832 12.7738 8.03234 12.6114C7.3076 12.3535 6.6229 12.0058 5.96582 11.5963C5.02805 11.0144 4.16545 10.3084 3.39922 9.4958C2.60928 8.6565 1.87947 7.76487 1.26085 6.77721C0.863417 6.14269 0.522081 5.47768 0.282668 4.75973C0.092989 4.19074 -0.0209342 3.60568 0.00320941 3.00013C0.0321239 2.27945 0.227586 1.61975 0.686749 1.06562C1.01464 0.670167 1.42407 0.398187 1.88945 0.216159C2.16761 0.106183 2.45343 0.0313999 2.75081 0.0106183C2.76481 0.00831915 2.77859 0.00476674 2.79202 0L2.95105 0C3.05008 0.0172927 3.15084 0.0273042 3.248 0.0529399C3.64124 0.156393 3.91202 0.411232 4.07452 0.798952C4.33128 1.41163 4.52053 2.04933 4.7076 2.68749C4.81213 3.04397 4.90379 3.40438 5.00875 3.7607C5.03535 3.85172 5.01655 3.90435 4.95381 3.96746C4.52096 4.40235 4.09201 4.84134 3.65367 5.28716C3.73015 5.43885 3.8033 5.59433 3.88498 5.74466C4.41282 6.71972 5.09115 7.561 5.9317 8.25513C6.44161 8.67607 6.9959 9.01555 7.61366 9.23414C7.65602 9.24931 7.68161 9.24415 7.71414 9.21139C8.07398 8.84991 8.437 8.49116 8.79583 8.12908C8.84397 8.08069 8.88662 8.06552 8.95486 8.07902C9.51146 8.19036 10.0705 8.28926 10.6261 8.40637C11.1554 8.51786 11.685 8.63102 12.1985 8.81183C12.6879 8.98431 12.9358 9.38826 12.9855 9.89232C12.9884 9.92266 12.9949 9.95148 13 9.98106V10.2693C12.9957 10.2964 12.9922 10.3237 12.9866 10.3506C12.9506 10.5194 12.9313 10.6949 12.8744 10.8556C12.7039 11.336 12.4233 11.7432 12.0705 12.0949C11.6036 12.5604 11.0571 12.8626 10.4146 12.9595C10.3034 12.9762 10.1914 12.9867 10.0796 13L9.8327 12.9998ZM9.86162 12.4139C10.1922 12.4216 10.5206 12.3574 10.8264 12.2253C11.4759 11.9467 11.9439 11.459 12.2693 10.8155C12.426 10.5056 12.473 10.1745 12.3882 9.83195C12.3286 9.59122 12.2018 9.40722 11.9565 9.34078C11.8799 9.32015 11.8058 9.2889 11.7294 9.26797C10.8751 9.03345 10.006 8.87357 9.13846 8.70808C9.08064 8.69701 9.04507 8.71475 9.00546 8.75358C8.62755 9.12775 8.24872 9.50147 7.86897 9.87473C7.84006 9.90385 7.81519 9.92964 7.76329 9.9122C7.3279 9.76547 6.90799 9.57232 6.51013 9.33577C5.84438 8.94199 5.23618 8.4496 4.70428 7.87378C3.96999 7.08393 3.39749 6.18228 3.01148 5.15307C2.99702 5.1156 2.99818 5.09315 3.02883 5.06205C3.45907 4.63145 3.88855 4.1998 4.31726 3.76707C4.3495 3.73476 4.35629 3.70791 4.34299 3.6618C4.21287 3.21067 4.09404 2.75606 3.95713 2.30751C3.83554 1.90948 3.69849 1.5169 3.56215 1.12251C3.48148 0.889511 3.31306 0.751321 3.08969 0.682606C2.8883 0.620716 2.68489 0.627694 2.48335 0.675931C2.15011 0.755872 1.85056 0.913782 1.57486 1.12251C0.935269 1.60792 0.610125 2.2661 0.61186 3.09569C0.61186 3.4687 0.672581 3.83442 0.762939 4.19423C0.956088 4.96391 1.27328 5.67776 1.66016 6.3587C2.16041 7.24137 2.77058 8.05012 3.47454 8.7636C4.42641 9.72804 5.45259 10.5937 6.59861 11.2952C7.15464 11.6355 7.73365 11.9239 8.34794 12.1294C8.8405 12.2933 9.34159 12.4083 9.86089 12.4139H9.86162Z" fill="#F26422"/>
</svg>
