<svg width="13" height="13" viewBox="0 0 13 13" fill="none" xmlns="http://www.w3.org/2000/svg">
<path d="M6.52903 12.9997C4.68526 12.9997 2.84149 12.9997 0.997718 12.9997C0.520122 12.9997 0.169805 12.7542 0.0425257 12.3251C0.0140864 12.22 0.000768617 12.1112 0.00297383 12.0023C0.000991275 9.94422 0 7.88613 0 5.82805C0 5.34601 0.211142 5.02049 0.658108 4.83808C1.07087 4.66937 1.47621 4.4828 1.88987 4.31707C2.00882 4.26916 2.03677 4.20489 2.03618 4.08646C2.03202 3.0599 2.03142 2.03334 2.03439 1.00678C2.03439 0.533664 2.28657 0.161126 2.68596 0.0471624C2.8004 0.0160496 2.91858 0.000830925 3.03717 0.0019341C5.35199 -0.000644701 7.66662 -0.000644701 9.98105 0.0019341C10.6127 -0.000148777 11.0032 0.393813 11.0061 1.03445C11.0088 2.06101 11.01 3.08757 11.0032 4.11413C11.0032 4.25785 11.0507 4.32242 11.1789 4.37211C11.6208 4.54737 12.0574 4.73662 12.4972 4.91753C12.8261 5.05262 12.9989 5.29185 12.9989 5.65011C12.9989 7.78268 13.0025 9.91496 12.9968 12.0475C12.9953 12.6411 12.6138 12.9997 12.0154 12.9997C10.1867 13.0001 8.35794 13.0001 6.52903 12.9997ZM0.578112 5.82299V5.99974C0.578112 7.99752 0.578112 9.9954 0.578112 11.9934C0.578112 12.3612 0.685764 12.4674 1.05838 12.4674H11.9845C12.3551 12.4674 12.4725 12.3501 12.4725 11.9788V5.8212C12.4077 5.8578 12.3652 5.88071 12.3238 5.90511C10.5693 7.00368 8.81115 8.09809 7.06016 9.2038C6.66167 9.45583 6.2831 9.4347 5.90542 9.19755C4.71976 8.45039 3.53885 7.69847 2.35349 6.94834L0.578112 5.82299ZM6.50703 0.56699H3.04252C2.69012 0.56699 2.56136 0.697021 2.56136 1.05349C2.56136 2.76721 2.56136 4.48062 2.56136 6.19374C2.5618 6.19869 2.5618 6.20367 2.56136 6.20862C2.53935 6.32943 2.60031 6.39429 2.69934 6.45589C3.89343 7.20076 5.08524 7.94862 6.27477 8.69945C6.44874 8.80954 6.59357 8.80657 6.76694 8.69736C7.94398 7.95368 9.1236 7.21465 10.3058 6.48029C10.4084 6.41661 10.4411 6.34639 10.4408 6.22945C10.4374 4.50363 10.4366 2.77782 10.4384 1.052C10.4384 0.694938 10.3094 0.566692 9.95577 0.566692L6.50703 0.56699ZM0.925752 5.34065L2.02607 6.03009V4.8723L0.925752 5.34065ZM11.0168 4.91604V6.03038L12.0874 5.36029L11.0168 4.91604Z" fill="#F26422"/>
<path d="M6.71253 5.30774C6.56384 5.39135 6.43389 5.49282 6.28787 5.53864C5.8079 5.6892 5.34844 5.42319 5.22176 4.93282C5.10102 4.46507 5.21551 4.03123 5.42992 3.61436C5.57237 3.33704 5.77399 3.11923 6.06454 2.99366C6.46511 2.82078 6.81781 2.91511 7.1372 3.18886C7.15593 3.20492 7.17229 3.22397 7.19043 3.24063C7.1931 3.24331 7.19935 3.24063 7.21541 3.24331C7.21838 3.21206 7.22195 3.18082 7.22463 3.14928C7.23831 2.99187 7.35012 2.8919 7.48751 2.91511C7.6249 2.93831 7.70639 3.06567 7.66594 3.21921C7.56156 3.6218 7.45212 4.0226 7.34953 4.42638C7.30508 4.5885 7.27101 4.75328 7.24752 4.91973C7.22849 5.07475 7.28916 5.1173 7.44053 5.06851C7.91634 4.91497 8.23721 4.6073 8.32286 4.10294C8.39988 3.64887 8.39512 3.19897 8.08198 2.81632C7.84199 2.52293 7.51963 2.36552 7.15117 2.3072C6.5692 2.21496 6.0009 2.25156 5.48583 2.56935C4.84884 2.96212 4.58982 3.57478 4.52737 4.29129C4.49985 4.62958 4.57232 4.9685 4.73575 5.26592C4.89917 5.56334 5.14636 5.80614 5.44658 5.96414C5.88938 6.19267 6.36549 6.26348 6.85825 6.24563C7.38521 6.22629 7.87679 6.09685 8.29342 5.75734C8.37461 5.69099 8.42427 5.58684 8.50159 5.51275C8.56434 5.45176 8.64165 5.37737 8.71927 5.36874C8.78261 5.36189 8.89027 5.42825 8.91554 5.48954C8.93003 5.53161 8.93587 5.57618 8.9327 5.62057C8.92953 5.66495 8.91742 5.70824 8.89711 5.74782C8.57772 6.29413 8.06444 6.54765 7.4661 6.65685C6.75 6.78777 6.04402 6.74612 5.36212 6.47832C4.91783 6.30425 4.58893 5.99717 4.34745 5.58179C3.77142 4.58677 4.0578 3.09959 4.91248 2.38873C5.30919 2.05815 5.76953 1.87991 6.27836 1.82338C6.87074 1.7597 7.44826 1.80017 7.97344 2.11796C8.49861 2.43575 8.76685 2.90975 8.82425 3.50724C8.86618 3.94435 8.80997 4.37015 8.58634 4.75875C8.2726 5.30357 7.78817 5.5681 7.16872 5.58536C6.95877 5.5919 6.76963 5.53209 6.71253 5.30774ZM5.63066 4.4856C5.64315 4.92419 5.83347 5.15004 6.14126 5.13307C6.38482 5.11968 6.56563 4.97359 6.66555 4.76649C6.78387 4.51668 6.88019 4.25702 6.95341 3.99047C7.01824 3.75986 6.92368 3.56645 6.73722 3.451C6.55879 3.33972 6.27895 3.35608 6.10706 3.48581C5.75169 3.75391 5.70887 4.16037 5.63066 4.4856Z" fill="#F26422"/>
</svg>
