<svg width="11" height="15" viewBox="0 0 11 15" fill="none" xmlns="http://www.w3.org/2000/svg">
<path d="M5.56297 0C5.68886 0.00994898 5.81458 0.0238775 5.94078 0.0292347C6.49438 0.0521939 7.02398 0.177704 7.53657 0.374847C8.30334 0.666479 8.99144 1.12178 9.5491 1.70648C10.2526 2.44117 10.7094 3.30031 10.9052 4.28541C10.9967 4.74079 11.0222 5.2062 10.9807 5.66832C10.9411 6.10056 10.8098 6.51245 10.6596 6.91837C10.3705 7.70051 9.99351 8.44439 9.5863 9.1748C8.98585 10.2502 8.3291 11.2956 7.61858 12.3069C7.08565 13.0667 6.53364 13.8139 5.98576 14.5639C5.89643 14.6864 5.78819 14.7961 5.6817 14.9054C5.64244 14.9463 5.5822 14.9694 5.53118 15H5.45171C5.27687 14.9235 5.17944 14.7704 5.0712 14.6317C4.38679 13.7541 3.74482 12.8472 3.13114 11.9235C2.67244 11.2334 2.22676 10.5353 1.79412 9.82913C1.3033 9.02679 0.864777 8.19827 0.505089 7.33286C0.313404 6.87153 0.144924 6.40255 0.0555982 5.91199C-0.00289281 5.59026 -0.0116347 5.26531 0.0126836 4.9376C0.040072 4.53787 0.114728 4.14246 0.235204 3.75903C0.450889 3.08464 0.78308 2.46995 1.25864 1.9298C1.7849 1.33163 2.4016 0.846888 3.14259 0.514898C3.6655 0.281123 4.2212 0.122495 4.79194 0.0440816C4.88508 0.0306122 4.9779 0.0153061 5.07025 0H5.56297ZM5.50655 14.1161C5.54231 14.0764 5.56456 14.0548 5.58252 14.031C5.80997 13.7248 6.04139 13.4222 6.26264 13.1126C7.20628 11.7918 8.13006 10.4591 8.9235 9.04699C9.30068 8.37566 9.65718 7.69485 9.94249 6.98189C10.1367 6.49668 10.3133 6.00704 10.339 5.47821C10.3608 5.03265 10.3316 4.59276 10.2141 4.16189C9.9339 3.12765 9.36298 2.27173 8.48609 1.61235C7.66897 0.997959 6.73645 0.67699 5.70364 0.63C5.20439 0.608552 4.70476 0.663521 4.2234 0.792857C3.26354 1.04648 2.46168 1.54041 1.81255 2.26224C1.38515 2.73558 1.06475 3.28942 0.87177 3.88852C0.759503 4.23505 0.690147 4.59315 0.665145 4.95536C0.642734 5.2748 0.64925 5.59209 0.712827 5.90587C0.798339 6.33015 0.952354 6.73469 1.12147 7.13342C1.56921 8.18862 2.13553 9.18551 2.74269 10.1616C3.47383 11.3391 4.26441 12.4805 5.09187 13.5973C5.21981 13.7709 5.36159 13.9353 5.50702 14.1161H5.50655Z" fill="#F26422"/>
<path d="M3.25056 4.64078C3.23324 3.56936 4.17482 2.59742 5.28504 2.5114C6.70583 2.40119 7.70097 3.4515 7.75692 4.49078C7.83385 5.90599 6.81264 6.75839 5.67031 6.85344C4.48937 6.95155 3.21941 6.05247 3.25056 4.64078ZM5.50247 3.14415C5.39693 3.14951 5.2906 3.14905 5.18586 3.16175C4.8659 3.20033 4.60349 3.35201 4.38049 3.56629C3.97312 3.95783 3.82864 4.43721 3.9186 4.97737C3.98122 5.3539 4.18753 5.65803 4.50399 5.88732C4.90405 6.17675 5.34496 6.31436 5.84738 6.19971C6.70472 6.00395 7.32094 5.16242 7.04994 4.22813C6.89704 3.70068 6.29019 3.09946 5.50247 3.14415Z" fill="#F26422"/>
</svg>
