<svg width="26" height="25" viewBox="0 0 26 25" fill="none" xmlns="http://www.w3.org/2000/svg">
<path d="M12.497 24.9996H0.161007C-0.0269991 24.9996 0.00164629 25.0108 0.00164629 24.8373C0.000548762 20.7738 0 16.7104 0 12.6472C0 12.5059 0 12.5056 0.145202 12.5056C0.973394 12.5056 1.80126 12.5056 2.62879 12.5056C2.71143 12.5056 2.76049 12.5036 2.76049 12.3933C2.76543 12.149 2.79045 11.9054 2.80922 11.6617C2.83161 11.3693 2.85696 11.0776 2.87837 10.7852C2.89285 10.5827 2.90207 10.3799 2.91524 10.1774C2.93533 9.86891 2.95706 9.5604 2.97747 9.25188C2.98998 9.06157 2.99953 8.87093 3.01237 8.68029C3.03476 8.35499 3.05979 8.03001 3.08185 7.7047C3.09568 7.49925 3.10489 7.29379 3.11905 7.08866C3.14045 6.78081 3.16482 6.47328 3.1849 6.16674C3.19807 5.9761 3.20861 5.78546 3.22079 5.59482C3.24154 5.27116 3.26327 4.9475 3.28335 4.62385C3.28599 4.57219 3.28599 4.52042 3.28335 4.46876C3.28039 4.38546 3.31331 4.35122 3.40188 4.35155C4.12032 4.35418 4.83843 4.3532 5.55687 4.35155C6.01948 4.35155 6.48209 4.35155 6.94469 4.34859C7.01054 4.34859 7.03227 4.36702 7.03655 4.43617C7.05565 4.7618 7.08298 5.08711 7.10471 5.41242C7.1192 5.63302 7.1271 5.85395 7.14159 6.07422C7.16035 6.36463 7.18307 6.65437 7.20283 6.94478C7.21567 7.13509 7.22555 7.32573 7.23839 7.51637C7.26078 7.83904 7.28481 8.16171 7.3072 8.48439C7.32037 8.67437 7.33124 8.86468 7.34441 9.05466C7.36713 9.38029 7.39182 9.7056 7.41355 10.0312C7.42639 10.2219 7.4343 10.4125 7.44648 10.6028C7.46722 10.9235 7.48961 11.2442 7.51068 11.5646C7.5232 11.758 7.53527 11.9514 7.5469 12.1447C7.55316 12.2435 7.55579 12.3443 7.56765 12.4434C7.57028 12.4654 7.60288 12.4908 7.62757 12.5013C7.65417 12.5072 7.68164 12.5081 7.70857 12.504H14.0046C14.1488 12.504 14.1488 12.504 14.1488 12.3597C14.1488 11.0866 14.1482 9.81436 14.1469 8.54299C14.1442 8.50755 14.1508 8.47203 14.166 8.43989C14.1812 8.40775 14.2044 8.38008 14.2335 8.3596C14.5693 8.10146 14.904 7.84189 15.2377 7.5809C15.6745 7.24067 16.1112 6.90044 16.5478 6.56021C16.9373 6.25762 17.3288 5.95734 17.718 5.65442C18.1503 5.31825 18.5806 4.97977 19.0126 4.64327C19.1799 4.51157 19.3514 4.38843 19.5161 4.25508C19.5645 4.2159 19.5911 4.22808 19.6313 4.25969C19.9913 4.54219 20.3517 4.82392 20.7126 5.10489C21.1383 5.43415 21.5657 5.7634 21.9908 6.09266C22.6405 6.59752 23.2896 7.10359 23.938 7.61087C24.2672 7.86725 24.5973 8.12297 24.9281 8.37803C24.9526 8.39548 24.9722 8.419 24.985 8.4463C24.9977 8.4736 25.0032 8.50374 25.0008 8.53377C24.9962 8.73133 25.0008 8.92888 25.0008 9.12644C25.0008 14.3616 25.0008 19.5968 25.0008 24.832C25.0008 25.0167 25.0176 24.9999 24.8362 24.9999L12.497 24.9996ZM3.76901 13.579H1.21562C1.08391 13.579 1.08391 13.579 1.08391 13.7133C1.08391 17.0704 1.08391 20.4274 1.08391 23.7843C1.08391 23.9381 1.06778 23.9232 1.21891 23.9232H23.7901C23.8141 23.9273 23.8386 23.9266 23.8623 23.9209C23.888 23.9091 23.9084 23.8882 23.9199 23.8623C23.9259 23.8298 23.9269 23.7964 23.9228 23.7636V13.9201C23.9228 12.3037 23.9228 10.6874 23.9228 9.07145C23.9228 9.00823 23.9172 8.95555 23.8603 8.91176C23.5248 8.65296 23.1919 8.39121 22.8577 8.13109C22.2914 7.69055 21.725 7.25044 21.1587 6.81077C20.6842 6.44178 20.2083 6.07323 19.7311 5.70513C19.574 5.5833 19.573 5.58067 19.4179 5.70052C18.9583 6.05611 18.4994 6.41259 18.0413 6.76994C17.4776 7.20895 16.9138 7.64708 16.3499 8.08434C16.0131 8.34774 15.6809 8.61411 15.3384 8.86863C15.2456 8.93777 15.2193 9.00659 15.2196 9.11623C15.2233 10.5586 15.2241 12.0013 15.2219 13.4443V13.5727C15.1827 13.5754 15.156 13.5787 15.1294 13.5787C11.7543 13.5787 8.37894 13.5793 5.00339 13.5806C4.92272 13.5806 4.89803 13.5569 4.89935 13.4772C4.90297 13.1914 4.90461 12.905 4.89935 12.6192C4.89737 12.5234 4.93227 12.503 5.02051 12.504C5.47983 12.5079 5.93947 12.504 6.39911 12.5069C6.47649 12.5069 6.50151 12.4809 6.49526 12.4055C6.47616 12.1642 6.46068 11.9228 6.44455 11.6811C6.43171 11.4941 6.42117 11.3068 6.40767 11.1198C6.38528 10.8122 6.35993 10.5054 6.3382 10.1978C6.32371 9.996 6.31416 9.79351 6.30132 9.59135C6.28091 9.27691 6.25918 8.96247 6.23876 8.64803C6.22625 8.45047 6.2167 8.25292 6.2032 8.058C6.18147 7.73203 6.15744 7.4064 6.13505 7.08043C6.12221 6.89045 6.11134 6.70014 6.09784 6.51016C6.07545 6.19078 6.0501 5.87173 6.02936 5.55235C6.02211 5.43941 6.0208 5.43184 5.91049 5.43184H4.4397C4.31393 5.43184 4.30471 5.44172 4.29944 5.57079C4.29417 5.71006 4.28989 5.84934 4.28034 5.98829C4.25927 6.29614 4.23392 6.60367 4.21449 6.91021C4.20033 7.11599 4.19177 7.32211 4.17893 7.52789C4.15852 7.85155 4.13679 8.17488 4.11604 8.49821C4.10386 8.68819 4.093 8.87851 4.0795 9.06849C4.05711 9.39083 4.03208 9.71317 4.00936 10.0352C3.99586 10.2285 3.98533 10.4217 3.97249 10.615C3.95109 10.9265 3.92771 11.2376 3.90664 11.5488C3.8938 11.7486 3.88721 11.9488 3.87371 12.1487C3.85264 12.4595 3.8286 12.7697 3.80588 13.0802C3.7937 13.2438 3.78152 13.4058 3.76901 13.579Z" fill="white"/>
<path d="M8.17458 1.0841C8.85143 1.09602 9.51903 1.24347 10.1379 1.51773C10.2216 1.55461 10.2746 1.55066 10.3493 1.48481C10.5129 1.33622 10.6853 1.19768 10.8656 1.06994C11.3674 0.711713 11.91 0.42921 12.5033 0.259313C12.8176 0.174163 13.1364 0.106669 13.4582 0.0571495C13.6735 0.0241124 13.8909 0.00639782 14.1088 0.00413914C14.3185 -0.00112897 14.4963 0.0828316 14.6027 0.270837C14.6559 0.35702 14.683 0.456775 14.6807 0.55804C14.6784 0.659304 14.6469 0.757739 14.5898 0.84144C14.5457 0.914632 14.4835 0.975317 14.4093 1.01773C14.3351 1.06014 14.2512 1.08288 14.1657 1.08377C13.8418 1.09497 13.5191 1.12131 13.2033 1.19901C12.4746 1.38112 11.791 1.71081 11.1949 2.16769C10.9512 2.35372 10.728 2.56938 10.4995 2.77714C10.4484 2.82324 10.4112 2.8262 10.3559 2.79525C10.0339 2.61647 9.68949 2.49201 9.34048 2.37874C9.05195 2.28723 8.75467 2.22598 8.45346 2.196C7.80351 2.12686 7.19438 2.26186 6.61785 2.55588C6.3234 2.70634 6.04979 2.8945 5.80393 3.11562C5.58991 3.30626 5.3591 3.33326 5.10097 3.15315C4.91296 3.02145 4.82801 2.72841 4.94391 2.50814C5.01364 2.38795 5.10587 2.28231 5.21555 2.19699C5.51147 1.95069 5.83578 1.74067 6.18159 1.5714C6.63401 1.34481 7.12168 1.19684 7.62373 1.13382C7.8068 1.11077 7.99086 1.09991 8.17458 1.0841Z" fill="white"/>
<path d="M13.72 3.81355C13.5205 3.82277 13.3361 3.78952 13.1932 3.63575C13.0401 3.47113 13.0095 3.27357 13.0855 3.06811C13.1645 2.85541 13.3321 2.74182 13.5577 2.72437C13.9413 2.69474 14.3278 2.69144 14.7081 2.63778C15.1995 2.56668 15.6793 2.43094 16.1351 2.23411C16.496 2.08357 16.8402 1.89598 17.1624 1.67437C17.7221 1.28749 18.2038 0.824227 18.5762 0.25132C18.6397 0.150286 18.7351 0.0732765 18.8472 0.0324381C18.9594 -0.00840026 19.0819 -0.0107434 19.1955 0.0257784C19.4112 0.0896543 19.5716 0.313878 19.5686 0.55259C19.5666 0.708987 19.4906 0.83641 19.4003 0.957247C19.167 1.27539 18.905 1.57153 18.6177 1.84196C18.2018 2.22917 17.7557 2.57851 17.2529 2.84817C16.9477 3.01543 16.634 3.16687 16.3132 3.30189C15.84 3.49828 15.3431 3.63188 14.8352 3.6993C14.5599 3.73453 14.2834 3.75923 14.0074 3.78787C13.9126 3.79775 13.8165 3.80499 13.72 3.81355Z" fill="white"/>
<path d="M4.90141 16.2953C4.85861 16.2973 4.82601 16.3 4.79342 16.3C4.13918 16.3 3.48495 16.3 2.83104 16.3016C2.75071 16.3016 2.71943 16.2851 2.7214 16.1969C2.727 15.9048 2.72502 15.6128 2.7214 15.3207C2.7214 15.2516 2.73786 15.2253 2.81261 15.2256C3.47573 15.2282 4.13896 15.2282 4.80231 15.2256C4.87606 15.2256 4.90339 15.2457 4.90108 15.3244C4.89911 15.6431 4.90141 15.9625 4.90141 16.2953Z" fill="white"/>
<path d="M8.14819 15.2348V16.295C8.11263 16.297 8.08003 16.3003 8.04777 16.3003C7.39716 16.3003 6.74621 16.2983 6.0956 16.3029C6.00111 16.3029 5.97707 16.2752 5.97872 16.1847C5.98365 15.8959 5.98102 15.6069 5.97872 15.3181C5.97872 15.2628 5.98629 15.2262 6.05708 15.2266C6.73798 15.2285 7.41922 15.2266 8.10045 15.2282C8.11648 15.2294 8.13243 15.2316 8.14819 15.2348Z" fill="white"/>
<path d="M14.669 15.2345V16.2943C14.6337 16.2963 14.6031 16.2999 14.5702 16.2999C13.9166 16.2999 13.263 16.2999 12.6095 16.3016C12.5334 16.3016 12.5024 16.2871 12.5041 16.2028C12.5094 15.9048 12.5071 15.6069 12.5041 15.3092C12.5041 15.2546 12.5146 15.2262 12.5785 15.2266C13.2594 15.2285 13.9406 15.2266 14.6199 15.2282C14.6364 15.2294 14.6527 15.2315 14.669 15.2345Z" fill="white"/>
<path d="M16.8603 15.2345C16.8883 15.2318 16.9116 15.2275 16.9353 15.2275C17.2366 15.2275 17.5376 15.2275 17.8388 15.2275C17.9047 15.2275 17.9281 15.246 17.9281 15.3148C17.9256 15.9812 17.9256 16.6475 17.9281 17.3137C17.9281 17.3756 17.9113 17.3993 17.8461 17.3987C17.5418 17.396 17.2375 17.396 16.933 17.3987C16.8744 17.3987 16.853 17.3789 16.853 17.3193C16.8543 16.6437 16.8543 15.9681 16.853 15.2927C16.854 15.2733 16.858 15.2559 16.8603 15.2345Z" fill="white"/>
<path d="M19.0357 15.2335C19.0617 15.2312 19.0825 15.2275 19.1032 15.2275C19.4074 15.2275 19.7117 15.2275 20.0159 15.2275C20.0765 15.2275 20.1025 15.2424 20.1022 15.3085C20.1006 15.978 20.1006 16.6475 20.1022 17.317C20.1022 17.3829 20.0775 17.399 20.0162 17.3987C19.7153 17.3964 19.414 17.397 19.1128 17.3987C19.0604 17.3987 19.0265 17.3914 19.0265 17.3256C19.0285 16.6407 19.0292 15.9561 19.0288 15.2717C19.0301 15.2588 19.0324 15.246 19.0357 15.2335Z" fill="white"/>
<path d="M21.2082 15.2275H21.4199C21.6754 15.2275 21.9309 15.2295 22.1867 15.2275C22.2526 15.2275 22.2776 15.245 22.2773 15.3145C22.2753 15.9809 22.2753 16.6474 22.2773 17.314C22.2773 17.3759 22.2588 17.3993 22.194 17.3987C21.8897 17.396 21.5854 17.396 21.2809 17.3987C21.2227 17.3987 21.2006 17.3792 21.2009 17.3193C21.2022 16.6388 21.2028 15.9572 21.2026 15.2743C21.2022 15.2634 21.2042 15.2545 21.2082 15.2275Z" fill="white"/>
<path d="M17.9218 19.028C17.9238 19.0728 17.9264 19.1057 17.9264 19.1383C17.9264 19.7866 17.9248 20.4346 17.9287 21.0809C17.9287 21.1735 17.9047 21.2001 17.8118 21.1982C17.5231 21.1922 17.2337 21.1942 16.9449 21.1982C16.8735 21.1982 16.8517 21.1771 16.8521 21.105C16.8547 20.4445 16.8547 19.7842 16.8521 19.1242C16.8521 19.0481 16.8758 19.0254 16.9508 19.0254C17.2702 19.03 17.5896 19.028 17.9218 19.028Z" fill="white"/>
<path d="M19.0273 21.1896V20.9417C19.0273 20.3392 19.029 19.737 19.0273 19.1344C19.0273 19.0498 19.0514 19.0251 19.1353 19.0264C19.4273 19.031 19.7194 19.031 20.0118 19.0264C20.0859 19.0264 20.104 19.0505 20.104 19.1199C20.102 19.7804 20.102 20.4408 20.104 21.1011C20.104 21.1768 20.081 21.1998 20.0052 21.1998C19.7089 21.1962 19.4149 21.1998 19.1199 21.1998C19.0919 21.1966 19.0639 21.1926 19.0273 21.1896Z" fill="white"/>
<path d="M21.2012 21.1864V20.8314C21.2012 20.2654 21.2028 19.6994 21.1992 19.1331C21.1992 19.0485 21.2242 19.0241 21.3079 19.0254C21.5998 19.0301 21.892 19.0301 22.1844 19.0254C22.2578 19.0254 22.2775 19.0491 22.2772 19.119C22.2752 19.7794 22.2752 20.4399 22.2772 21.1004C22.2772 21.1501 22.2828 21.1992 22.2064 21.1976C21.8897 21.1949 21.5733 21.1976 21.2568 21.1976C21.2381 21.195 21.2195 21.1913 21.2012 21.1864Z" fill="white"/>
<path d="M16.8533 13.5723V13.4797C16.8533 12.8291 16.855 12.1785 16.8517 11.5279C16.8517 11.4482 16.8724 11.4235 16.9534 11.4249C17.2451 11.4291 17.5372 11.4285 17.8289 11.4249C17.9033 11.4249 17.9277 11.4446 17.9277 11.5217C17.9251 12.1751 17.9251 12.8288 17.9277 13.4827C17.9277 13.5591 17.9053 13.5815 17.8289 13.5798C17.5342 13.5756 17.2392 13.5782 16.9442 13.5779C16.9189 13.5782 16.8909 13.5749 16.8533 13.5723Z" fill="white"/>
<path d="M19.0274 13.5667V13.4745C19.0274 12.8268 19.029 12.1788 19.0254 11.5319C19.0254 11.4463 19.0514 11.4245 19.1331 11.4258C19.4248 11.4301 19.7168 11.4295 20.0089 11.4258C20.0803 11.4258 20.1027 11.4476 20.1024 11.5193C20.1001 12.1762 20.1024 12.8331 20.1024 13.49C20.1024 13.5364 20.1083 13.5805 20.0365 13.5798C19.7142 13.5772 19.3919 13.5782 19.0695 13.5775C19.0552 13.5752 19.041 13.5716 19.0274 13.5667Z" fill="white"/>
<path d="M21.2059 13.5778V11.4347C21.2359 11.4317 21.2622 11.4268 21.2886 11.4268C21.5866 11.4268 21.8849 11.4284 22.1828 11.4268C22.2536 11.4268 22.2777 11.4478 22.2773 11.5199C22.2754 12.1785 22.2773 12.834 22.2757 13.4909C22.2757 13.5314 22.2872 13.5801 22.2177 13.5801C21.8839 13.5775 21.5497 13.5778 21.2059 13.5778Z" fill="white"/>
<path d="M11.3999 15.2355V16.2953C11.3633 16.2973 11.3307 16.3006 11.2984 16.3006C10.6538 16.3006 10.0091 16.3006 9.36439 16.3026C9.27944 16.3026 9.2475 16.2845 9.24948 16.1929C9.25507 15.9012 9.25211 15.6092 9.24948 15.3171C9.24948 15.2618 9.2554 15.2266 9.32685 15.2266C10.0018 15.2289 10.6768 15.2266 11.3521 15.2285C11.3682 15.2298 11.3841 15.2321 11.3999 15.2355Z" fill="white"/>
</svg>
