<svg width="30" height="25" viewBox="0 0 30 25" fill="none" xmlns="http://www.w3.org/2000/svg">
<path d="M20.641 21.0763C20.3868 21.0232 20.1294 20.9813 19.8784 20.9142C19.6274 20.8472 19.4862 20.9218 19.4245 21.1702C19.1907 22.115 18.6357 22.7435 17.654 22.9346C17.2267 23.0171 16.7848 22.9799 16.3773 22.827C16.1098 22.7291 15.9861 22.461 16.0718 22.1892C16.1543 21.9278 16.3945 21.8081 16.6702 21.9006C16.9961 22.0099 17.3228 22.0289 17.6526 21.9249C18.1546 21.7672 18.4833 21.3538 18.5188 20.8271C18.5289 20.6833 18.5289 20.5389 18.5188 20.3951C18.5077 20.1667 18.4177 19.9493 18.2643 19.7798C17.2668 18.6723 16.2805 17.5548 15.2834 16.4472C14.9783 16.1084 15.1644 15.6706 15.5086 15.59C15.7054 15.5434 15.8546 15.6215 15.9822 15.7646C16.312 16.136 16.6427 16.5065 16.9743 16.876C17.6734 17.6602 18.3672 18.4489 19.0731 19.2266C19.4216 19.6106 19.8343 19.9057 20.3459 20.0484C21.0272 20.238 21.855 19.6497 21.8697 18.9369C21.8776 18.5701 21.7349 18.241 21.5599 17.9269C21.3169 17.4909 21.0103 17.1023 20.6718 16.7359C19.8228 15.8162 18.9867 14.8854 18.1338 13.969C17.8724 13.6879 17.9936 13.2218 18.3711 13.1301C18.5658 13.0831 18.7171 13.158 18.8465 13.3011C19.1905 13.6804 19.5355 14.0585 19.8816 14.4355C20.7195 15.3498 21.5542 16.2665 22.3989 17.1743C22.6764 17.4726 22.9944 17.7279 23.3867 17.8674C24.0679 18.1094 24.9244 17.6523 25.0589 16.9743C25.0821 16.8761 25.0811 16.7738 25.0562 16.6761C25.0312 16.5784 24.9829 16.4882 24.9155 16.4132C23.4395 14.7524 21.9633 13.0912 20.4868 11.4295C18.9411 9.69253 17.3958 7.95566 15.851 6.21891C15.6226 5.9622 15.3802 5.89336 15.0651 6.03283C14.8202 6.14039 14.5911 6.2838 14.3555 6.41467C12.8052 7.26775 11.2545 8.11999 9.7035 8.97139C9.36576 9.15568 9.02838 9.35036 8.63829 9.41454C8.2941 9.47155 7.95169 9.47693 7.61144 9.39088C6.984 9.23205 6.63479 8.79714 6.45552 8.20484C6.22176 7.43327 6.41501 6.74667 6.92807 6.15186C7.13943 5.90848 7.38031 5.69241 7.64515 5.50865C9.10797 4.49076 10.5805 3.48758 12.0501 2.47938C12.1964 2.37934 12.2466 2.26425 12.2 2.12442C12.1519 1.98101 12.039 1.9093 11.8615 1.91468C11.3273 1.93404 10.8254 2.08391 10.3356 2.28756C9.70924 2.54821 9.14275 2.91679 8.5569 3.24987C8.10766 3.50551 7.64479 3.72636 7.1328 3.83213C6.39278 3.98487 5.73451 3.84683 5.17053 3.32337C5.02066 3.1839 4.86972 3.04479 4.7116 2.915C4.49648 2.73931 4.38677 2.7533 4.27275 3.00391C4.13651 3.30293 4.03218 3.61629 3.91637 3.92464C2.9825 6.40905 2.04863 8.89359 1.11477 11.3782C0.997166 11.6891 0.924024 12.0053 1.01258 12.3345C1.04368 12.458 1.10532 12.5718 1.19185 12.6654C1.94908 13.4137 2.7142 14.1558 3.47788 14.8987C3.62129 15.0396 3.67328 15.2071 3.61484 15.396C3.5564 15.585 3.41334 15.7047 3.214 15.7406C3.05122 15.7707 2.91533 15.7112 2.8006 15.6C2.28837 15.1038 1.7765 14.6073 1.26499 14.1107C0.995731 13.8489 0.724678 13.589 0.457568 13.3251C0.107637 12.9798 -0.0203605 12.5546 0.00258584 12.0727C0.0258907 11.5848 0.181854 11.1298 0.34929 10.6784C1.23368 8.31204 2.11938 5.94678 3.0064 3.58259C3.13548 3.23876 3.26813 2.89635 3.40976 2.55789C3.46251 2.44023 3.52946 2.32946 3.6091 2.22804C3.93967 1.78453 4.38713 1.66263 4.8837 1.9093C5.09882 2.01686 5.28347 2.17964 5.47636 2.32485C5.56876 2.39768 5.65575 2.47713 5.73666 2.56256C6.08659 2.91643 6.50966 2.9824 6.97576 2.88524C7.48201 2.77768 7.92373 2.52885 8.35254 2.25386C8.94735 1.87273 9.56367 1.53284 10.228 1.28581C10.8411 1.05921 11.4707 0.919025 12.1283 0.959181C12.6001 0.987864 13.0476 1.1026 13.4549 1.35357C13.5764 1.42886 13.6876 1.41165 13.8055 1.34031C14.2598 1.06603 14.7097 0.783857 15.1741 0.527862C15.752 0.209841 16.3708 0.016231 17.0374 0.000813947C17.876 -0.0171129 18.6171 0.261828 19.2739 0.763779C19.5529 0.977108 19.8002 1.23203 20.0609 1.46866C20.3413 1.72322 20.6037 2.00145 20.9042 2.22948C21.5542 2.72282 22.2888 2.79453 23.0529 2.56112C23.3806 2.46109 23.6961 2.31732 24.0113 2.17964C24.2472 2.0771 24.3741 2.10793 24.4967 2.33453C25.819 4.78118 27.141 7.22783 28.4628 9.67448C28.7834 10.2679 29.1018 10.8627 29.4255 11.4543C29.4583 11.5074 29.4783 11.5675 29.4839 11.6297C29.4895 11.6919 29.4806 11.7546 29.4578 11.8128C29.1623 12.613 28.7303 13.3362 28.218 14.0135C27.6296 14.7931 26.9225 15.4755 26.1223 16.0356C25.9585 16.1507 25.9291 16.2443 25.9832 16.4347C26.0863 16.7918 26.0555 17.1743 25.8964 17.5103C25.5637 18.2385 25.0288 18.7336 24.2285 18.9046C23.9015 18.9763 23.5799 18.9315 23.2626 18.8412C23.0117 18.7695 22.8571 18.8738 22.8223 19.132C22.7522 19.6595 22.4933 20.1438 22.0935 20.4952C21.6938 20.8466 21.1804 21.0413 20.6482 21.0433C20.6457 21.0541 20.6435 21.0652 20.641 21.0763ZM15.3454 4.99845C15.4397 5.0067 15.5351 5.00741 15.628 5.02427C16.0331 5.09848 16.345 5.31898 16.6164 5.62553C17.9179 7.09625 19.2232 8.56374 20.5324 10.028C22.0528 11.7356 23.5736 13.4429 25.0947 15.15C25.2611 15.3365 25.3741 15.3487 25.5766 15.2045C26.787 14.3423 27.7045 13.2308 28.3653 11.9042C28.3994 11.8438 28.4167 11.7754 28.4155 11.7061C28.4143 11.6368 28.3946 11.569 28.3585 11.5098C26.9483 8.90901 25.5402 6.30687 24.1342 3.70342C23.9646 3.38934 23.8858 3.32337 23.5054 3.45244C22.8241 3.68047 22.1289 3.74537 21.4258 3.55463C20.8024 3.38576 20.2843 3.03726 19.8207 2.6002C19.5088 2.30656 19.2169 1.99069 18.8921 1.71211C17.9868 0.933008 16.9786 0.75374 15.8915 1.27433C15.4124 1.51021 14.947 1.77296 14.4975 2.06132C12.3255 3.42376 10.2338 4.90416 8.12523 6.35981C7.95493 6.47981 7.79975 6.61993 7.66307 6.77715C7.28518 7.20524 7.23032 7.66345 7.46875 8.14317C7.5036 8.2192 7.55544 8.28622 7.62027 8.33905C7.6851 8.39189 7.7612 8.42914 7.8427 8.44793C8.20984 8.53936 8.55619 8.47876 8.88496 8.29842C10.7061 7.30049 12.5258 6.30161 14.344 5.30177C14.6578 5.12788 14.9794 4.99881 15.3454 4.99845Z" fill="white"/>
<path d="M13.7435 19.5449C14.3171 19.641 14.7431 19.935 15.0554 20.4054C15.5337 21.1225 15.5164 22.3175 14.8431 22.999C14.3344 23.5143 13.8518 24.0553 13.3502 24.5766C12.9956 24.9462 12.5388 25.0427 12.053 24.9846C11.2101 24.8828 10.6016 24.2987 10.3951 23.4268C10.3919 23.4124 10.3887 23.3981 10.3833 23.3751C9.69059 24.0366 8.90181 24.1578 8.07682 23.7118C7.26402 23.2719 6.95568 22.5172 6.97181 21.6169C5.68108 21.756 4.61372 20.5054 4.97261 19.1C4.91811 19.0885 4.86505 19.0777 4.80984 19.0641C4.0777 18.8956 3.4958 18.2646 3.38322 17.5066C3.28175 16.8272 3.44453 16.2295 3.94397 15.7372C4.19244 15.4924 4.43445 15.241 4.67431 14.9879C5.18451 14.4501 6.06005 14.4573 6.58925 14.7165C7.07363 14.9538 7.39775 15.3321 7.57451 15.8398C7.58419 15.8681 7.59423 15.8968 7.60499 15.9251C7.61096 15.9349 7.61793 15.944 7.62578 15.9524C7.74338 15.8409 7.86026 15.7304 7.97679 15.6193C8.52105 15.1012 9.15996 15.0431 9.8254 15.2941C10.4607 15.5336 10.8254 16.0323 10.9817 16.6866C10.9885 16.7157 10.996 16.744 11.0046 16.7781C11.1387 16.7221 11.2642 16.6623 11.3944 16.6167C12.5248 16.2223 13.7948 17.0154 13.9432 18.2033C13.998 18.6432 13.9579 19.0637 13.7697 19.4689C13.7603 19.4897 13.755 19.5112 13.7435 19.5449ZM9.01654 22.98C9.30983 22.98 9.47009 22.9159 9.68378 22.6964C10.5304 21.8276 11.376 20.9577 12.2204 20.0866C12.5534 19.7473 12.8101 19.3407 12.9733 18.8942C13.1982 18.2768 12.8568 17.6647 12.2236 17.5159C11.7769 17.4109 11.4291 17.5916 11.1308 17.896C10.669 18.3671 10.2148 18.845 9.75943 19.3226C9.2766 19.8301 8.79461 20.3391 8.31345 20.8496C8.01623 21.1662 7.86062 21.5308 7.92839 21.9783C8.01515 22.553 8.47193 22.9804 9.01654 22.98ZM9.0273 16.1341C8.91579 16.1259 8.73724 16.2041 8.58594 16.3629C8.10478 16.8681 7.61789 17.3668 7.13853 17.8741C6.78752 18.2463 6.44046 18.6227 6.10272 19.0071C5.86501 19.2778 5.78004 19.599 5.88509 19.9504C5.99014 20.3018 6.20562 20.5441 6.56631 20.6316C6.90978 20.7155 7.19697 20.6065 7.43719 20.348C7.79824 19.959 8.16574 19.5761 8.53037 19.1903C8.95738 18.7382 9.39085 18.2911 9.80891 17.8322C10.1112 17.5016 10.175 17.1129 9.99284 16.7031C9.83078 16.3389 9.54108 16.1442 9.0273 16.1352V16.1341ZM11.294 22.9643C11.2931 23.2474 11.396 23.521 11.5833 23.7333C11.8422 24.0366 12.4689 24.1965 12.8281 23.7789C13.2584 23.2769 13.7306 22.8072 14.1798 22.3193C14.5979 21.865 14.5402 21.107 14.0633 20.713C13.7274 20.4355 13.2085 20.4373 12.9422 20.7238C12.4904 21.2095 12.0408 21.6972 11.5933 22.187C11.3985 22.3987 11.2915 22.6766 11.294 22.9643ZM4.30251 17.0534C4.30251 17.5134 4.44592 17.8092 4.75857 18.0096C5.05687 18.2004 5.47958 18.1889 5.69076 17.9781C5.99444 17.6766 6.28844 17.3646 6.58459 17.0556C6.61414 17.0213 6.63832 16.9827 6.6563 16.9412C6.8768 16.4891 6.69466 15.8911 6.26191 15.6376C6.10602 15.5428 5.92277 15.5033 5.74169 15.5254C5.56061 15.5476 5.39225 15.63 5.26374 15.7595C5.02998 15.9922 4.80553 16.2342 4.57392 16.469C4.39035 16.6572 4.29749 16.8803 4.30251 17.0534Z" fill="white"/>
</svg>
