<svg width="28" height="25" viewBox="0 0 28 25" fill="none" xmlns="http://www.w3.org/2000/svg">
<path d="M27.5726 8.21751C27.5387 8.46854 27.5126 8.72076 27.4703 8.97029C27.3033 9.97828 26.9461 10.9227 26.5013 11.8371C25.7437 13.3951 24.757 14.802 23.6624 16.1372C22.281 17.8218 20.7364 19.3462 19.1085 20.7906C17.9203 21.8445 16.6949 22.8534 15.4322 23.8173C14.9317 24.1982 14.4213 24.5671 13.9189 24.9444C13.8253 25.0151 13.7642 25.0208 13.6622 24.9474C11.7496 23.5696 9.91208 22.0905 8.15765 20.5162C6.47126 19.002 4.88294 17.3929 3.48416 15.6052C2.41918 14.2457 1.47237 12.8106 0.787978 11.2166C0.380101 10.2668 0.0789923 9.28579 0.0175109 8.249C-0.100054 6.26361 0.367805 4.44286 1.61963 2.86713C2.79287 1.38948 4.31881 0.477156 6.17315 0.125662C6.45146 0.072878 6.73698 0.0599819 7.01799 0.0251924C7.06178 0.0200939 7.10437 0.00869737 7.14785 0H7.89763C7.94541 0.0112332 7.99376 0.0198435 8.04248 0.0257922C8.74016 0.0684847 9.42798 0.211929 10.0846 0.451663C11.1416 0.839865 12.0986 1.45926 12.8857 2.26462C13.1856 2.56932 13.5047 2.85724 13.8289 3.16614C13.9078 3.08307 14.0089 2.9742 14.1132 2.86623C14.6231 2.33089 15.1311 1.79556 15.7421 1.37089C16.6694 0.72668 17.6798 0.288513 18.7984 0.115465C19.0929 0.0698789 19.3892 0.0380885 19.685 0H20.4347C20.4779 0.00899728 20.5205 0.0215935 20.5643 0.0266919C20.8459 0.0596819 21.1314 0.0725781 21.4094 0.125662C23.3127 0.489152 24.8626 1.43956 26.04 2.9769C26.7861 3.93955 27.2745 5.07652 27.4589 6.2804C27.5048 6.57491 27.5351 6.87182 27.5726 7.16783V8.21751ZM13.7438 4.92691L13.7992 4.9653C13.718 4.89182 13.6331 4.82194 13.556 4.74456C12.9121 4.09616 12.2934 3.41987 11.6207 2.80295C10.5842 1.85224 9.33059 1.36609 7.93422 1.26742C6.89871 1.1916 5.86113 1.38361 4.92133 1.82495C3.42388 2.52044 2.3601 3.6343 1.72399 5.15394C1.48587 5.72377 1.32841 6.31879 1.30412 6.9351C1.28103 7.49173 1.27053 8.05466 1.32781 8.6074C1.40699 9.36977 1.67001 10.0901 1.97832 10.7916C2.56614 12.1289 3.3513 13.3472 4.23094 14.5072C5.47166 16.1438 6.87974 17.6263 8.38348 19.022C9.78286 20.3204 11.2452 21.5434 12.758 22.707C13.1008 22.9707 13.4477 23.2301 13.8112 23.506C14.7161 22.791 15.6191 22.0904 16.508 21.3718C17.6879 20.4178 18.8209 19.4074 19.9141 18.3523C20.8689 17.436 21.7702 16.4654 22.6133 15.4453C23.8597 13.9269 24.9826 12.3299 25.7323 10.4998C26.0418 9.74465 26.2722 8.96729 26.3151 8.14644C26.375 7.04037 26.2344 5.9661 25.771 4.9479C25.2255 3.74827 24.3893 2.80175 23.2566 2.13355C22.0039 1.39428 20.6474 1.11956 19.2009 1.3169C18.299 1.44013 17.4351 1.75931 16.6697 2.25202C15.9574 2.70578 15.4101 3.34009 14.8195 3.92701C14.4713 4.27131 14.1028 4.59431 13.7438 4.92691Z" fill="white"/>
</svg>
