<svg width="30" height="30" viewBox="0 0 30 30" fill="none" xmlns="http://www.w3.org/2000/svg">
<path d="M30 26.8729C29.0004 28.5812 27.4625 29.2379 25.5595 28.6852C25.3145 28.6136 25.0413 28.1637 25.0193 27.8712C24.9507 26.9415 24.9942 26.0038 24.9942 25.0245H19.7471C19.7961 25.3648 19.9669 25.7626 19.8695 26.073C19.7722 26.3833 19.4071 26.6342 19.1462 26.8968C18.2916 27.7565 17.4341 28.6134 16.5738 29.4674C15.8547 30.1798 15.7488 30.1811 15.012 29.4497C13.6957 28.1429 12.3783 26.8392 11.081 25.5105C10.7093 25.1286 10.332 24.9535 9.78503 24.9651C8.07743 25.0012 6.36861 24.9841 4.6604 24.9768C3.21494 24.97 2.5112 24.2741 2.50507 22.8438C2.49772 21.1116 2.53141 19.3789 2.4818 17.6486C2.47016 17.2563 2.26865 16.8052 2.01386 16.4973C1.49141 15.8706 0.885056 15.3155 0.298911 14.7505C-0.11084 14.3539 -0.0912404 13.9916 0.308098 13.6091C0.614339 13.3183 0.869131 12.9688 1.20477 12.7246C2.28764 11.9375 2.67473 10.913 2.51732 9.5903C2.42055 8.78483 2.49527 7.95917 2.50078 7.14208C2.5112 5.70375 3.20269 4.99988 4.64447 4.99988C9.17684 4.99315 13.7092 4.98764 18.2373 5.00906C18.8081 5.00906 19.2099 4.83952 19.6001 4.43495C20.7152 3.27368 21.8526 2.13587 23.0122 1.02152C23.4146 0.634702 23.9046 0.337855 24.3548 0H25.2459C25.8131 0.462102 26.4256 0.879524 26.9364 1.39793C27.7136 2.18626 27.675 3.22308 26.918 4.04385C26.6669 4.31622 26.4047 4.57879 26.0483 4.94969C26.3821 4.97234 26.5266 5.00417 26.6669 4.98887C28.2128 4.81994 29.3526 5.37813 30 6.82932V26.8729ZM28.7603 23.8647V8.16666C28.7603 8.01854 28.764 7.86981 28.7603 7.72169C28.7254 6.68548 28.2863 6.25827 27.2291 6.2448C26.5854 6.23685 25.9374 6.19951 25.2998 6.26133C24.966 6.29377 24.5728 6.43148 24.3394 6.65855C22.6894 8.2603 21.0804 9.90245 19.4445 11.5207C18.7512 12.2062 18.0248 12.8575 17.3137 13.5246L17.4417 13.7602H22.4469V14.9905C19.3293 14.9905 16.2608 14.9996 13.1984 14.9819C12.6374 14.9788 12.4022 14.6257 12.5602 14.0736C12.6753 13.6703 12.8591 13.2834 12.9485 12.8752C13.3772 10.9221 14.3609 9.33507 15.9246 8.07546C16.5407 7.57908 17.0478 6.94744 17.7369 6.24297H12.8621C10.139 6.24297 7.41595 6.24848 4.69286 6.2393C4.1551 6.2393 3.74167 6.36171 3.73371 6.98784C3.72085 7.99406 3.73004 9.00028 3.73004 9.70231C4.34252 10.1271 4.80555 10.3603 5.15651 10.7091C9.332 14.8589 13.4942 19.0209 17.6432 23.1951C18.0474 23.6015 18.4547 23.749 19.0133 23.7459C21.5379 23.722 24.0632 23.7269 26.5879 23.741C27.2702 23.7478 27.9525 23.8169 28.7603 23.8647ZM9.39427 19.3838L10.9481 18.3519L9.19215 16.4955C8.7922 17.0072 8.42716 17.4748 8.00148 18.0189L6.97741 16.9172L8.37265 15.84C7.76445 15.2028 7.26344 14.6771 6.74712 14.1385L5.46091 15.3687L4.53239 14.5957L5.85473 13.2045L4.17653 11.6033L1.68496 14.1874L15.7604 28.277L18.3708 25.8147L16.6436 23.9926L15.5742 25.4738L14.4172 24.3929C14.9605 23.9981 15.4382 23.6517 15.9576 23.2759L14.2751 21.6147L12.9154 22.9135L11.9912 21.9422L13.3852 20.8815C12.7788 20.2186 12.2864 19.6794 11.658 18.9915L10.5708 20.4378L9.39427 19.3838ZM16.9658 12.0918L23.8256 5.24776L22.2662 3.71763L15.4591 10.5218L16.9658 12.0918ZM9.02433 23.7312L3.73248 18.4278C3.73248 19.9579 3.70247 21.5015 3.76495 23.0433C3.77475 23.2814 4.2041 23.6908 4.45215 23.7006C5.97539 23.7618 7.50231 23.7312 9.02433 23.7312ZM24.9158 4.53656C25.3984 3.77455 25.9987 3.17596 26.112 2.49657C26.1677 2.16362 25.2177 1.27246 24.8974 1.34958C24.2237 1.51423 23.6633 2.15138 23.06 2.59328L24.9158 4.53656ZM26.2926 27.4654C27.1624 27.4213 28.0933 27.7665 28.546 26.8191C28.7138 26.4677 28.6777 25.8459 28.4663 25.5215C27.9463 24.7258 27.0821 25.0165 26.2926 24.997V27.4654ZM15.6716 12.8464L14.6567 11.7447L14.1373 13.3544L15.6716 12.8464Z" fill="#48494B"/>
<path d="M24.9489 14.9664H23.8024V13.8125H24.9489V14.9664Z" fill="#48494B"/>
<path d="M27.4195 14.9586H26.3042V13.8047H27.4195V14.9586Z" fill="#48494B"/>
</svg>
