<svg width="17" height="16" viewBox="0 0 17 16" fill="none" xmlns="http://www.w3.org/2000/svg">
<path d="M7.64981 0.89679C7.95085 -0.0209759 9.24915 -0.0209752 9.55019 0.896791L10.7541 4.567C10.8888 4.97766 11.2721 5.25532 11.7043 5.25532H15.5798C16.5508 5.25532 16.9521 6.49977 16.1639 7.06698L13.0449 9.31169C12.6911 9.56633 12.543 10.0208 12.6789 10.435L13.8741 14.0788C14.1757 14.9984 13.1253 15.7674 12.3397 15.2021L9.18414 12.931C8.8352 12.6799 8.3648 12.6799 8.01586 12.931L4.86027 15.2021C4.0747 15.7674 3.02428 14.9984 3.32594 14.0788L4.52114 10.435C4.657 10.0208 4.5089 9.56633 4.15509 9.31169L1.03608 7.06698C0.247946 6.49977 0.649197 5.25532 1.62021 5.25532H5.49575C5.92794 5.25532 6.31123 4.97766 6.44593 4.567L7.64981 0.89679Z" fill="#F7C858"/>
</svg>
