<svg width="22" height="21" viewBox="0 0 22 21" fill="none" xmlns="http://www.w3.org/2000/svg">
<path d="M10.1249 3.05263C10.2754 2.59375 10.9246 2.59374 11.0751 3.05263L12.279 6.72283C12.481 7.33884 13.056 7.75532 13.7043 7.75532H17.5798C18.0653 7.75532 18.2659 8.37754 17.8719 8.66115L14.7528 10.9059C14.2221 11.2878 14 11.9696 14.2038 12.5909L15.399 16.2346C15.5498 16.6944 15.0246 17.0789 14.6318 16.7963L11.4762 14.5252C10.9528 14.1485 10.2472 14.1485 9.72379 14.5252L6.5682 16.7963C6.17542 17.0789 5.65021 16.6944 5.80104 16.2346L6.99623 12.5909C7.20003 11.9696 6.97788 11.2878 6.44716 10.9059L3.32815 8.66115C2.93408 8.37754 3.13471 7.75532 3.62021 7.75532H7.49575C8.14404 7.75532 8.71897 7.33884 8.92103 6.72284L8.44593 6.567L8.92103 6.72283L10.1249 3.05263Z" stroke="#F7C858"/>
<path fill-rule="evenodd" clip-rule="evenodd" d="M10.6717 2.21097C10.2489 2.1818 9.80922 2.41042 9.64967 2.89682L8.44579 6.56703C8.31109 6.97769 7.9278 7.25535 7.4956 7.25535H3.62007C2.64906 7.25535 2.2478 8.4998 3.03594 9.06701L6.15495 11.3117C6.50876 11.5664 6.65686 12.0208 6.521 12.4351L5.3258 16.0788C5.02414 16.9984 6.07456 17.7675 6.86013 17.2021L10.0157 14.9311C10.2106 14.7908 10.4434 14.7289 10.6718 14.7453L10.6717 2.21097Z" fill="#F7C858"/>
</svg>
