<svg width="17" height="16" viewBox="0 0 17 16" fill="none" xmlns="http://www.w3.org/2000/svg">
<path d="M7.92508 1.05263C8.0756 0.593746 8.72475 0.593745 8.87527 1.05263L10.0791 4.72283C10.2812 5.33884 10.8561 5.75532 11.5044 5.75532H15.38C15.8655 5.75532 16.0661 6.37754 15.672 6.66115L12.553 8.90586C12.0223 9.28782 11.8001 9.96955 12.0039 10.5909L13.1991 14.2346C13.35 14.6944 12.8248 15.0789 12.432 14.7963L9.27638 12.5252C8.75297 12.1485 8.04737 12.1485 7.52397 12.5252L4.36837 14.7963C3.97559 15.0789 3.45038 14.6944 3.60121 14.2346L4.7964 10.5909C5.0002 9.96955 4.77805 9.28782 4.24733 8.90586L1.12832 6.66115C0.734251 6.37754 0.934876 5.75532 1.42039 5.75532H5.29592C5.94421 5.75532 6.51914 5.33884 6.7212 4.72284L6.24611 4.567L6.7212 4.72283L7.92508 1.05263Z" stroke="#F7C858"/>
</svg>
