<svg width="25" height="21" viewBox="0 0 25 21" fill="none" xmlns="http://www.w3.org/2000/svg">
<path d="M21.7267 10.7467C21.3004 11.1806 20.906 11.5832 20.5104 11.9851C20.3495 12.1487 20.1538 12.2026 19.9394 12.1339C19.725 12.0652 19.5981 11.9003 19.5687 11.6701C19.5442 11.4782 19.6201 11.3218 19.752 11.1877C20.3828 10.5482 21.0133 9.90787 21.6433 9.26668C21.7262 9.18488 21.8013 9.09802 21.8851 9.02086C22.1364 8.7839 22.4465 8.786 22.6891 9.0314C23.3977 9.74905 24.1048 10.4682 24.8106 11.189C25.0553 11.439 25.0623 11.7793 24.8347 12.0045C24.607 12.2296 24.2765 12.2115 24.031 11.9623C23.6387 11.5638 23.2481 11.1637 22.8339 10.7395C22.821 10.9111 22.8094 11.0541 22.8003 11.197C22.7007 12.739 22.3027 14.1953 21.5513 15.54C19.8855 18.5366 17.3833 20.3729 14.0365 20.8717C10.3459 21.4199 7.22748 20.2013 4.72076 17.3957C3.8657 16.4381 3.24658 15.3271 2.81117 14.1114C2.70875 13.8251 2.80081 13.5523 3.03842 13.4107C3.14713 13.347 3.27428 13.3238 3.39796 13.3452C3.52165 13.3666 3.63412 13.4312 3.716 13.5279C3.77115 13.5973 3.81408 13.6759 3.84289 13.7602C4.20441 14.7844 4.74545 15.7336 5.43981 16.5616C6.75931 18.1289 8.40724 19.1725 10.3882 19.6481C12.1526 20.0728 14.001 19.9588 15.702 19.3203C17.4029 18.6818 18.8808 17.5472 19.9506 16.0586C21.057 14.5175 21.6437 12.7875 21.7267 10.8824C21.7296 10.8521 21.7267 10.8221 21.7267 10.7467Z" fill="#CDCDCD"/>
<path d="M2.14214 10.2348C2.21678 9.64909 2.26323 9.06552 2.3698 8.49419C2.68663 6.75447 3.44609 5.12948 4.57256 3.78099C6.13134 1.90212 8.09732 0.694936 10.4718 0.212147C12.6944 -0.239862 14.8408 0.0321024 16.8968 1.01202C19.355 2.18816 21.2572 4.30358 22.1897 6.89824C22.2706 7.12341 22.2353 7.32622 22.0723 7.49656C21.9094 7.66691 21.7149 7.70444 21.5001 7.6277C21.3218 7.56403 21.2185 7.42531 21.1547 7.24821C20.8741 6.45409 20.4831 5.70493 19.9936 5.02359C18.4808 2.93263 16.473 1.62762 13.9501 1.24224C10.7235 0.74975 7.95426 1.73599 5.71541 4.1474C4.17365 5.80786 3.39322 7.82124 3.27504 10.1011C3.27504 10.1407 3.27504 10.1808 3.27504 10.2516C3.33641 10.1939 3.37788 10.1576 3.41645 10.1184C3.76809 9.76082 4.1196 9.40312 4.47097 9.04528C4.71231 8.80031 5.05608 8.78428 5.27586 9.00649C5.50186 9.2346 5.49232 9.57235 5.24641 9.82365C4.5481 10.5362 3.84826 11.2476 3.14691 11.9576C2.86866 12.2393 2.56636 12.2367 2.28852 11.9542C1.58413 11.2397 0.880557 10.5244 0.177818 9.80847C-0.01086 9.61535 -0.0502543 9.36405 0.0637819 9.14184C0.117022 9.0349 0.204235 8.94939 0.311272 8.89919C0.418309 8.84898 0.53889 8.83702 0.653453 8.86524C0.771468 8.90056 0.879128 8.96485 0.966948 9.05245C1.32938 9.40664 1.68061 9.77221 2.0364 10.1331C2.07331 10.1698 2.11104 10.204 2.14214 10.2348Z" fill="#CDCDCD"/>
<path d="M11.9588 6.61524C11.9588 5.3874 11.9588 4.15942 11.9588 2.93129C11.9588 2.69264 11.9778 2.46748 12.1951 2.31484C12.5289 2.07829 13.0008 2.29249 13.0407 2.7036C13.0479 2.78772 13.0509 2.87216 13.0498 2.95659C13.0498 5.10672 13.0498 7.25714 13.0498 9.40783C13.0498 9.65492 13.0431 9.90242 13.0539 10.1487C13.058 10.2293 13.0888 10.3062 13.1414 10.3667C14.1198 11.3685 15.1012 12.3674 16.0856 13.3633C16.21 13.4898 16.3096 13.6264 16.3079 13.8149C16.3054 14.0548 16.1963 14.2328 15.982 14.3268C15.8823 14.3756 15.77 14.3906 15.6613 14.3695C15.5527 14.3485 15.4536 14.2926 15.3786 14.21C14.9254 13.7542 14.4767 13.2942 14.0259 12.8363C13.4139 12.2143 12.8043 11.5899 12.1881 10.9726C12.1125 10.9011 12.0528 10.814 12.0129 10.7171C11.9731 10.6203 11.9541 10.5159 11.9571 10.4109C11.9608 9.14472 11.9588 7.87977 11.9588 6.61524Z" fill="#CDCDCD"/>
</svg>
