<svg width="18" height="29" viewBox="0 0 18 29" fill="none" xmlns="http://www.w3.org/2000/svg">
<path d="M17.0954 29H0.0112463V28.1201C0.0112463 20.1044 0.00749753 12.0887 0 4.07293C0 3.50863 0.132309 3.14445 0.617223 2.80078C2.9806 1.12905 5.58808 0.0259208 8.47375 0.000451307C11.6161 -0.0266721 14.4277 1.17073 16.924 3.06771C17.0729 3.18084 17.184 3.44446 17.184 3.63796C17.1924 12.0268 17.1904 20.4156 17.178 28.8042C17.178 28.8548 17.137 28.9047 17.0954 29ZM1.36841 18.8664H8.40462V10.4979H1.36841V18.8664ZM15.8387 10.483H8.80353V18.8515H15.8387V10.483ZM1.39156 19.2515V27.6647H8.38179V19.2515H1.39156ZM8.80981 19.2481V27.667H15.8014V19.2485L8.80981 19.2481ZM8.41057 1.29245C6.45008 1.22431 4.82036 1.95896 3.16649 2.66582C1.73821 3.27511 1.08725 4.16456 1.29597 5.80221C1.47426 7.20039 1.33269 8.63992 1.33269 10.0728H8.41123L8.41057 1.29245ZM15.8738 10.089C15.8738 8.0733 15.8903 6.15581 15.8536 4.23931C15.849 3.99321 15.6257 3.63962 15.4061 3.52782C14.1177 2.87222 12.8297 2.19612 11.4818 1.68442C10.6645 1.37382 9.73929 1.34637 8.82834 1.18594V10.089H15.8738Z" fill="white"/>
</svg>
