<svg width="29" height="29" viewBox="0 0 29 29" fill="none" xmlns="http://www.w3.org/2000/svg">
<g clip-path="url(#clip0)">
<path d="M22.3255 18.8932H14.9257V16.838L15.9906 16.1979C15.9977 16.2072 16.0043 16.2165 16.0114 16.2258C16.0178 16.2349 16.0262 16.2464 16.0368 16.259C16.6475 17.0385 17.4739 17.4496 18.3852 17.4496C18.6771 17.4496 18.9777 17.4073 19.2828 17.3214C20.2442 17.0509 21.1836 16.3736 21.9279 15.4142C22.697 14.4228 23.1988 13.1898 23.3404 11.9428C23.3413 11.9355 23.3417 11.9284 23.3424 11.9211C23.3718 11.4445 23.2585 11.0587 23.0054 10.7744C22.7328 10.4684 22.3087 10.2978 21.7452 10.2675C20.2898 10.1876 18.9525 10.3984 17.8768 10.8766C16.8652 11.3262 16.105 11.993 15.678 12.8055C15.224 13.669 15.1901 14.6027 15.5609 15.4636L14.9257 15.8452V10.5717H16.7716C17.6243 10.5717 18.4956 10.175 19.1618 9.48334C19.8696 8.74878 20.261 7.77129 20.2645 6.73184L20.2692 5.67669C20.2692 5.03549 20.0187 4.46776 19.5638 4.07769C19.1669 3.73718 18.6432 3.56859 18.1018 3.60001C17.9763 2.7577 17.5287 1.92247 16.8077 1.20561C16.0594 0.461534 15.1133 -0.0566406 14.5047 -0.0566406C14.5027 -0.0566406 14.5007 -0.0566406 14.4987 -0.0566406C13.5192 -0.0528793 11.1985 1.38925 10.8947 3.59978C10.3548 3.56881 9.83313 3.7374 9.43709 4.07725C8.98197 4.46732 8.73129 5.03527 8.73129 5.67779L8.73461 6.73118C8.73793 7.77129 9.12977 8.74878 9.838 9.48356C10.5046 10.175 11.3761 10.5717 12.2291 10.5717H14.075V15.8452L13.4398 15.4636C13.8106 14.6025 13.7765 13.6688 13.3227 12.8052C12.8957 11.993 12.1353 11.3259 11.1239 10.8763C10.0482 10.3984 8.71049 10.1874 7.25576 10.2675C6.6909 10.2978 6.26609 10.4688 5.99351 10.7755C5.74062 11.06 5.628 11.4456 5.65831 11.9218C5.65875 11.9288 5.65942 11.9357 5.6603 11.9426C5.8019 13.1898 6.30348 14.4226 7.07278 15.4142C7.81707 16.3736 8.75629 17.0509 9.71786 17.3214C10.023 17.4073 10.3234 17.4493 10.6155 17.4493C11.5266 17.4493 12.353 17.0382 12.9639 16.259C12.9745 16.2462 12.9829 16.2349 12.9893 16.2258C12.9964 16.2165 13.003 16.207 13.0099 16.1979L14.075 16.8378V18.893H6.67519C5.99262 18.893 5.4375 19.4483 5.4375 20.1309V21.4618C5.4375 22.1083 5.93554 22.6401 6.5681 22.6948L7.32147 27.1707C7.49936 28.231 8.32264 28.9434 9.37027 28.9434H19.6592C20.7068 28.9434 21.5303 28.231 21.708 27.1712L21.891 26.089C21.9301 25.8574 21.7741 25.6379 21.5425 25.5987C21.3106 25.5598 21.0911 25.7156 21.052 25.9472L20.869 27.0298C20.7867 27.5201 20.4205 28.0925 19.6592 28.0925H9.37027C8.60894 28.0925 8.24277 27.5201 8.16046 27.0296L7.43165 22.6994H13.5435C13.7785 22.6994 13.969 22.5092 13.969 22.2742C13.969 22.0392 13.7785 21.8487 13.5435 21.8487H6.67519C6.4619 21.8487 6.28844 21.6753 6.28844 21.4618V20.1307C6.28844 19.9174 6.4619 19.7437 6.67519 19.7437H22.3253C22.535 19.7437 22.7123 19.9209 22.7123 20.1307V21.4618C22.7123 21.6715 22.535 21.8487 22.3253 21.8487H15.5034C15.2687 21.8487 15.0782 22.0392 15.0782 22.2742C15.0782 22.5092 15.2687 22.6994 15.5034 22.6994H21.5989L21.3746 24.0254C21.3354 24.2571 21.4914 24.4765 21.7233 24.5157C21.7472 24.5199 21.7711 24.5219 21.7945 24.5219C21.9983 24.5219 22.1784 24.375 22.2136 24.1672L22.4631 22.6917C23.0809 22.6229 23.563 22.0976 23.563 21.4618V20.1307C23.563 19.4483 23.0079 18.8932 22.3255 18.8932ZM16.4311 13.2013C17.0172 12.0864 18.7087 10.9536 21.6989 11.1171C22.0281 11.1348 22.2538 11.2098 22.37 11.3401C22.4653 11.4472 22.5069 11.6213 22.4937 11.8578C22.2087 14.3259 20.5092 16.0924 19.0523 16.5024C18.4051 16.6845 17.4792 16.7004 16.7249 15.7567L18.7242 14.5551C18.9255 14.4341 18.9908 14.1728 18.8698 13.9712C18.7487 13.7699 18.4874 13.7048 18.2859 13.8259L16.303 15.0175C16.0842 14.421 16.1229 13.7876 16.4311 13.2013ZM19.01 4.72353C19.2733 4.94943 19.4185 5.28772 19.4185 5.67469L19.4136 6.72852C19.4081 8.49191 18.0166 9.72097 16.7716 9.72097H12.7977C12.7984 9.71875 12.799 9.71632 12.7997 9.71411C13.8571 6.43691 16.1386 4.71755 18.0133 4.46378C18.0159 4.46356 18.0186 4.46311 18.021 4.46267C18.3954 4.40515 18.7465 4.49741 19.01 4.72353ZM12.8738 1.69524C13.538 1.08237 14.2381 0.795183 14.5027 0.794298H14.5047C14.7916 0.794298 15.541 1.14587 16.2079 1.80896C16.5676 2.16673 17.1442 2.86434 17.2652 3.75046C16.3034 4.01154 15.3417 4.56467 14.4998 5.34857C13.6628 4.57131 12.693 4.01286 11.7324 3.75046C11.8437 2.82938 12.3994 2.1331 12.8738 1.69524ZM9.58533 6.72852L9.58201 5.67669C9.58201 5.28772 9.72715 4.94898 9.99066 4.72309C10.2028 4.54144 10.4717 4.44608 10.7633 4.44608C10.8336 4.44608 10.9053 4.45161 10.9779 4.46267C10.9805 4.46311 10.9832 4.46356 10.9861 4.464C11.9698 4.59631 13.0172 5.13572 13.9084 5.96033C13.8883 5.98378 13.8686 6.00768 13.8484 6.03113C13.8296 6.05326 13.8108 6.07538 13.7922 6.09751C13.0324 7.00509 12.4413 8.091 12.0271 9.33953C12.0269 9.33975 12.0269 9.33997 12.0269 9.34019C11.9879 9.45745 11.9501 9.5756 11.9142 9.69574C10.76 9.51166 9.59064 8.34455 9.58533 6.72852ZM9.94818 16.5024C8.49123 16.0924 6.79157 14.3257 6.50682 11.8576C6.4931 11.6215 6.53425 11.4476 6.62939 11.3408C6.74555 11.21 6.97167 11.1348 7.30178 11.1169C10.2916 10.9533 11.9835 12.0864 12.5694 13.2013C12.8776 13.7876 12.9163 14.421 12.6975 15.0175L10.7144 13.8259C10.513 13.7048 10.2517 13.7701 10.1307 13.9712C10.0097 14.1728 10.0747 14.4341 10.2761 14.5551L12.2755 15.7567C11.5213 16.7004 10.5953 16.6845 9.94818 16.5024Z" fill="white"/>
</g>
<defs>
<clipPath id="clip0">
<rect width="29" height="29" fill="white"/>
</clipPath>
</defs>
</svg>
