<svg width="11" height="11" viewBox="0 0 11 11" fill="none" xmlns="http://www.w3.org/2000/svg">
<path d="M7.86895 5.36667L10.7058 2.5298C11.0746 2.18937 11.0746 1.62199 10.7058 1.28157L10.0817 0.657455C9.74129 0.288661 9.17391 0.288661 8.83349 0.657455L5.99661 3.49433L3.13136 0.657455C2.79093 0.288661 2.22356 0.288661 1.88313 0.657455L1.25902 1.28157C0.890223 1.62199 0.890223 2.18937 1.25902 2.5298L4.0959 5.36667L1.25902 8.23192C0.890223 8.57235 0.890223 9.13972 1.25902 9.48015L1.88313 10.1043C2.22356 10.4731 2.79093 10.4731 3.13136 10.1043L5.99661 7.26738L8.83349 10.1043C9.17391 10.4731 9.74129 10.4731 10.0817 10.1043L10.7058 9.48015C11.0746 9.13972 11.0746 8.57235 10.7058 8.23192L7.86895 5.36667Z" fill="white"/>
</svg>
