<svg width="18" height="29" viewBox="0 0 18 29" fill="none" xmlns="http://www.w3.org/2000/svg">
<path d="M0 28.9989V0C1.24387 0.608462 2.45742 1.19073 3.66125 1.7932C7.95454 3.94191 12.2415 6.10296 16.54 8.24156C16.9101 8.42567 17.1069 8.5993 17.1058 9.05097C17.0908 15.551 17.0862 22.051 17.092 28.551C17.092 28.6875 17.0684 28.8237 17.0523 29L0 28.9989ZM7.01041 9.31778V27.6716H15.6965V9.31778H7.01041ZM1.33517 9.31778V27.6727H6.59242V9.31778H1.33517ZM6.66427 8.9402C6.66427 7.66341 6.63695 6.49288 6.67662 5.32498C6.69458 4.81044 6.48128 4.55711 6.05132 4.35204C4.80109 3.75069 3.5662 3.11715 2.32196 2.50383C2.01212 2.35078 1.69067 2.22205 1.33555 2.06488V8.93946L6.66427 8.9402ZM6.98684 8.92524H14.8879C14.898 8.88332 14.9077 8.84179 14.9178 8.79988L6.98684 4.84038V8.92524Z" fill="white"/>
</svg>
