<svg width="39" height="39" viewBox="0 0 39 39" fill="none" xmlns="http://www.w3.org/2000/svg">
<path d="M36.9743 19.5028C36.9743 29.1672 29.1441 36.9999 19.4872 36.9999C9.83024 36.9999 2 29.1672 2 19.5028C2 9.83839 9.83024 2.00562 19.4872 2.00562C29.1441 2.00562 36.9743 9.83839 36.9743 19.5028Z" stroke="#EAEAEA" stroke-width="4"/>
<path fill-rule="evenodd" clip-rule="evenodd" d="M30.8228 35.3764C35.7727 31.8407 38.9998 26.046 38.9998 19.4972C38.9998 8.72918 30.2751 0 19.5127 0C19.337 0 19.1619 0.00232562 18.9873 0.00694778V4.00875C19.1617 4.00293 19.3368 4 19.5127 4C28.064 4 34.9998 10.9364 34.9998 19.4972C34.9998 24.7307 32.4077 29.3571 28.439 32.1627L30.8228 35.3764Z" fill="#FCB160"/>
</svg>
