<svg width="39" height="39" viewBox="0 0 39 39" fill="none" xmlns="http://www.w3.org/2000/svg">
<path d="M37 19.5035C37 29.1662 29.1653 37 19.5 37C9.83467 37 2 29.1662 2 19.5035C2 9.84085 9.83467 2.00708 19.5 2.00708C29.1653 2.00708 37 9.84085 37 19.5035Z" stroke="#EAEAEA" stroke-width="4"/>
<path fill-rule="evenodd" clip-rule="evenodd" d="M20.0272 34.9841C28.3443 34.7063 35.0002 27.8779 35.0002 19.4965C35.0002 11.115 28.3443 4.2866 20.0272 4.00879V0.00698298C30.5532 0.286225 39.0002 8.90506 39.0002 19.4965C39.0002 30.0879 30.5532 38.7067 20.0272 38.9859V34.9841ZM19.0234 0.00571333C19.1819 0.00191167 19.3408 0 19.5002 0C19.6596 0 19.8185 0.00191167 19.977 0.00571333H19.0234Z" fill="#A7D581"/>
</svg>
