<svg width="26" height="27" viewBox="0 0 26 27" fill="none" xmlns="http://www.w3.org/2000/svg">
<path d="M24.6472 26.1265V24.6693H0.89168V26.1265H3.94794C4.00685 26.1265 4.0662 26.1265 4.12511 26.1265C4.42675 26.1443 4.61234 26.3099 4.61588 26.5597C4.6181 26.8184 4.41789 26.9973 4.11005 26.9978C2.91412 27.0004 1.7182 27.0004 0.522272 26.9978C0.174568 26.9987 0.00448064 26.8299 0.0027089 26.4822C-0.000834587 25.759 -0.000834587 25.0356 0.0027089 24.3118C0.0027089 23.9482 0.169696 23.7803 0.530245 23.7776C0.846944 23.7741 1.16409 23.7776 1.49939 23.7776V10.6862C1.20174 10.6862 0.908955 10.6862 0.616175 10.6862C0.147549 10.6849 0.00226596 10.5427 5.12839e-05 10.0816C5.12839e-05 9.56473 0.0040377 9.04783 5.12839e-05 8.53136C-0.00260633 8.28775 0.09794 8.12785 0.322065 8.03129C1.5676 7.49401 2.81092 6.95186 4.05645 6.41369C4.35765 6.28347 4.60348 6.36452 4.70934 6.61744C4.80944 6.85618 4.69783 7.07898 4.40283 7.20964C3.87707 7.44219 3.34909 7.6703 2.82199 7.90018C2.76583 7.91982 2.71679 7.95575 2.68114 8.00338H22.8555L22.8679 7.96529L15.237 4.65701L15.2127 4.69377L16.4595 5.80111C16.7696 6.07529 17.0796 6.34681 17.387 6.62453C17.5757 6.79594 17.62 6.99172 17.5275 7.17864C17.387 7.46212 17.0761 7.50508 16.8041 7.26723C16.1982 6.7357 15.5976 6.20418 14.9956 5.66867C14.5204 5.24788 14.0486 4.82311 13.5681 4.40852C13.4897 4.3464 13.3938 4.31045 13.2939 4.30576C12.9546 4.2938 12.614 4.28937 12.2751 4.30576C12.1473 4.31373 12.0252 4.36125 11.9256 4.44174C10.8759 5.36039 9.83366 6.28789 8.78966 7.21319C8.75113 7.24729 8.71348 7.28317 8.67229 7.31418C8.46898 7.46522 8.22935 7.45149 8.07211 7.28051C8.03434 7.24019 8.00489 7.1928 7.98547 7.14108C7.96604 7.08935 7.95702 7.0343 7.95891 6.97907C7.9608 6.92385 7.97358 6.86955 7.9965 6.81927C8.01942 6.769 8.05204 6.72374 8.09248 6.68609C8.3237 6.45843 8.57218 6.24892 8.81491 6.03321C9.31631 5.58761 9.81816 5.14335 10.3023 4.66321C10.2257 4.69377 10.1477 4.72256 10.072 4.75534L6.27822 6.40173C5.91501 6.55941 5.6652 6.50715 5.55269 6.25157C5.43354 5.98094 5.55801 5.76435 5.93539 5.60002C7.42306 4.95363 8.91162 4.30974 10.4011 3.66837C10.5517 3.60371 10.6123 3.52708 10.6044 3.35832C10.5898 3.03631 10.6004 2.71296 10.6004 2.36482C10.2017 2.36482 9.82879 2.36836 9.45451 2.36482C9.21001 2.36171 9.04391 2.23193 8.9943 2.02686C8.94115 1.80539 9.05055 1.62024 9.3234 1.49533C10.048 1.16535 10.7745 0.839788 11.5004 0.512459C11.8229 0.367176 12.148 0.226323 12.4669 0.073067C12.5584 0.0256643 12.6598 0.000627619 12.7628 1.16481e-05C12.8658 -0.000604323 12.9675 0.023218 13.0596 0.0695235C14.1058 0.547451 15.156 1.01652 16.2044 1.49135C16.4808 1.6167 16.592 1.79741 16.5441 2.01755C16.4945 2.24567 16.3112 2.36482 16.0015 2.3657C15.656 2.3657 15.3106 2.3657 14.9385 2.3657C14.9385 2.7577 14.931 3.13198 14.9469 3.50493C14.9496 3.55986 15.0585 3.62762 15.1312 3.65907C16.7934 4.38401 18.4567 5.10629 20.1213 5.82591C21.8044 6.55587 23.4894 7.28465 25.1761 8.01224C25.421 8.11766 25.5441 8.278 25.5388 8.55528C25.5286 9.07927 25.5388 9.60327 25.5353 10.1277C25.5353 10.5263 25.3714 10.6849 24.9657 10.6893C24.6707 10.6929 24.3757 10.6947 24.0798 10.6982C24.0674 10.6982 24.055 10.711 24.0311 10.7239V23.7776C24.3469 23.7776 24.6543 23.7776 24.9612 23.7776C25.3798 23.7776 25.5335 23.9344 25.5344 24.3561C25.5344 25.0498 25.5344 25.7437 25.5344 26.4379C25.5344 26.8441 25.3776 27 24.9714 27C18.667 27 12.3625 27 6.05808 27C5.83661 27 5.64394 26.9584 5.54295 26.7369C5.51593 26.6801 5.50216 26.618 5.50268 26.5551C5.50319 26.4923 5.51798 26.4304 5.54592 26.3741C5.57386 26.3177 5.61422 26.2685 5.66397 26.2301C5.71371 26.1917 5.77153 26.165 5.83307 26.1522C5.9491 26.1315 6.06694 26.1228 6.18476 26.1261C12.2305 26.1261 18.2763 26.1261 24.3221 26.1261L24.6472 26.1265ZM16.4272 23.7635V10.7031H9.10415V23.7635H16.4272ZM2.39766 19.2252H8.20499V10.7053H2.39766V19.2252ZM17.3277 10.6986V19.2238H23.1301V10.6986H17.3277ZM24.6454 8.90431H0.897439V9.79727H24.6454V8.90431ZM5.98588 23.7661C5.98588 22.5729 5.98588 21.4084 5.98588 20.2439C5.98588 20.119 5.92033 20.1 5.81801 20.1008C5.49334 20.1039 5.16867 20.1115 4.84355 20.0982C4.66948 20.0911 4.61632 20.1425 4.61765 20.3196C4.62518 21.4035 4.6212 22.4878 4.62253 23.5721C4.62586 23.6369 4.63311 23.7014 4.64423 23.7652L5.98588 23.7661ZM19.5486 23.7599H20.9106C20.9106 22.5711 20.9106 21.3995 20.9039 20.2284C20.9039 20.1841 20.8061 20.1097 20.752 20.1079C20.4203 20.0964 20.0876 20.1106 19.7563 20.0982C19.5875 20.0924 19.5437 20.1518 19.5455 20.3139C19.553 21 19.5486 21.687 19.5486 22.3718V23.7599ZM3.73577 20.1017C3.35086 20.1017 2.99031 20.1119 2.62843 20.0977C2.43708 20.0902 2.37463 20.142 2.3764 20.3427C2.38614 21.4203 2.38083 22.498 2.38172 23.5761C2.38172 23.6394 2.39057 23.7023 2.39456 23.7599H3.73577V20.1017ZM23.1363 20.1172H21.8031V23.7648H23.1377L23.1363 20.1172ZM6.86954 23.7586H8.20765V20.1177H6.86954V23.7586ZM18.6587 23.767V20.1221H17.3299V23.767H18.6587ZM14.0522 2.38165H11.4916V3.40837H14.0513L14.0522 2.38165ZM11.5717 1.43598C11.5753 1.44838 11.5788 1.46078 11.5819 1.47319H13.9561C13.5893 1.26722 13.2164 1.09625 12.8412 0.931476C12.794 0.913113 12.7417 0.913113 12.6946 0.931476C12.319 1.09581 11.946 1.26678 11.5722 1.43598H11.5717Z" fill="white"/>
</svg>
