<svg width="16" height="29" viewBox="0 0 16 29" fill="none" xmlns="http://www.w3.org/2000/svg">
<g clip-path="url(#clip0)">
<path d="M0 14.5002C0 9.96266 0 5.42513 0 0.887601C0 0.190227 0.186921 0 0.873647 0H14.2854C14.9655 0 15.1634 0.19904 15.1634 0.8865C15.1634 9.9711 15.1634 19.0556 15.1634 28.1399C15.1634 28.7907 14.9563 29 14.3155 29H0.846839C0.201978 29 0 28.7943 0 28.1414V14.5002ZM1.25924 1.25704V27.7382H13.906V1.25704H1.25924Z" fill="white"/>
<path d="M12.378 10.0621C12.378 12.3059 12.378 14.5499 12.378 16.7942C12.378 17.453 12.19 17.6388 11.5227 17.6388C8.82207 17.6388 6.12144 17.6388 3.42081 17.6388C2.76897 17.6388 2.57617 17.442 2.57617 16.7825C2.57617 12.2944 2.57617 7.80619 2.57617 3.31787C2.57617 2.69871 2.78145 2.48645 3.39143 2.48609C6.1207 2.48462 8.85047 2.48462 11.5807 2.48609C12.1797 2.48609 12.3806 2.69468 12.3809 3.30098C12.3794 5.55481 12.3785 7.80851 12.378 10.0621ZM11.1268 3.73615H3.82146C3.81668 3.84411 3.80934 3.92821 3.80934 4.01267C3.80934 8.04538 3.80714 12.0782 3.80273 16.1112C3.80273 16.3822 3.90482 16.4178 4.13544 16.4171C6.36124 16.4104 8.58667 16.4134 10.8125 16.4123C10.9131 16.4123 11.0141 16.4016 11.125 16.395L11.1268 3.73615Z" fill="white"/>
<path d="M7.57525 26.208C6.21502 26.208 4.85479 26.208 3.49456 26.208C2.8901 26.208 2.68665 26.0067 2.68665 25.4026C2.68518 23.5195 2.68518 21.636 2.68665 19.7524C2.68665 19.1497 2.8901 18.9478 3.49456 18.9478C6.22457 18.9478 8.95433 18.9478 11.6839 18.9478C12.2659 18.9478 12.4807 19.1574 12.4818 19.7369C12.4853 21.6299 12.4853 23.5229 12.4818 25.4159C12.4818 25.9913 12.2615 26.2072 11.6846 26.208C10.3146 26.2092 8.94478 26.2092 7.57525 26.208ZM11.2244 20.1886C11.1308 20.1806 11.0658 20.1706 11.0012 20.1706C8.72799 20.1706 6.45482 20.1706 4.18202 20.1648C3.95801 20.1648 3.91321 20.2503 3.91431 20.4508C3.92043 21.8676 3.92043 23.2847 3.91431 24.7019C3.91431 24.9186 3.98775 24.9752 4.19377 24.9744C6.45739 24.9686 8.72089 24.9686 10.9843 24.9744C11.1749 24.9744 11.2524 24.9278 11.2509 24.7203C11.2432 23.2844 11.2472 21.8482 11.2461 20.4119C11.2446 20.3465 11.2333 20.2812 11.2244 20.1886Z" fill="white"/>
</g>
<defs>
<clipPath id="clip0">
<rect width="15.1645" height="29" fill="white"/>
</clipPath>
</defs>
</svg>
