<svg width="15" height="19" viewBox="0 0 15 19" fill="none" xmlns="http://www.w3.org/2000/svg">
<path d="M2.64768 0C2.43946 0.0976522 2.21015 0.167567 2.02694 0.298276C1.63629 0.577934 1.45854 0.976902 1.45932 1.44996C1.45932 2.2099 1.45932 2.96984 1.45932 3.72978V3.96346H0.472155V4.32443H1.44526V6.59437H0.479968V6.94774H1.44018V9.22946H0.477233V9.58055H1.44213V11.8509H0.48114V12.2191H1.45776V12.9539C1.45776 13.1944 1.52534 13.4627 1.43706 13.6675C1.35502 13.8575 1.09915 13.9715 0.931948 14.1292C0.100257 14.9187 -0.191948 15.877 0.125259 16.9569C0.451841 18.0691 1.25033 18.7302 2.41837 18.962C2.46876 18.9723 2.51798 18.9871 2.56798 19H3.23209C3.57468 18.8883 3.94072 18.8191 4.25676 18.658C6.16703 17.6815 6.31391 15.0605 4.53021 13.8799C4.38098 13.7811 4.33489 13.6808 4.33489 13.5132C4.33957 9.58777 4.32551 5.66193 4.34817 1.73684C4.35637 0.845432 4.04151 0.25572 3.15552 0H2.64768ZM1.97732 7.63245C1.97732 5.60594 1.97732 3.5802 1.97732 1.55522C1.97732 1.47314 1.97537 1.39031 1.98201 1.30862C2.02108 0.806295 2.53517 0.423666 3.04379 0.514479C3.51921 0.599212 3.82196 0.964743 3.82196 1.4625C3.82196 5.50766 3.81975 9.55269 3.81532 13.5976C3.81532 13.9118 3.89345 14.0916 4.18331 14.2682C4.98063 14.7622 5.34823 15.5088 5.25213 16.4208C5.15251 17.3646 4.61576 18.0315 3.69461 18.3552C2.80276 18.669 1.9785 18.4912 1.28588 17.8681C0.10182 16.8019 0.343632 14.9769 1.76598 14.1736C1.92927 14.0817 1.98279 13.9836 1.98201 13.8043C1.97459 11.7471 1.97732 9.68922 1.97732 7.63245Z" fill="#ABABAB"/>
<path d="M2.34835 14.2678C1.80144 14.4418 1.38852 14.7469 1.11273 15.2215C0.916792 15.5637 0.82917 15.9546 0.860862 16.3451C0.892555 16.7355 1.04215 17.1082 1.29086 17.4162C1.77995 18.0329 2.65813 18.3183 3.4238 18.1104C4.23166 17.8912 4.82076 17.2434 4.92272 16.4614C5.04382 15.5293 4.53598 14.6778 3.64139 14.343C3.48513 14.2849 3.45974 14.2085 3.46013 14.0672C3.46404 12.2884 3.46495 10.5098 3.46287 8.73127V8.48999H2.34835V14.2678Z" fill="#ABABAB"/>
<path d="M11.1482 10.8015C11.0359 10.8553 11.0037 10.9382 11.0116 11.0508C11.0225 11.2069 11.0144 11.3641 11.0144 11.5208L10.989 11.5348C10.909 11.4586 10.8304 11.381 10.7485 11.3066C10.6593 11.2259 10.5698 11.1454 10.4754 11.0696C10.3886 11.0003 10.2972 11.0019 10.2262 11.0653C10.1553 11.1287 10.151 11.2134 10.2309 11.2884C10.4127 11.4603 10.5883 11.6394 10.7871 11.7944C10.9637 11.932 11.0571 12.0817 11.0156 12.2922C11.0073 12.3342 11.0144 12.3787 11.0144 12.4219L10.9832 12.4415C10.9556 12.4087 10.9318 12.3725 10.8995 12.344C10.7546 12.2156 10.6093 12.0875 10.46 11.9632C10.3782 11.8951 10.2962 11.8977 10.2272 11.9601C10.1938 11.9886 10.1743 12.0279 10.173 12.0693C10.1718 12.1106 10.1888 12.1508 10.2205 12.1809C10.3122 12.2729 10.4079 12.3616 10.5046 12.4496C10.6572 12.5886 10.8137 12.7241 10.9645 12.8644C10.9926 12.8924 11.0094 12.9282 11.0121 12.9658C11.0181 13.0816 11.0131 13.1978 11.0151 13.3138C11.0151 13.3518 11.0052 13.3714 10.9591 13.3788C10.6982 13.4202 10.4838 13.5398 10.291 13.6978C10.1588 13.8061 10.2097 13.7867 10.049 13.724C9.82372 13.6352 9.68949 13.501 9.64899 13.2739C9.61328 13.0731 9.53443 12.8784 9.47178 12.6814C9.45705 12.634 9.43607 12.5882 9.40929 12.5452C9.39014 12.5161 9.3606 12.4937 9.32547 12.4816C9.29034 12.4695 9.25166 12.4683 9.21572 12.4784C9.1443 12.4976 9.08496 12.5672 9.09901 12.6382C9.12248 12.7593 9.15802 12.8786 9.19043 12.9981C9.21803 13.1002 9.24828 13.2015 9.27738 13.3031L9.25589 13.3204C9.13075 13.2464 9.00462 13.1738 8.8818 13.0968C8.86295 13.0851 8.85716 13.054 8.85006 13.0305C8.76608 12.7599 8.68359 12.4889 8.59945 12.2183C8.58855 12.1825 8.57371 12.1477 8.55515 12.1146C8.51481 12.0436 8.43084 12.0109 8.35529 12.0312C8.31397 12.0423 8.27881 12.0669 8.25677 12.1001C8.23473 12.1333 8.22741 12.1727 8.23627 12.2106C8.28586 12.4126 8.34207 12.6134 8.3953 12.8147C8.39777 12.8241 8.39893 12.8337 8.40356 12.8583C8.34901 12.834 8.30438 12.8153 8.26007 12.7943C8.12436 12.7288 7.99029 12.661 7.85342 12.5972C7.75225 12.5502 7.68166 12.5708 7.61554 12.6589C7.56595 12.7242 7.58082 12.8057 7.6691 12.8586C7.81077 12.9433 7.96021 13.0178 8.1065 13.0956C8.14353 13.1154 8.18122 13.1344 8.23462 13.1619C8.07096 13.2021 7.92582 13.236 7.78184 13.2735C7.68166 13.2997 7.58148 13.3271 7.48428 13.361C7.39766 13.3906 7.36427 13.4795 7.39915 13.5641C7.41833 13.6106 7.52131 13.6787 7.60298 13.6577C7.85424 13.5932 8.10749 13.5352 8.36008 13.4748C8.39463 13.4666 8.43199 13.4638 8.46357 13.45C8.71665 13.3394 8.87832 13.505 9.06545 13.6169C9.03603 13.6257 9.00693 13.6355 8.97718 13.6429C8.77881 13.6928 8.57945 13.7414 8.38108 13.792C8.3133 13.8092 8.26272 13.8448 8.25164 13.9121C8.24057 13.9795 8.25677 14.041 8.32339 14.0733C8.36843 14.0944 8.42005 14.1013 8.47001 14.093C8.75104 14.0338 9.03206 13.9745 9.30961 13.9015C9.47492 13.8578 9.6237 13.8504 9.76685 13.952C9.83116 13.9975 9.93596 14.0148 9.97035 14.0705C9.99961 14.118 9.95068 14.202 9.94208 14.2704C9.91629 14.475 9.90703 14.6794 9.9839 14.8777C10.0004 14.9194 9.98671 14.9402 9.94572 14.9599C9.86306 14.9996 9.77859 15.0376 9.70371 15.087C9.60998 15.1489 9.51658 15.1529 9.40847 15.1266C9.12182 15.0568 8.83336 14.9933 8.54556 14.9271C8.51086 14.9191 8.47564 14.9132 8.44009 14.9093C8.3505 14.8994 8.27809 14.9405 8.25544 15.013C8.22767 15.1018 8.25544 15.1723 8.34835 15.1997C8.53366 15.2544 8.7226 15.2991 8.91039 15.3479C8.9618 15.3613 9.01355 15.3742 9.06512 15.3874L9.07091 15.4127C8.94709 15.4742 8.82427 15.5376 8.6983 15.5954C8.67582 15.6056 8.63879 15.5954 8.6102 15.5893C8.27958 15.5123 7.94968 15.4346 7.6205 15.3563C7.53041 15.3351 7.42858 15.3751 7.39998 15.4425C7.36212 15.5314 7.3975 15.6223 7.49916 15.6518C7.70828 15.713 7.92086 15.7644 8.13196 15.8196L8.23114 15.8455C8.14502 15.891 8.07212 15.9288 7.99971 15.9677C7.89144 16.0262 7.78151 16.0828 7.67604 16.1455C7.58578 16.1989 7.56033 16.2757 7.60992 16.3404C7.68927 16.4413 7.7501 16.4629 7.85061 16.4131C7.98533 16.3462 8.12105 16.2809 8.25677 16.2154C8.29991 16.1945 8.34405 16.1751 8.40769 16.1456C8.37281 16.2732 8.34157 16.3837 8.31215 16.4944C8.28537 16.595 8.25726 16.6956 8.23511 16.7971C8.22564 16.8352 8.2327 16.8751 8.25487 16.9087C8.27703 16.9423 8.31264 16.9671 8.35446 16.9781C8.43282 17.0007 8.51977 16.9666 8.55763 16.8892C8.58916 16.8209 8.6155 16.7508 8.63648 16.6793C8.70872 16.4468 8.77633 16.2129 8.85138 15.9809C8.86626 15.9397 8.89516 15.9037 8.93403 15.878C9.03851 15.8116 9.14893 15.7537 9.2582 15.6924L9.27804 15.7072C9.24354 15.8278 9.20905 15.9482 9.17456 16.0686C9.15009 16.1545 9.12281 16.2401 9.10314 16.3269C9.08033 16.4281 9.12728 16.5085 9.21506 16.5315C9.30895 16.5561 9.40185 16.5133 9.43921 16.413C9.49162 16.2729 9.53327 16.1296 9.57791 15.9873C9.6275 15.8307 9.67147 15.6728 9.72453 15.5173C9.73873 15.4791 9.76618 15.4459 9.80289 15.4227C9.89133 15.3686 9.99101 15.3289 10.078 15.2732C10.1583 15.2218 10.2066 15.2458 10.2763 15.2947C10.4142 15.3917 10.5589 15.4808 10.7094 15.5613C10.778 15.5982 10.8633 15.614 10.9435 15.6288C11.0017 15.6395 11.0187 15.6602 11.0167 15.7119C11.0123 15.8229 11.0192 15.9341 11.0131 16.0451C11.0101 16.0827 10.9931 16.1184 10.965 16.1465C10.7299 16.3651 10.4899 16.5796 10.255 16.7982C10.2188 16.832 10.1848 16.8787 10.177 16.9231C10.1654 16.9899 10.2029 17.0469 10.2737 17.0814C10.3444 17.116 10.4026 17.098 10.4545 17.0537C10.616 16.9155 10.7764 16.7766 10.9357 16.6369C10.9547 16.6166 10.9713 16.5946 10.9853 16.5713L11.0146 16.5894C11.0146 16.7215 11.0167 16.8536 11.0123 16.9856C11.0123 17.0077 10.9852 17.0321 10.965 17.0505C10.7446 17.2513 10.5242 17.4516 10.3038 17.6514C10.2746 17.6775 10.247 17.705 10.2211 17.7338C10.154 17.8078 10.1595 17.8819 10.2355 17.951C10.3016 18.0113 10.3638 18.0193 10.4461 17.9534C10.6165 17.8171 10.779 17.673 10.9438 17.5313C10.9601 17.5145 10.9746 17.4964 10.9872 17.4772L11.0085 17.4876C11.0117 17.505 11.0139 17.5225 11.0151 17.5402C11.0151 17.6859 11.023 17.832 11.0128 17.977C11.0055 18.0792 11.0419 18.1522 11.1326 18.2082H11.2649C11.356 18.1489 11.4001 18.0719 11.3806 17.9681C11.3735 17.9296 11.3794 17.8893 11.3794 17.8496V17.4901L11.4041 17.4769C11.4494 17.5221 11.4913 17.5701 11.5401 17.6117C11.6795 17.7302 11.818 17.8509 11.9641 17.9632C12.0382 18.0199 12.1036 18.0061 12.1665 17.9423C12.2369 17.8708 12.2385 17.8056 12.1704 17.7306C12.1461 17.704 12.1208 17.6784 12.0931 17.6538C11.8708 17.4516 11.6483 17.2497 11.4256 17.0478C11.409 17.033 11.3832 17.0139 11.3829 16.9963C11.3793 16.86 11.3809 16.7236 11.3809 16.5872L11.41 16.5716C11.4287 16.5961 11.4431 16.6239 11.4667 16.6443C11.6243 16.7824 11.7798 16.9224 11.9433 17.0545C12.0448 17.1364 12.1703 17.0939 12.2124 16.9767C12.2404 16.8991 12.1959 16.8479 12.1428 16.799C11.9061 16.5818 11.6676 16.3663 11.4308 16.149C11.4092 16.1292 11.3827 16.1018 11.3812 16.0772C11.3766 15.9344 11.3791 15.7915 11.3791 15.6509C11.4783 15.6229 11.5757 15.6022 11.6666 15.5691C11.8385 15.5072 11.9936 15.413 12.1215 15.2928C12.182 15.2359 12.2349 15.2239 12.3111 15.2708C12.4017 15.3265 12.5024 15.3689 12.5936 15.4235C12.6286 15.4452 12.6548 15.4763 12.6683 15.5124C12.7269 15.6902 12.7771 15.8691 12.8336 16.047C12.8748 16.1772 12.9133 16.3087 12.967 16.4349C13.0128 16.542 13.1514 16.5701 13.2377 16.501C13.3006 16.4506 13.3087 16.3866 13.2891 16.3177C13.2395 16.1458 13.1899 15.9743 13.1403 15.8024C13.1307 15.7688 13.1226 15.7349 13.1138 15.7013L13.1332 15.69C13.2373 15.7493 13.3403 15.81 13.4458 15.8678C13.4717 15.8813 13.4942 15.8995 13.5119 15.9212C13.5295 15.943 13.5419 15.9678 13.5483 15.9941C13.616 16.2278 13.6878 16.4607 13.76 16.6932C13.7799 16.7599 13.8046 16.8254 13.8339 16.8892C13.8615 16.9472 13.9182 16.9929 13.9877 16.9813C14.0475 16.9701 14.1008 16.9398 14.1378 16.8961C14.1637 16.8619 14.1576 16.8009 14.1487 16.7542C14.1321 16.6695 14.1039 16.5867 14.0807 16.5024C14.0496 16.3894 14.0189 16.2763 13.9834 16.1459C14.0478 16.1755 14.0918 16.196 14.1351 16.2169C14.2783 16.2854 14.4199 16.3567 14.5649 16.4223C14.6462 16.4592 14.7281 16.4254 14.7831 16.3416C14.8233 16.2807 14.8097 16.2111 14.7423 16.1638C14.6918 16.1296 14.639 16.0982 14.5843 16.0698C14.4485 15.9968 14.3117 15.9257 14.1587 15.8451C14.2855 15.8147 14.395 15.7937 14.5004 15.762C14.6684 15.7115 14.8335 15.6539 15 15.5991V15.4376C14.9307 15.3477 14.8363 15.3448 14.7296 15.3705C14.456 15.4364 14.1796 15.4935 13.9085 15.5666C13.7686 15.6044 13.6481 15.602 13.5283 15.524C13.4635 15.4816 13.3919 15.4475 13.3026 15.3982C13.3606 15.3818 13.3912 15.3723 13.4221 15.3646C13.6182 15.3154 13.8147 15.2686 14.01 15.2165C14.1219 15.1869 14.1672 15.111 14.1381 15.0176C14.1126 14.9362 14.0282 14.8917 13.925 14.9148C13.5861 14.9903 13.2478 15.068 12.9102 15.1479C12.8857 15.1549 12.8597 15.1568 12.8342 15.1534C12.8088 15.1501 12.7845 15.1416 12.7632 15.1286C12.6607 15.071 12.5564 15.0158 12.4491 14.9647C12.4037 14.9429 12.3921 14.9202 12.4083 14.8777C12.4825 14.6813 12.4774 14.4797 12.4505 14.2776C12.441 14.2071 12.3919 14.1201 12.4222 14.0714C12.4581 14.0138 12.5662 13.996 12.6328 13.9493C12.772 13.8517 12.9148 13.8597 13.075 13.9012C13.3549 13.9738 13.6389 14.0338 13.9219 14.0963C14.0247 14.1189 14.1037 14.0806 14.1338 14.0013C14.1698 13.9076 14.124 13.8236 14.0108 13.794C13.8124 13.7417 13.6141 13.6944 13.4157 13.6445C13.3861 13.6371 13.357 13.6278 13.3277 13.6193L13.3234 13.5949C13.4478 13.5334 13.5714 13.4705 13.6972 13.4122C13.7174 13.4031 13.7509 13.4122 13.7769 13.4189C14.091 13.493 14.4051 13.5624 14.7175 13.6435C14.8375 13.675 14.9256 13.6574 14.9998 13.5713V13.4084C14.9127 13.3742 14.8282 13.333 14.7382 13.3072C14.5915 13.2652 14.4406 13.2341 14.2928 13.1966C14.2538 13.1846 14.2155 13.1707 14.1781 13.155C14.29 13.0966 14.3862 13.0488 14.4796 12.9971C14.5721 12.9486 14.6616 12.8956 14.7477 12.8384C14.816 12.7912 14.821 12.7192 14.776 12.6598C14.7142 12.578 14.6457 12.5539 14.5611 12.59C14.4785 12.6249 14.3993 12.6641 14.3193 12.7023C14.2135 12.7534 14.1085 12.806 13.981 12.8685C14.0206 12.7282 14.0559 12.6099 14.087 12.4907C14.1133 12.3901 14.1402 12.2894 14.1568 12.1872C14.1678 12.114 14.1095 12.0507 14.0339 12.0318C13.9962 12.0234 13.9563 12.0268 13.921 12.0415C13.8857 12.0561 13.8571 12.0812 13.8399 12.1125C13.821 12.1456 13.806 12.1803 13.7952 12.2162C13.7126 12.4844 13.6299 12.753 13.5473 13.0214C13.5393 13.0471 13.535 13.0824 13.5142 13.0954C13.3902 13.1741 13.2623 13.2475 13.1355 13.3226L13.115 13.3049C13.1517 13.1791 13.1892 13.0531 13.2244 12.9275C13.2504 12.8343 13.2785 12.7411 13.2957 12.646C13.3014 12.6101 13.2925 12.5736 13.2707 12.543C13.2489 12.5124 13.2156 12.4899 13.1768 12.4794C13.1381 12.469 13.0964 12.4713 13.0594 12.4861C13.0224 12.5008 12.9925 12.5269 12.9751 12.5597C12.9525 12.5991 12.9345 12.6406 12.9214 12.6834C12.8604 12.8778 12.7816 13.0702 12.7474 13.2687C12.7072 13.5022 12.5668 13.639 12.3366 13.7286C12.1865 13.7871 12.2337 13.8074 12.1078 13.7033C11.9135 13.5427 11.697 13.4219 11.4335 13.3798C11.3855 13.3721 11.3788 13.3502 11.3793 13.3138C11.3809 13.1953 11.377 13.0768 11.3819 12.9583C11.3847 12.9252 11.3997 12.8939 11.4247 12.8694C11.5166 12.7805 11.6145 12.6974 11.7089 12.6109C11.8611 12.4715 12.0144 12.3331 12.1628 12.1906C12.242 12.1146 12.2387 12.0263 12.1658 11.9597C12.0929 11.893 12.0195 11.8946 11.9263 11.9691C11.8234 12.0512 11.7262 12.1387 11.6272 12.2245C11.5495 12.292 11.4727 12.3603 11.3793 12.4421C11.3793 12.3454 11.3874 12.2688 11.3776 12.1941C11.3601 12.0608 11.3984 11.9571 11.5224 11.8736C11.5945 11.8255 11.6524 11.7601 11.7157 11.7016C11.8674 11.562 12.0187 11.422 12.1696 11.2816C12.2253 11.2297 12.2389 11.1711 12.1975 11.1059C12.137 11.011 12.0269 10.9874 11.934 11.0585C11.8319 11.1372 11.7378 11.2242 11.6413 11.3087C11.5586 11.3811 11.4768 11.4549 11.3786 11.5423C11.3786 11.3633 11.375 11.2082 11.3799 11.0535C11.3832 10.9516 11.3596 10.8646 11.2642 10.8017L11.1482 10.8015ZM10.2828 14.5031C10.2828 14.0572 10.6997 13.6869 11.2009 13.6869C11.6932 13.6869 12.1093 14.0606 12.1101 14.5036C12.1109 14.9466 11.691 15.327 11.1974 15.3256C10.7038 15.3243 10.2823 14.9463 10.2828 14.5031Z" fill="#ABABAB"/>
<path d="M12.9912 5.27289C12.9912 4.34856 12.2581 3.53201 11.1872 3.53052C10.1404 3.52888 9.38984 4.32962 9.38769 5.26961C9.38524 6.23658 10.1948 7.0254 11.1876 7.02614C12.1804 7.02689 12.9908 6.23986 12.9912 5.27289ZM11.1899 6.6743C10.8076 6.67469 10.4408 6.52748 10.1701 6.26499C9.89931 6.0025 9.74675 5.64621 9.7459 5.27438C9.74436 4.50286 10.393 3.86835 11.185 3.86716C11.982 3.86581 12.6336 4.49824 12.633 5.27319C12.6324 5.64508 12.4801 6.00155 12.2096 6.26431C11.939 6.52707 11.5723 6.67464 11.1899 6.6746V6.6743Z" fill="#ABABAB"/>
<path d="M13.7192 2.61182C13.6904 2.62673 13.636 2.64283 13.6003 2.67697C13.3439 2.92236 13.0917 3.17059 12.8381 3.41867C12.7542 3.50097 12.7507 3.59414 12.8247 3.66824C12.906 3.74979 13.0014 3.74875 13.0922 3.66138C13.3476 3.41549 13.6023 3.169 13.8561 2.92192C13.9208 2.85915 13.9352 2.78491 13.9009 2.71096C13.8707 2.64432 13.8137 2.61853 13.7192 2.61182Z" fill="#ABABAB"/>
<path d="M9.39906 3.73015C9.49639 3.72105 9.55418 3.68542 9.5856 3.6152C9.61702 3.54498 9.60093 3.48371 9.54728 3.43093C9.31737 3.20551 9.0872 2.98044 8.85677 2.75572C8.82611 2.7259 8.79669 2.69475 8.7648 2.66627C8.68234 2.59501 8.57122 2.59635 8.50286 2.66791C8.43955 2.7341 8.44277 2.84681 8.51542 2.91838C8.77456 3.17152 9.03513 3.42348 9.29713 3.67424C9.32687 3.70421 9.37377 3.71718 9.39906 3.73015Z" fill="#ABABAB"/>
<path d="M8.43911 7.74836C8.44892 7.83886 8.47482 7.89745 8.5487 7.92562C8.62947 7.95678 8.69983 7.93859 8.7593 7.8809C8.89878 7.74672 9.03673 7.61031 9.17514 7.47479C9.29193 7.36044 9.4098 7.24698 9.52522 7.13114C9.60508 7.05094 9.60538 6.95358 9.53074 6.87964C9.46069 6.81031 9.35677 6.80882 9.27799 6.88411C9.01588 7.13457 8.75562 7.38673 8.4972 7.64057C8.46562 7.67203 8.45351 7.72138 8.43911 7.74836Z" fill="#ABABAB"/>
<path d="M13.7175 7.93991C13.8231 7.93618 13.8808 7.90696 13.9113 7.83719C13.9276 7.80436 13.9326 7.76733 13.9256 7.73153C13.9187 7.69573 13.9001 7.66305 13.8726 7.6383C13.612 7.38386 13.3501 7.13072 13.0869 6.87886C13.0135 6.80849 12.9115 6.81252 12.8416 6.88139C12.7717 6.95027 12.765 7.04986 12.8373 7.12127C13.0346 7.31807 13.2359 7.51188 13.4351 7.70688C13.4889 7.75966 13.5393 7.81616 13.5973 7.86417C13.6385 7.89935 13.6906 7.92366 13.7175 7.93991Z" fill="#ABABAB"/>
<path d="M8.13344 5.44571C8.31216 5.44571 8.49072 5.44571 8.6699 5.44571C8.78777 5.44571 8.86579 5.37668 8.86717 5.27381C8.86855 5.17095 8.79053 5.09789 8.67358 5.09759C8.31369 5.0967 7.9539 5.0967 7.59421 5.09759C7.4742 5.09759 7.39679 5.16737 7.39587 5.27009C7.39495 5.37564 7.47374 5.44467 7.59835 5.44526C7.7763 5.44631 7.95487 5.44556 8.13344 5.44571Z" fill="#ABABAB"/>
<path d="M14.2747 5.44595C14.4506 5.44595 14.6272 5.44595 14.8026 5.44595C14.92 5.44566 14.9983 5.37678 15 5.27391C15.0017 5.17104 14.9233 5.09814 14.8061 5.09784C14.4465 5.09694 14.0869 5.09694 13.7272 5.09784C13.6062 5.09784 13.5308 5.16627 13.5301 5.27033C13.5301 5.37678 13.6067 5.44491 13.7313 5.44551C13.9117 5.44655 14.0935 5.44581 14.2747 5.44595Z" fill="#ABABAB"/>
<path d="M11.3667 2.28589C11.3667 2.11713 11.3667 1.94836 11.3667 1.779C11.3657 1.66093 11.2926 1.58325 11.1853 1.58325C11.0816 1.58325 11.0104 1.66048 11.0101 1.77706C11.0092 2.11956 11.0092 2.46197 11.0101 2.80427C11.0101 2.92175 11.081 2.99226 11.191 2.99092C11.2983 2.98958 11.3659 2.92055 11.3668 2.80695C11.3677 2.63327 11.3667 2.45958 11.3667 2.28589Z" fill="#ABABAB"/>
<path d="M11.0099 8.25574C11.0099 8.42197 11.0099 8.58835 11.0099 8.75458C11.0099 8.88354 11.0778 8.95898 11.1903 8.95809C11.3028 8.95719 11.367 8.88175 11.3672 8.751C11.3672 8.41854 11.3672 8.08598 11.3672 7.75332C11.3672 7.62839 11.2956 7.54892 11.1862 7.54907C11.0767 7.54922 11.0107 7.6257 11.0101 7.74944C11.0093 7.91821 11.0099 8.08697 11.0099 8.25574Z" fill="#ABABAB"/>
</svg>
