<svg width="21" height="19" viewBox="0 0 21 19" fill="none" xmlns="http://www.w3.org/2000/svg">
<path d="M0.000415446 6.25881C0.110093 6.02284 0.296628 5.94432 0.552958 5.9464C1.50821 5.95498 2.46373 5.95498 3.41953 5.9464C3.54857 5.94437 3.67421 5.90466 3.78097 5.83215C6.36116 3.98148 8.93887 2.12665 11.5141 0.26767C11.6092 0.199122 11.6994 0.121018 11.8003 0.0624403C11.8608 0.0248991 11.9299 0.00353661 12.0011 0.00040269C12.0722 -0.00273122 12.143 0.0124687 12.2065 0.0445438C12.2701 0.0766189 12.3243 0.124493 12.3641 0.183571C12.4038 0.24265 12.4277 0.31095 12.4335 0.381918C12.4397 0.457774 12.4418 0.533914 12.4397 0.609998V18.3877C12.4397 18.4222 12.4397 18.4571 12.4397 18.4916C12.4459 18.6827 12.4027 18.8501 12.217 18.9486C12.0251 19.0491 11.8572 18.9901 11.694 18.8755C11.2528 18.5647 10.8045 18.2635 10.3683 17.9457C8.49545 16.5797 6.62428 15.2115 4.75477 13.8411C4.42546 13.6001 4.08965 13.3679 3.74732 13.1444C3.6543 13.0883 3.54767 13.0589 3.43906 13.0592C2.48353 13.0526 1.52801 13.0505 0.572484 13.0592C0.312 13.0592 0.115494 12.9878 0 12.7418L0.000415446 6.25881ZM0.86205 12.1997H1.11132C1.95592 12.1997 2.80093 12.1934 3.64553 12.2055C3.79533 12.2086 3.94104 12.2549 4.06514 12.3389C6.267 13.9234 8.46498 15.513 10.6591 17.1078C10.9532 17.3209 11.2507 17.529 11.5731 17.7575V1.28385C11.2611 1.5111 10.9781 1.72007 10.6923 1.9253C8.49268 3.50094 6.29151 5.07493 4.08882 6.64725C3.94659 6.74014 3.78091 6.79071 3.61105 6.79307C2.77351 6.8072 1.93598 6.79972 1.09802 6.79972H0.86205V12.1997Z" fill="#ABABAB"/>
<path d="M20.7741 9.87326C20.7392 10.0195 20.7063 10.1641 20.6694 10.3116C20.2955 11.7964 18.8971 12.8042 17.3483 12.7095C16.6054 12.6666 15.9008 12.3658 15.356 11.8589C14.8112 11.3521 14.4604 10.6709 14.3642 9.93308C14.1498 8.25717 15.2216 6.70549 16.8348 6.35651C18.507 5.99466 20.133 6.93814 20.6361 8.5671C20.6926 8.74989 20.7284 8.941 20.7741 9.12546V9.87326ZM16.4057 7.47821L19.1476 11.1856C19.9457 10.511 20.1924 9.14664 19.46 8.14293C18.7384 7.15167 17.3063 6.83843 16.4057 7.47821ZM18.4343 11.646C17.5348 10.4304 16.645 9.22766 15.7505 8.01996C15.0409 8.80141 15.033 10.0814 15.7056 10.943C16.3467 11.764 17.5992 12.0992 18.4343 11.6476V11.646Z" fill="#ABABAB"/>
</svg>
