<svg width="18" height="29" viewBox="0 0 18 29" fill="none" xmlns="http://www.w3.org/2000/svg">
<path d="M0 29V0C9.36615 4.54674 17.3603 15.6946 17.1505 29H0ZM15.618 27.7177C14.6962 25.3389 13.1705 23.325 10.9645 21.5335C9.48549 20.3314 7.91964 19.2747 6.09379 18.66C5.43816 18.4398 4.86606 18.366 4.33953 19.0335C3.92077 19.5648 3.38881 20.1101 2.78634 20.3716C1.3684 20.9914 1.1742 22.0506 1.2675 23.4114C1.36623 24.8297 1.28956 26.2607 1.28956 27.7148L15.618 27.7177ZM1.31958 20.905C1.56838 20.7853 1.70073 20.7379 1.81646 20.6638C6.3321 17.7631 7.9757 13.3683 8.22956 8.26681C8.24113 8.0332 8.03573 7.73594 7.8484 7.55368C6.65503 6.3943 5.47793 5.21575 4.22019 4.13051C3.35446 3.38303 2.36794 2.77513 1.31958 2.02186V20.905ZM8.76911 8.56623C8.37493 10.3523 8.16157 12.0429 7.61009 13.6149C7.05861 15.1869 6.16828 16.6349 5.45587 18.0785C10.0211 19.6913 13.4887 22.6278 15.8031 26.9525C15.4983 20.0475 13.1195 13.9657 8.7673 8.56623H8.76911Z" fill="white"/>
</svg>
