<svg width="21" height="20" viewBox="0 0 21 20" fill="none" xmlns="http://www.w3.org/2000/svg">
<path d="M21 17.8718C20.9399 18.1085 20.9072 18.3571 20.8147 18.5794C20.5231 19.2819 19.999 19.7221 19.2772 19.8866C18.9619 19.9576 18.6402 19.9935 18.3175 19.9937C13.1122 20 7.90681 20.0016 2.70126 19.9984C2.20702 19.9984 1.71873 19.9514 1.267 19.727C0.557292 19.3745 0.143032 18.787 0.0251288 17.9879C-0.0731238 17.3221 0.127723 16.7189 0.436419 16.1476C1.14064 14.8414 1.84737 13.5368 2.55662 12.2339C3.4249 10.6327 4.29378 9.03178 5.16328 7.43105C6.13027 5.6492 7.09756 3.86752 8.06516 2.08598C8.26007 1.72806 8.4536 1.36662 8.68027 1.03056C9.03032 0.513534 9.49645 0.145744 10.1173 0.034819C10.8199 -0.0904412 11.4238 0.126238 11.9397 0.620699C12.2119 0.881794 12.4273 1.1866 12.6085 1.52149C13.2698 2.74354 13.9379 3.96371 14.6022 5.18506C15.6872 7.18139 16.7719 9.17827 17.8564 11.1757C18.7213 12.7661 19.5874 14.3554 20.4546 15.9436C20.6888 16.3718 20.8887 16.8117 20.9664 17.3015C20.9778 17.3741 20.9893 17.4467 21 17.5193V17.8718ZM10.5027 18.4594C13.1228 18.4594 15.7429 18.4579 18.3629 18.4551C18.5905 18.4537 18.8167 18.4202 19.0354 18.3555C19.3713 18.2561 19.5258 17.9865 19.4992 17.6269C19.4821 17.3919 19.3953 17.179 19.2856 16.9762C18.8481 16.1664 18.4095 15.3571 17.9697 14.5483C17.2335 13.1937 16.4968 11.8392 15.7597 10.4848C14.273 7.74784 12.7858 5.01092 11.2981 2.27399C11.2001 2.08903 11.0816 1.91639 10.9449 1.75956C10.6837 1.46838 10.3567 1.46203 10.0805 1.73606C9.9525 1.85861 9.84217 1.99931 9.75282 2.1539C8.94365 3.6282 8.13935 5.10508 7.33992 6.58454C6.30316 8.49596 5.26732 10.4085 4.2324 12.3223C3.39291 13.8734 2.55395 15.4244 1.71553 16.9755C1.6339 17.1255 1.57052 17.2853 1.52679 17.4512C1.40341 17.9325 1.60677 18.281 2.07929 18.3928C2.26483 18.4358 2.45442 18.4574 2.64459 18.4572C5.26374 18.4613 7.88313 18.4622 10.5027 18.4598V18.4594Z" fill="#3CC673"/>
<path d="M9.75274 8.82252V6.30909C9.75274 5.98807 9.74726 5.66681 9.75388 5.34555C9.76302 4.91407 10.1033 4.5867 10.5269 4.59211C10.9165 4.59704 11.246 4.95003 11.246 5.36576C11.246 7.67544 11.2454 9.98519 11.2444 12.295C11.2444 12.8191 10.7129 13.1909 10.239 13.004C9.96593 12.8962 9.7564 12.6083 9.75571 12.3225C9.75358 11.1559 9.75358 9.98919 9.75571 8.82228L9.75274 8.82252Z" fill="#3CC673"/>
<path d="M9.38171 15.7346C9.38171 15.1094 9.89537 14.583 10.5025 14.583C11.1096 14.583 11.6232 15.1097 11.6253 15.7331C11.6266 15.8858 11.5986 16.0373 11.5428 16.1788C11.487 16.3203 11.4046 16.4491 11.3002 16.5578C11.1959 16.6664 11.0717 16.7527 10.9348 16.8118C10.7979 16.8709 10.651 16.9016 10.5025 16.9021C9.88075 16.9044 9.38149 16.3841 9.38171 15.7346Z" fill="#3CC673"/>
</svg>
