<svg width="22" height="22" viewBox="0 0 22 22" fill="none" xmlns="http://www.w3.org/2000/svg">
<path d="M0 22C0.35796 21.0121 0.705382 20.0539 1.05175 19.095C1.31346 18.3703 1.57095 17.6442 1.83687 16.9209C1.8557 16.8765 1.86252 16.828 1.85667 16.7802C1.85081 16.7323 1.83248 16.6869 1.8035 16.6483C1.07107 15.4898 0.544844 14.2477 0.277867 12.8997C0.0991499 11.9981 0.0411525 11.0768 0.105386 10.16C0.204074 8.72173 0.589305 7.31732 1.23865 6.02859C1.888 4.73986 2.78848 3.59256 3.88768 2.65349C5.4249 1.33184 7.19456 0.499023 9.19666 0.155035C10.1885 -0.0162346 11.1999 -0.0457807 12.2001 0.0672901C14.824 0.358841 17.057 1.44347 18.8992 3.32119C20.4129 4.86459 21.3905 6.70094 21.7906 8.82639C22.3804 11.9604 21.7225 14.8252 19.8396 17.3971C18.616 19.0677 17.0131 20.2759 15.0881 21.0449C14.1652 21.4151 13.2045 21.6392 12.2131 21.7532C10.2842 21.9769 8.46458 21.6134 6.72045 20.8009C6.52478 20.71 6.31787 20.6342 6.14047 20.5157C5.9441 20.3846 5.7653 20.394 5.55137 20.4549C3.74459 20.9704 1.93652 21.4799 0.127165 21.9836C0.0851793 21.9918 0.0427013 21.9973 0 22H0ZM2.69436 19.5162C3.74822 19.2219 4.76695 18.9387 5.78567 18.6507C5.83134 18.6349 5.88009 18.63 5.92799 18.6365C5.97589 18.6429 6.0216 18.6605 6.06143 18.6877C7.27477 19.4439 8.58542 19.9203 10.0145 20.0798C11.143 20.2089 12.2858 20.1269 13.384 19.8378C15.3226 19.3291 16.9314 18.3036 18.2103 16.7615C19.4047 15.3167 20.0763 13.6559 20.2713 11.8024C20.356 10.9678 20.3221 10.1255 20.1705 9.30042C19.875 7.65075 19.1921 6.17797 18.0888 4.91388C16.4019 2.98163 14.2716 1.91366 11.6978 1.70997C10.3201 1.59928 8.93539 1.80649 7.65135 2.31545C5.6557 3.102 4.10618 4.42517 3.01895 6.27025C2.29635 7.49623 1.89694 8.82324 1.79156 10.2429C1.72393 11.1543 1.79367 12.0707 1.99846 12.9616C2.28968 14.248 2.85139 15.4114 3.64178 16.4661C3.72222 16.5735 3.7296 16.6615 3.68393 16.7808C3.5111 17.2352 3.3474 17.6942 3.18195 18.1518C3.02106 18.5979 2.86298 19.0439 2.69436 19.5162Z" fill="white"/>
<path d="M7.23652 5.03787H7.34191C7.83019 5.03787 7.96052 5.12527 8.13792 5.58077C8.44108 6.35859 8.73054 7.1413 9.04564 7.91388C9.1981 8.28828 9.01754 8.57214 8.83487 8.85215C8.67785 9.09686 8.48183 9.315 8.29389 9.53733C8.09471 9.77295 8.07188 9.896 8.22082 10.1666C8.94658 11.4873 9.907 12.5916 11.224 13.3603C11.5549 13.5537 11.9044 13.7169 12.2511 13.8816C12.4809 13.991 12.6288 13.9553 12.7756 13.7648C13.0887 13.3593 13.3974 12.9503 13.7016 12.5378C13.8713 12.3067 14.0047 12.2469 14.2693 12.3571C14.5338 12.4672 14.8001 12.5979 15.0593 12.7311C15.5971 13.0048 16.124 13.2911 16.658 13.5642C16.8642 13.669 16.958 13.8214 16.9418 14.0536C16.9032 14.6129 16.8688 15.1862 16.4975 15.6358C15.9126 16.3447 15.1549 16.7481 14.2141 16.7852C13.481 16.8139 12.8209 16.5615 12.1528 16.3161C10.5446 15.7253 9.2125 14.7429 8.0638 13.4953C7.20385 12.5609 6.44789 11.5492 5.8363 10.4386C5.39684 9.64081 5.10984 8.79272 5.13829 7.86528C5.16885 6.86548 5.55105 6.0181 6.26241 5.31684C6.53395 5.04976 6.87716 5.00991 7.23652 5.03787Z" fill="white"/>
</svg>
