<svg width="135" height="36" viewBox="0 0 135 36" fill="none" xmlns="http://www.w3.org/2000/svg">
<path d="M35.8936 17.9954C36.3147 27.7864 27.2186 35.9266 18.2124 35.9994C8.24272 36.0858 -0.111164 27.4317 0.00111888 17.9033C0.113402 8.07259 8.31009 0.0813346 17.798 0.000614799C27.6846 -0.0823788 36.2125 8.24881 35.8936 17.9954ZM17.9889 32.9184C25.7556 33.2378 33.6682 26.1152 32.9001 16.9756C32.2062 8.84227 26.0643 2.97474 17.752 3.0907C9.47559 3.20667 2.92049 9.49826 3.05073 18.5423C3.15853 25.8218 9.49692 33.0582 17.9889 32.9184Z" fill="#F26422"/>
<path d="M14.1803 21.5074C12.7969 21.3437 11.6258 21.3085 10.5041 21.0527C8.36063 20.5627 6.1857 17.8694 6.46192 15.5956C6.63933 14.1699 6.5742 12.6976 6.47315 11.256C6.37546 9.89176 6.98516 9.07774 8.20456 9.04477C9.50143 9.00953 9.99435 10.11 10.0774 11.2481C10.1729 12.5862 10.0965 13.9368 10.1021 15.2818C10.1111 17.1213 10.6546 17.6863 12.441 17.6897C16.4259 17.6966 20.4131 17.6897 24.3969 17.6966C27.4713 17.6966 29.7596 20.1784 29.7551 23.4754C29.7551 26.4882 27.4589 28.7961 24.4598 28.8063C23.7491 28.8063 23.0383 28.8063 22.4062 28.8063C22.2636 28.9757 22.1513 29.0474 22.1434 29.1281C21.8638 31.9703 21.4416 32.4103 18.511 32.5115C17.4601 32.5479 16.3878 32.383 15.3491 32.1795C14.5284 32.0192 14.1297 31.4917 14.1533 30.514C14.2274 27.5239 14.1803 24.5316 14.1803 21.5074ZM22.1614 25.4059C23.584 25.4434 25.0807 25.8606 25.9453 24.4418C26.2934 23.8733 26.3484 22.7171 26.0015 22.1953C25.0796 20.8094 23.566 21.4324 22.1614 21.3994V25.4059Z" fill="#F26422"/>
<path d="M14.4756 12.7963C14.4913 10.5976 16.0588 9.04458 18.1596 8.96841C19.9562 8.90588 22.0514 10.5385 22.0199 13.0101C21.9997 14.7291 20.5176 16.7493 18.1293 16.6914C15.8982 16.6368 14.4588 15.1486 14.4756 12.7963Z" fill="#F26422"/>
<path d="M53.0297 8.70597C53.6625 8.92437 54.1552 9.26757 54.5079 9.73557C54.871 10.1932 55.0525 10.7288 55.0525 11.3424C55.0525 12.008 54.8347 12.5852 54.399 13.074C53.9633 13.5628 53.372 13.9372 52.6252 14.1972C51.8887 14.4572 51.0795 14.5872 50.1978 14.5872C49.4509 14.5872 48.704 14.4936 47.9572 14.3064C47.2207 14.1192 46.5205 13.8332 45.8566 13.4484L46.6346 11.6388C47.1117 11.93 47.6356 12.1536 48.2061 12.3096C48.787 12.4552 49.3524 12.528 49.9022 12.528C50.649 12.528 51.2663 12.3928 51.7538 12.1224C52.2517 11.852 52.5007 11.4724 52.5007 10.9836C52.5007 10.578 52.3295 10.2712 51.9872 10.0632C51.6553 9.85517 51.1988 9.75117 50.6179 9.75117H47.9572V7.84797H50.4312C50.9395 7.84797 51.3337 7.74397 51.6138 7.53597C51.9042 7.32797 52.0494 7.04197 52.0494 6.67797C52.0494 6.25157 51.842 5.91877 51.427 5.67957C51.0225 5.44037 50.4986 5.32077 49.8555 5.32077C49.3783 5.32077 48.8856 5.38837 48.3773 5.52357C47.869 5.64837 47.3866 5.84077 46.9302 6.10077L46.1678 4.13517C47.3192 3.54237 48.564 3.24597 49.9022 3.24597C50.7528 3.24597 51.536 3.37077 52.2517 3.62037C52.9675 3.86997 53.538 4.23397 53.9633 4.71237C54.3886 5.19077 54.6013 5.74717 54.6013 6.38157C54.6013 6.90157 54.4612 7.36437 54.1812 7.76997C53.9011 8.17557 53.5173 8.48757 53.0297 8.70597Z" fill="#48494B"/>
<path d="M64.4235 12.06H59.3665L58.4018 14.4H55.8189L60.6736 3.47997H63.1632L68.0335 14.4H65.3883L64.4235 12.06ZM63.63 10.1412L61.9028 5.96037L60.1757 10.1412H63.63Z" fill="#48494B"/>
<path d="M77.0245 8.70597C77.6884 8.90357 78.1967 9.22597 78.5493 9.67317C78.902 10.1204 79.0784 10.6716 79.0784 11.3268C79.0784 12.294 78.7101 13.048 77.9736 13.5888C77.2475 14.1296 76.205 14.4 74.8461 14.4H69.4779V3.47997H74.5504C75.816 3.47997 76.8014 3.72437 77.5068 4.21317C78.2122 4.70197 78.5649 5.39877 78.5649 6.30357C78.5649 6.84437 78.4301 7.32277 78.1603 7.73877C77.8906 8.14437 77.512 8.46677 77.0245 8.70597ZM71.983 8.00397H74.3326C74.8824 8.00397 75.2973 7.89477 75.5774 7.67637C75.8575 7.44757 75.9975 7.11477 75.9975 6.67797C75.9975 6.25157 75.8523 5.92397 75.5618 5.69517C75.2817 5.46637 74.872 5.35197 74.3326 5.35197H71.983V8.00397ZM74.7527 12.528C75.9353 12.528 76.5265 12.06 76.5265 11.124C76.5265 10.2192 75.9353 9.76677 74.7527 9.76677H71.983V12.528H74.7527Z" fill="#48494B"/>
<path d="M86.2689 14.5872C85.1382 14.5872 84.1165 14.3428 83.2036 13.854C82.3011 13.3652 81.5906 12.6944 81.0719 11.8416C80.5636 10.9784 80.3095 10.0112 80.3095 8.93997C80.3095 7.86877 80.5636 6.90677 81.0719 6.05397C81.5906 5.19077 82.3011 4.51477 83.2036 4.02597C84.1165 3.53717 85.1382 3.29277 86.2689 3.29277C87.3996 3.29277 88.4162 3.53717 89.3187 4.02597C90.2212 4.51477 90.9317 5.19077 91.4504 6.05397C91.9691 6.90677 92.2284 7.86877 92.2284 8.93997C92.2284 10.0112 91.9691 10.9784 91.4504 11.8416C90.9317 12.6944 90.2212 13.3652 89.3187 13.854C88.4162 14.3428 87.3996 14.5872 86.2689 14.5872ZM86.2689 12.4344C86.9121 12.4344 87.493 12.2888 88.0117 11.9976C88.5303 11.696 88.9349 11.28 89.2253 10.7496C89.5262 10.2192 89.6766 9.61597 89.6766 8.93997C89.6766 8.26397 89.5262 7.66077 89.2253 7.13037C88.9349 6.59997 88.5303 6.18917 88.0117 5.89797C87.493 5.59637 86.9121 5.44557 86.2689 5.44557C85.6258 5.44557 85.0449 5.59637 84.5262 5.89797C84.0075 6.18917 83.5978 6.59997 83.297 7.13037C83.0065 7.66077 82.8613 8.26397 82.8613 8.93997C82.8613 9.61597 83.0065 10.2192 83.297 10.7496C83.5978 11.28 84.0075 11.696 84.5262 11.9976C85.0449 12.2888 85.6258 12.4344 86.2689 12.4344Z" fill="#48494B"/>
<path d="M105.101 12.3408V16.662H102.767V14.4H95.08V16.662H92.746L92.7616 12.3408H93.1973C93.8508 12.32 94.3124 11.8416 94.5821 10.9056C94.8518 9.96957 95.0178 8.63317 95.08 6.89637L95.2045 3.47997H103.576V12.3408H105.101ZM97.3051 7.13037C97.2532 8.43037 97.1443 9.52237 96.9783 10.4064C96.8124 11.28 96.5582 11.9248 96.2159 12.3408H101.086V5.53917H97.3518L97.3051 7.13037Z" fill="#48494B"/>
<path d="M52.0339 32.5872C50.9032 32.5872 49.8814 32.3428 48.9686 31.854C48.0661 31.3652 47.3555 30.6944 46.8368 29.8416C46.3286 28.9784 46.0744 28.0112 46.0744 26.94C46.0744 25.8688 46.3286 24.9068 46.8368 24.054C47.3555 23.1908 48.0661 22.5148 48.9686 22.026C49.8814 21.5372 50.9032 21.2928 52.0339 21.2928C53.1646 21.2928 54.1812 21.5372 55.0836 22.026C55.9861 22.5148 56.6967 23.1908 57.2154 24.054C57.734 24.9068 57.9934 25.8688 57.9934 26.94C57.9934 28.0112 57.734 28.9784 57.2154 29.8416C56.6967 30.6944 55.9861 31.3652 55.0836 31.854C54.1812 32.3428 53.1646 32.5872 52.0339 32.5872ZM52.0339 30.4344C52.677 30.4344 53.2579 30.2888 53.7766 29.9976C54.2953 29.696 54.6998 29.28 54.9903 28.7496C55.2911 28.2192 55.4415 27.616 55.4415 26.94C55.4415 26.264 55.2911 25.6608 54.9903 25.1304C54.6998 24.6 54.2953 24.1892 53.7766 23.898C53.2579 23.5964 52.677 23.4456 52.0339 23.4456C51.3907 23.4456 50.8098 23.5964 50.2912 23.898C49.7725 24.1892 49.3628 24.6 49.0619 25.1304C48.7715 25.6608 48.6262 26.264 48.6262 26.94C48.6262 27.616 48.7715 28.2192 49.0619 28.7496C49.3628 29.28 49.7725 29.696 50.2912 29.9976C50.8098 30.2888 51.3907 30.4344 52.0339 30.4344Z" fill="#48494B"/>
<path d="M64.152 28.0008H62.4092V32.4H59.9041V21.48H62.4092V25.8948H64.2142L67.0772 21.48H69.738L66.1748 26.7528L69.8469 32.4H66.9839L64.152 28.0008Z" fill="#48494B"/>
<path d="M76.1792 32.5872C75.0485 32.5872 74.0268 32.3428 73.1139 31.854C72.2114 31.3652 71.5009 30.6944 70.9822 29.8416C70.4739 28.9784 70.2198 28.0112 70.2198 26.94C70.2198 25.8688 70.4739 24.9068 70.9822 24.054C71.5009 23.1908 72.2114 22.5148 73.1139 22.026C74.0268 21.5372 75.0485 21.2928 76.1792 21.2928C77.3099 21.2928 78.3265 21.5372 79.229 22.026C80.1315 22.5148 80.8421 23.1908 81.3607 24.054C81.8794 24.9068 82.1387 25.8688 82.1387 26.94C82.1387 28.0112 81.8794 28.9784 81.3607 29.8416C80.8421 30.6944 80.1315 31.3652 79.229 31.854C78.3265 32.3428 77.3099 32.5872 76.1792 32.5872ZM76.1792 30.4344C76.8224 30.4344 77.4033 30.2888 77.922 29.9976C78.4406 29.696 78.8452 29.28 79.1356 28.7496C79.4365 28.2192 79.5869 27.616 79.5869 26.94C79.5869 26.264 79.4365 25.6608 79.1356 25.1304C78.8452 24.6 78.4406 24.1892 77.922 23.898C77.4033 23.5964 76.8224 23.4456 76.1792 23.4456C75.5361 23.4456 74.9552 23.5964 74.4365 23.898C73.9179 24.1892 73.5081 24.6 73.2073 25.1304C72.9168 25.6608 72.7716 26.264 72.7716 26.94C72.7716 27.616 72.9168 28.2192 73.2073 28.7496C73.5081 29.28 73.9179 29.696 74.4365 29.9976C74.9552 30.2888 75.5361 30.4344 76.1792 30.4344Z" fill="#48494B"/>
<path d="M94.0701 21.48V32.4H91.5494V27.9228H86.6013V32.4H84.0806V21.48H86.6013V25.7856H91.5494V21.48H94.0701Z" fill="#48494B"/>
<path d="M111.133 21.48V32.4H108.628V23.5392H103.711V32.4H101.206V21.48H111.133Z" fill="#48494B"/>
<path d="M121.38 26.706C122.043 26.9036 122.552 27.226 122.904 27.6732C123.257 28.1204 123.434 28.6716 123.434 29.3268C123.434 30.294 123.065 31.048 122.329 31.5888C121.603 32.1296 120.56 32.4 119.201 32.4H113.833V21.48H118.906C120.171 21.48 121.157 21.7244 121.862 22.2132C122.567 22.702 122.92 23.3988 122.92 24.3036C122.92 24.8444 122.785 25.3228 122.515 25.7388C122.246 26.1444 121.867 26.4668 121.38 26.706ZM116.338 26.004H118.688C119.237 26.004 119.652 25.8948 119.933 25.6764C120.213 25.4476 120.353 25.1148 120.353 24.678C120.353 24.2516 120.207 23.924 119.917 23.6952C119.637 23.4664 119.227 23.352 118.688 23.352H116.338V26.004ZM119.108 30.528C120.29 30.528 120.882 30.06 120.882 29.124C120.882 28.2192 120.29 27.7668 119.108 27.7668H116.338V30.528H119.108Z" fill="#48494B"/>
<path d="M127.236 21.48L129.492 24.7872L131.748 21.48H134.704L131.079 26.706L135 32.4H132.028L129.492 28.7808L126.987 32.4H124.077L127.967 26.8152L124.326 21.48H127.236Z" fill="#48494B"/>
</svg>
