<svg width="18" height="18" viewBox="0 0 18 18" fill="none" xmlns="http://www.w3.org/2000/svg">
<path d="M9.00397 3.50308C10.3568 3.50308 11.7101 3.50308 13.0629 3.50308C13.1358 3.50019 13.2084 3.51372 13.2759 3.54277C13.3433 3.57182 13.404 3.61571 13.4538 3.67145C14.921 5.21441 16.3906 6.75504 17.8628 8.29333C18.0457 8.48445 18.0457 8.6537 17.8628 8.8457C16.1542 10.6353 14.4458 12.4255 12.7375 14.2163C11.5823 15.4269 10.4267 16.6369 9.27086 17.8463C9.07581 18.0505 8.92503 18.051 8.73039 17.8463C6.92661 15.9569 5.12268 14.0673 3.31861 12.1774C2.25578 11.0639 1.19308 9.95014 0.130523 8.83608C-0.0432283 8.6537 -0.0432283 8.48401 0.128853 8.29945C1.61047 6.74658 3.09196 5.19371 4.5733 3.64084C4.61445 3.59517 4.66441 3.55918 4.71986 3.53528C4.77531 3.51138 4.83498 3.5001 4.89491 3.5022C6.26487 3.50482 7.63456 3.50482 9.00397 3.5022V3.50308ZM12.6603 8.9008H5.33848L8.99937 16.616L12.6603 8.9008ZM5.43078 8.23385H12.5625C12.54 8.19318 12.527 8.16562 12.5107 8.14069C11.6595 6.8339 10.8087 5.52784 9.95835 4.22251C9.94393 4.2031 9.92585 4.18703 9.90522 4.17529C9.88459 4.16355 9.86187 4.1564 9.83848 4.15428C9.27907 4.14991 8.71981 4.14991 8.16069 4.15428C8.1373 4.15642 8.11459 4.16358 8.09396 4.17532C8.07334 4.18706 8.05525 4.20312 8.04082 4.22251C7.218 5.48032 6.397 6.74046 5.5778 8.00293C5.53144 8.07247 5.48675 8.14507 5.43078 8.23385ZM8.13437 16.2508C8.08049 16.1376 8.01576 16.0002 7.9506 15.8629C6.86465 13.5715 5.77787 11.2798 4.69025 8.98783C4.67867 8.95582 4.65722 8.92877 4.62931 8.91095C4.6014 8.89313 4.56861 8.88556 4.53613 8.88943C3.4176 8.89206 2.29908 8.89206 1.18055 8.88943C1.15257 8.88943 1.12417 8.8938 1.10119 8.89599L8.13437 16.2508ZM9.86437 16.2508L16.8976 8.89905C16.8748 8.89499 16.8517 8.89236 16.8286 8.89118C15.7636 8.89118 14.6985 8.89774 13.6339 8.88418C13.4183 8.88156 13.3202 8.95328 13.2254 9.15578C12.1837 11.3717 11.1351 13.5854 10.0795 15.7969C10.0039 15.9561 9.92911 16.1153 9.86437 16.2522V16.2508ZM1.07321 8.23385C1.09627 8.2384 1.11956 8.24161 1.14296 8.24347C2.29462 8.24347 3.44614 8.2426 4.59753 8.24085C4.64145 8.23622 4.68185 8.21358 4.70988 8.17787C4.78715 8.07247 4.85481 7.9592 4.92665 7.84942C5.70324 6.65663 6.47984 5.46384 7.25643 4.27106C7.27731 4.23869 7.29402 4.20327 7.31783 4.15953C7.27606 4.15516 7.25225 4.15079 7.22928 4.15079C6.49961 4.15079 5.76993 4.15079 5.04026 4.15385C4.98549 4.15886 4.93416 4.18395 4.89533 4.2247C3.64398 5.5312 2.39389 6.8393 1.14505 8.149C1.12625 8.17043 1.10621 8.19449 1.07321 8.23385ZM10.6696 4.15079C10.7085 4.2142 10.7302 4.25225 10.7532 4.28855C11.5935 5.58018 12.4336 6.87181 13.2734 8.16344C13.2897 8.1911 13.3131 8.21337 13.341 8.22769C13.3689 8.242 13.4 8.24778 13.4309 8.24435C14.5622 8.24435 15.6935 8.24435 16.8249 8.24435C16.852 8.24435 16.8792 8.2391 16.923 8.23472C16.893 8.19755 16.8775 8.17568 16.8591 8.15644C15.6106 6.84702 14.362 5.53776 13.1134 4.22863C13.0899 4.20212 13.0611 4.18127 13.0291 4.16753C12.997 4.15379 12.9626 4.14748 12.928 4.14904C12.2217 4.15166 11.5158 4.14904 10.8096 4.14904L10.6696 4.15079Z" fill="#F26422"/>
<path d="M8.68652 1.264V0.369626C8.68652 0.226614 8.73163 0.107218 8.85818 0.0368054C8.89897 0.014284 8.94412 0.00175776 8.9902 0.000172002C9.03629 -0.00141375 9.08212 0.00798238 9.12423 0.0276514C9.16635 0.0473203 9.20364 0.0767483 9.23331 0.113715C9.26297 0.150681 9.28423 0.19422 9.29548 0.241046C9.30674 0.285139 9.31264 0.330546 9.31302 0.376186C9.31302 0.968936 9.31302 1.56154 9.31302 2.154C9.31302 2.33987 9.21988 2.46758 9.06702 2.50387C8.86529 2.55242 8.69112 2.39541 8.68819 2.15793C8.68652 1.8601 8.68652 1.56183 8.68652 1.264Z" fill="#F26422"/>
<path d="M16.0123 1.1478C15.991 1.19153 15.9705 1.27638 15.9167 1.33192C15.499 1.77685 15.0783 2.21828 14.6545 2.65621C14.5972 2.71704 14.5193 2.75159 14.4377 2.75225C14.3562 2.7529 14.2778 2.71962 14.2197 2.65971C14.1616 2.5998 14.1286 2.51817 14.1279 2.43279C14.1273 2.34741 14.1591 2.26527 14.2163 2.20443C14.6396 1.75484 15.0656 1.30903 15.4944 0.867023C15.5372 0.821655 15.5929 0.792024 15.6531 0.782563C15.7134 0.773103 15.7749 0.784322 15.8285 0.814541C15.9472 0.871396 16.0019 0.973298 16.0123 1.1478Z" fill="#F26422"/>
<path d="M3.54485 2.76945C3.47426 2.72834 3.39031 2.70166 3.33601 2.64437C2.91528 2.21227 2.499 1.77653 2.08717 1.33714C2.05501 1.308 2.02894 1.27222 2.01061 1.23203C1.99228 1.19184 1.98208 1.14812 1.98064 1.10361C1.97921 1.0591 1.98658 1.01476 2.00229 0.973371C2.018 0.931983 2.0417 0.89444 2.07192 0.8631C2.10214 0.831759 2.13822 0.807297 2.1779 0.791247C2.21757 0.775198 2.25999 0.767907 2.30248 0.769834C2.34497 0.77176 2.38663 0.782862 2.42483 0.802442C2.46303 0.822022 2.49696 0.849658 2.52447 0.883616C2.87448 1.2453 3.22032 1.6118 3.56865 1.97698C3.64091 2.05483 3.71609 2.12655 3.78626 2.2079C3.82872 2.25327 3.85643 2.31152 3.86542 2.37434C3.87442 2.43716 3.86426 2.50136 3.83638 2.55778C3.78125 2.68067 3.68686 2.74365 3.54485 2.76945Z" fill="#F26422"/>
<path d="M5.54538 0.125977C5.65272 0.129475 5.74127 0.204262 5.80559 0.321908C6.0186 0.711146 6.23273 1.09951 6.44796 1.487C6.5198 1.6182 6.59415 1.74634 6.66474 1.87755C6.75913 2.05249 6.7182 2.24579 6.57034 2.33851C6.41413 2.43648 6.23203 2.38531 6.13262 2.20731C5.83747 1.67812 5.54427 1.14733 5.25301 0.61493C5.13147 0.393632 5.27933 0.126851 5.54538 0.125977Z" fill="#F26422"/>
<path d="M12.7973 0.469312C12.7835 0.52169 12.7652 0.572635 12.7426 0.621509C12.451 1.15332 12.1571 1.68397 11.8609 2.21345C11.8302 2.2766 11.7802 2.32716 11.7189 2.35705C11.6575 2.38694 11.5884 2.39443 11.5225 2.37833C11.3083 2.32497 11.2164 2.09318 11.3308 1.88107C11.4895 1.58848 11.6528 1.29896 11.8141 1.00637C11.9448 0.769769 12.0734 0.531853 12.2063 0.296561C12.281 0.168855 12.4038 0.103691 12.5291 0.131244C12.591 0.141425 12.6485 0.170852 12.6941 0.2157C12.7398 0.260548 12.7715 0.318742 12.7852 0.382718C12.7889 0.40371 12.791 0.428202 12.7973 0.469312Z" fill="#F26422"/>
</svg>
