<svg width="16" height="20" viewBox="0 0 16 20" fill="none" xmlns="http://www.w3.org/2000/svg">
<path d="M8.39215 0C8.73242 0.0624866 9.08072 0.0984164 9.41177 0.192146C11.656 0.827947 13.0605 2.26201 13.5681 4.47716C13.7097 5.09617 13.6716 5.75658 13.6925 6.39902C13.7109 6.97038 13.6965 7.5433 13.6965 8.12872C13.8618 8.15255 14.0199 8.16778 14.1744 8.19902C15.1748 8.4021 15.9612 9.27145 15.9709 10.2552C15.9849 11.7123 16.0487 13.1769 15.9263 14.6254C15.7441 16.7901 14.556 18.3672 12.5814 19.3736C11.7118 19.8165 10.7737 19.9957 9.79698 19.9957C8.59318 19.9977 7.38939 20.0043 6.18559 19.9957C4.02838 19.9785 2.31056 19.1123 1.06664 17.4017C0.321084 16.3738 -0.00554654 15.2053 7.1187e-05 13.9466C0.00528765 12.782 7.11869e-05 11.617 0.00207752 10.4524C0.00448511 9.14374 0.827081 8.27127 2.16691 8.15255C2.19901 8.14981 2.23071 8.14122 2.28729 8.13068V7.72412C2.28729 7.03404 2.2901 6.34434 2.28729 5.65426C2.27886 4.10849 2.8314 2.77675 3.93649 1.67464C4.87265 0.742028 6.02147 0.198004 7.35608 0.0363203C7.42109 0.0285095 7.48529 0.0124973 7.54949 0H8.39215ZM8.01175 8.88872C6.14613 8.88872 4.28064 8.88872 2.41529 8.88872C1.39929 8.88872 0.765687 9.5089 0.764483 10.4981C0.764483 11.6502 0.768094 12.8023 0.764483 13.954C0.759668 15.0925 1.05219 16.1454 1.74197 17.0709C2.82539 18.5277 4.31649 19.2357 6.15589 19.2513C7.37935 19.2619 8.60362 19.2549 9.82668 19.2513C10.3981 19.2513 10.9615 19.1842 11.5068 19.0143C13.6917 18.334 15.1583 16.4426 15.2089 14.2083C15.2365 12.9332 15.2241 11.6573 15.2089 10.381C15.2052 10.1538 15.1515 9.93003 15.0512 9.72487C14.7558 9.13085 14.2342 8.88442 13.5665 8.8852C11.7156 8.89015 9.86399 8.89132 8.01175 8.88872ZM11.3992 8.13771C11.4045 8.08147 11.4117 8.04281 11.4113 8.00453C11.4113 7.1594 11.4213 6.31349 11.4045 5.46836C11.389 4.65052 11.0627 3.86725 10.4887 3.26978C9.91471 2.6723 9.13362 2.30298 8.29625 2.23311C6.33004 2.0605 4.61864 3.53791 4.57771 5.45937C4.55966 6.30451 4.57129 7.15003 4.57049 7.99555C4.57049 8.03929 4.57972 8.08342 4.58574 8.13771H11.3992ZM12.9212 8.13771C12.9257 8.07717 12.9325 8.0264 12.9325 7.97602C12.9325 7.17541 12.9325 6.3748 12.9301 5.57458C12.9241 4.31118 12.4835 3.21454 11.6099 2.27646C10.2324 0.792799 7.84522 0.302279 5.98134 1.16225C4.08978 2.03511 3.1155 3.51487 3.05491 5.5492C3.03124 6.35528 3.04929 7.16292 3.04929 7.97055C3.04929 8.02601 3.05932 8.08108 3.06414 8.13224H3.80849C3.80849 7.74482 3.80367 7.37459 3.80849 7.00436C3.81932 6.33497 3.77438 5.65816 3.86266 4.99815C4.15759 2.7869 6.26584 1.23958 8.53661 1.52233C10.5377 1.77189 12.1227 3.47504 12.1649 5.4379C12.1813 6.19242 12.1697 6.94734 12.1709 7.70303C12.1709 7.84402 12.1709 7.98461 12.1709 8.13732L12.9212 8.13771Z" fill="#F26422"/>
<path d="M9.88864 12.9619C9.88864 13.5087 9.65109 13.9496 9.26387 14.3319C9.19021 14.4095 9.14615 14.5093 9.13907 14.6147C9.12262 15.0833 9.14308 15.552 9.1166 16.0206C9.0853 16.5775 8.55683 17.0341 7.98704 17.031C7.41724 17.0278 6.8972 16.5709 6.8659 16.0116C6.84022 15.5512 6.84864 15.088 6.85185 14.6264C6.85477 14.5692 6.84437 14.5121 6.82145 14.4593C6.79852 14.4066 6.76365 14.3596 6.71944 14.3218C5.97709 13.6215 5.88521 12.5472 6.49794 11.8153C7.03684 11.1713 7.85663 10.9541 8.68283 11.2369C9.39508 11.479 9.8782 12.1703 9.88864 12.9619ZM7.61306 14.9962H7.62108C7.62108 15.3149 7.61105 15.634 7.62429 15.9523C7.63352 16.1698 7.77477 16.2842 7.98904 16.2858C8.23261 16.2878 8.36623 16.1468 8.36904 15.8609C8.37426 15.3079 8.37506 14.7549 8.36904 14.2019C8.36904 14.0636 8.39713 13.9871 8.53998 13.9211C9.01267 13.702 9.23538 13.179 9.08851 12.6858C8.94165 12.1925 8.48461 11.8465 7.98142 11.8543C7.467 11.8625 7.00514 12.2289 6.88275 12.7256C6.76518 13.2044 7.01357 13.6914 7.49268 13.9496C7.52483 13.9709 7.55187 13.9987 7.57196 14.0311C7.59204 14.0636 7.60469 14.0998 7.60904 14.1374C7.62028 14.4237 7.61306 14.7104 7.61306 14.9962Z" fill="#F26422"/>
</svg>
