<svg width="18" height="18" viewBox="0 0 18 18" fill="none" xmlns="http://www.w3.org/2000/svg">
<path d="M9.00561 3.4386C12.1047 3.44185 14.5966 5.98951 14.559 9.06882C14.523 12.1134 12.0055 14.6073 8.90926 14.5613C5.8881 14.5155 3.40642 12.0182 3.4368 8.93406C3.46653 5.90921 5.98185 3.41842 9.00561 3.4386ZM8.99238 14.015C11.8089 14.0179 14.0703 11.6903 14.0128 8.8937C13.9557 6.17136 11.6993 3.94965 8.93183 3.9848C6.1726 4.01996 3.92593 6.31328 3.98409 9.10615C4.04203 11.8202 6.26938 14.0129 8.99238 14.015Z" fill="#F26422"/>
<path d="M17.3323 5.66047C17.3337 5.71454 17.3183 5.7677 17.2884 5.81274C17.2585 5.85778 17.2154 5.89251 17.165 5.9122C16.7375 6.09014 16.31 6.2678 15.8825 6.44516C15.7126 6.51569 15.5433 6.58795 15.3721 6.65501C15.3061 6.68012 15.2329 6.6786 15.168 6.65077C15.1031 6.62295 15.0515 6.57099 15.0242 6.50587C14.9968 6.44075 14.9959 6.36756 15.0215 6.30174C15.0471 6.23591 15.0972 6.18261 15.1614 6.15308C15.2126 6.12899 15.2655 6.10967 15.3178 6.08797C15.8614 5.86287 16.405 5.63805 16.9486 5.41352C17.1411 5.33279 17.3299 5.45757 17.3323 5.66047Z" fill="#F26422"/>
<path d="M0.665081 5.65535C0.668554 5.46005 0.857349 5.3344 1.04289 5.40992C1.37621 5.54555 1.70801 5.68487 2.04112 5.82223C2.29892 5.929 2.55672 6.03555 2.81453 6.14188C2.96122 6.20265 3.03045 6.34413 2.98401 6.48584C2.9328 6.64122 2.76917 6.71435 2.60967 6.64881C2.2935 6.51861 1.97819 6.3884 1.66266 6.25668C1.39386 6.14543 1.12485 6.0341 0.855613 5.92271C0.728664 5.87084 0.663128 5.77948 0.665081 5.65535Z" fill="#F26422"/>
<path d="M5.69688 17.3329C5.45817 17.3309 5.33252 17.143 5.40913 16.9536C5.52805 16.6593 5.65152 16.3676 5.77283 16.0736C5.89566 15.7767 6.01863 15.4797 6.14174 15.1826C6.19014 15.0661 6.29191 14.9968 6.40389 15.0012C6.46 15.0019 6.51453 15.0199 6.56001 15.0527C6.6055 15.0856 6.63972 15.1317 6.658 15.1848C6.68075 15.2548 6.67625 15.3308 6.64542 15.3976C6.46284 15.836 6.28077 16.2746 6.09921 16.7136C6.03628 16.8655 5.97508 17.0174 5.91041 17.1671C5.86311 17.2765 5.77695 17.3309 5.69688 17.3329Z" fill="#F26422"/>
<path d="M5.65981 0.663086C5.77764 0.666558 5.86748 0.728188 5.91609 0.845805C6.13686 1.37617 6.35669 1.90646 6.57557 2.43668C6.59879 2.49266 6.62245 2.54843 6.6448 2.60486C6.70817 2.76305 6.6474 2.9206 6.50114 2.97876C6.35488 3.03692 6.20406 2.96791 6.14004 2.81405C5.97772 2.42344 5.81612 2.03283 5.65525 1.64222C5.57214 1.4404 5.48881 1.2388 5.40938 1.0346C5.34797 0.877271 5.4211 0.72515 5.57691 0.676323C5.60423 0.670164 5.63192 0.665743 5.65981 0.663086Z" fill="#F26422"/>
<path d="M12.3418 0.666236C12.5232 0.668189 12.6497 0.825736 12.5963 1.00043C12.5529 1.14473 12.4898 1.28253 12.4325 1.4238C12.3162 1.70787 12.1975 1.99106 12.0801 2.2749C12.0044 2.45784 11.9306 2.64143 11.8533 2.82371C11.8312 2.88211 11.7894 2.93098 11.7352 2.96191C11.6809 2.99284 11.6176 3.0039 11.556 2.99319C11.4973 2.9858 11.4428 2.9586 11.4015 2.91607C11.3603 2.87354 11.3348 2.81823 11.3293 2.75926C11.3249 2.70706 11.333 2.65457 11.3527 2.60605C11.5953 2.01522 11.8396 1.42503 12.0855 0.835501C12.1051 0.783956 12.1403 0.73987 12.1863 0.70949C12.2323 0.679109 12.2867 0.663977 12.3418 0.666236Z" fill="#F26422"/>
<path d="M12.3104 17.334C12.2616 17.3317 12.2147 17.3151 12.1753 17.2862C12.1359 17.2574 12.1059 17.2176 12.089 17.1719C11.8412 16.5787 11.5953 15.985 11.3512 15.3907C11.2891 15.2403 11.3512 15.0821 11.4907 15.0237C11.6372 14.9621 11.7924 15.0289 11.8575 15.1858C12.0044 15.5406 12.1487 15.8967 12.2954 16.2515C12.3926 16.4868 12.4948 16.7201 12.5901 16.9562C12.6652 17.1441 12.5367 17.3338 12.3104 17.334Z" fill="#F26422"/>
<path d="M17.0597 12.6177C17.0261 12.6121 16.9931 12.6039 16.9608 12.5931C16.7889 12.5224 16.6183 12.4486 16.4467 12.3774C16.29 12.3123 16.1318 12.2509 15.9751 12.1863C15.7024 12.0738 15.4292 11.9632 15.1583 11.846C15.1257 11.8316 15.0963 11.8109 15.0717 11.7851C15.0472 11.7592 15.0281 11.7287 15.0155 11.6954C15.0028 11.6621 14.997 11.6266 14.9982 11.5909C14.9995 11.5553 15.0078 11.5203 15.0227 11.4879C15.0835 11.3497 15.2417 11.2907 15.3916 11.3527C15.9171 11.5697 16.4421 11.7872 16.9668 12.0051C17.0378 12.0344 17.1099 12.0619 17.1793 12.0945C17.2355 12.1216 17.2807 12.1671 17.3075 12.2235C17.3344 12.2798 17.3412 12.3436 17.3269 12.4043C17.3114 12.464 17.277 12.517 17.2288 12.5555C17.1806 12.5939 17.1213 12.6158 17.0597 12.6177Z" fill="#F26422"/>
<path d="M0.665096 12.3379C0.665096 12.2208 0.728028 12.1294 0.844126 12.0814C1.21593 11.9272 1.58773 11.7732 1.95954 11.6194C2.17437 11.5305 2.38899 11.441 2.60448 11.3532C2.76181 11.2891 2.92087 11.3516 2.97795 11.4979C3.03502 11.6442 2.96449 11.7954 2.80651 11.8605C2.56346 11.9608 2.32107 12.0623 2.07802 12.1622C1.80199 12.2759 1.52531 12.3879 1.24906 12.5014C1.1781 12.5304 1.10909 12.5649 1.03748 12.5923C0.996127 12.6094 0.951153 12.616 0.906626 12.6114C0.862099 12.6068 0.819423 12.5911 0.782458 12.5659C0.745492 12.5406 0.715402 12.5066 0.694911 12.4668C0.67442 12.427 0.664173 12.3827 0.665096 12.3379Z" fill="#F26422"/>
<path d="M13.8039 13.5313C13.8406 13.5309 13.8769 13.5383 13.9105 13.5528C13.9441 13.5673 13.9743 13.5886 13.9993 13.6155C14.4545 14.0707 14.9098 14.526 15.3651 14.9813C15.4153 15.0327 15.4431 15.1019 15.4425 15.1738C15.4418 15.2456 15.4127 15.3143 15.3616 15.3648C15.2507 15.4748 15.0847 15.4733 14.971 15.3593C14.614 15.0032 14.2573 14.6467 13.9012 14.2899C13.7996 14.1881 13.697 14.0875 13.5974 13.9839C13.5622 13.9446 13.5393 13.896 13.5314 13.8438C13.5235 13.7917 13.5309 13.7384 13.5528 13.6905C13.5747 13.6425 13.6101 13.602 13.6547 13.5738C13.6992 13.5457 13.751 13.5311 13.8037 13.5319L13.8039 13.5313Z" fill="#F26422"/>
<path d="M2.82404 15.4461C2.70621 15.435 2.61789 15.383 2.57427 15.271C2.53065 15.159 2.55409 15.059 2.63742 14.9752C3.00734 14.6037 3.37813 14.2328 3.74979 13.8626C3.83139 13.781 3.91233 13.6988 3.99479 13.6181C4.11132 13.5037 4.2756 13.4996 4.3854 13.6072C4.49521 13.7148 4.49738 13.885 4.3802 14.0026C3.92781 14.4574 3.47427 14.9115 3.01956 15.3647C2.9673 15.416 2.89726 15.4452 2.82404 15.4461Z" fill="#F26422"/>
<path d="M13.5273 4.20731C13.5317 4.12202 13.556 4.0554 13.6109 4.00158C14.021 3.59245 14.4307 3.18296 14.8398 2.77311C14.8832 2.72971 14.9262 2.68682 14.9689 2.64443C15.0843 2.53006 15.251 2.52572 15.3595 2.63423C15.468 2.74273 15.4713 2.91243 15.3541 3.03005C14.9669 3.41878 14.5788 3.80678 14.1896 4.19407C14.1193 4.26416 14.0514 4.33664 13.9776 4.40304C13.893 4.479 13.7932 4.4918 13.6894 4.44645C13.5831 4.40022 13.5334 4.31234 13.5273 4.20731Z" fill="#F26422"/>
<path d="M2.84595 2.55612C2.91066 2.5595 2.97179 2.58689 3.01738 2.63294C3.47512 3.09155 3.93293 3.55001 4.39081 4.00832C4.43936 4.05972 4.46593 4.12803 4.46489 4.19872C4.46385 4.2694 4.43528 4.3369 4.38524 4.38685C4.33521 4.43679 4.26767 4.46525 4.19698 4.46617C4.12629 4.46709 4.05803 4.4404 4.00671 4.39177C3.71159 4.0999 3.41885 3.80586 3.12524 3.51225C2.96176 3.34906 2.79857 3.1858 2.63567 3.02247C2.59606 2.98419 2.56917 2.93466 2.55866 2.88058C2.54814 2.82651 2.55449 2.77051 2.57686 2.72018C2.59974 2.66873 2.63774 2.62548 2.68581 2.59617C2.73389 2.56686 2.78974 2.55289 2.84595 2.55612Z" fill="#F26422"/>
<path d="M9.27071 1.24562C9.27071 1.5657 9.27223 1.88578 9.27071 2.20565C9.27071 2.34909 9.18391 2.45043 9.04914 2.47713C8.89246 2.50816 8.73405 2.39163 8.73079 2.23191C8.7258 1.98496 8.73079 1.738 8.73079 1.49105C8.73079 1.39991 8.72776 1.30898 8.72754 1.21806C8.72754 0.906001 8.72754 0.594018 8.72754 0.282108C8.72754 0.118919 8.84255 0 8.99815 0C9.15374 0 9.26984 0.1174 9.27028 0.279938C9.27136 0.602192 9.27071 0.923795 9.27071 1.24562Z" fill="#F26422"/>
<path d="M1.24261 8.72802C1.5603 8.72802 1.87822 8.72694 2.19591 8.72802C2.36952 8.72802 2.48692 8.84998 2.47976 9.01425C2.47743 9.07856 2.45172 9.1398 2.40745 9.18651C2.36319 9.23321 2.3034 9.26216 2.23931 9.26793C2.17899 9.27336 2.11801 9.2714 2.05725 9.2714C1.65622 9.2714 1.25432 9.26858 0.854164 9.26815C0.658859 9.26815 0.461167 9.27249 0.264776 9.27053C0.200267 9.26904 0.138406 9.24459 0.0903173 9.20156C0.0422285 9.15854 0.0110669 9.09977 0.00243611 9.03582C-0.00619473 8.97187 0.00827141 8.90695 0.0432332 8.85271C0.0781951 8.79848 0.131359 8.7585 0.193164 8.73996C0.226376 8.73133 0.260642 8.72746 0.29494 8.72846C0.610467 8.72759 0.926427 8.72802 1.24261 8.72802Z" fill="#F26422"/>
<path d="M8.72656 16.7529C8.72656 16.4372 8.72656 16.1214 8.72656 15.8059C8.72656 15.6382 8.83505 15.5225 8.99148 15.5188C9.02749 15.5172 9.06346 15.5229 9.09718 15.5357C9.13091 15.5484 9.16169 15.5679 9.18766 15.5929C9.21362 15.6179 9.23422 15.6479 9.2482 15.6812C9.26218 15.7144 9.26925 15.7501 9.26898 15.7862C9.27202 15.9889 9.27028 16.1913 9.27006 16.3938C9.27006 16.8353 9.27006 17.277 9.27006 17.7188C9.27006 17.8818 9.15464 17.9994 8.99885 17.9996C8.84307 17.9998 8.72765 17.882 8.72721 17.7192C8.72721 17.3972 8.72721 17.0752 8.72721 16.7529H8.72656Z" fill="#F26422"/>
<path d="M16.7577 9.2722C16.4357 9.2722 16.1134 9.27393 15.7914 9.27111C15.6751 9.27111 15.585 9.21642 15.539 9.10553C15.493 8.99464 15.5158 8.89091 15.5995 8.80433C15.6237 8.77958 15.6526 8.76007 15.6846 8.74704C15.7166 8.73401 15.751 8.72773 15.7855 8.72859H16.2039C16.7082 8.72859 17.2128 8.72859 17.7171 8.72859C17.9363 8.72859 18.0662 8.94343 17.963 9.13266C17.9094 9.23053 17.8221 9.27263 17.7114 9.27241C17.3935 9.27176 17.0758 9.2722 16.7577 9.2722Z" fill="#F26422"/>
</svg>
