<svg width="14" height="12" viewBox="0 0 14 12" fill="none" xmlns="http://www.w3.org/2000/svg">
<path d="M13.8143 6.46634L8.68093 11.8068C8.43335 12.0644 8.03196 12.0644 7.78441 11.8068L7.18568 11.1839C6.93852 10.9268 6.93805 10.5101 7.18462 10.2524L11.2529 5.99999L7.18462 1.74765C6.93805 1.48991 6.93852 1.07318 7.18568 0.816057L7.78441 0.193175C8.03198 -0.0643917 8.43337 -0.0643917 8.68093 0.193175L13.8143 5.53366C14.0619 5.7912 14.0619 6.20878 13.8143 6.46634Z" fill="#5D5D5D"/>
<path d="M6.81434 6.46634L1.68093 11.8068C1.43335 12.0644 1.03196 12.0644 0.784406 11.8068L0.185678 11.1839C-0.0614783 10.9268 -0.0619537 10.5101 0.184622 10.2524L4.25294 5.99999L0.184622 1.74765C-0.0619537 1.48991 -0.0614783 1.07318 0.185678 0.816057L0.784406 0.193175C1.03198 -0.0643917 1.43337 -0.0643917 1.68093 0.193175L6.81431 5.53366C7.06189 5.7912 7.06189 6.20878 6.81434 6.46634Z" fill="#5D5D5D"/>
</svg>
