<svg width="19" height="18" viewBox="0 0 19 18" fill="none" xmlns="http://www.w3.org/2000/svg">
<path d="M0 0H3.9056C3.97123 0 4.03646 0.00523431 4.10169 0.00442903C4.14195 0.00442903 4.15846 0.0165082 4.16047 0.0599933C4.16531 0.187227 4.16692 0.186825 4.29455 0.190449C4.31187 0.190449 4.32918 0.194072 4.35535 0.196488V0.376065H4.54661C4.54661 0.425187 4.54661 0.467062 4.54661 0.508534C4.54661 0.550006 4.5615 0.572553 4.6074 0.569735C4.64767 0.566916 4.68793 0.569735 4.73383 0.569735V0.760989C4.78014 0.760989 4.81919 0.763002 4.85785 0.760989C4.90254 0.75817 4.92468 0.773873 4.91945 0.820982C4.91945 0.833061 4.91945 0.845946 4.91945 0.858428C4.91945 0.955866 4.91945 0.961503 5.02051 0.954658C5.10104 0.949021 5.126 0.977206 5.11554 1.0521C5.10748 1.11088 5.13325 1.12981 5.19284 1.129C5.33336 1.12659 5.47469 1.13464 5.61481 1.13182C5.67682 1.13182 5.69534 1.15396 5.68889 1.21235C5.68889 1.22443 5.68889 1.23771 5.68889 1.24979C5.67641 1.32227 5.71104 1.34522 5.77707 1.33596C5.8431 1.3267 5.86606 1.35045 5.86485 1.4189C5.86364 1.48735 5.84955 1.51594 5.7807 1.50507C5.70258 1.49258 5.67601 1.52761 5.68608 1.60251C5.68834 1.63736 5.68834 1.67233 5.68608 1.70719H5.31082C5.31082 1.82798 5.308 1.94072 5.31404 2.05266C5.31404 2.06916 5.35712 2.09292 5.38208 2.09695C5.48355 2.10742 5.48355 2.105 5.48435 2.20526C5.48623 2.5773 5.48838 2.9492 5.4908 3.32097V3.4172H0.44854C0.378079 3.4172 0.307617 3.41277 0.237557 3.41438C0.19528 3.41438 0.181188 3.39949 0.179175 3.35761C0.171927 3.21991 0.170317 3.22031 0.030198 3.21709C0.020132 3.21709 0.010066 3.21709 0 3.21709V3.0359C0.0124818 3.0359 0.0249637 3.03953 0.0374455 3.03993C0.178369 3.04395 0.179577 3.04395 0.186019 2.90182C0.186019 2.86156 0.200514 2.84384 0.243194 2.84465C0.343854 2.84465 0.444514 2.84223 0.544771 2.84223H4.63035C4.66418 2.84223 4.698 2.83941 4.73222 2.8378V2.17627C4.73222 2.07802 4.73222 2.074 4.63559 2.07681C4.57358 2.07883 4.5603 2.05427 4.55909 1.99629C4.55707 1.90167 4.5458 1.80745 4.53734 1.70518H0.196891C0.193013 1.69345 0.189919 1.68148 0.18763 1.66934C0.17394 1.50023 0.17394 1.50023 0 1.50829V1.32871C0.054759 1.32871 0.117571 1.33878 0.161056 1.31583C0.184409 1.30375 0.177161 1.22926 0.179175 1.18295C0.181188 1.13665 0.211386 1.13383 0.246415 1.13343C0.351907 1.13343 0.457399 1.1282 0.56289 1.1282H3.85849C3.87863 1.1282 3.89876 1.1282 3.91889 1.1282C3.95915 1.13142 3.97848 1.1137 3.97808 1.07183C3.97808 0.983648 3.9809 0.89547 3.97808 0.807695C3.97455 0.796767 3.96836 0.786887 3.96007 0.778944C3.95178 0.771002 3.94164 0.765247 3.93057 0.762197C3.86105 0.754136 3.79117 0.749701 3.72119 0.74891C3.61651 0.746494 3.61329 0.74891 3.6145 0.642613C3.6145 0.586646 3.59638 0.567722 3.54041 0.569332C3.4627 0.57054 3.38217 0.558461 3.30607 0.563695C3.22997 0.56893 3.2034 0.541953 3.21266 0.46988C3.22031 0.412303 3.19575 0.389352 3.13616 0.389352C3.06328 0.389352 2.9904 0.38291 2.91793 0.382508H0.452164H0.190046C0.185214 0.310435 0.20132 0.229907 0.171122 0.20132C0.140924 0.172732 0.0587854 0.186019 0 0.181188V0Z" fill="#F26422"/>
<path d="M2.2627 17.9982C2.2627 17.9632 2.26712 17.9282 2.26712 17.8931C2.26712 17.0154 2.26712 16.1379 2.26712 15.2607V14.4023C2.30721 14.3974 2.34754 14.395 2.38792 14.395C2.43865 14.3978 2.45999 14.3813 2.45838 14.327C2.45596 14.244 2.46482 14.1611 2.4624 14.0785C2.4624 14.0246 2.48093 14.0085 2.53246 14.0097C2.63715 14.0125 2.63957 14.0286 2.64238 13.8986C2.64238 13.818 2.65648 13.7347 2.66493 13.6437H2.83927L2.84733 13.4548H3.03174V13.2616H3.40458V13.0683C3.5145 13.0683 3.61677 13.0651 3.71864 13.0683C3.78065 13.0711 3.81004 13.049 3.80158 12.9878C3.79031 12.9036 3.83098 12.8891 3.90627 12.8891C5.93047 12.8891 7.95441 12.8883 9.97807 12.8867C10.0083 12.8867 10.0385 12.8867 10.0687 12.8891C10.1158 12.8911 10.175 12.8779 10.2068 12.9012C10.2305 12.9189 10.2156 12.985 10.2257 13.0276C10.2347 13.0474 10.2502 13.0634 10.2696 13.0731C10.2805 13.08 10.299 13.0731 10.3139 13.0752C10.4145 13.0752 10.4141 13.0752 10.4149 13.1798C10.4149 13.2475 10.4149 13.3155 10.4182 13.3832C10.4222 13.4399 10.4008 13.4613 10.3449 13.4556C10.3107 13.4524 10.2756 13.4556 10.2333 13.4556V13.6389H3.78467C3.78467 13.6843 3.78226 13.7194 3.78467 13.7528C3.7891 13.8051 3.76857 13.8233 3.71622 13.8241C3.61879 13.8241 3.52094 13.8341 3.41505 13.8402V14.0169L3.23265 14.0258C3.22133 14.1179 3.21488 14.2105 3.21333 14.3032C3.21333 14.3789 3.18877 14.4023 3.1183 14.3926C3.08948 14.3907 3.06056 14.3907 3.03174 14.3926C3.03174 14.4566 3.03174 14.5134 3.03174 14.5702C3.0265 14.7356 3.01805 14.9011 3.01523 15.0666C3.01523 15.1242 2.99671 15.1528 2.93712 15.1471C2.86585 15.1387 2.84894 15.1729 2.84894 15.2397C2.85109 16.1599 2.85109 17.0801 2.84894 18.0002L2.2627 17.9982Z" fill="#F26422"/>
<path d="M17.2441 17.9979C17.2441 17.9101 17.2462 17.8223 17.2462 17.7345V8.35987C17.259 8.35222 17.2631 8.3478 17.2675 8.34739C17.3198 8.33894 17.3939 8.34739 17.4193 8.3176C17.4447 8.2878 17.431 8.21331 17.4342 8.15332H17.8038C17.8074 8.20848 17.8107 8.26445 17.8147 8.33008H17.9983V8.42027C17.9983 11.53 17.9983 14.6396 17.9983 17.749C17.9983 17.832 17.9983 17.9149 17.9983 17.9979H17.2441Z" fill="#F26422"/>
<path d="M0 4.73735C0.17233 4.75224 0.171524 4.75184 0.180383 4.58636C0.186422 4.4716 0.196891 4.35685 0.201722 4.2417C0.201722 4.20143 0.219439 4.18573 0.260508 4.18291C0.344659 4.17768 0.428006 4.1652 0.512157 4.15916C0.56289 4.15594 0.558058 4.12171 0.557656 4.0895C0.557656 3.95904 0.570138 3.98441 0.665563 3.98441C0.798837 3.98441 0.931708 3.98763 1.06498 3.98803C1.10162 3.98803 1.12578 3.99126 1.1286 4.03877C1.13585 4.1652 1.13826 4.16479 1.26429 4.16681C1.2816 4.16681 1.29892 4.16681 1.33153 4.17043C1.3293 4.21201 1.3293 4.25367 1.33153 4.29525C1.33153 4.31296 1.34965 4.34316 1.36132 4.34397C1.47044 4.35403 1.57996 4.35927 1.69592 4.36611C1.70115 4.26626 1.708 4.17727 1.71041 4.08789C1.71283 3.99045 1.71041 3.99045 1.81188 3.99005C2.98034 3.98763 4.14893 3.98535 5.31766 3.9832C5.59951 3.9832 5.88136 3.98924 6.1632 3.98884C6.2232 3.98884 6.24011 4.00857 6.24051 4.06937C6.24574 4.69668 6.2538 5.3244 6.26024 5.95171C6.26024 6.03465 6.2546 6.1176 6.25541 6.20054C6.25541 6.25006 6.23528 6.26496 6.18776 6.26657C6.07422 6.26979 6.0714 6.2714 6.07019 6.38213C6.07019 6.43286 6.05046 6.44897 6.00295 6.44534C5.95544 6.44172 5.91236 6.44534 5.86726 6.44293V6.41273C5.86726 6.36763 5.87975 6.30925 5.8568 6.28147C5.83384 6.25369 5.77627 6.26214 5.73117 6.26053C5.67641 6.26053 5.68285 6.22027 5.68285 6.18645C5.68285 5.96312 5.68218 5.73952 5.68084 5.51565C5.68084 5.28695 5.68084 5.05825 5.68084 4.83116V4.73493H5.41107C4.26758 4.73493 3.12395 4.73493 1.98018 4.73493C1.90449 4.73493 1.87187 4.7156 1.88395 4.6391C1.89603 4.5626 1.85697 4.55857 1.79577 4.55857C1.73457 4.55857 1.70276 4.56703 1.70639 4.6391C1.71122 4.73855 1.70639 4.74218 1.60331 4.73976C1.54412 4.73976 1.52278 4.75748 1.526 4.81707C1.52842 4.93061 1.526 4.93061 1.41045 4.93061C1.26026 4.93061 1.11008 4.93061 0.952242 4.93061L0.942177 4.74379H0.756962C0.756962 4.82432 0.756962 4.90484 0.756962 4.98296C0.759378 5.18669 0.765015 5.39003 0.763807 5.59336C0.763807 5.6614 0.781926 5.69241 0.853193 5.68315C0.881955 5.68211 0.910754 5.68318 0.939358 5.68637C0.944995 5.79186 0.95184 5.89131 0.954658 5.99117C0.954658 6.03143 0.966738 6.04955 1.00942 6.05358C1.13585 6.06485 1.13544 6.06606 1.14229 6.19691C1.14353 6.21124 1.14554 6.22549 1.14833 6.2396C1.23672 6.25122 1.32573 6.25768 1.41488 6.25892C1.4954 6.2561 1.51876 6.28389 1.5095 6.35797C1.50846 6.38488 1.50981 6.41183 1.51352 6.4385H1.70236V7.01266H1.33193C1.31462 7.01266 1.2969 7.01025 1.27959 7.00984C1.14068 7.00984 1.13866 7.00984 1.12779 6.87295C1.12417 6.83268 1.10444 6.82423 1.06941 6.82423C0.969556 6.82423 0.868091 6.82423 0.760586 6.82423V6.63297L0.571346 6.62412V6.44253H0.388145L0.370831 6.07169L0.20132 6.06082C0.197293 5.98352 0.192059 5.90701 0.189241 5.83051C0.185617 5.74274 0.17998 5.65456 0.183201 5.56678C0.185617 5.50236 0.160251 5.48062 0.0998546 5.48626C0.0672408 5.48948 0.034627 5.48948 0.0020132 5.49109L0 4.73735Z" fill="#F26422"/>
<path d="M13.4557 14.2101H13.264V14.3965C13.2141 14.3965 13.1722 14.3989 13.1307 14.3965C13.082 14.3929 13.0611 14.4118 13.0643 14.4613C13.0667 14.498 13.0643 14.535 13.0643 14.5942C12.9032 14.5942 12.7547 14.5978 12.6053 14.5942C12.5316 14.5914 12.4946 14.6083 12.507 14.6884C12.5163 14.7488 12.4921 14.773 12.4265 14.771C12.2884 14.7669 12.1499 14.7673 12.0118 14.771C11.951 14.771 11.9204 14.7553 11.9313 14.6904C11.9425 14.6159 11.9156 14.5902 11.8366 14.5926C11.7014 14.597 11.5657 14.5858 11.4304 14.5841C11.3861 14.5841 11.3724 14.5644 11.3752 14.5246C11.3752 14.5072 11.3752 14.4891 11.3752 14.4718C11.3821 14.4118 11.3555 14.3913 11.2967 14.3957C11.2601 14.3993 11.223 14.3957 11.1795 14.3957V14.2129H10.9879C10.9879 14.1606 10.9859 14.1183 10.9879 14.0764C10.9911 14.0285 10.9738 14.0104 10.9239 14.0096C10.8075 14.0096 10.8091 14.006 10.8051 13.8888C10.8011 13.7716 10.7922 13.6432 10.7898 13.5204C10.7898 13.466 10.7632 13.4475 10.7153 13.4535C10.638 13.464 10.6183 13.431 10.6183 13.3557C10.6183 12.5939 10.6183 11.8325 10.6162 11.0707C10.6162 11.0027 10.6207 10.935 10.6195 10.867C10.6195 10.8179 10.64 10.7957 10.6871 10.8017C10.7697 10.813 10.7866 10.774 10.787 10.6983C10.787 10.5461 10.7994 10.3939 10.8071 10.2344H10.9855C10.9855 10.1857 10.9875 10.1442 10.9855 10.1028C10.9835 10.0613 11 10.0383 11.0463 10.0412C11.0926 10.044 11.1304 10.0412 11.1787 10.0412V9.85796H11.3724V9.74361C11.3724 9.55759 11.3724 9.37157 11.3724 9.18555C11.3724 9.08529 11.3724 9.08489 11.2746 9.08449C10.9376 9.08449 10.6009 9.08449 10.2639 9.08449C10.1508 9.08449 10.0381 9.07684 9.92491 9.07764C9.87015 9.07764 9.85646 9.05429 9.85767 9.00436C9.86049 8.88357 9.86371 8.89203 9.74735 8.89686C9.68494 8.89927 9.67206 8.87512 9.67206 8.81834C9.67206 7.80289 9.67004 6.78743 9.66602 5.77197C9.66602 5.70795 9.68011 5.67695 9.74936 5.68702C9.78208 5.68906 9.81489 5.68906 9.84761 5.68702L9.85606 5.49254H10.088L14.1546 5.49455C14.1873 5.49455 14.2195 5.49939 14.2521 5.5014C14.3761 5.50945 14.3729 5.50985 14.395 5.63065C14.4001 5.6425 14.4079 5.65297 14.4179 5.66117C14.4278 5.66936 14.4396 5.67505 14.4522 5.67775C14.5399 5.68447 14.628 5.68635 14.7159 5.68339C14.7719 5.68138 14.7916 5.6999 14.79 5.75627C14.786 5.87263 14.7836 5.86055 14.8951 5.86297C14.9651 5.86324 15.035 5.86754 15.1045 5.87585C15.1156 5.87941 15.1257 5.88563 15.1338 5.89399C15.1419 5.90234 15.1479 5.91257 15.1512 5.92377C15.1555 5.97075 15.1563 6.01799 15.1536 6.06509H15.3408C15.3408 6.1122 15.3436 6.15206 15.3408 6.19112C15.3364 6.24387 15.3577 6.26198 15.4097 6.26279C15.518 6.26279 15.518 6.26682 15.5236 6.37714C15.5236 6.41016 15.5236 6.44317 15.5731 6.44277C15.8115 6.44277 16.0499 6.44277 16.2999 6.44277C16.2999 6.386 16.3031 6.33446 16.2979 6.28171C16.2941 6.27266 16.2882 6.26466 16.2806 6.25841C16.273 6.25217 16.264 6.24787 16.2544 6.24588C16.2067 6.24341 16.1588 6.24341 16.1111 6.24588C16.107 6.18508 16.1038 6.12911 16.0998 6.06348H15.9142V5.87424H15.7245V5.31055H16.2882V5.48972H16.4807C16.4839 5.55495 16.4871 5.61051 16.4904 5.67413C16.5902 5.68057 16.6868 5.68863 16.7835 5.69225C16.8237 5.69225 16.8435 5.70352 16.8451 5.74781C16.8503 5.88995 16.8624 6.03208 16.864 6.17421C16.864 6.25876 16.8515 6.34292 16.8439 6.43472H16.6695C16.6661 6.4884 16.6672 6.54227 16.6727 6.59577C16.6756 6.61268 16.713 6.63604 16.7356 6.63604C16.8467 6.6457 16.8495 6.64328 16.8499 6.75039C16.8499 6.80595 16.8688 6.82487 16.9248 6.82407C17.1261 6.82165 17.3274 6.82407 17.5288 6.82165C17.5972 6.82165 17.629 6.83937 17.6185 6.91023C17.6081 6.9811 17.6415 6.99962 17.7087 6.99922C17.8009 6.99922 17.8931 7.0113 17.9994 7.01895C17.9994 7.1345 17.9994 7.25167 17.9994 7.36884C17.9994 7.42843 18.0107 7.50413 17.9793 7.54278C17.9539 7.57419 17.8734 7.56493 17.8183 7.56654C17.6677 7.57137 17.5171 7.57298 17.3665 7.57419C17.2232 7.57419 17.0798 7.577 16.9369 7.57419C16.8793 7.57419 16.8624 7.59271 16.8644 7.64787C16.8668 7.72276 16.8576 7.79846 16.86 7.87375C16.862 7.93133 16.8447 7.9583 16.7835 7.95146C16.7494 7.94961 16.7153 7.94961 16.6812 7.95146V8.14151H15.9242V8.70883H16.105V8.52804H16.2987V8.33437C16.4247 8.33437 16.5435 8.33437 16.6611 8.33437C16.7215 8.33437 16.7996 8.31867 16.8362 8.34927C16.8729 8.37987 16.8616 8.45879 16.8636 8.51677C16.868 8.63192 16.8688 8.74748 16.866 8.86263C16.866 8.87874 16.8402 8.89887 16.8221 8.90773C16.8028 8.91361 16.7823 8.91444 16.7625 8.91014C16.6949 8.90129 16.6707 8.93108 16.6788 8.99631C16.6806 9.02823 16.6806 9.06022 16.6788 9.09214H16.4912C16.4871 9.15535 16.4835 9.21293 16.4795 9.27494H16.2979C16.2947 9.34016 16.2919 9.39895 16.2886 9.467C16.1139 9.467 15.9412 9.467 15.7688 9.46458C15.7551 9.46458 15.7314 9.42874 15.731 9.40861C15.7269 9.30674 15.729 9.20407 15.729 9.09576C15.6283 9.09133 15.5437 9.08449 15.4592 9.08408C14.6942 9.08408 13.9292 9.08408 13.1662 9.08408C13.0933 9.08408 13.0655 9.10019 13.0675 9.17991C13.0732 9.40056 13.0695 9.62282 13.0695 9.84991H13.2576V10.0335L13.4508 10.0432C13.4536 10.1044 13.4565 10.164 13.4597 10.228H13.6437C13.6437 10.3335 13.6485 10.4333 13.6437 10.5324C13.6393 10.6028 13.6646 10.631 13.7323 10.6226C13.7999 10.6141 13.8188 10.6415 13.8192 10.7079C13.8221 11.5398 13.8277 12.3716 13.8309 13.2043C13.8309 13.3275 13.82 13.4503 13.8188 13.5735C13.8188 13.6355 13.7786 13.6367 13.7383 13.6311C13.661 13.621 13.6368 13.6504 13.6429 13.7273C13.6497 13.8195 13.6429 13.9121 13.6429 13.9971C13.6352 14.0029 13.6268 14.0078 13.6179 14.0116C13.5648 14.0217 13.4899 14.0116 13.4637 14.0458C13.4375 14.08 13.4557 14.1489 13.4557 14.2101ZM14.7586 6.43915C14.6612 6.43915 14.5682 6.43552 14.4768 6.43915C14.418 6.44237 14.3998 6.41901 14.4051 6.36546C14.4071 6.34815 14.4051 6.33003 14.4051 6.31272C14.4079 6.26682 14.387 6.25111 14.3419 6.25232C14.2742 6.25232 14.2062 6.2495 14.1385 6.2495H11.6422C11.2601 6.2495 10.8772 6.2495 10.4959 6.24628C10.4367 6.24628 10.4153 6.26239 10.4185 6.32278C10.4242 6.41539 10.4238 6.5084 10.4238 6.60141C10.4238 7.15222 10.4227 7.70249 10.4206 8.25223C10.4206 8.27881 10.423 8.30538 10.425 8.33679H10.5011C12.0271 8.33679 13.5532 8.33679 15.0795 8.33679C15.15 8.33679 15.1624 8.31182 15.16 8.24941C15.1556 7.93254 15.1548 7.61566 15.1528 7.29918C15.1528 7.19248 15.1528 7.18886 15.0473 7.19128C14.9853 7.19128 14.9696 7.16792 14.9716 7.11075C14.9752 7.01331 14.9716 6.91587 14.9716 6.81159C14.9393 6.80992 14.9069 6.80992 14.8746 6.81159C14.8093 6.82004 14.7884 6.79468 14.7876 6.72784C14.7876 6.63684 14.7707 6.54585 14.7586 6.43713V6.43915ZM12.3134 11.5579C12.3106 11.5345 12.3081 11.5221 12.3077 11.51C12.3021 11.3819 12.3025 11.3819 12.1741 11.3683C12.1603 11.3655 12.1469 11.3615 12.1338 11.3566C12.1338 11.3187 12.1366 11.2813 12.1338 11.2442C12.1282 11.1891 12.1539 11.1742 12.2039 11.177C12.2391 11.177 12.2743 11.1748 12.3093 11.1706C12.3114 11.1352 12.3114 11.0997 12.3093 11.0643C12.3017 11.0002 12.3295 10.9837 12.3899 10.9837C12.538 10.9866 12.6866 10.9837 12.8328 10.9817H13.0663C13.0663 10.8654 13.0663 10.7627 13.0663 10.6596C13.0663 10.6193 13.0458 10.6085 13.0099 10.6097C12.9697 10.6097 12.9266 10.6097 12.8775 10.6097C12.8775 10.5581 12.8775 10.5183 12.8775 10.4784C12.8775 10.4386 12.8646 10.4249 12.8251 10.4249C12.4209 10.4265 12.0165 10.4273 11.612 10.4273C11.5717 10.4273 11.558 10.4446 11.5604 10.482C11.5604 10.5046 11.5584 10.5275 11.5604 10.5497C11.5661 10.6008 11.5407 10.6173 11.4944 10.6141C11.4767 10.6141 11.459 10.6141 11.4417 10.6141C11.3954 10.6113 11.3724 10.6274 11.3736 10.6785C11.3736 10.7462 11.368 10.8142 11.368 10.8819C11.368 11.7038 11.368 12.5257 11.368 13.3476C11.368 13.458 11.368 13.4612 11.4763 13.46C11.5343 13.46 11.5504 13.4821 11.5484 13.5361C11.5451 13.6307 11.5484 13.7253 11.5484 13.8228C11.5838 13.8256 11.6031 13.828 11.6224 13.8284C11.7477 13.8308 11.7501 13.8304 11.7549 13.9532C11.7569 14.0043 11.7823 14.0084 11.8221 14.0088C12.0279 14.0088 12.2341 14.0132 12.4398 14.0152C12.5203 14.0152 12.5988 14.0152 12.685 14.0152C12.685 13.9669 12.6878 13.9347 12.685 13.9025C12.6798 13.8477 12.6983 13.8219 12.7563 13.8284C12.7965 13.8304 12.8368 13.8304 12.8771 13.8284V13.6371H12.3134C12.3134 13.5872 12.3134 13.5449 12.3134 13.5035C12.3134 13.462 12.2993 13.4423 12.2574 13.4443C12.2373 13.4443 12.2171 13.4443 12.197 13.4443C12.1495 13.4483 12.1278 13.431 12.131 13.3802C12.1354 13.3025 12.1362 13.2244 12.135 13.1467C12.135 13.1004 12.1535 13.0863 12.1978 13.0851C12.3238 13.0811 12.3263 13.0795 12.3283 12.9575C12.3283 12.9031 12.3512 12.889 12.4011 12.8898C12.5091 12.8898 12.6174 12.8898 12.7253 12.8878C12.8332 12.8858 12.9503 12.8878 13.0667 12.8878V12.6865H12.9793C12.7857 12.6865 12.5924 12.6813 12.3987 12.6825C12.3444 12.6825 12.3234 12.6676 12.3234 12.6104C12.3234 12.4948 12.3202 12.4969 12.2026 12.4896C12.1789 12.4896 12.1378 12.4667 12.137 12.453C12.1314 12.3483 12.1338 12.2436 12.1338 12.1421C12.1404 12.1385 12.1473 12.1354 12.1543 12.1329C12.1668 12.1329 12.1793 12.1305 12.1922 12.1301C12.313 12.1264 12.313 12.1264 12.315 12.0093C12.3152 12.0067 12.3152 12.0042 12.315 12.0016C12.3093 11.9533 12.3287 11.9352 12.379 11.9364C12.4869 11.9388 12.5952 11.9364 12.7011 11.9344H13.0583V11.5571L12.3134 11.5579ZM12.3106 9.09214H12.1241C12.1241 9.27413 12.1241 9.44928 12.1241 9.62443C12.1268 9.63402 12.132 9.64275 12.139 9.6498C12.1461 9.65685 12.1548 9.66197 12.1644 9.66469C12.2128 9.66801 12.2613 9.66869 12.3097 9.6667L12.3106 9.09214ZM15.9178 7.39219C16.1046 7.41394 16.1099 7.40951 16.1018 7.23557C16.1004 7.22347 16.0981 7.21149 16.095 7.19973H15.9178V7.39219Z" fill="#F26422"/>
<path d="M1.71195 11.1855C1.60042 11.177 1.49855 11.1674 1.39668 11.1621C1.35239 11.1601 1.33508 11.1444 1.33387 11.0993C1.32984 10.9854 1.32783 10.9858 1.21308 10.9838C1.19335 10.9838 1.17281 10.9814 1.13899 10.9793C1.13899 10.9363 1.13698 10.8948 1.13899 10.8537C1.141 10.8127 1.1245 10.7881 1.0786 10.7909C1.05363 10.7909 1.02867 10.7909 1.0033 10.7909C0.963038 10.7909 0.952166 10.7736 0.951764 10.7358C0.94814 10.5296 0.940087 10.3238 0.938477 10.1181C0.938477 10.0335 0.94975 9.94899 0.956595 9.8584C1.12772 9.8584 1.29763 9.8584 1.46754 9.8584C1.47962 9.8584 1.50016 9.88699 1.50137 9.90349C1.51143 10.0484 1.52029 10.1934 1.52472 10.3383C1.52472 10.3851 1.53801 10.4048 1.58874 10.4068C1.66977 10.4099 1.75049 10.4187 1.83032 10.433C1.84208 10.4384 1.85228 10.4467 1.85995 10.4571C1.86763 10.4675 1.87253 10.4797 1.87421 10.4926C1.87421 10.6246 1.87783 10.6045 1.99822 10.6073C2.06345 10.6073 2.12868 10.617 2.1935 10.615C2.25833 10.6129 2.27927 10.6351 2.27081 10.6935C2.25994 10.7712 2.29457 10.7901 2.36905 10.7905C2.81196 10.7933 3.25849 10.8022 3.7034 10.8062C3.76259 10.8062 3.78836 10.8259 3.78071 10.8847C3.77105 10.9568 3.80004 10.9834 3.87332 10.9781C3.95123 10.9737 4.02933 10.9737 4.10725 10.9781C4.15597 10.9781 4.17369 10.9604 4.1757 10.9125C4.18093 10.8082 4.18295 10.8082 4.28723 10.8082C6.16621 10.8082 8.04667 10.8082 9.92861 10.8082C10.0031 10.8082 10.0377 10.8255 10.0273 10.9045C10.0196 10.9608 10.043 10.985 10.1042 10.983C10.1894 10.9821 10.2745 10.9871 10.359 10.9979C10.3703 11.0012 10.3805 11.0073 10.3888 11.0156C10.3971 11.0239 10.4032 11.0341 10.4065 11.0454C10.4134 11.1381 10.415 11.2311 10.4114 11.324C10.4079 11.3364 10.4013 11.3477 10.3922 11.3568C10.3831 11.3659 10.3718 11.3725 10.3594 11.3759C10.2455 11.3921 10.2455 11.3896 10.2366 11.502C10.2366 11.5193 10.2302 11.5358 10.2258 11.5583H9.96807C7.6749 11.5583 5.38214 11.5577 3.08978 11.5563C2.90376 11.5563 2.71774 11.5511 2.53172 11.5527C2.47414 11.5527 2.45804 11.5326 2.45844 11.4782C2.45844 11.378 2.45844 11.38 2.35416 11.3768C2.15847 11.3707 1.96279 11.361 1.76751 11.3554C1.7196 11.3554 1.70591 11.3329 1.70832 11.2902C1.71316 11.2552 1.71195 11.2205 1.71195 11.1855Z" fill="#F26422"/>
<path d="M5.86658 6.44227L5.87625 6.62145L6.05824 6.63232V7.94855C5.90926 7.95459 5.76472 7.96183 5.62057 7.96626C5.54246 7.96868 5.46435 7.96908 5.38664 7.96626C5.33389 7.96425 5.31134 7.97754 5.31094 8.03713C5.31094 8.17966 5.29926 8.3226 5.29604 8.46513C5.29604 8.51184 5.27792 8.52835 5.23323 8.52513C5.1986 8.52271 5.16357 8.52513 5.11767 8.52513V8.91085C5.08013 8.91544 5.04235 8.91773 5.00453 8.9177C4.95138 8.91488 4.93649 8.93783 4.93568 8.98897C4.93568 9.08359 4.924 9.17821 4.91716 9.28169H4.73678V9.47455H4.54955V9.66178H4.35467V9.85182H3.98585L3.97458 10.0258C3.89405 10.0302 3.81352 10.0358 3.73541 10.0386C3.65005 10.0419 3.56469 10.0463 3.47933 10.0431C3.41894 10.0407 3.40122 10.0628 3.40203 10.1208C3.40203 10.2194 3.40203 10.2198 3.30338 10.2198C3.05455 10.2198 2.80612 10.2198 2.55729 10.2198C2.50011 10.2198 2.47676 10.2053 2.47676 10.1441C2.47676 10.0495 2.45784 9.9553 2.45703 9.86229C2.45703 9.74996 2.4671 9.63722 2.47032 9.52488C2.47032 9.47616 2.50172 9.47697 2.53675 9.47697C2.78559 9.47536 3.03428 9.47307 3.28285 9.47012C3.36337 9.47012 3.4439 9.46207 3.52443 9.46126C3.57275 9.46126 3.58966 9.44113 3.59086 9.39322C3.59409 9.28169 3.5961 9.28249 3.70844 9.28128C3.77326 9.28128 3.83849 9.27243 3.90372 9.27484C3.95646 9.27484 3.97659 9.25712 3.97377 9.20518C3.97353 9.16822 3.97514 9.13126 3.97861 9.09446H4.161V8.90361L3.98183 8.89435C3.98183 8.85408 3.97981 8.81623 3.98183 8.77959C3.98465 8.7349 3.96773 8.71759 3.92143 8.71799C3.83607 8.71799 3.75071 8.71034 3.66535 8.71276C3.60737 8.71477 3.59127 8.69182 3.59288 8.63787C3.5965 8.51305 3.59288 8.53117 3.48215 8.52835C3.40162 8.52633 3.3211 8.52029 3.23332 8.51546C3.2297 8.47678 3.22809 8.43795 3.22849 8.3991C3.23131 8.34756 3.21238 8.32501 3.15923 8.32904C3.12179 8.33186 3.08434 8.32904 3.04166 8.32904C3.03442 8.232 3.02355 8.14061 3.02193 8.04921C3.02193 7.99042 3.00704 7.96183 2.94141 7.96344C2.84397 7.96586 2.84397 7.96344 2.84397 7.86278C2.84397 7.70978 2.84397 7.55678 2.84397 7.3917H3.41491C3.41491 7.42431 3.41733 7.46095 3.41491 7.49678C3.41088 7.54671 3.42538 7.57047 3.48094 7.56886C3.60657 7.56483 3.59368 7.56161 3.5965 7.68965C3.59802 7.75955 3.60339 7.82931 3.61261 7.89862C3.61585 7.9089 3.6216 7.91822 3.62933 7.92574C3.63706 7.93326 3.64653 7.93874 3.6569 7.9417C3.74108 7.95202 3.82575 7.95794 3.91056 7.95942C3.9629 7.95942 3.98424 7.97713 3.97941 8.02948C3.97659 8.0637 3.97941 8.09873 3.97941 8.14262H4.55921C4.55921 7.98156 4.55921 7.82051 4.55921 7.66187C4.55921 7.60308 4.57814 7.57651 4.63692 7.58416C4.71503 7.59422 4.74845 7.56322 4.73597 7.4835C4.73365 7.45039 4.73365 7.41716 4.73597 7.38405H4.984C5.06453 7.38405 5.14505 7.37962 5.22558 7.38405C5.29524 7.38928 5.30933 7.3611 5.30933 7.29748C5.30933 7.1018 5.31658 6.90611 5.3198 6.71003C5.3198 6.67178 5.32262 6.64319 5.37375 6.63997C5.49777 6.63192 5.49777 6.6295 5.50018 6.50669C5.50018 6.48938 5.503 6.47207 5.50542 6.43945H5.87182L5.86658 6.44227Z" fill="#F26422"/>
<path d="M17.2499 0.00390625H17.9927V6.06363C17.9525 6.06363 17.9122 6.06645 17.874 6.06363C17.8192 6.0584 17.7934 6.07652 17.7999 6.1345C17.8031 6.16671 17.7999 6.19932 17.7999 6.2412C17.6867 6.2412 17.5796 6.24321 17.4729 6.23797C17.4609 6.23797 17.4419 6.19771 17.4403 6.17597C17.4319 6.06202 17.4335 6.0588 17.3195 6.05961C17.2616 6.05961 17.2483 6.03786 17.2483 5.98391C17.2483 4.01285 17.2476 2.0418 17.2463 0.0707444C17.2454 0.0506124 17.2479 0.0308831 17.2499 0.00390625Z" fill="#F26422"/>
<path d="M10.6094 7.19406V6.44434H11.7457V7.19406H10.6094Z" fill="#F26422"/>
</svg>
