<svg width="14" height="12" viewBox="0 0 14 12" fill="none" xmlns="http://www.w3.org/2000/svg">
<path d="M0.185661 6.46634L5.31907 11.8068C5.56665 12.0644 5.96804 12.0644 6.21559 11.8068L6.81432 11.1839C7.06148 10.9268 7.06195 10.5101 6.81538 10.2524L2.74706 5.99999L6.81538 1.74765C7.06195 1.48991 7.06148 1.07318 6.81432 0.816057L6.21559 0.193175C5.96802 -0.0643917 5.56663 -0.0643917 5.31907 0.193175L0.185688 5.53366C-0.0618916 5.7912 -0.0618916 6.20878 0.185661 6.46634Z" fill="#5D5D5D"/>
<path d="M7.18566 6.46634L12.3191 11.8068C12.5667 12.0644 12.968 12.0644 13.2156 11.8068L13.8143 11.1839C14.0615 10.9268 14.062 10.5101 13.8154 10.2524L9.74706 5.99999L13.8154 1.74765C14.062 1.48991 14.0615 1.07318 13.8143 0.816057L13.2156 0.193175C12.968 -0.0643917 12.5666 -0.0643917 12.3191 0.193175L7.18569 5.53366C6.93811 5.7912 6.93811 6.20878 7.18566 6.46634Z" fill="#5D5D5D"/>
</svg>
