<svg width="41" height="40" viewBox="0 0 41 40" fill="none" xmlns="http://www.w3.org/2000/svg">
<path d="M0 0H8.67912C8.82496 0 8.96991 0.0116318 9.11486 0.0098423C9.20434 0.0098423 9.24102 0.0366849 9.2455 0.133318C9.25624 0.416061 9.25982 0.415166 9.54345 0.423219C9.58193 0.423219 9.6204 0.431272 9.67856 0.43664V0.835701H10.1036C10.1036 0.944861 10.1036 1.03792 10.1036 1.13007C10.1036 1.22223 10.1367 1.27234 10.2387 1.26608C10.3282 1.25981 10.4176 1.26608 10.5196 1.26608V1.69109C10.6225 1.69109 10.7093 1.69556 10.7952 1.69109C10.8945 1.68482 10.9437 1.71972 10.9321 1.8244C10.9321 1.85125 10.9321 1.87988 10.9321 1.90762C10.9321 2.12415 10.9321 2.13667 11.1567 2.12146C11.3356 2.10894 11.3911 2.17157 11.3679 2.33799C11.35 2.46863 11.4072 2.51068 11.5396 2.50889C11.8519 2.50352 12.166 2.52142 12.4774 2.51516C12.6151 2.51516 12.6563 2.56437 12.642 2.69411C12.642 2.72095 12.642 2.75048 12.642 2.77732C12.6142 2.93837 12.6912 2.98937 12.8379 2.9688C12.9847 2.94822 13.0357 3.00101 13.033 3.15312C13.0303 3.30522 12.999 3.36875 12.846 3.34459C12.6724 3.31686 12.6134 3.3947 12.6357 3.56112C12.6408 3.63859 12.6408 3.7163 12.6357 3.79376H11.8018C11.8018 4.06219 11.7955 4.31272 11.809 4.56146C11.809 4.59814 11.9047 4.65093 11.9602 4.65988C12.1857 4.68315 12.1857 4.67778 12.1875 4.90057C12.1916 5.72732 12.1964 6.55378 12.2018 7.37994V7.59378H0.996757C0.840175 7.59378 0.683592 7.58394 0.527905 7.58752C0.433956 7.58752 0.40264 7.55441 0.398166 7.46136C0.38206 7.15535 0.378481 7.15625 0.0671066 7.14909C0.0447377 7.14909 0.0223689 7.14909 0 7.14909V6.74645C0.0277374 6.74645 0.0554748 6.7545 0.0832122 6.7554C0.396376 6.76434 0.399061 6.76434 0.413377 6.4485C0.413377 6.35902 0.445588 6.31965 0.540432 6.32144C0.76412 6.32144 0.987809 6.31607 1.2106 6.31607H10.2897C10.3648 6.31607 10.44 6.30981 10.5161 6.30623V4.83615C10.5161 4.61783 10.516 4.60888 10.3013 4.61514C10.1635 4.61962 10.134 4.56504 10.1313 4.43619C10.1268 4.22593 10.1018 4.01655 10.083 3.78929H0.437535C0.428918 3.76323 0.422043 3.73662 0.416956 3.70965C0.386534 3.33386 0.386534 3.33386 0 3.35175V2.95269C0.121687 2.95269 0.261268 2.97506 0.357902 2.92406C0.409798 2.89722 0.393692 2.73169 0.398166 2.62879C0.40264 2.52589 0.469746 2.51963 0.54759 2.51873C0.782015 2.51873 1.01644 2.5071 1.25087 2.5071H8.57443C8.61917 2.5071 8.66391 2.5071 8.70865 2.5071C8.79812 2.51426 8.84107 2.47489 8.84017 2.38184C8.84017 2.18589 8.84644 1.98993 8.84017 1.79488C8.83234 1.77059 8.81859 1.74864 8.80016 1.73099C8.78172 1.71334 8.7592 1.70055 8.73459 1.69377C8.58012 1.67586 8.42482 1.666 8.26932 1.66424C8.03668 1.65887 8.02953 1.66424 8.03221 1.42803C8.03221 1.30366 7.99195 1.2616 7.86758 1.26518C7.69489 1.26787 7.51594 1.24102 7.34683 1.25266C7.17772 1.26429 7.11867 1.20434 7.13925 1.04418C7.15625 0.916229 7.10167 0.865228 6.96924 0.865228C6.80729 0.865228 6.64534 0.850912 6.48429 0.850017H1.00481H0.422324C0.411587 0.689856 0.447377 0.510905 0.380271 0.447377C0.313164 0.38385 0.130634 0.413377 0 0.40264V0Z" fill="#48494B"/>
<path d="M5.02856 39.9956C5.02856 39.9178 5.03841 39.8399 5.03841 39.7621C5.03841 37.8115 5.03841 35.8616 5.03841 33.9122V32.0046C5.12748 31.9939 5.21712 31.9885 5.30683 31.9885C5.41957 31.9947 5.46699 31.958 5.46342 31.8373C5.45805 31.6529 5.47773 31.4686 5.47236 31.2852C5.47236 31.1653 5.51352 31.1295 5.62805 31.1322C5.86069 31.1385 5.86605 31.1742 5.87232 30.8852C5.87232 30.7063 5.90363 30.5211 5.92242 30.3189H6.30985L6.32775 29.8992H6.73755V29.4697H7.56609V29.0403C7.81036 29.0403 8.03762 29.0331 8.264 29.0403C8.40179 29.0465 8.46711 28.9973 8.44832 28.8613C8.42326 28.6743 8.51363 28.6421 8.68095 28.6421C13.1792 28.6421 17.6768 28.6403 22.1739 28.6367C22.241 28.6367 22.3081 28.6367 22.3752 28.6421C22.4799 28.6466 22.6114 28.617 22.6821 28.6689C22.7349 28.7083 22.7018 28.855 22.7241 28.9499C22.7442 28.9937 22.7786 29.0293 22.8217 29.051C22.8458 29.0662 22.887 29.051 22.9201 29.0555C23.1438 29.0555 23.1429 29.0555 23.1447 29.2881C23.1447 29.4384 23.1447 29.5896 23.1518 29.74C23.1608 29.8661 23.1133 29.9135 22.989 29.901C22.9129 29.8938 22.8351 29.901 22.7411 29.901V30.3081H8.41074C8.41074 30.4092 8.40537 30.4871 8.41074 30.5613C8.42058 30.6777 8.37495 30.7179 8.25863 30.7197C8.0421 30.7197 7.82467 30.7421 7.58935 30.7555V31.1483L7.18403 31.168C7.15887 31.3726 7.14453 31.5784 7.14108 31.7845C7.14108 31.9527 7.0865 32.0046 6.92992 31.9831C6.86586 31.9789 6.8016 31.9789 6.73755 31.9831C6.73755 32.1254 6.73755 32.2515 6.73755 32.3777C6.72591 32.7454 6.70712 33.1132 6.70086 33.4809C6.70086 33.6089 6.6597 33.6724 6.52728 33.6599C6.36891 33.6411 6.33133 33.7171 6.33133 33.8657C6.3361 35.9105 6.3361 37.9553 6.33133 40.0001L5.02856 39.9956Z" fill="#48494B"/>
<path d="M38.3196 39.9959C38.3196 39.8008 38.3241 39.6058 38.3241 39.4107V18.5782C38.3527 18.5611 38.3616 18.5513 38.3715 18.5504C38.4878 18.5316 38.6524 18.5504 38.7088 18.4842C38.7652 18.418 38.7347 18.2525 38.7419 18.1191H39.5633C39.5713 18.2417 39.5785 18.3661 39.5874 18.5119H39.9955V18.7124C39.9955 25.6229 39.9955 32.533 39.9955 39.4429C39.9955 39.6273 39.9955 39.8116 39.9955 39.9959H38.3196Z" fill="#48494B"/>
<path d="M0 10.5272C0.382955 10.5603 0.381165 10.5594 0.40085 10.1917C0.414271 9.93668 0.437535 9.68168 0.448272 9.42578C0.448272 9.3363 0.487641 9.30141 0.578906 9.29514C0.76591 9.28351 0.951124 9.25577 1.13813 9.24235C1.25087 9.23519 1.24013 9.15914 1.23924 9.08756C1.23924 8.79766 1.26697 8.85403 1.47903 8.85403C1.77519 8.85403 2.07046 8.86119 2.36663 8.86208C2.44805 8.86208 2.50173 8.86924 2.508 8.97482C2.5241 9.25577 2.52947 9.25488 2.80953 9.25935C2.848 9.25935 2.88648 9.25935 2.95895 9.26741C2.95401 9.3598 2.95401 9.45239 2.95895 9.54478C2.95895 9.58415 2.99922 9.65126 3.02517 9.65304C3.26764 9.67541 3.51102 9.68705 3.76871 9.70226C3.78034 9.48036 3.79555 9.28262 3.80092 9.08398C3.80629 8.86745 3.80092 8.86745 4.0264 8.86656C6.62297 8.86119 9.21985 8.85612 11.817 8.85134C12.4434 8.85134 13.0697 8.86477 13.696 8.86387C13.8293 8.86387 13.8669 8.90771 13.8678 9.04282C13.8794 10.4368 13.8973 11.8318 13.9116 13.2258C13.9116 13.4101 13.8991 13.5944 13.9009 13.7788C13.9009 13.8888 13.8562 13.9219 13.7506 13.9255C13.4983 13.9327 13.492 13.9362 13.4893 14.1823C13.4893 14.295 13.4455 14.3308 13.3399 14.3228C13.2343 14.3147 13.1386 14.3228 13.0384 14.3174V14.2503C13.0384 14.1501 13.0661 14.0203 13.0151 13.9586C12.9641 13.8969 12.8361 13.9157 12.7359 13.9121C12.6142 13.9121 12.6286 13.8226 12.6286 13.7474C12.6286 13.2512 12.6271 12.7543 12.6241 12.2568C12.6241 11.7486 12.6241 11.2403 12.6241 10.7357V10.5219H12.0246C9.4835 10.5219 6.9421 10.5219 4.4004 10.5219C4.23219 10.5219 4.15971 10.4789 4.18656 10.3089C4.2134 10.1389 4.12661 10.1299 3.99061 10.1299C3.8546 10.1299 3.78392 10.1487 3.79197 10.3089C3.80271 10.5299 3.79197 10.538 3.56291 10.5326C3.43138 10.5326 3.38396 10.572 3.39112 10.7044C3.39649 10.9567 3.39112 10.9567 3.13433 10.9567C2.80058 10.9567 2.46684 10.9567 2.11609 10.9567L2.09373 10.5415H1.68214C1.68214 10.7205 1.68214 10.8994 1.68214 11.073C1.68751 11.5258 1.70003 11.9776 1.69735 12.4295C1.69735 12.5807 1.73761 12.6496 1.89598 12.629C1.9599 12.6267 2.0239 12.6291 2.08746 12.6362C2.09999 12.8706 2.1152 13.0916 2.12146 13.3135C2.12146 13.403 2.14831 13.4432 2.24315 13.4522C2.5241 13.4772 2.52321 13.4799 2.53842 13.7707C2.54117 13.8025 2.54565 13.8342 2.55184 13.8655C2.74828 13.8914 2.94606 13.9057 3.14417 13.9085C3.32312 13.9022 3.37501 13.964 3.35443 14.1286C3.35214 14.1884 3.35514 14.2483 3.36338 14.3076H3.78302V15.5835H2.95985C2.92137 15.5835 2.882 15.5781 2.84353 15.5772C2.53484 15.5772 2.53037 15.5772 2.50621 15.273C2.49815 15.1835 2.45431 15.1647 2.37647 15.1647C2.15457 15.1647 1.92909 15.1647 1.69019 15.1647V14.7397L1.26966 14.72V14.3165H0.862543L0.824069 13.4924L0.447377 13.4683C0.43843 13.2965 0.426798 13.1265 0.420535 12.9565C0.412482 12.7614 0.399955 12.5655 0.407113 12.3704C0.412482 12.2273 0.356112 12.1789 0.221899 12.1915C0.149424 12.1986 0.0769489 12.1986 0.00447377 12.2022L0 10.5272Z" fill="#48494B"/>
<path d="M29.9009 31.5795H29.475V31.9938C29.3641 31.9938 29.271 31.9991 29.1789 31.9938C29.0706 31.9857 29.0241 32.0278 29.0312 32.1378C29.0366 32.2192 29.0312 32.3016 29.0312 32.4331C28.6733 32.4331 28.3432 32.4411 28.0112 32.4331C27.8475 32.4268 27.7651 32.4644 27.7929 32.6425C27.8135 32.7767 27.7598 32.8304 27.6139 32.8259C27.307 32.8169 26.9992 32.8178 26.6923 32.8259C26.5572 32.8259 26.4892 32.791 26.5134 32.6469C26.5384 32.4814 26.4785 32.4241 26.3031 32.4295C26.0025 32.4394 25.7009 32.4143 25.4003 32.4107C25.3019 32.4107 25.2715 32.3669 25.2777 32.2783C25.2777 32.2398 25.2777 32.1996 25.2777 32.1611C25.2929 32.0278 25.2339 31.9821 25.1032 31.992C25.0218 32 24.9395 31.992 24.8429 31.992V31.5858H24.417C24.417 31.4694 24.4125 31.3755 24.417 31.2824C24.4241 31.176 24.3857 31.1357 24.2747 31.1339C24.0161 31.1339 24.0197 31.1259 24.0108 30.8655C24.0018 30.6051 23.9821 30.3197 23.9768 30.0468C23.9768 29.926 23.9177 29.8848 23.8112 29.8983C23.6394 29.9215 23.5956 29.8481 23.5956 29.6808C23.5956 27.9879 23.5956 26.296 23.5911 24.6031C23.5911 24.4519 23.601 24.3016 23.5983 24.1503C23.5983 24.0412 23.6439 23.992 23.7486 24.0054C23.932 24.0304 23.9696 23.9437 23.9705 23.7754C23.9705 23.4372 23.9982 23.099 24.0152 22.7447H24.4116C24.4116 22.6364 24.4161 22.5443 24.4116 22.4521C24.4071 22.3599 24.4438 22.3089 24.5467 22.3152C24.6496 22.3215 24.7337 22.3152 24.8411 22.3152V21.9081H25.2715V21.654C25.2715 21.2406 25.2715 20.8272 25.2715 20.4139C25.2715 20.1911 25.2715 20.1902 25.054 20.1893C24.3051 20.1893 23.5571 20.1893 22.8082 20.1893C22.5568 20.1893 22.3062 20.1723 22.0548 20.1741C21.9331 20.1741 21.9027 20.1222 21.9054 20.0112C21.9117 19.7428 21.9188 19.7616 21.6602 19.7723C21.5215 19.7777 21.4929 19.724 21.4929 19.5978C21.4929 17.3413 21.4884 15.0847 21.4795 12.8281C21.4795 12.6859 21.5108 12.617 21.6647 12.6393C21.7374 12.6439 21.8103 12.6439 21.883 12.6393L21.9018 12.2072H22.4172L31.4542 12.2116C31.5267 12.2116 31.5983 12.2224 31.6707 12.2268C31.9463 12.2447 31.9392 12.2456 31.9884 12.5141C31.9996 12.5404 32.017 12.5637 32.0392 12.5819C32.0613 12.6001 32.0874 12.6127 32.1154 12.6188C32.3104 12.6337 32.5061 12.6378 32.7015 12.6313C32.8259 12.6268 32.8697 12.668 32.8661 12.7932C32.8572 13.0518 32.8518 13.025 33.0997 13.0303C33.2552 13.0309 33.4105 13.0405 33.5649 13.059C33.5896 13.0669 33.612 13.0807 33.6301 13.0993C33.6482 13.1178 33.6615 13.1406 33.6687 13.1654C33.6783 13.2699 33.6801 13.3748 33.6741 13.4795H34.0902C34.0902 13.5842 34.0964 13.6728 34.0902 13.7596C34.0803 13.8768 34.1277 13.917 34.2432 13.9188C34.4839 13.9188 34.4839 13.9278 34.4964 14.1729C34.4964 14.2463 34.4964 14.3197 34.6064 14.3188C35.1361 14.3188 35.6658 14.3188 36.2215 14.3188C36.2215 14.1926 36.2286 14.0781 36.217 13.9609C36.2086 13.9408 36.1954 13.923 36.1785 13.9091C36.1617 13.8952 36.1417 13.8857 36.1204 13.8813C36.0143 13.8758 35.9079 13.8758 35.8018 13.8813C35.7929 13.7461 35.7857 13.6218 35.7768 13.4759H35.3643V13.0554H34.9429V11.8027H36.1955V12.2009H36.6232C36.6304 12.3459 36.6375 12.4693 36.6447 12.6107C36.8666 12.625 37.0813 12.6429 37.2961 12.651C37.3855 12.651 37.4294 12.676 37.433 12.7744C37.4446 13.0903 37.4714 13.4061 37.475 13.722C37.475 13.9099 37.4473 14.0969 37.4303 14.3009H37.0429C37.0353 14.4202 37.0377 14.5399 37.05 14.6588C37.0563 14.6964 37.1395 14.7483 37.1896 14.7483C37.4365 14.7697 37.4428 14.7644 37.4437 15.0024C37.4437 15.1259 37.4858 15.1679 37.6101 15.1661C38.0575 15.1607 38.5049 15.1661 38.9523 15.1607C39.1044 15.1607 39.1751 15.2001 39.1518 15.3576C39.1285 15.5151 39.2028 15.5562 39.3522 15.5553C39.5571 15.5553 39.762 15.5822 39.9982 15.5992C39.9982 15.856 39.9982 16.1163 39.9982 16.3767C39.9982 16.5091 40.0233 16.6774 39.9535 16.7633C39.8971 16.833 39.7182 16.8125 39.5956 16.816C39.2609 16.8268 38.9263 16.8304 38.5917 16.833C38.2731 16.833 37.9546 16.8393 37.637 16.833C37.509 16.833 37.4714 16.8742 37.4759 16.9968C37.4813 17.1632 37.4607 17.3314 37.4661 17.4987C37.4705 17.6267 37.4321 17.6866 37.2961 17.6714C37.2204 17.6673 37.1445 17.6673 37.0688 17.6714V18.0938H35.3867V19.3545H35.7884V18.9527H36.2188V18.5223C36.4988 18.5223 36.7628 18.5223 37.0241 18.5223C37.1583 18.5223 37.3319 18.4874 37.4133 18.5554C37.4947 18.6234 37.4697 18.7988 37.4741 18.9277C37.484 19.1836 37.4858 19.4404 37.4795 19.6963C37.4795 19.732 37.4222 19.7768 37.382 19.7965C37.339 19.8095 37.2934 19.8114 37.2495 19.8018C37.0992 19.7822 37.0455 19.8484 37.0634 19.9933C37.0675 20.0642 37.0675 20.1353 37.0634 20.2063H36.6465C36.6375 20.3467 36.6295 20.4747 36.6205 20.6125H36.217C36.2098 20.7574 36.2036 20.8881 36.1964 21.0393C35.8081 21.0393 35.4242 21.0393 35.0413 21.0339C35.0109 21.0339 34.9581 20.9543 34.9572 20.9095C34.9482 20.6832 34.9527 20.455 34.9527 20.2143C34.729 20.2045 34.5411 20.1893 34.3532 20.1884C32.6532 20.1884 30.9532 20.1884 29.2576 20.1884C29.0956 20.1884 29.0339 20.2242 29.0384 20.4013C29.0509 20.8917 29.0429 21.3856 29.0429 21.8902H29.4607V22.2982L29.8902 22.3197C29.8964 22.4557 29.9027 22.5881 29.9099 22.7304H30.3188C30.3188 22.9648 30.3295 23.1867 30.3188 23.4068C30.3089 23.5634 30.3653 23.626 30.5156 23.6072C30.6659 23.5884 30.708 23.6493 30.7089 23.7969C30.7151 25.6455 30.7277 27.494 30.7348 29.3444C30.7348 29.6182 30.7107 29.8911 30.708 30.1649C30.708 30.3027 30.6185 30.3054 30.529 30.2928C30.3572 30.2705 30.3036 30.3358 30.317 30.5067C30.3322 30.7116 30.317 30.9174 30.317 31.1062C30.2998 31.1191 30.2812 31.1299 30.2615 31.1384C30.1434 31.1607 29.977 31.1384 29.9188 31.2144C29.8607 31.2905 29.9009 31.4435 29.9009 31.5795ZM32.7963 14.3107C32.5798 14.3107 32.3731 14.3027 32.17 14.3107C32.0394 14.3179 31.9991 14.266 32.0108 14.147C32.0152 14.1085 32.0108 14.0683 32.0108 14.0298C32.017 13.9278 31.9705 13.8929 31.8703 13.8956C31.72 13.8956 31.5687 13.8893 31.4184 13.8893H25.8709C25.0218 13.8893 24.1709 13.8893 23.3236 13.8821C23.1921 13.8821 23.1446 13.9179 23.1518 14.0521C23.1643 14.2579 23.1634 14.4646 23.1634 14.6713C23.1634 15.8953 23.161 17.1182 23.1563 18.3398C23.1563 18.3989 23.1616 18.4579 23.1661 18.5277H23.3352C26.7263 18.5277 30.1178 18.5277 33.5095 18.5277C33.666 18.5277 33.6938 18.4722 33.6884 18.3335C33.6786 17.6294 33.6768 16.9252 33.6723 16.2219C33.6723 15.9848 33.6723 15.9768 33.4379 15.9821C33.3001 15.9821 33.2652 15.9302 33.2697 15.8032C33.2777 15.5867 33.2697 15.3701 33.2697 15.1384C33.1978 15.1347 33.1259 15.1347 33.054 15.1384C32.9091 15.1572 32.8626 15.1008 32.8608 14.9523C32.8608 14.7501 32.8232 14.5478 32.7963 14.3063V14.3107ZM27.3625 25.6857C27.3562 25.6339 27.3509 25.6061 27.35 25.5793C27.3375 25.2947 27.3383 25.2947 27.0529 25.2643C27.0224 25.2581 26.9925 25.2494 26.9634 25.2384C26.9634 25.1543 26.9697 25.071 26.9634 24.9887C26.9509 24.8661 27.0082 24.833 27.1191 24.8393C27.1975 24.8392 27.2758 24.8344 27.3536 24.825C27.3581 24.7463 27.3581 24.6674 27.3536 24.5888C27.3366 24.4465 27.3983 24.4098 27.5325 24.4098C27.8618 24.4161 28.1919 24.4098 28.5167 24.4054H29.0357C29.0357 24.1468 29.0357 23.9186 29.0357 23.6895C29.0357 23.6001 28.9901 23.5759 28.9104 23.5786C28.821 23.5786 28.7252 23.5786 28.6161 23.5786C28.6161 23.4641 28.6161 23.3755 28.6161 23.2869C28.6161 23.1983 28.5874 23.1679 28.4997 23.1679C27.6014 23.1715 26.7028 23.1733 25.8038 23.1733C25.7144 23.1733 25.6839 23.2118 25.6893 23.295C25.6893 23.3451 25.6848 23.3961 25.6893 23.4453C25.7018 23.5589 25.6455 23.5956 25.5426 23.5884C25.5032 23.5884 25.4638 23.5884 25.4254 23.5884C25.3225 23.5822 25.2715 23.618 25.2741 23.7316C25.2741 23.8819 25.2616 24.0331 25.2616 24.1835C25.2616 26.0099 25.2616 27.8364 25.2616 29.6629C25.2616 29.9081 25.2616 29.9152 25.5023 29.9126C25.6312 29.9126 25.6669 29.9618 25.6625 30.0817C25.6553 30.2919 25.6625 30.5022 25.6625 30.7187C25.7412 30.725 25.7842 30.7304 25.8271 30.7313C26.1054 30.7366 26.1107 30.7357 26.1215 31.0086C26.126 31.1223 26.1823 31.1312 26.2709 31.1321C26.7281 31.1321 27.1862 31.142 27.6435 31.1464C27.8224 31.1464 27.9969 31.1464 28.1884 31.1464C28.1884 31.0391 28.1946 30.9675 28.1884 30.8959C28.1767 30.7742 28.2179 30.717 28.3467 30.7313C28.4361 30.7358 28.5257 30.7358 28.6152 30.7313V30.3063H27.3625C27.3625 30.1953 27.3625 30.1014 27.3625 30.0092C27.3625 29.917 27.3312 29.8732 27.2381 29.8777C27.1934 29.8777 27.1487 29.8777 27.1039 29.8777C26.9983 29.8866 26.95 29.8481 26.9572 29.7354C26.967 29.5627 26.9688 29.3891 26.9661 29.2164C26.9661 29.1136 27.0073 29.0822 27.1057 29.0795C27.3858 29.0706 27.3911 29.067 27.3956 28.7959C27.3956 28.6751 27.4466 28.6438 27.5576 28.6456C27.7974 28.6456 28.038 28.6456 28.2778 28.6411C28.5176 28.6366 28.778 28.6411 29.0366 28.6411V28.1937H28.8424C28.4121 28.1937 27.9826 28.1821 27.5522 28.1848C27.4314 28.1848 27.3849 28.1517 27.3849 28.0246C27.3849 27.7678 27.3777 27.7723 27.1164 27.7562C27.0637 27.7562 26.9724 27.7052 26.9706 27.6748C26.9581 27.4422 26.9634 27.2095 26.9634 26.984C26.9781 26.976 26.9934 26.9691 27.0091 26.9635C27.0368 26.9635 27.0645 26.9581 27.0932 26.9572C27.3616 26.9491 27.3616 26.9491 27.3661 26.6888C27.3665 26.6831 27.3665 26.6774 27.3661 26.6718C27.3536 26.5644 27.3965 26.5241 27.5083 26.5268C27.7481 26.5322 27.9888 26.5268 28.2242 26.5223H29.0178V25.684L27.3625 25.6857ZM27.3562 20.2063H26.942C26.942 20.6107 26.942 20.9999 26.942 21.3891C26.948 21.4104 26.9594 21.4299 26.9751 21.4455C26.9907 21.4612 27.0101 21.4726 27.0314 21.4786C27.1389 21.486 27.2468 21.4875 27.3545 21.4831L27.3562 20.2063ZM35.3723 16.4286C35.7875 16.4769 35.7991 16.4671 35.7812 16.0806C35.7782 16.0537 35.7731 16.027 35.766 16.0009H35.3723V16.4286Z" fill="#48494B"/>
<path d="M3.80452 24.8554C3.55667 24.8366 3.3303 24.8151 3.10392 24.8035C3.0055 24.799 2.96703 24.7641 2.96434 24.6639C2.95539 24.4107 2.95092 24.4116 2.69592 24.4071C2.65207 24.4071 2.60644 24.4017 2.53128 24.3972C2.53128 24.3015 2.52681 24.2093 2.53128 24.1181C2.53575 24.0268 2.49907 23.9722 2.39707 23.9785C2.34159 23.9785 2.28612 23.9785 2.22975 23.9785C2.14027 23.9785 2.11612 23.94 2.11522 23.8559C2.10717 23.3978 2.08927 22.9406 2.08569 22.4834C2.08569 22.2955 2.11075 22.1076 2.12596 21.9062C2.50623 21.9062 2.88381 21.9062 3.2614 21.9062C3.28824 21.9062 3.33388 21.9698 3.33656 22.0065C3.35893 22.3286 3.37861 22.6507 3.38846 22.9728C3.38846 23.0766 3.41798 23.1204 3.53072 23.1249C3.7108 23.1319 3.89018 23.1513 4.06757 23.1831C4.09371 23.1951 4.11636 23.2135 4.13342 23.2367C4.15047 23.2599 4.16138 23.287 4.1651 23.3155C4.1651 23.609 4.17316 23.5642 4.44069 23.5705C4.58564 23.5705 4.73059 23.592 4.87464 23.5875C5.0187 23.583 5.06523 23.6322 5.04644 23.762C5.02228 23.9347 5.09923 23.9767 5.26476 23.9776C6.24899 23.9839 7.24127 24.0036 8.22997 24.0125C8.3615 24.0125 8.41877 24.0563 8.40177 24.187C8.38029 24.3471 8.44471 24.4062 8.60756 24.3946C8.7807 24.3847 8.95427 24.3847 9.12741 24.3946C9.23568 24.3946 9.27505 24.3552 9.27952 24.2487C9.29115 24.017 9.29563 24.017 9.52737 24.017C13.7029 24.017 17.8817 24.017 22.0638 24.017C22.2293 24.017 22.3062 24.0555 22.283 24.2308C22.266 24.3561 22.3179 24.4098 22.4539 24.4053C22.6432 24.4034 22.8325 24.4144 23.0203 24.4384C23.0453 24.4458 23.068 24.4594 23.0865 24.4778C23.1049 24.4962 23.1184 24.519 23.1258 24.544C23.141 24.75 23.1446 24.9567 23.1366 25.1632C23.1289 25.1907 23.1142 25.2158 23.094 25.236C23.0738 25.2562 23.0487 25.2709 23.0212 25.2786C22.7679 25.3144 22.7679 25.309 22.7483 25.5586C22.7483 25.5971 22.7339 25.6338 22.7241 25.6839H22.1515C17.0555 25.6839 11.9605 25.6824 6.86637 25.6794C6.45299 25.6794 6.03961 25.6678 5.62624 25.6714C5.49829 25.6714 5.4625 25.6266 5.46339 25.5058C5.46339 25.2831 5.46339 25.2875 5.23165 25.2804C4.7968 25.2669 4.36195 25.2455 3.92799 25.2329C3.82152 25.2329 3.7911 25.1828 3.79646 25.088C3.8072 25.0102 3.80452 24.9332 3.80452 24.8554Z" fill="#48494B"/>
<path d="M13.0375 14.3168L13.0589 14.715L13.4634 14.7391V17.6641C13.1323 17.6775 12.8111 17.6936 12.4908 17.7035C12.3172 17.7088 12.1436 17.7097 11.9709 17.7035C11.8537 17.699 11.8036 17.7285 11.8027 17.8609C11.8027 18.1777 11.7768 18.4953 11.7696 18.8121C11.7696 18.9158 11.7293 18.9525 11.63 18.9454C11.5531 18.94 11.4752 18.9454 11.3732 18.9454V19.8026C11.2898 19.8127 11.2058 19.8178 11.1218 19.8178C11.0037 19.8115 10.9706 19.8625 10.9688 19.9761C10.9688 20.1864 10.9429 20.3967 10.9276 20.6266H10.5268V21.0552H10.1107V21.4713H9.67767V21.8936H8.85808L8.83302 22.2801C8.65407 22.29 8.47512 22.3025 8.30154 22.3088C8.11185 22.3159 7.92216 22.3258 7.73248 22.3186C7.59826 22.3132 7.55889 22.3624 7.56068 22.4913C7.56068 22.7105 7.56068 22.7114 7.34147 22.7114C6.78851 22.7114 6.23645 22.7114 5.68349 22.7114C5.55643 22.7114 5.50454 22.6792 5.50454 22.5432C5.50454 22.3329 5.46248 22.1235 5.46069 21.9169C5.46069 21.6672 5.48306 21.4167 5.49022 21.1671C5.49022 21.0588 5.56001 21.0606 5.63785 21.0606C6.19081 21.057 6.74347 21.0519 7.29584 21.0454C7.47479 21.0454 7.65374 21.0275 7.83269 21.0257C7.94006 21.0257 7.97764 20.9809 7.98032 20.8745C7.98748 20.6266 7.99195 20.6284 8.24159 20.6257C8.38565 20.6257 8.5306 20.606 8.67555 20.6114C8.79276 20.6114 8.8375 20.572 8.83123 20.4566C8.83068 20.3745 8.83427 20.2923 8.84197 20.2106H9.24729V19.7864L8.84913 19.7659C8.84913 19.6764 8.84466 19.5923 8.84913 19.5109C8.85539 19.4115 8.81781 19.3731 8.71492 19.374C8.52523 19.374 8.33554 19.357 8.14585 19.3623C8.01701 19.3668 7.98122 19.3158 7.9848 19.1959C7.99285 18.9185 7.9848 18.9588 7.73874 18.9525C7.55979 18.9481 7.38084 18.9346 7.18578 18.9239C7.17774 18.838 7.17415 18.7516 7.17504 18.6653C7.18131 18.5508 7.13925 18.5007 7.02115 18.5096C6.93793 18.5159 6.85472 18.5096 6.75988 18.5096C6.74377 18.294 6.71961 18.0909 6.71603 17.8878C6.71603 17.7571 6.68293 17.6936 6.53708 17.6972C6.32055 17.7026 6.32055 17.6972 6.32055 17.4735C6.32055 17.1335 6.32055 16.7935 6.32055 16.4266H7.58931C7.58931 16.4991 7.59468 16.5805 7.58931 16.6602C7.58037 16.7711 7.61258 16.8239 7.73605 16.8203C8.01522 16.8114 7.98659 16.8042 7.99285 17.0888C7.99622 17.2441 8.00817 17.3991 8.02864 17.5531C8.03585 17.576 8.04862 17.5967 8.0658 17.6134C8.08297 17.6301 8.10402 17.6423 8.12706 17.6489C8.31415 17.6718 8.5023 17.685 8.69076 17.6882C8.80708 17.6882 8.8545 17.7276 8.84376 17.8439C8.8375 17.92 8.84376 17.9978 8.84376 18.0954H10.1322C10.1322 17.7375 10.1322 17.3796 10.1322 17.027C10.1322 16.8964 10.1743 16.8373 10.3049 16.8543C10.4785 16.8767 10.5527 16.8078 10.525 16.6306C10.5198 16.5571 10.5198 16.4832 10.525 16.4096H11.0762C11.2551 16.4096 11.4341 16.3998 11.613 16.4096C11.7678 16.4213 11.7991 16.3586 11.7991 16.2173C11.7991 15.7824 11.8152 15.3476 11.8224 14.9118C11.8224 14.8268 11.8287 14.7633 11.9423 14.7561C12.2179 14.7382 12.2179 14.7329 12.2232 14.46C12.2232 14.4215 12.2295 14.383 12.2349 14.3105H13.0491L13.0375 14.3168Z" fill="#48494B"/>
<path d="M38.3338 0.0078125H39.9847V13.4739C39.8952 13.4739 39.8057 13.4801 39.7207 13.4739C39.599 13.4622 39.5418 13.5025 39.5561 13.6313C39.5632 13.7029 39.5561 13.7754 39.5561 13.8685C39.3047 13.8685 39.0666 13.8729 38.8295 13.8613C38.8027 13.8613 38.7606 13.7718 38.7571 13.7235C38.7383 13.4703 38.7419 13.4631 38.4886 13.4649C38.3598 13.4649 38.3303 13.4166 38.3303 13.2967C38.3303 8.91658 38.3288 4.53646 38.3258 0.156342C38.324 0.111604 38.3294 0.0677611 38.3338 0.0078125Z" fill="#48494B"/>
<path d="M23.5767 15.9883V14.3223H26.1017V15.9883H23.5767Z" fill="#48494B"/>
</svg>
